<svg id="Layer_1" data-name="Layer 1" xmlns="http://www.w3.org/2000/svg" viewBox="0 0 227.85 34.13"><defs><style>.cls-1{fill:#fbf5af;}.cls-2{fill:#f7ee64;}.cls-3{fill:#a4a336;}.cls-4{fill:#535222;}.cls-5{fill:#80d0dd;}.cls-6{fill:#00a5a3;}.cls-7{fill:#b6e2ea;}.cls-8{fill:#005353;}.cls-9{fill:#b7dba7;}.cls-10{fill:#84c551;}.cls-11{fill:#15a34a;}.cls-12{fill:#205128;}.cls-13{fill:#69cad7;}.cls-14{fill:#63bc46;}.cls-15{fill:#3953a4;}.cls-16{fill:#f4eb2a;}.cls-17{fill:#fff;}.cls-18{fill:#ed1c24;}.cls-19{fill:#b74f9d;}.cls-20{fill:#555;}.cls-21{fill:#ababab;}.cls-22{fill:#f2ec60;}.cls-23{fill:#a1a538;}.cls-24{fill:#525323;}.cls-25{fill:#542e91;}.cls-26{fill:#a31d55;}.cls-27{fill:#17154c;}.cls-28{fill:#eeaccd;}.cls-29{fill:#dd62a5;}.cls-30{fill:#a22171;}.cls-31{fill:#500937;}.cls-32{fill:#e23594;}.cls-33{fill:#2b318a;}.cls-34{fill:#acaad4;}.cls-35{fill:#5760ac;}.cls-36{fill:#f1575a;}.cls-37{fill:#f7aaac;}.cls-38{fill:#ed1557;}.cls-39{fill:#a11d21;}.cls-40{fill:#4c1212;}.cls-41{fill:#04a45b;}.cls-42{fill:#0954a3;}.cls-43{fill:#84ccab;}.cls-44{fill:#ada8d3;}.cls-45{fill:#5960ab;}.cls-46{fill:#2a3491;}.cls-47{fill:#1b1751;}</style></defs><title>glitch</title><path class="cls-1" d="M69.42,36.19v0Z" transform="translate(-69.42 -8.91)"/><path class="cls-1" d="M69.42,36.19Z" transform="translate(-69.42 -8.91)"/><polygon class="cls-2" points="2.27 27.19 2.27 27.19 2.27 25.01 0 25.01 0 27.19 2.27 27.19"/><path class="cls-2" d="M71.69,36.19v0Z" transform="translate(-69.42 -8.91)"/><rect class="cls-2" y="27.19" width="2.27" height="0.09"/><path class="cls-2" d="M71.69,36.19Z" transform="translate(-69.42 -8.91)"/><path class="cls-2" d="M69.42,36.19Z" transform="translate(-69.42 -8.91)"/><path class="cls-3" d="M76.23,33.92h0Z" transform="translate(-69.42 -8.91)"/><polygon class="cls-3" points="6.81 27.19 6.81 27.19 6.81 25.01 4.54 25.01 4.54 27.19 6.81 27.19"/><path class="cls-3" d="M76.23,36.19v0Z" transform="translate(-69.42 -8.91)"/><rect class="cls-3" x="4.54" y="27.19" width="2.27" height="0.09"/><polygon class="cls-3" points="4.54 27.28 4.54 27.28 6.81 27.28 4.54 27.28"/><path class="cls-4" d="M77,33.92h0Z" transform="translate(-69.42 -8.91)"/><rect class="cls-4" x="7.56" y="25.01" width="1.51" height="2.18"/><path class="cls-4" d="M77,36.1v0Z" transform="translate(-69.42 -8.91)"/><rect class="cls-4" x="7.56" y="27.19" width="1.51" height="0.09"/><path class="cls-4" d="M77,36.19v0Z" transform="translate(-69.42 -8.91)"/><polygon class="cls-4" points="6.81 25.01 6.81 25.01 7.56 25.01 6.81 25.01"/><rect class="cls-4" x="6.81" y="25.01" width="0.76" height="2.18"/><rect class="cls-4" x="6.81" y="27.19" width="0.76" height="0.09"/><path class="cls-5" d="M90,27.11h-.11v4.54h2.26V27.11Z" transform="translate(-69.42 -8.91)"/><path class="cls-6" d="M87.58,31.65V27.12H85.31v4.53Z" transform="translate(-69.42 -8.91)"/><rect class="cls-7" x="22.69" y="18.21" width="2.27" height="4.54"/><path class="cls-8" d="M84.4,31.65h.91V27.11H83v4.54Z" transform="translate(-69.42 -8.91)"/><path class="cls-9" d="M92.11,27.11h2.27V24.85H92.11Z" transform="translate(-69.42 -8.91)"/><path class="cls-10" d="M71.69,29.38V27.11H69.42v2.27Z" transform="translate(-69.42 -8.91)"/><rect class="cls-10" x="20.42" y="15.94" width="2.27" height="2.27"/><path class="cls-11" d="M74,27.11v2.27H76.3V27.11Z" transform="translate(-69.42 -8.91)"/><path class="cls-11" d="M85.31,24.85v2.26h2.27V24.85Z" transform="translate(-69.42 -8.91)"/><path class="cls-12" d="M76.3,29.38h2.2V27.11H76.3Z" transform="translate(-69.42 -8.91)"/><rect class="cls-12" x="13.62" y="15.94" width="2.27" height="2.27"/><path class="cls-13" d="M94.38,29.38h0v2.27H92.11V29.38h0v2.27H89.85v4.54h2.26v2.27h2.27V29.38Z" transform="translate(-69.42 -8.91)"/><path class="cls-13" d="M89.85,29.38V27.11H87.58v4.54h2.27V29.38Z" transform="translate(-69.42 -8.91)"/><path class="cls-14" d="M91.86,10.09l2.52,3.43V10.09Z" transform="translate(-69.42 -8.91)"/><rect class="cls-14" x="22.43" y="0.05" width="2.53" height="0.57"/><path class="cls-14" d="M71.69,20.31H74V19.19H71.69v1.12Z" transform="translate(-69.42 -8.91)"/><path class="cls-14" d="M74,27.11H71.69v2.27H74V27.11Z" transform="translate(-69.42 -8.91)"/><path class="cls-14" d="M89.85,27V24.84H87.58v2.27h2.27Z" transform="translate(-69.42 -8.91)"/><rect class="cls-14" x="11.35" y="0.05" width="2.27" height="2.27"/><path class="cls-14" d="M80.77,19.19v1.12H83V15.77H80.77v3.42Z" transform="translate(-69.42 -8.91)"/><path class="cls-15" d="M91.86,10.09H88.22l2.31,3.37h1.59v2.31c0,.4-.06-.09.17.22.67.91,1.39,1.79,2.09,2.69V13.52l-1-1.41c-.49-.67-1-1.34-1.49-2Z" transform="translate(-69.42 -8.91)"/><path class="cls-15" d="M71.69,22.58h0Z" transform="translate(-69.42 -8.91)"/><path class="cls-15" d="M83,22.61v2.24h1.63Z" transform="translate(-69.42 -8.91)"/><path class="cls-15" d="M92.11,36.19H89.85v4.54h2.26V43h2.27V38.46H92.11Z" transform="translate(-69.42 -8.91)"/><path class="cls-15" d="M89.85,36.19h0V31.65H86.28L87,32.71c.17.24.55.81.55.81v2.67Z" transform="translate(-69.42 -8.91)"/><path class="cls-15" d="M85.31,18h2.27V15.77H85.31V18Z" transform="translate(-69.42 -8.91)"/><path class="cls-13" d="M83,22.58a4.8,4.8,0,0,0,.78,1.1l.85,1.16h2.91L83,19.19v3.39Z" transform="translate(-69.42 -8.91)"/><line class="cls-16" x1="24.96" y1="20.47" x2="24.96" y2="20.47"/><path class="cls-16" d="M71.69,24.85H76.3V22.58H71.69v2.27Z" transform="translate(-69.42 -8.91)"/><path class="cls-16" d="M88.31,24.85h3.8L88,19.19h4.07V18h-6.8v1.15H83l4.54,5.66Z" transform="translate(-69.42 -8.91)"/><path class="cls-16" d="M71.69,36.19H74V33.92H71.69Z" transform="translate(-69.42 -8.91)"/><path class="cls-17" d="M92.11,18v0Z" transform="translate(-69.42 -8.91)"/><path class="cls-17" d="M92.11,19.19v0Z" transform="translate(-69.42 -8.91)"/><path class="cls-17" d="M87.58,9h0v.57h4.28v.56h2.52V9.53H91.86V9Z" transform="translate(-69.42 -8.91)"/><path class="cls-17" d="M74,15.77V16.9h2.27V15.77Z" transform="translate(-69.42 -8.91)"/><path class="cls-17" d="M71.69,15.77H69.42V16.9h2.27Z" transform="translate(-69.42 -8.91)"/><path class="cls-17" d="M74,24.85h0v2.26h0V26H76.3V24.84Z" transform="translate(-69.42 -8.91)"/><path class="cls-17" d="M76.3,27.11v0Z" transform="translate(-69.42 -8.91)"/><path class="cls-17" d="M76.23,18H78.5v1.13H77.08l.85,1.14h.57V19.17h2.27V18H78.5V16.9H76.23V18Z" transform="translate(-69.42 -8.91)"/><rect class="cls-17" x="4.54" y="7.99" height="1.13"/><path class="cls-17" d="M71.69,19.19H74V18H69.42v1.15Z" transform="translate(-69.42 -8.91)"/><path class="cls-17" d="M71.69,22.58H74l-.83-.83a8.62,8.62,0,0,0-1.35-1.35c-.22-.14-.39-.09-.68-.09H69.42c.76.75,1.51,1.51,2.27,2.27Z" transform="translate(-69.42 -8.91)"/><path class="cls-17" d="M74,20.31c.69.68,2.34,2.27,2.34,2.27h2.2l-1-1c-.37-.37-1.24-1.31-1.24-1.31H74V19.19h0v1.12Z" transform="translate(-69.42 -8.91)"/><path class="cls-17" d="M83,22.61v-2.3H78.5l2.27,2.27H79.63l1.7,2.26H83V22.61Z" transform="translate(-69.42 -8.91)"/><path class="cls-17" d="M71.69,26v1.13h.57V24.85h-.57V26Z" transform="translate(-69.42 -8.91)"/><path class="cls-17" d="M72.82,26v1.13h.57V24.85h-.57V26Z" transform="translate(-69.42 -8.91)"/><path class="cls-17" d="M74.53,40.73H74V43h.57Z" transform="translate(-69.42 -8.91)"/><path class="cls-17" d="M75.66,40.73h-.57V43h.57Z" transform="translate(-69.42 -8.91)"/><path class="cls-17" d="M72.26,40.73h-.57V43h.57Z" transform="translate(-69.42 -8.91)"/><path class="cls-17" d="M73.39,40.73h-.57V43h.57Z" transform="translate(-69.42 -8.91)"/><path class="cls-17" d="M85.87,9.53V9h-.56v2.27h.56Z" transform="translate(-69.42 -8.91)"/><path class="cls-17" d="M87,9.53V9h-.57v2.27H87Z" transform="translate(-69.42 -8.91)"/><path class="cls-17" d="M83.6,9.53V9H83v2.27h.56Z" transform="translate(-69.42 -8.91)"/><path class="cls-17" d="M84.74,9.53V9h-.57v2.27h.57V9.53Z" transform="translate(-69.42 -8.91)"/><path class="cls-17" d="M83,12.36V11.23H81.9v4.54H83V12.36Z" transform="translate(-69.42 -8.91)"/><path class="cls-18" d="M92.11,18h0v1.15h-.77l3,4.16V18.68l-.9-1.16-1.37-1.75Z" transform="translate(-69.42 -8.91)"/><path class="cls-18" d="M87.58,15.77h4.54c0-.77,0-1.54,0-2.31H90.53l-2.31-3.37h-.64v1.14H85.5l1.63,2.23h.45v2.31Z" transform="translate(-69.42 -8.91)"/><path class="cls-18" d="M74,18V15.77H71.69V18Z" transform="translate(-69.42 -8.91)"/><rect y="10.28" width="2.27" height="1.11"/><path d="M71.69,16.9V15.77h2.72l-4.16-5.68h-.83v5.68h2.27V16.9H69.42V18h2.27Z" transform="translate(-69.42 -8.91)"/><path d="M76.23,16.9H78.5V15.77H76.23Z" transform="translate(-69.42 -8.91)"/><path d="M85.31,19.19V15.77H83v3.42Z" transform="translate(-69.42 -8.91)"/><path d="M69.42,38.46V43h2.27V40.73h.57V43h.57V40.73h.56V43H74V40.73h.57V43h.57V40.73h.56V43H83V24.84h-1.7l-1.7-2.26h1.13l-1.53-1.53-.74-.74h-.57l-.85-1.14H78.5V18H76.23V16.9H74V18h0v1.15h0v1.12H76.3s.84.9,1.2,1.27l1,1H76.3L74,20.31H71.69c.76.75,1.51,1.51,2.27,2.27H76.3v2.26h0V26H74v1.13H76.3v0h2.2v2.27H69.42v4.54H78.5v2.27H69.42" transform="translate(-69.42 -8.91)"/><path d="M78.5,20.31h2.27V19.17H78.5v1.14Z" transform="translate(-69.42 -8.91)"/><line y1="15.94" y2="15.94"/><path d="M69.42,24.85" transform="translate(-69.42 -8.91)"/><path d="M81.9,15.77V11.23H80.77v4.54H81.9Z" transform="translate(-69.42 -8.91)"/><path d="M72.82,26V24.84h-.56v2.27h.56Z" transform="translate(-69.42 -8.91)"/><path d="M71.69,27.11V24.85h-.57v2.26Z" transform="translate(-69.42 -8.91)"/><path d="M73.39,26v1.13H74V24.85h-.57V26Z" transform="translate(-69.42 -8.91)"/><path d="M70.56,26V24.84H70v2.27h.57Z" transform="translate(-69.42 -8.91)"/><path d="M83.6,9.53v1.7h.57V9h.57v2.27h.57V9h.56v2.27h.57V9H87v2.27h.57V10.09h4.28V9.53H87.58V9h-4v.57Z" transform="translate(-69.42 -8.91)"/><path class="cls-19" d="M87.58,14.06v-.6h-.45L85.5,11.23H83v4.54h4.54Z" transform="translate(-69.42 -8.91)"/><path class="cls-19" d="M90.49,18h1.62V15.77H87.58V18Z" transform="translate(-69.42 -8.91)"/><path class="cls-19" d="M94.38,24.66V23.34l-.51-.7-1.05-1.42-1.48-2H88l4.07,5.65h2.27" transform="translate(-69.42 -8.91)"/><polygon class="cls-14" points="24.96 4.71 24.96 0.04 22.43 0.04 22.43 1.19 24.96 4.71"/><path class="cls-20" d="M201.69,40.73h-2.26V43h2.26Z" transform="translate(-69.42 -8.91)"/><path class="cls-9" d="M188.08,32.15v-.5h-2.27v2.27h2.27Z" transform="translate(-69.42 -8.91)"/><path class="cls-9" d="M188.08,15.77V13.5h-2.27v3.76h2.27V15.77Z" transform="translate(-69.42 -8.91)"/><path class="cls-10" d="M190.35,32.34v-.69h-2.27v2.27h2.27Z" transform="translate(-69.42 -8.91)"/><path class="cls-10" d="M190.35,15.77c0-.76,0-1.52.07-2.27h-2.34v3.76h2.27Z" transform="translate(-69.42 -8.91)"/><path class="cls-11" d="M192.62,31.66v2.26h2.27V31.65h-2.27Z" transform="translate(-69.42 -8.91)"/><path class="cls-11" d="M192.62,15.77v1.5h2.27V13.5h-2.27v2.27Z" transform="translate(-69.42 -8.91)"/><path class="cls-12" d="M195.64,33.92h1.51V31.65h-2.26v2.27Z" transform="translate(-69.42 -8.91)"/><rect class="cls-12" x="125.46" y="4.59" width="2.27" height="3.76"/><path class="cls-13" d="M197.15,33.92Z" transform="translate(-69.42 -8.91)"/><path class="cls-13" d="M197.15,31.65v0Z" transform="translate(-69.42 -8.91)"/><path class="cls-14" d="M188.08,33.92h-2.27c.87,5,4.68,9.08,11.34,9.08V40.73C191.35,40.73,188.69,37.37,188.08,33.92Z" transform="translate(-69.42 -8.91)"/><path class="cls-14" d="M186.56,29.4h1.52v0h0V23.71h0v1.13h-2.27v4.54h.75Z" transform="translate(-69.42 -8.91)"/><path class="cls-14" d="M188.08,21.45h0V18h-2.27v3.41Z" transform="translate(-69.42 -8.91)"/><path class="cls-14" d="M190.35,33.92h2.27V31.65h-2.27Z" transform="translate(-69.42 -8.91)"/><path class="cls-14" d="M190.35,15.77v1.5h2.27V13.5h-2.2Z" transform="translate(-69.42 -8.91)"/><path class="cls-15" d="M190.35,33.92h-2.27c.61,3.45,3.27,6.81,9.07,6.81V38.46C193.41,38.46,191,36.45,190.35,33.92Z" transform="translate(-69.42 -8.91)"/><path class="cls-15" d="M190.35,29.38Z" transform="translate(-69.42 -8.91)"/><path class="cls-15" d="M190.35,24.85h2.27V23.71h-2.27Z" transform="translate(-69.42 -8.91)"/><polygon class="cls-15" points="122.06 18.2 120.93 18.2 120.93 20.47 123.19 20.47 123.19 18.2 122.06 18.2"/><path class="cls-15" d="M190.35,21.45h2.27V18h-2.27Z" transform="translate(-69.42 -8.91)"/><path class="cls-15" d="M185.81,22.58V18h-2.27v4.54Z" transform="translate(-69.42 -8.91)"/><rect class="cls-15" x="116.39" y="13.67" width="2.27" height="2.27"/><path class="cls-15" d="M188.83,13.5h.76V12.4h-.3V10.18h-1.21v2.23h.75Z" transform="translate(-69.42 -8.91)"/><polygon class="cls-16" points="126.6 15.95 127.73 15.95 127.73 13.67 125.47 13.67 125.47 15.95 126.6 15.95"/><rect class="cls-17" x="138.13" y="15.93" width="0.95" height="4.59"/><polygon class="cls-17" points="135.3 20.52 135.3 15.93 134.54 15.93 134.54 20.47 134.53 20.47 134.53 20.52 135.3 20.52"/><rect class="cls-17" x="127.73" y="20.51" width="0.95" height="2.23"/><path class="cls-17" d="M200.94,31.65h1.89V29.42h-1.89Z" transform="translate(-69.42 -8.91)"/><path class="cls-17" d="M206.61,31.65V24.84h-.94v4.58h-.95v2.23Z" transform="translate(-69.42 -8.91)"/><path class="cls-17" d="M200,29.85v-.47h-.94v2.23H200Z" transform="translate(-69.42 -8.91)"/><path class="cls-17" d="M196,25.76V27l1.13,0V24.85H196Z" transform="translate(-69.42 -8.91)"/><path class="cls-17" d="M193.75,24.85V27h.36v2.36h0v1.5h.73V27h0V24.85Z" transform="translate(-69.42 -8.91)"/><path class="cls-17" d="M190.35,21.45v2.26h2.27V21.45Z" transform="translate(-69.42 -8.91)"/><path class="cls-17" d="M185.81,21.45h0v1.13h2.27V21.45Z" transform="translate(-69.42 -8.91)"/><rect class="cls-17" x="114.12" y="13.67" width="2.27" height="1.13"/><path class="cls-17" d="M191.48,27.11h1.14v2.27h.75V27h-.75V24.85h-1.14Z" transform="translate(-69.42 -8.91)"/><rect class="cls-17" x="116.39" y="1.27" width="1.12" height="3.32"/><rect class="cls-17" x="120.99" y="1.27" width="1.08" height="2.23"/><path class="cls-17" d="M188.08,10.18h2.34V9h-2.34Z" transform="translate(-69.42 -8.91)"/><path class="cls-17" d="M185.81,9h-2.27v1.22h2.27Z" transform="translate(-69.42 -8.91)"/><rect class="cls-17" x="130.91" y="0.05" width="0.91" height="2.27"/><rect class="cls-17" x="132.73" y="0.05" width="0.91" height="2.27"/><path class="cls-17" d="M185.81,18h3v-.78h-3V13.5h-2.27V18Z" transform="translate(-69.42 -8.91)"/><path class="cls-17" d="M188.08,30.14v.74h1.51v-1.5h-1.51v.76Z" transform="translate(-69.42 -8.91)"/><path class="cls-17" d="M186.56,30.14v.74h.76V29.4h-.76v.74Z" transform="translate(-69.42 -8.91)"/><path class="cls-17" d="M174.46,31.65h3v-.77h-3" transform="translate(-69.42 -8.91)"/><path class="cls-17" d="M191.1,30.13v.75h-1.51v.77h3.78v-.77h-.75v-1.5H191.1v.75Z" transform="translate(-69.42 -8.91)"/><rect class="cls-17" x="109.58" y="21.98" width="1.51" height="0.76"/><path class="cls-17" d="M194.89,17.26h-1.52V18h3.79v-.78Z" transform="translate(-69.42 -8.91)"/><path class="cls-17" d="M190.35,17.27h0V18h1.51v-.77Z" transform="translate(-69.42 -8.91)"/><path class="cls-17" d="M199.68,36.19h-.51v4.54h.51Z" transform="translate(-69.42 -8.91)"/><path class="cls-17" d="M197.15,36.19v4.54h.51V36.19Z" transform="translate(-69.42 -8.91)"/><path class="cls-17" d="M198.67,37v-.76h-.51v4.54h.51Z" transform="translate(-69.42 -8.91)"/><path class="cls-18" d="M192.62,33.92h-2.27c.64,2.53,3.06,4.54,6.81,4.54V36.19C195.44,36.21,193.34,35.67,192.62,33.92Z" transform="translate(-69.42 -8.91)"/><path class="cls-18" d="M190.35,29.38h0V23.71h-2.27v5.67Z" transform="translate(-69.42 -8.91)"/><path class="cls-18" d="M190.35,21.45h0V18h-2.27v3.41Z" transform="translate(-69.42 -8.91)"/><polygon class="cls-18" points="121 4.59 121 4.59 121 3.5 120.17 3.5 120.17 4.59 121 4.59"/><path d="M191.48,24.85h-1.13v2.26h1.13Z" transform="translate(-69.42 -8.91)"/><path d="M190.35,21.45h-2.27v2.26h2.27Z" transform="translate(-69.42 -8.91)"/><path d="M183.54,21.45h-2.27v2.26h2.27V21.45Z" transform="translate(-69.42 -8.91)"/><path d="M185.81,13.5V10.18h-1V13.5Z" transform="translate(-69.42 -8.91)"/><path d="M186.93,10.18V13.5h1.15V9h-2.27v1.22Z" transform="translate(-69.42 -8.91)"/><rect x="120.17" y="20.47" width="1.51" height="1.49"/><path d="M188.08,31.65h1.51v-.77h-1.51V29.4h-.76v1.48h-.76V29.4h-.75v2.25Z" transform="translate(-69.42 -8.91)"/><rect x="111.09" y="21.98" width="1.51" height="0.76"/><rect x="108.07" y="21.98" width="1.51" height="0.76"/><rect x="119.41" y="8.36" width="1.51" height="0.76"/><path d="M190.42,10.18h1.07V12.4h-1.07ZM198.16,39V36.19h.51v4.54h-.51Zm.89-9.55v0h1.89v0h1.89v0H204V24.84h.76v4.58h.94V24.84h1v6.81h-1.89V29.42h-1.89v2.23h-1.89V29.42H200v2.19h-.94V29.42Zm8.51-4.58h.94v4.58h-.94ZM190.42,10.18h-1.13V12.4h1.13v1.1h6.73V18h-3.78v-.77h-1.51V18h.76v4.54h0v1.13h2.27V22.58h2.26V27L196,27V24.85h-1.13V27h0v3.86h-.73v-1.5h0V27h-.36V24.85h-1.14V27h.75v2.36h-.75v1.5h.76v.77h3.78v0h0V29.42h.95v2.23h-.95v4.54h.51v4.54h-.51V43h2.28V40.73h-.26V36.19h.5v4.54h6.56V36.19h2.27V9h-5.45v2.27h-.9V9h-.91v2.27h-.91V9h-9.92c0,.41,0,.81,0,1.22Z" transform="translate(-69.42 -8.91)"/><rect x="133.41" y="20.47" width="1.13" height="0.04"/><rect x="130.57" y="20.47" width="0.95" height="0.04"/><path class="cls-21" d="M201.71,40.73h0V43H204V40.73Z" transform="translate(-69.42 -8.91)"/><path class="cls-19" d="M197.15,31.61V29.38h0Z" transform="translate(-69.42 -8.91)"/><path class="cls-19" d="M197.15,33.92h-4.53c.72,1.75,2.81,2.3,4.53,2.27V33.92Z" transform="translate(-69.42 -8.91)"/><path class="cls-19" d="M193.75,24.85h1.14V23.71h-2.27v1.14Z" transform="translate(-69.42 -8.91)"/><rect class="cls-19" x="118.66" y="3.49" width="0.76" height="1.09"/><rect class="cls-17" x="116.27" y="22.74" width="1.13" height="0.76"/><rect class="cls-17" x="118.54" y="22.74" width="1.13" height="0.76"/><rect class="cls-17" x="114" y="22.74" width="1.13" height="0.76"/><rect x="117.41" y="22.74" width="1.13" height="0.76"/><rect x="115.14" y="22.74" width="1.13" height="0.76"/><path d="M190.23,31.65H189.1v.76h1.13Z" transform="translate(-69.42 -8.91)"/><rect class="cls-17" x="109.46" y="6.86" width="1.13" height="0.76"/><rect class="cls-17" x="111.73" y="6.86" width="1.13" height="0.76"/><rect class="cls-17" x="107.19" y="6.86" width="1.13" height="0.76"/><rect x="110.6" y="6.86" width="1.13" height="0.76"/><rect x="108.33" y="6.86" width="1.13" height="0.76"/><path d="M183.42,15.77h-1.13v.75h1.13Z" transform="translate(-69.42 -8.91)"/><rect class="cls-22" x="150.18" y="21.8" width="0.65" height="0.94"/><polygon class="cls-23" points="157.31 21.8 156.19 21.8 156.19 22.74 156.99 22.74 157.31 22.74 157.31 21.8"/><rect class="cls-23" x="154.07" y="21.8" width="0.63" height="0.94"/><polygon class="cls-23" points="156.19 21.8 154.71 21.8 154.71 22.74 154.72 22.74 156.19 22.74 156.19 21.8"/><rect class="cls-23" x="154.7" y="21.8" width="0.01" height="0.94"/><polygon class="cls-24" points="159.26 22.74 160.56 22.74 160.56 21.8 157.31 21.8 157.31 22.74 159.26 22.74"/><polygon class="cls-25" points="152.45 20.48 152.45 18.2 152.45 18.2 152.45 18.19 151.69 18.19 151.31 18.19 150.18 18.19 150.18 18.2 150.18 18.2 150.18 20.48 151.31 20.48 152.45 20.48"/><polygon class="cls-26" points="152.45 18.2 152.45 20.48 152.49 20.48 153.59 20.48 154.7 20.48 154.72 20.48 154.72 18.2 154.72 18.2 154.72 18.18 154.7 18.18 153.59 18.18 152.45 18.18 152.45 18.19 152.45 18.2 152.45 18.2"/><rect class="cls-27" x="145.64" y="25.01" width="2.27" height="1.13"/><polygon class="cls-28" points="141.1 11.4 141.1 11.4 141.1 11.39 141.1 11.39 141.1 9.13 138.83 9.13 138.83 11.4 141.1 11.4"/><polygon class="cls-29" points="143.37 11.39 143.37 9.13 142.23 9.13 141.1 9.13 141.1 11.39 141.1 11.39 141.1 11.4 143.37 11.4 143.37 11.39 143.37 11.39"/><polygon class="cls-30" points="147.91 11.39 147.91 9.13 146.77 9.13 145.64 9.13 145.64 11.39 145.64 11.39 145.64 11.4 147.91 11.4 147.91 11.39 147.91 11.39"/><polygon class="cls-31" points="150.18 11.39 150.18 9.13 149.04 9.13 148.67 9.13 147.91 9.13 147.91 11.39 147.91 11.39 147.91 11.4 148.67 11.4 150.18 11.4 150.18 11.39 150.18 11.39"/><polygon class="cls-32" points="145.64 11.39 145.64 9.13 144.5 9.13 143.37 9.13 143.37 11.39 143.37 11.39 143.37 11.4 145.64 11.4 145.64 11.39 145.64 11.39"/><polygon class="cls-33" points="143.37 25.01 143.37 26.15 145.64 26.15 145.64 25.01 144.51 25.01 143.37 25.01"/><polygon class="cls-20" points="161.53 10.26 161.53 9.13 160.38 9.13 160.25 9.13 159.27 9.13 159.27 11.34 159.27 11.4 160.25 11.4 161.53 11.4 161.53 10.26"/><polyline class="cls-34" points="166.07 14.78 163.8 14.78 163.8 15.46 163.8 15.9 166.07 15.9 166.07 14.78"/><polygon class="cls-34" points="145.64 18.2 145.64 18.2 144.78 18.2 143.37 18.2 143.37 18.2 143.37 18.28 143.37 20.48 144.78 20.48 145.64 20.48 145.64 18.28 145.64 18.2"/><polygon class="cls-35" points="147.91 18.2 147.91 18.2 145.64 18.2 145.64 18.2 145.64 18.28 145.64 20.48 146.68 20.48 147.91 20.48 147.91 18.28 147.91 18.2"/><rect class="cls-9" x="136.56" y="2.32" width="2.27" height="2.27"/><rect class="cls-10" x="141.1" y="26.15" width="2.27" height="1.13"/><rect class="cls-10" x="138.83" y="2.32" width="2.27" height="2.27"/><rect class="cls-11" x="145.64" y="26.15" width="2.27" height="1.13"/><rect class="cls-11" x="143.37" y="2.32" width="2.27" height="2.27"/><rect class="cls-12" x="147.91" y="26.15" width="2.27" height="1.13"/><polygon class="cls-12" points="146.4 4.59 146.78 4.59 147.91 4.59 147.91 2.32 146.4 2.32 145.64 2.32 145.64 4.59 146.4 4.59"/><polygon class="cls-13" points="150.18 12.53 150.18 11.4 148.67 11.4 147.91 11.4 145.64 11.4 143.37 11.4 141.1 11.4 138.83 11.4 136.56 11.4 134.3 11.4 134.3 12.53 138.83 12.53 141.1 12.53 150.18 12.53"/><polygon class="cls-13" points="159.26 13.67 159.26 15.94 166.07 15.94 166.07 15.03 166.07 14.12 166.07 13.67 159.48 13.67 159.26 13.67"/><polygon class="cls-14" points="141.1 23.88 142.24 23.88 143.37 23.88 144.51 23.88 145.64 23.88 145.64 22.74 144.51 22.74 143.37 22.74 142.24 22.74 141.1 22.74 141.1 22.74 141.1 23.88 141.1 23.88"/><rect class="cls-14" x="143.37" y="26.15" width="2.27" height="1.13"/><rect class="cls-14" x="141.1" y="2.32" width="2.27" height="2.27"/><polygon class="cls-14" points="154.72 13.21 154.72 13.67 154.8 13.67 154.94 13.67 155.51 13.67 156.07 13.67 156.71 13.67 156.71 13.67 156.99 13.67 156.99 13.21 156.99 12.53 156.99 11.4 156.71 11.4 154.72 11.4 154.72 12.53 154.72 13.21"/><polygon class="cls-15" points="150.18 18.2 148.67 18.2 148.58 18.2 147.91 18.2 147.91 18.2 147.91 18.28 147.91 20.48 148.58 20.48 150.18 20.48 150.18 18.2 150.18 18.2"/><polygon class="cls-15" points="143.37 25.01 143.37 25.01 142.24 25.01 141.1 25.01 141.1 26.15 143.37 26.15 143.37 25.01"/><polygon class="cls-15" points="141.1 22.74 142.24 22.74 143.37 22.74 144.51 22.74 145.64 22.74 144.78 22.74 144.51 22.74 144.34 22.74 143.37 22.74 142.24 22.74 141.1 22.74 141.1 22.74 141.1 22.74"/><polygon class="cls-15" points="157.31 21.8 160.56 21.8 163.8 21.8 163.8 22.74 166.07 22.74 166.07 20.48 157.11 20.48 156.19 20.48 156.19 21.8 157.31 21.8"/><polygon class="cls-15" points="152.45 21.8 152.45 21.37 152.45 21.25 152.45 21.08 152.45 20.48 151.31 20.48 150.18 20.48 150.18 21.08 150.18 21.25 150.18 21.8 150.83 21.8 152.45 21.8"/><polygon class="cls-15" points="150.89 13.67 151.31 13.67 152.45 13.67 152.49 13.67 153.59 13.67 154.71 13.67 154.72 13.67 154.72 13.67 154.72 13.21 154.72 12.53 154.72 11.4 154.71 11.4 152.45 11.4 151.69 11.4 150.89 11.4 150.18 11.4 150.18 12.53 150.18 13.21 150.18 13.67 150.89 13.67"/><path class="cls-16" d="M235.49,18v0Z" transform="translate(-69.42 -8.91)"/><polygon class="cls-17" points="141.1 22.74 142.24 22.74 143.37 22.74 143.37 21.8 142.24 21.8 141.1 21.8 141.1 21.37 141.1 21.08 141.1 20.48 143.37 20.48 143.37 18.28 143.37 18.2 143.37 18.2 141.1 18.2 141.1 18.2 140.97 18.2 140.97 22.74 141.1 22.74 141.1 22.74"/><polygon class="cls-17" points="151.69 9.13 152.45 9.13 152.45 11.39 152.45 11.39 152.45 11.4 154.71 11.4 154.72 11.4 154.72 11.39 154.72 11.39 154.72 9.13 154.72 6.86 154.72 4.59 154.72 0.05 154.72 0.05 152.45 0.05 152.45 6.83 151.31 9.13 151.69 9.13"/><polygon class="cls-17" points="144.5 9.13 145.64 6.83 143.37 6.83 142.23 9.13 143.37 9.13 144.5 9.13"/><polygon class="cls-17" points="145.64 23.88 145.64 23.88 145.64 22.74 145.64 23.88"/><polygon class="cls-17" points="143.37 23.88 143.37 23.88 143.37 25.01 144.51 25.01 145.64 25.01 145.64 23.88 144.51 23.88 143.37 23.88"/><rect class="cls-17" x="163.8" y="13.65" width="2.27" height="1.13"/><polygon class="cls-17" points="161.53 12.53 162.52 12.53 162.52 11.4 166.07 11.4 166.07 9.13 163.83 9.13 163.8 9.13 163.78 9.13 163.78 10.26 163.78 11.4 161.55 11.4 161.53 11.4 160.25 11.4 159.26 11.4 156.99 11.4 156.99 12.53 161.53 12.53"/><polygon class="cls-17" points="146.4 4.59 145.64 4.59 143.37 4.59 141.1 4.59 141.1 5.72 146.78 5.72 146.78 4.59 146.4 4.59"/><rect class="cls-17" x="135.43" y="5.72" width="5.67" height="1.11"/><polygon class="cls-17" points="146.78 6.83 147.91 6.83 146.77 9.13 147.91 9.13 148.67 9.13 149.04 9.13 150.18 6.83 152.45 6.83 152.45 5.72 146.78 5.72 146.78 6.83"/><polygon class="cls-17" points="139.4 25.01 138.83 25.01 138.83 26.15 138.83 27.28 139.4 27.28 139.4 26.15 139.4 25.01"/><polygon class="cls-17" points="140.54 25.01 139.97 25.01 139.97 26.15 139.97 27.28 140.54 27.28 140.54 26.15 140.54 25.01"/><polygon class="cls-17" points="138.27 25.01 137.7 25.01 137.7 26.15 137.7 27.28 138.27 27.28 138.27 26.15 138.27 25.01"/><rect class="cls-17" x="143.37" y="0.05" width="0.57" height="2.27"/><rect class="cls-17" x="144.51" y="0.05" width="0.57" height="2.27"/><rect class="cls-17" x="141.1" y="0.05" width="0.57" height="2.27"/><rect class="cls-17" x="142.24" y="0.05" width="0.57" height="2.27"/><rect class="cls-17" x="161.53" y="31.86" width="0.57" height="2.23"/><rect class="cls-17" x="162.66" y="31.86" width="0.57" height="2.23"/><rect class="cls-17" x="159.26" y="31.86" width="0.57" height="2.23"/><rect class="cls-17" x="160.39" y="31.86" width="0.57" height="2.23"/><rect class="cls-17" x="156.99" y="32.39" width="1.13" height="1.7"/><rect class="cls-17" x="140.54" y="29.55" width="0.57" height="2.27"/><rect class="cls-17" x="138.27" y="29.55" width="0.57" height="2.27"/><polygon class="cls-17" points="138.83 31.82 138.83 32.39 139.97 32.39 139.97 31.82 139.97 29.55 139.4 29.55 139.4 31.82 138.83 31.82"/><rect class="cls-17" x="136.56" y="31.82" width="1.13" height="0.57"/><rect class="cls-17" x="134.3" y="31.82" width="1.13" height="0.57"/><polygon class="cls-17" points="143.37 31.82 142.81 31.82 142.24 31.82 142.24 29.55 141.67 29.55 141.67 31.82 141.1 31.82 141.1 32.39 143.37 32.39 143.37 31.82"/><rect class="cls-17" x="145.64" y="31.82" width="2.27" height="0.57"/><polygon class="cls-18" points="163.8 13.21 162.52 13.21 162.52 13.67 159.48 13.67 166.07 13.67 166.07 13.21 163.8 13.21"/><polygon class="cls-18" points="142.81 13.67 143.37 13.67 145.64 13.67 147.91 13.67 150.18 13.67 150.18 13.21 141.1 13.21 141.1 13.67 141.67 13.67 142.24 13.67 142.81 13.67"/><polygon class="cls-18" points="166.07 18.2 157.11 18.2 156.19 18.2 154.94 18.2 154.94 18.2 154.94 18.16 154.72 18.16 154.72 18.18 154.72 18.2 154.72 18.2 154.72 20.48 154.8 20.48 156.19 20.48 157.11 20.48 166.07 20.48 166.07 19.89 166.07 18.2"/><polygon points="162.52 11.4 162.52 12.53 163.8 12.53 166.07 12.53 166.07 11.4 162.52 11.4"/><polygon points="142.23 9.13 143.37 6.83 145.64 6.83 144.5 9.13 145.64 9.13 146.77 9.13 147.91 6.83 146.78 6.83 146.78 5.72 141.1 5.72 141.1 6.83 141.1 9.13 142.23 9.13"/><path d="M210.52,22.58v0Z" transform="translate(-69.42 -8.91)"/><polygon points="153.59 20.48 152.49 20.48 152.45 20.48 152.45 21.08 152.45 21.25 152.45 21.37 152.45 21.8 154.07 21.8 154.7 21.8 154.71 21.8 156.19 21.8 156.19 20.48 154.8 20.48 154.72 20.48 154.7 20.48 153.59 20.48"/><path d="M215.06,40.73h2.27v.57h-2.27Zm-4,0V38.46h.57v2.27h1.13v.57h-2.27V43h11.35V32.79h2.7l.05-1.14h-5V29.38h-9.08v1.33h2.27v.94h2.27v2.27h2.27v1.14h2.27v1.13h-9.08v4.54Z" transform="translate(-69.42 -8.91)"/><polygon points="145.64 2.32 146.4 2.32 147.91 2.32 147.91 4.59 146.78 4.59 146.78 5.72 152.45 5.72 152.45 4.59 152.45 2.32 152.45 0.05 145.64 0.05 145.07 0.05 145.07 2.32 144.51 2.32 144.51 0.05 143.94 0.05 143.94 2.32 143.37 2.32 143.37 0.05 142.81 0.05 142.81 2.32 142.24 2.32 142.24 0.05 141.67 0.05 141.67 2.32 141.1 2.32 143.37 2.32 145.64 2.32"/><polygon points="141.1 4.59 138.83 4.59 136.56 4.59 135.43 4.59 135.43 5.72 141.1 5.72 141.1 4.59"/><polygon points="139.97 25.01 139.4 25.01 139.4 26.15 139.4 27.28 139.97 27.28 139.97 26.15 139.97 25.01"/><polygon points="138.83 25.01 138.27 25.01 138.27 26.15 138.27 27.28 138.83 27.28 138.83 26.15 138.83 25.01"/><polygon points="141.1 25.01 142.24 25.01 143.37 25.01 143.37 23.88 142.24 23.88 141.1 23.88 141.1 23.88 141.1 25.01 141.1 25.01"/><polygon points="141.1 25.01 141.1 25.01 140.54 25.01 140.54 26.15 140.54 27.28 141.1 27.28 141.1 26.15 141.1 25.01"/><polygon points="137.7 25.01 137.13 25.01 137.13 26.15 137.13 27.28 137.7 27.28 137.7 26.15 137.7 25.01"/><polygon points="149.04 9.13 150.18 9.13 150.18 11.39 150.18 11.39 150.18 11.4 150.89 11.4 151.69 11.4 152.45 11.4 152.45 11.39 152.45 11.39 152.45 9.13 151.69 9.13 151.31 9.13 152.45 6.83 150.18 6.83 149.04 9.13"/><rect x="138.83" y="29.55" width="0.57" height="2.27"/><polygon points="138.83 32.39 138.83 31.82 138.27 31.82 137.7 31.82 137.7 32.39 138.83 32.39"/><rect x="135.43" y="31.82" width="1.13" height="0.57"/><polygon points="139.97 31.82 139.97 32.39 141.1 32.39 141.1 31.82 140.54 31.82 140.54 29.55 139.97 29.55 139.97 31.82"/><rect x="133.16" y="31.82" width="1.13" height="0.57"/><polygon points="154.72 6.86 154.72 9.13 154.72 11.39 154.72 11.39 154.72 11.4 156.71 11.4 156.99 11.4 159.26 11.4 160.25 11.4 159.27 11.4 159.27 11.34 159.27 9.13 160.25 9.13 160.38 9.13 161.53 9.13 161.55 9.13 163.78 9.13 163.8 9.13 163.83 9.13 166.07 9.13 166.07 6.86 166.07 0.05 165.72 0.05 165.15 0.05 164.93 0.05 164.58 0.05 164.02 0.05 163.45 0.05 162.88 0.05 162.31 0.05 161.75 0.05 154.72 0.05 154.72 4.59 154.72 6.86"/><path d="M235.49,18v0Z" transform="translate(-69.42 -8.91)"/><polygon class="cls-21" points="161.53 9.13 161.53 10.26 161.53 11.4 161.55 11.4 163.78 11.4 163.78 10.26 163.78 9.13 161.55 9.13 161.53 9.13"/><polygon class="cls-19" points="166.07 13.21 166.07 12.53 163.8 12.53 162.52 12.53 162.52 13.21 163.8 13.21 166.07 13.21"/><polygon class="cls-19" points="141.1 13.21 150.18 13.21 150.18 12.53 141.1 12.53 138.83 12.53 138.83 13.21 141.1 13.21"/><polygon class="cls-16" points="150.83 21.8 150.83 22.74 152.45 22.74 154.07 22.74 154.07 21.8 152.45 21.8 150.83 21.8"/><polygon class="cls-17" points="141.43 11.4 141.43 11.96 142.4 11.96 142.4 11.4 141.91 11.4 141.43 11.4"/><rect class="cls-17" x="139.48" y="11.4" width="0.97" height="0.57"/><rect class="cls-17" x="137.54" y="11.4" width="0.97" height="0.57"/><polygon points="141.43 11.96 141.43 11.4 140.94 11.4 140.46 11.4 140.46 11.96 141.43 11.96"/><rect x="138.51" y="11.4" width="0.97" height="0.57"/><polygon points="142.4 11.4 142.4 11.96 143.37 11.96 143.37 11.4 142.89 11.4 142.4 11.4"/><rect x="136.56" y="11.4" width="0.97" height="0.57"/><rect class="cls-36" x="138.83" y="15.94" width="2.27" height="2.27"/><rect class="cls-37" x="136.56" y="15.94" width="2.27" height="2.27"/><rect class="cls-18" x="141.1" y="15.94" width="2.27" height="2.27"/><rect class="cls-38" x="143.37" y="15.94" width="2.27" height="2.27"/><rect class="cls-32" x="145.64" y="15.94" width="2.27" height="2.27"/><rect class="cls-19" x="147.91" y="15.94" width="18.15" height="2.27"/><rect class="cls-19" x="141.1" y="13.67" width="18.15" height="2.27"/><rect x="156.99" y="11.4" width="6.81" height="2.27"/><rect x="154.72" y="22.74" width="11.35" height="11.35"/><rect class="cls-3" x="172.37" y="15.94" width="2.27" height="2.25"/><rect class="cls-4" x="175.39" y="15.94" width="1.51" height="2.25"/><rect class="cls-4" x="174.64" y="15.94" width="0.76" height="2.25"/><rect class="cls-20" x="176.89" y="0.05" width="2.28" height="2.27"/><path class="cls-5" d="M239.52,24.85V20.31h-2.27v4.54Z" transform="translate(-69.42 -8.91)"/><rect class="cls-13" x="183.71" y="22.74" width="2.27" height="2.27"/><path class="cls-6" d="M244.06,24.85V20.31h-2.27v4.54Z" transform="translate(-69.42 -8.91)"/><path class="cls-18" d="M248.6,33.92h2.26V31.65H248.6Z" transform="translate(-69.42 -8.91)"/><rect class="cls-7" x="165.56" y="11.4" width="2.27" height="4.54"/><rect class="cls-16" x="185.98" y="22.74" width="2.27" height="2.27"/><path class="cls-8" d="M244.06,24.85h2.27V20.31h-2.27v4.54Z" transform="translate(-69.42 -8.91)"/><path class="cls-15" d="M246.33,33.92h2.26V31.65h-2.26Z" transform="translate(-69.42 -8.91)"/><polygon class="cls-13" points="170.1 22.74 170.1 22.74 172.37 22.74 170.1 22.74"/><rect class="cls-14" x="172.37" y="22.74" width="2.27" height="2.27"/><path class="cls-13" d="M241.79,38.46h0V36.19h-2.27v2.27Z" transform="translate(-69.42 -8.91)"/><path class="cls-13" d="M241.79,20.31h-2.27v4.54h2.27Z" transform="translate(-69.42 -8.91)"/><path class="cls-19" d="M250.86,31.65v2.27h2.27V31.65" transform="translate(-69.42 -8.91)"/><line class="cls-19" x1="185.98" y1="25.01" x2="185.98" y2="25.01"/><polygon class="cls-14" points="176.91 31.82 176.91 31.82 176.91 31.82 176.91 34.09 181.44 34.09 181.44 31.82 176.91 31.82"/><polygon class="cls-14" points="185.98 31.82 185.98 31.82 185.98 34.09 188.25 34.09 188.25 31.82 185.98 31.82"/><rect class="cls-14" x="170.1" y="31.82" width="2.27" height="2.27"/><polygon class="cls-15" points="176.91 31.82 176.91 31.82 181.44 31.82 176.91 31.82"/><path class="cls-15" d="M241.79,29.38h-2.27v2.27h2.27Z" transform="translate(-69.42 -8.91)"/><path class="cls-15" d="M244.06,38.46h-4.54v2.27h4.54V38.46h2.27V39.6h9.07v1.13h2.27V38.46H244.06Z" transform="translate(-69.42 -8.91)"/><polygon class="cls-16" points="172.37 18.19 172.37 15.94 170.1 15.94 170.1 18.2 172.37 18.2 172.37 18.19"/><path class="cls-17" d="M244.06,27.1v2.28h2.27v2.27h.56V29.38h-.56V27.1Z" transform="translate(-69.42 -8.91)"/><path class="cls-17" d="M241.79,37.33h2.27V36.19h-2.27Z" transform="translate(-69.42 -8.91)"/><rect class="cls-17" x="174.64" y="28.42" width="2.27" height="1.13"/><path class="cls-17" d="M250.86,22.58h-1.13v4.53h1.13V22.58Z" transform="translate(-69.42 -8.91)"/><rect class="cls-17" x="181.44" y="9.13" width="1.13" height="4.54"/><path class="cls-17" d="M246.33,40.16h9.07V39.6h-9.07Z" transform="translate(-69.42 -8.91)"/><path class="cls-17" d="M249.16,31.65V29.38h-.57v2.27Z" transform="translate(-69.42 -8.91)"/><path class="cls-17" d="M250.3,31.65V29.38h-.57v2.27Z" transform="translate(-69.42 -8.91)"/><rect class="cls-17" x="178.04" y="20.47" width="0.57" height="2.27"/><path class="cls-17" d="M253.7,40.73h-.57V43h.57Z" transform="translate(-69.42 -8.91)"/><path class="cls-17" d="M254.84,40.73h-.57V43h.57Z" transform="translate(-69.42 -8.91)"/><path class="cls-17" d="M251.43,40.73h-.57V43h.57Z" transform="translate(-69.42 -8.91)"/><path class="cls-17" d="M252.57,40.73H252V43h.57Z" transform="translate(-69.42 -8.91)"/><rect class="cls-17" x="172.37" y="31.82" width="1.51" height="2.27"/><path class="cls-17" d="M246.33,40.73h-1.52V43h1.52Z" transform="translate(-69.42 -8.91)"/><path class="cls-17" d="M239.52,20.31H241V18h-1.51v2.27Z" transform="translate(-69.42 -8.91)"/><path class="cls-17" d="M244.06,20.31V18h-1.52v2.27Z" transform="translate(-69.42 -8.91)"/><polygon class="cls-18" points="176.91 28.42 176.91 29.55 188.25 29.55 188.25 27.28 176.91 27.28 176.91 28.42"/><polygon class="cls-18" points="170.1 27.28 170.1 27.28 172.37 27.28 170.1 27.28"/><path class="cls-18" d="M246.33,40.73V39.6h0V38.46h-2.27v2.27Z" transform="translate(-69.42 -8.91)"/><path class="cls-18" d="M241.79,29.38h0v2.27h2.27V29.38Z" transform="translate(-69.42 -8.91)"/><path d="M241.79,29.38h2.27V27.1h-4.54v2.27Z" transform="translate(-69.42 -8.91)"/><path d="M241,20.31h1.51V18h1.52v2.27h2.27v4.54h0v4.53h.56v2.27h.57V29.38H248v2.27h.56V29.38h.57v2.27h.57V29.38h.57v2.27h.56V27.11h-1.13V22.58h1.14V11.23h-2.28v0h-2.28V9h-6.79V18H241v2.27Z" transform="translate(-69.42 -8.91)"/><path d="M241.79,31.65h2.27v2.27l-1.32,1.31-1,1h2.27L245.28,35l1.05-1V31.65h-4.54Z" transform="translate(-69.42 -8.91)"/><rect x="174.64" y="27.28" width="2.27" height="1.13"/><path d="M241.79,37.33h0v1.13h2.27V37.33Z" transform="translate(-69.42 -8.91)"/><polygon points="181.44 15.94 181.44 18.2 182.58 18.2 182.58 13.67 181.44 13.67 181.44 15.94"/><path d="M237.25,38.46v2.27h2.27V38.46Z" transform="translate(-69.42 -8.91)"/><path d="M239.52,33.92v2.26l2.27-2.26Z" transform="translate(-69.42 -8.91)"/><path d="M255.4,40.73v-.57h-9.07v.57h5.1V43H252V40.73h.57V43h.56V40.73h.57V43h.57V40.73h.57V43h.56Z" transform="translate(-69.42 -8.91)"/><path d="M244.81,40.73H243.3V43h1.51Z" transform="translate(-69.42 -8.91)"/><rect class="cls-21" x="179.16" y="0.05" width="2.28" height="2.27"/><path class="cls-19" d="M237.25,38.46h2.27V36.19h-2.27Z" transform="translate(-69.42 -8.91)"/><path class="cls-19" d="M246.33,31.65V29.38h-2.27v2.27Z" transform="translate(-69.42 -8.91)"/><path class="cls-14" d="M239.52,33.92h2.27V31.65h-2.27Z" transform="translate(-69.42 -8.91)"/><rect class="cls-17" x="169.34" y="15.94" width="0.76" height="1.13"/><rect class="cls-17" x="170.85" y="15.94" width="0.76" height="1.13"/><rect class="cls-17" x="167.83" y="15.94" width="0.76" height="1.13"/><rect x="170.1" y="15.94" width="0.76" height="1.13"/><rect x="168.58" y="15.94" width="0.76" height="1.13"/><path d="M241.79,24.85H241V26h.76Z" transform="translate(-69.42 -8.91)"/><rect class="cls-17" x="171.61" y="17.07" width="0.76" height="1.13"/><rect class="cls-17" x="173.12" y="17.07" width="0.76" height="1.13"/><rect class="cls-17" x="170.1" y="17.07" width="0.76" height="1.13"/><rect x="172.37" y="17.07" width="0.76" height="1.13"/><rect x="170.85" y="17.07" width="0.76" height="1.13"/><path d="M244.06,26h-.76v1.13h.76Z" transform="translate(-69.42 -8.91)"/><rect class="cls-17" x="171.61" y="0.05" width="0.76" height="2.27"/><rect class="cls-17" x="173.12" y="0.05" width="0.76" height="2.27"/><rect class="cls-17" x="167.83" y="0.05" width="3.03" height="2.27"/><rect x="172.37" y="0.05" width="0.76" height="2.27"/><rect x="170.85" y="0.05" width="0.76" height="2.27"/><path d="M244.06,9h-.76v2.27h.76Z" transform="translate(-69.42 -8.91)"/><rect class="cls-17" x="178.42" y="2.89" width="0.76" height="0.57"/><rect class="cls-17" x="179.93" y="2.89" width="0.76" height="0.57"/><rect class="cls-17" x="176.9" y="2.89" width="0.76" height="0.57"/><rect x="179.17" y="2.89" width="0.76" height="0.57"/><rect x="177.66" y="2.89" width="0.76" height="0.57"/><path d="M250.86,11.8h-.75v.56h.75Z" transform="translate(-69.42 -8.91)"/><rect class="cls-17" x="169.34" y="1.75" width="0.76" height="0.57"/><rect class="cls-17" x="170.85" y="1.75" width="0.76" height="0.57"/><rect class="cls-17" x="167.83" y="1.75" width="0.76" height="0.57"/><rect x="170.1" y="1.75" width="0.76" height="0.57"/><rect x="168.58" y="1.75" width="0.76" height="0.57"/><path d="M241.79,10.66H241v.57h.76Z" transform="translate(-69.42 -8.91)"/><rect class="cls-17" x="164.8" y="4.02" width="0.76" height="0.57"/><rect class="cls-17" x="166.31" y="4.02" width="0.76" height="0.57"/><rect class="cls-17" x="163.29" y="4.02" width="0.76" height="0.57"/><rect x="165.56" y="4.02" width="0.76" height="0.57"/><rect x="164.05" y="4.02" width="0.76" height="0.57"/><path d="M237.25,12.93h-.76v.57h.76Z" transform="translate(-69.42 -8.91)"/><path d="M253.13,33.92" transform="translate(-69.42 -8.91)"/><polygon points="176.91 27.28 179.17 25.01 181.44 25.01 179.17 27.28 176.91 27.28"/><polygon class="cls-17" points="174.63 27.28 176.91 25.01 179.17 25.01 176.91 27.28 174.63 27.28"/><polygon points="181.44 27.28 183.71 25.01 185.98 25.01 183.71 27.28 181.44 27.28"/><polygon points="185.98 27.28 188.25 25.01 188.25 27.28 185.98 27.28"/><polygon class="cls-17" points="170.1 27.28 172.37 25.01 174.63 25.01 172.37 27.28 170.1 27.28"/><polygon class="cls-17" points="179.17 27.28 181.44 25.01 183.71 25.01 181.44 27.28 179.17 27.28"/><polygon class="cls-17" points="183.71 27.28 185.98 25.01 188.25 25.01 185.98 27.28 183.71 27.28"/><rect class="cls-27" x="194.56" y="12.53" width="2.27" height="1.13"/><polygon class="cls-37" points="190.03 11.4 188.89 11.4 187.76 11.4 187.76 12.53 190.03 12.53 190.03 11.4"/><polygon class="cls-37" points="190.03 11.4 190.03 11.4 190.03 12.53 190.03 11.4"/><path class="cls-37" d="M259.45,20.31Z" transform="translate(-69.42 -8.91)"/><polygon class="cls-36" points="192.3 11.4 192.3 11.4 190.03 11.4 192.3 11.4"/><rect class="cls-36" x="190.03" y="11.4" width="2.27" height="1.13"/><polygon class="cls-39" points="196.83 11.4 196.83 11.4 194.56 11.4 196.83 11.4"/><path class="cls-39" d="M266.25,20.31h0Z" transform="translate(-69.42 -8.91)"/><rect class="cls-39" x="194.56" y="11.4" width="2.27" height="1.13"/><polygon class="cls-40" points="196.83 11.4 197.4 11.4 197.97 11.4 198.54 11.4 199.1 11.4 196.83 11.4"/><rect class="cls-3" x="187.76" y="6.86" width="1.13" height="2.27"/><rect class="cls-3" x="188.89" y="6.86" width="0.38" height="2.27"/><rect class="cls-3" x="189.27" y="6.86" width="0.38" height="2.27"/><rect class="cls-3" x="189.65" y="6.86" width="0.38" height="2.27"/><path class="cls-3" d="M259.45,15.77Z" transform="translate(-69.42 -8.91)"/><path class="cls-3" d="M259.45,18v0Z" transform="translate(-69.42 -8.91)"/><polygon class="cls-4" points="191.92 6.86 191.92 6.86 192.3 6.86 191.92 6.86"/><polygon class="cls-4" points="191.54 6.86 191.54 6.86 191.92 6.86 191.54 6.86"/><polygon class="cls-4" points="191.16 6.86 191.16 6.86 191.54 6.86 191.16 6.86"/><polygon class="cls-4" points="190.78 6.86 190.78 6.86 191.16 6.86 190.78 6.86"/><polygon class="cls-4" points="190.03 6.86 190.03 6.86 190.78 6.86 190.03 6.86"/><rect class="cls-33" x="192.3" y="12.53" width="2.27" height="1.13"/><polygon class="cls-20" points="196.84 15.95 196.84 18.2 199.1 18.2 199.1 15.95 199.1 15.94 196.84 15.94 196.84 15.95"/><polygon class="cls-20" points="196.84 9.13 199.1 9.13 199.1 6.86 198.35 6.86 196.84 6.86 196.84 9.13"/><line class="cls-34" x1="187.76" y1="13.67" x2="187.76" y2="12.53"/><polygon class="cls-35" points="190.03 12.53 190.03 12.53 187.76 12.53 187.76 13.67 190.03 13.67 190.03 12.53"/><polygon class="cls-13" points="196.83 5.5 196.83 6.86 196.84 6.86 198.35 6.86 199.1 6.86 201.37 6.86 201.37 5.5 199.1 5.5 196.83 5.5"/><polygon class="cls-14" points="192.29 3.45 192.3 3.45 194.56 3.45 192.3 3.45 192.29 3.45 192.29 2.32 192.29 1.19 194.56 1.19 194.56 0.05 192.29 0.05 192.29 2.32 192.29 3.45"/><polygon class="cls-14" points="199.1 0.05 198.54 0.05 197.97 0.05 197.4 0.05 196.83 0.05 196.83 1.19 196.83 1.41 199.1 1.41 201.37 1.41 201.37 1.19 201.37 0.05 199.1 0.05"/><rect class="cls-15" x="190.03" y="12.53" width="2.27" height="1.13"/><polygon class="cls-15" points="199.1 1.41 196.83 1.41 196.83 2.32 196.83 2.77 199.1 2.77 201.37 2.77 201.37 2.32 201.37 1.41 199.1 1.41"/><polygon class="cls-15" points="192.3 6.86 193.81 6.86 194.56 6.86 194.56 4.59 196.83 4.59 194.56 4.59 194.56 3.45 194.56 4.59 192.3 4.59 190.03 4.59 192.3 4.59 192.3 6.86"/><polygon class="cls-15" points="196.83 0.05 197.4 0.05 197.97 0.05 198.54 0.05 199.1 0.05 199.1 0.05 196.83 0.05 196.83 0.05"/><path class="cls-15" d="M266.25,12.36Z" transform="translate(-69.42 -8.91)"/><polygon class="cls-16" points="190.03 3.45 190.03 3.45 192.29 3.45 192.29 2.32 192.29 0.05 190.03 0.05 190.03 2.32 190.03 3.45"/><line class="cls-16" x1="187.76" y1="9.13" x2="187.76" y2="6.86"/><rect class="cls-17" x="194.56" y="13.67" width="2.27" height="2.27"/><rect class="cls-17" x="188.89" y="10.26" width="1.13" height="1.13"/><polygon class="cls-17" points="190.03 15.94 190.03 15.95 190.03 20.47 191.16 20.47 191.16 15.95 191.16 15.94 192.3 15.94 192.3 13.67 190.03 13.67 190.03 15.94"/><polygon class="cls-17" points="190.03 20.47 190.03 20.47 188.89 20.47 188.89 25.01 190.03 25.01 190.03 20.47"/><polygon class="cls-17" points="190.03 4.59 190.03 4.59 192.3 4.59 194.56 4.59 194.56 3.45 192.3 3.45 192.29 3.45 190.03 3.45 189.03 3.45 187.76 3.45 187.76 4.59 189.03 4.59 190.03 4.59"/><rect class="cls-17" x="196.83" y="31.86" width="0.57" height="2.23"/><rect class="cls-17" x="197.97" y="31.86" width="0.57" height="2.23"/><rect class="cls-17" x="194.56" y="31.86" width="0.57" height="2.23"/><rect class="cls-17" x="195.7" y="31.86" width="0.57" height="2.23"/><rect class="cls-17" x="199.1" y="11.4" width="0.57" height="1.13"/><rect class="cls-17" x="200.24" y="11.4" width="0.57" height="1.13"/><rect class="cls-17" x="196.83" y="11.4" width="0.57" height="1.13"/><polygon class="cls-17" points="197.97 12.53 197.97 12.53 198.54 12.53 198.54 11.4 197.97 11.4 197.97 12.53"/><polygon class="cls-17" points="195.13 1.19 195.13 1.19 195.13 0.05 194.56 0.05 194.56 1.19 195.13 1.19"/><rect class="cls-17" x="195.7" y="0.05" width="0.57" height="1.13"/><rect class="cls-17" x="192.3" y="31.86" width="1.13" height="2.23"/><polygon class="cls-17" points="201.37 15.94 201.37 18.2 203.64 18.2 203.64 15.94 203.07 15.94 203.07 13.67 202.51 13.67 202.51 15.94 201.94 15.94 201.94 13.67 201.37 13.67 201.37 15.94"/><line class="cls-17" x1="187.76" y1="12.53" x2="187.76" y2="11.4"/><rect class="cls-17" x="199.1" y="13.67" width="0.57" height="2.27"/><rect class="cls-17" x="200.24" y="13.67" width="0.57" height="2.27"/><polygon class="cls-18" points="190.78 6.86 191.16 6.86 191.54 6.86 191.92 6.86 192.3 6.86 192.3 4.59 190.03 4.59 190.03 6.86 190.78 6.86"/><polygon class="cls-18" points="194.56 6.86 195.32 6.86 196.83 6.86 196.83 5.5 196.83 4.59 194.56 4.59 194.56 6.86"/><rect class="cls-18" x="192.3" y="11.4" width="2.27" height="1.13"/><polygon class="cls-18" points="194.56 4.59 196.83 4.59 196.83 4.13 199.1 4.13 201.37 4.13 201.37 3.45 201.37 2.77 199.1 2.77 196.83 2.77 196.83 3.45 194.56 3.45 194.56 4.59"/><polygon class="cls-18" points="194.56 1.19 194.56 0.05 195.13 0.05 195.7 0.05 196.27 0.05 196.83 0.05 196.83 0.05 194.56 0.05 194.56 1.19"/><polygon points="194.56 6.86 193.81 6.86 192.3 6.86 191.92 6.86 191.54 6.86 191.16 6.86 190.78 6.86 190.03 6.86 190.03 9.13 189.65 9.13 189.27 9.13 188.89 9.13 188.89 10.26 190.03 10.26 190.03 11.4 192.3 11.4 194.56 11.4 196.83 11.4 199.1 11.4 199.1 9.13 196.84 9.13 196.84 6.86 196.83 6.86 195.32 6.86 194.56 6.86"/><polygon points="190.03 20.47 190.03 15.95 190.03 15.94 188.89 15.94 188.89 20.47 190.03 20.47"/><polygon points="190.03 3.45 190.03 2.32 187.76 2.32 187.76 3.45 189.03 3.45 190.03 3.45"/><polygon points="201.37 3.45 201.37 4.13 201.37 4.59 201.37 2.32 201.37 2.77 201.37 3.45"/><path d="M268.52,18v0Z" transform="translate(-69.42 -8.91)"/><path d="M269.66,21.44V20.31h.57v1.13Zm-1.14-1.13h.57v1.13h-.57V20.31H268v1.13h-.57V20.31h-.57v1.13h-.57v3.41H264V22.58h-2.26v2.27h-1.14v4.52h-1.13V43h2.27V40.77h1.13V43H264V40.77h.57V43h.57V40.77h.57V43h.56V40.77h.57V43h.57V40.77H268V43h2.84V27.11h-2.28V24.85h0v2.25h-2.25V24.86h2.25V22.58h.57v2.27h.57V22.58h.57v2.27h.57V20.31Z" transform="translate(-69.42 -8.91)"/><polygon points="194.56 3.45 196.83 3.45 196.83 2.77 196.83 2.32 196.83 1.41 196.83 1.19 196.83 0.05 196.27 0.05 196.27 1.19 195.7 1.19 195.7 0.05 195.13 0.05 195.13 1.19 194.56 1.19 192.29 1.19 192.29 2.32 192.29 3.45 192.3 3.45 194.56 3.45 194.56 3.45"/><rect x="201.94" y="13.67" width="0.57" height="2.27"/><rect x="203.07" y="13.67" width="0.57" height="2.27"/><polygon class="cls-21" points="200.24 15.94 199.67 15.94 199.1 15.94 199.1 18.2 201.37 18.2 201.37 15.94 200.81 15.94 200.24 15.94"/><polygon class="cls-21" points="199.1 9.13 199.1 9.13 201.37 9.13 201.37 6.86 199.1 6.86 199.1 9.13"/><rect class="cls-19" x="199.1" y="0.05" width="2.27"/><polygon class="cls-19" points="201.37 5.5 201.37 4.59 201.37 4.13 199.1 4.13 196.83 4.13 196.83 4.59 196.83 5.5 199.1 5.5 201.37 5.5"/><polygon class="cls-16" points="199.1 9.13 199.1 9.13 199.1 11.4 201.37 11.4 201.37 9.13 199.1 9.13"/><rect class="cls-16" x="185.49" y="6.86" width="2.27" height="2.27"/><rect class="cls-17" x="203.46" y="4.55" width="3.97" height="2.31"/><path class="cls-27" d="M279.12,39.6h0l0,0Z" transform="translate(-69.42 -8.91)"/><path class="cls-27" d="M279.15,39.6h2.24V38.46h-2.27v1.11l0,0Z" transform="translate(-69.42 -8.91)"/><path class="cls-41" d="M283.67,11.15h0v2.31h2.26V11.15Z" transform="translate(-69.42 -8.91)"/><path class="cls-42" d="M285.93,11.15v2.31h2.5V11.15Z" transform="translate(-69.42 -8.91)"/><path class="cls-42" d="M285.93,11.47v0s0,0,0,0Z" transform="translate(-69.42 -8.91)"/><path class="cls-42" d="M285.93,11.49v0s0,0,0,0Z" transform="translate(-69.42 -8.91)"/><path class="cls-33" d="M279.12,39.6V38.46h-2.27V39.6Z" transform="translate(-69.42 -8.91)"/><rect class="cls-20" x="221.04" y="31.78" width="3.4" height="0.04"/><rect class="cls-34" x="200.62" y="29.55" width="2.27" height="1.13"/><path class="cls-35" d="M274.16,38.46h-1.85V39.6h2.27V38.46Z" transform="translate(-69.42 -8.91)"/><path class="cls-5" d="M270,31.61V29.34h-2.27v2.27Z" transform="translate(-69.42 -8.91)"/><path class="cls-6" d="M273.85,31.61h.73V29.34h-2.27v2.27Z" transform="translate(-69.42 -8.91)"/><polygon class="cls-7" points="196.08 22.7 196.08 22.7 198.35 22.7 198.35 20.43 196.08 20.43 196.08 22.7"/><path class="cls-8" d="M275.15,29.34h-.57v2.27h2.27V29.34Z" transform="translate(-69.42 -8.91)"/><path class="cls-9" d="M279.12,39.6h-2.27V43h2.27V39.6Z" transform="translate(-69.42 -8.91)"/><path class="cls-9" d="M276.85,13.46h2.27V11.15h-2.27v2.31Z" transform="translate(-69.42 -8.91)"/><path class="cls-9" d="M281.39,11.15h2.28V8.92h-2.28v2.23Z" transform="translate(-69.42 -8.91)"/><path class="cls-10" d="M281.39,40.73V39.6h-2.27V43h2.27Z" transform="translate(-69.42 -8.91)"/><path class="cls-10" d="M279.12,13.46h2.23V11.15h-2.23v2.31Z" transform="translate(-69.42 -8.91)"/><path class="cls-10" d="M283.67,11.15h2.26V8.92h-2.26v2.23Z" transform="translate(-69.42 -8.91)"/><path class="cls-11" d="M285.93,40.73V39.6h-2.27V43h2.27Z" transform="translate(-69.42 -8.91)"/><path class="cls-12" d="M288.2,40.73V39.6h-2.27V43h2.27Z" transform="translate(-69.42 -8.91)"/><path class="cls-13" d="M291.8,18a18.77,18.77,0,0,0-4.62.26,7.91,7.91,0,0,0-3.66,2h7Z" transform="translate(-69.42 -8.91)"/><path class="cls-13" d="M281.9,22.58h0Z" transform="translate(-69.42 -8.91)"/><path class="cls-13" d="M270,31.61h2.27V29.34H270Z" transform="translate(-69.42 -8.91)"/><path class="cls-14" d="M282.79,21.09v1.49h3.14V20.26h-3.14Z" transform="translate(-69.42 -8.91)"/><rect class="cls-14" x="200.62" y="15.85" width="1.7" height="4.58"/><path class="cls-14" d="M281.9,22.58h-.51v2.18h4.54V22.58Z" transform="translate(-69.42 -8.91)"/><path class="cls-14" d="M283.66,40.73V39.6h-2.27V43h2.27Z" transform="translate(-69.42 -8.91)"/><path class="cls-14" d="M274.57,22.58V18h-2.26v4.54Z" transform="translate(-69.42 -8.91)"/><path class="cls-14" d="M276.71,18h.14V15.77h-2.28V18Z" transform="translate(-69.42 -8.91)"/><path class="cls-14" d="M278,15.77h1.14V13.46h-2.27v2.31Z" transform="translate(-69.42 -8.91)"/><path class="cls-14" d="M283.67,13.46h0V11.15h-2.32v2.31Z" transform="translate(-69.42 -8.91)"/><path class="cls-14" d="M285.93,11.15h10l1.34-2.23c-3,0-6,0-9.07,0h-2.27v2.23Z" transform="translate(-69.42 -8.91)"/><path class="cls-15" d="M279.12,15.08v.69h2.27v.46c3.81-3.06,8.53-2.76,13.13-2.76l1.41-2.32h-7.5v2.31h-9.31v1.62Z" transform="translate(-69.42 -8.91)"/><path class="cls-15" d="M276.85,38.46h-2.27V39.6h2.27Z" transform="translate(-69.42 -8.91)"/><path class="cls-15" d="M273.45,26v3.36h1.7V24.76h1.7V23.9h0V22.58h2.76V20.27h-2.76V18h-2.28v4.54h-1.12v2.18h0V26Z" transform="translate(-69.42 -8.91)"/><path class="cls-16" d="M289.13,20.27h-3.2v2.31h0v2.18h2.27V22.53h2.27V20.27Z" transform="translate(-69.42 -8.91)"/><path class="cls-17" d="M293.75,27.07h.12L295,24.76h-2.26l-1.14,2.31Z" transform="translate(-69.42 -8.91)"/><path class="cls-17" d="M288.2,24.76l-1.14,2.31h2.27l1.14-2.31Z" transform="translate(-69.42 -8.91)"/><path class="cls-17" d="M285.79,24.76h-2.15l-1.14,2.31h2.27l1.14-2.31Z" transform="translate(-69.42 -8.91)"/><path class="cls-17" d="M279.1,24.76l-2.25,4.58h2.27l2.25-4.58Z" transform="translate(-69.42 -8.91)"/><path class="cls-17" d="M281.39,33.94h0V31.61h-2.27v2.33Z" transform="translate(-69.42 -8.91)"/><path class="cls-17" d="M274.58,31.61h-.42v2.33h1.64v4.52h1.05V31.61Z" transform="translate(-69.42 -8.91)"/><path class="cls-17" d="M279.12,35.46V33.94h-.92v4.52h.92Z" transform="translate(-69.42 -8.91)"/><path class="cls-17" d="M274.16,33.94h-.93v4.52h.93Z" transform="translate(-69.42 -8.91)"/><rect class="cls-17" x="224.45" y="31.82" width="3.4" height="2.27"/><path class="cls-17" d="M279.69,17.88V15.77h-.57v4.5h.57Z" transform="translate(-69.42 -8.91)"/><path class="cls-17" d="M280.25,17.26v3h.57v-4.5h-.57v1.49Z" transform="translate(-69.42 -8.91)"/><path class="cls-17" d="M278.55,18.49V15.77H278v4.5h.57V18.49Z" transform="translate(-69.42 -8.91)"/><path class="cls-18" d="M293.72,13.47a37.08,37.08,0,0,0-6.83.25,12.57,12.57,0,0,0-5.5,2.51V19.3a10.23,10.23,0,0,1,5-3.17c2.18-.61,4.51-.4,6.75-.4l1.36-2.26Z" transform="translate(-69.42 -8.91)"/><path class="cls-18" d="M273.45,29.34V24.76h-1.71v4.58Z" transform="translate(-69.42 -8.91)"/><path class="cls-18" d="M281.39,24V22.58H277.2a8.07,8.07,0,0,0-.35,2.18h4.54V24Z" transform="translate(-69.42 -8.91)"/><path class="cls-18" d="M277.2,22.58h-.35v1.73a13.94,13.94,0,0,1,.35-1.73Z" transform="translate(-69.42 -8.91)"/><path d="M276.85,29.34l2.25-4.58h-2.25v4.58Z" transform="translate(-69.42 -8.91)"/><path d="M275.8,35.46V33.94h-1.64v4.52h1.64Z" transform="translate(-69.42 -8.91)"/><path d="M273.23,33.94h.93V31.61H270v2.33h2.27v4.52h.92V33.94Z" transform="translate(-69.42 -8.91)"/><path d="M285.93,34h-2.27V31.7h2.27Zm-2.27,2.24h-2.27V33.94h2.27Zm4.54-9.12h-1.14l1.14-2.31h-2.29l-1.14,2.31H282.5l1.14-2.31h-2.27l-2.25,4.58h-2.27v9.12h1.35V33.94h.92V31.61h2.27v2.33h-2.27v4.52h2.27V39.6h6.81V43h2.27V40.69h6.8V24.76H295l-1.14,2.31H291.6l1.14-2.31h-2.27l-1.14,2.31Z" transform="translate(-69.42 -8.91)"/><path d="M279.69,17.88v2.39h.56v-4.5h-.56v2.11Z" transform="translate(-69.42 -8.91)"/><path d="M279.12,17.52V15.77h-.57v4.49h.57V17.52Z" transform="translate(-69.42 -8.91)"/><path d="M280.82,20.27h.57v-4.5h-.57v4.5Z" transform="translate(-69.42 -8.91)"/><path d="M278,20.27v-4.5h-.56v4.5Z" transform="translate(-69.42 -8.91)"/><path d="M275.72,15.77h0V13.46h-.57v2.31Z" transform="translate(-69.42 -8.91)"/><path d="M274,15.77h.56V13.46H274v2.31Z" transform="translate(-69.42 -8.91)"/><path d="M276.85,13.46h-.57v2.31h.57V13.46Z" transform="translate(-69.42 -8.91)"/><path d="M272.88,15.77h.57V13.46h-.57Z" transform="translate(-69.42 -8.91)"/><path d="M265.49,29.35Z" transform="translate(-69.42 -8.91)"/><rect class="cls-21" x="224.45" y="31.78" width="3.4" height="0.04"/><rect class="cls-21" x="221.04" y="31.82" width="3.4" height="2.27"/><path class="cls-19" d="M291.8,18l1.36-2.25c-2.43,0-4.93-.25-7.28.54a10.51,10.51,0,0,0-3,1.59,11,11,0,0,0-1.54,1.43s0,.5,0,1c.7,0,2.12,0,2.13,0a8.43,8.43,0,0,1,2.5-1.65c1.85-.77,3.83-.63,5.78-.63Z" transform="translate(-69.42 -8.91)"/><path class="cls-19" d="M279.52,22.58Z" transform="translate(-69.42 -8.91)"/><path class="cls-19" d="M276.85,29.34h0V23.9h0v.86h-1.7v4.58Z" transform="translate(-69.42 -8.91)"/><path class="cls-19" d="M273.45,23.9V22.58H270v2.18h3.41Z" transform="translate(-69.42 -8.91)"/><rect class="cls-17" x="207.43" y="6.86" width="0.57" height="4.5"/><rect class="cls-17" x="195.62" y="18.16" width="0.57" height="2.27"/><rect class="cls-17" x="196.76" y="18.16" width="0.57" height="2.27"/><rect class="cls-17" x="194.49" y="18.16" width="0.57" height="2.27"/><rect x="196.19" y="18.16" width="0.57" height="2.27"/><rect x="195.05" y="18.16" width="0.57" height="2.27"/><path d="M267.31,27.07h-.57v2.27h.57Z" transform="translate(-69.42 -8.91)"/><rect class="cls-17" x="199.03" y="18.16" width="0.57" height="2.27"/><rect class="cls-17" x="200.16" y="18.16" width="0.57" height="2.27"/><rect class="cls-17" x="197.89" y="18.16" width="0.57" height="2.27"/><rect x="199.59" y="18.16" width="0.57" height="2.27"/><rect x="198.46" y="18.16" width="0.57" height="2.27"/><path d="M270.72,27.07h-.57v2.27h.57Z" transform="translate(-69.42 -8.91)"/><path class="cls-17" d="M272.47,24.24v.56H273v-.56Z" transform="translate(-69.42 -8.91)"/><rect class="cls-17" x="202.08" y="15.33" width="0.49" height="0.57"/><rect class="cls-17" x="201.11" y="15.33" width="0.49" height="0.57"/><path d="M272.47,24.8v-.56H272v.56Z" transform="translate(-69.42 -8.91)"/><rect x="201.59" y="15.33" width="0.49" height="0.57"/><path d="M273,24.24v.56h.49v-.56Z" transform="translate(-69.42 -8.91)"/><rect x="200.62" y="15.33" width="0.49" height="0.57"/><rect class="cls-17" x="197.22" y="22.7" width="1.14" height="0.82"/><rect class="cls-17" x="194.94" y="22.7" width="1.14" height="0.82"/><rect x="196.08" y="22.7" width="1.14" height="0.82"/><rect x="193.8" y="22.7" width="1.14" height="0.82"/><rect class="cls-18" x="209.7" y="11.35" width="3.7" height="2.31"/><rect class="cls-27" x="33.56" y="12.53" width="2.27" height="1.13"/><polygon class="cls-37" points="29.03 11.4 27.89 11.4 26.76 11.4 26.76 12.53 29.03 12.53 29.03 11.4"/><polygon class="cls-37" points="29.03 11.4 29.03 11.4 29.03 12.53 29.03 11.4"/><path class="cls-37" d="M98.45,20.31Z" transform="translate(-69.42 -8.91)"/><polygon class="cls-36" points="31.3 11.4 31.3 11.4 29.03 11.4 31.3 11.4"/><rect class="cls-36" x="29.03" y="11.4" width="2.27" height="1.13"/><polygon class="cls-39" points="35.83 11.4 35.83 11.4 33.56 11.4 35.83 11.4"/><path class="cls-39" d="M105.25,20.31h0Z" transform="translate(-69.42 -8.91)"/><rect class="cls-39" x="33.56" y="11.4" width="2.27" height="1.13"/><polygon class="cls-40" points="35.83 11.4 36.4 11.4 36.97 11.4 37.54 11.4 38.1 11.4 35.83 11.4"/><rect class="cls-3" x="26.76" y="6.86" width="1.13" height="2.27"/><rect class="cls-3" x="27.89" y="6.86" width="0.38" height="2.27"/><rect class="cls-3" x="28.27" y="6.86" width="0.38" height="2.27"/><rect class="cls-3" x="28.65" y="6.86" width="0.38" height="2.27"/><path class="cls-3" d="M98.45,15.77Z" transform="translate(-69.42 -8.91)"/><path class="cls-3" d="M98.45,18v0Z" transform="translate(-69.42 -8.91)"/><polygon class="cls-4" points="30.92 6.86 30.92 6.86 31.3 6.86 30.92 6.86"/><polygon class="cls-4" points="30.54 6.86 30.54 6.86 30.92 6.86 30.54 6.86"/><polygon class="cls-4" points="30.16 6.86 30.16 6.86 30.54 6.86 30.16 6.86"/><polygon class="cls-4" points="29.78 6.86 29.78 6.86 30.16 6.86 29.78 6.86"/><polygon class="cls-4" points="29.03 6.86 29.03 6.86 29.78 6.86 29.03 6.86"/><rect class="cls-33" x="31.3" y="12.53" width="2.27" height="1.13"/><polygon class="cls-20" points="35.84 15.95 35.84 18.2 38.1 18.2 38.1 15.95 38.1 15.94 35.84 15.94 35.84 15.95"/><polygon class="cls-20" points="35.84 9.13 38.1 9.13 38.1 6.86 37.35 6.86 35.84 6.86 35.84 9.13"/><line class="cls-34" x1="26.76" y1="13.67" x2="26.76" y2="12.53"/><polygon class="cls-35" points="29.03 12.53 29.03 12.53 26.76 12.53 26.76 13.67 29.03 13.67 29.03 12.53"/><polygon class="cls-13" points="35.83 5.5 35.83 6.86 35.84 6.86 37.35 6.86 38.1 6.86 40.37 6.86 40.37 5.5 38.1 5.5 35.83 5.5"/><polygon class="cls-14" points="31.3 3.45 31.3 3.45 33.56 3.45 31.3 3.45 31.3 3.45 31.3 2.32 31.3 1.19 33.56 1.19 33.56 0.05 31.3 0.05 31.3 2.32 31.3 3.45"/><polygon class="cls-14" points="38.1 0.05 37.54 0.05 36.97 0.05 36.4 0.05 35.83 0.05 35.83 1.19 35.83 1.41 38.1 1.41 40.37 1.41 40.37 1.19 40.37 0.05 38.1 0.05"/><rect class="cls-15" x="29.03" y="12.53" width="2.27" height="1.13"/><polygon class="cls-15" points="38.1 1.41 35.83 1.41 35.83 2.32 35.83 2.77 38.1 2.77 40.37 2.77 40.37 2.32 40.37 1.41 38.1 1.41"/><polygon class="cls-15" points="31.3 6.86 32.81 6.86 33.56 6.86 33.56 4.59 35.83 4.59 33.56 4.59 33.56 3.45 33.56 4.59 31.3 4.59 29.03 4.59 31.3 4.59 31.3 6.86"/><polygon class="cls-15" points="35.83 0.05 36.4 0.05 36.97 0.05 37.54 0.05 38.1 0.05 38.1 0.05 35.83 0.05 35.83 0.05"/><path class="cls-15" d="M105.25,12.36Z" transform="translate(-69.42 -8.91)"/><polygon class="cls-16" points="29.03 3.45 29.03 3.45 31.3 3.45 31.3 2.32 31.3 0.05 29.03 0.05 29.03 2.32 29.03 3.45"/><line class="cls-16" x1="26.76" y1="9.13" x2="26.76" y2="6.86"/><rect class="cls-17" x="33.56" y="13.67" width="2.27" height="2.27"/><rect class="cls-17" x="27.89" y="10.26" width="1.13" height="1.13"/><polygon class="cls-17" points="29.03 15.94 29.03 15.95 29.03 20.47 30.16 20.47 30.16 15.95 30.16 15.94 31.3 15.94 31.3 13.67 29.03 13.67 29.03 15.94"/><polygon class="cls-17" points="29.03 20.47 29.03 20.47 27.89 20.47 27.89 25.01 29.03 25.01 29.03 20.47"/><polygon class="cls-17" points="29.03 4.59 29.03 4.59 31.3 4.59 33.56 4.59 33.56 3.45 31.3 3.45 31.3 3.45 29.03 3.45 28.03 3.45 26.76 3.45 26.76 4.59 28.03 4.59 29.03 4.59"/><rect class="cls-17" x="35.83" y="31.86" width="0.57" height="2.23"/><rect class="cls-17" x="36.97" y="31.86" width="0.57" height="2.23"/><rect class="cls-17" x="33.56" y="31.86" width="0.57" height="2.23"/><rect class="cls-17" x="34.7" y="31.86" width="0.57" height="2.23"/><rect class="cls-17" x="38.1" y="11.4" width="0.57" height="1.13"/><rect class="cls-17" x="39.24" y="11.4" width="0.57" height="1.13"/><rect class="cls-17" x="35.83" y="11.4" width="0.57" height="1.13"/><polygon class="cls-17" points="36.97 12.53 36.97 12.53 37.54 12.53 37.54 11.4 36.97 11.4 36.97 12.53"/><polygon class="cls-17" points="34.13 1.19 34.13 1.19 34.13 0.05 33.56 0.05 33.56 1.19 34.13 1.19"/><rect class="cls-17" x="34.7" y="0.05" width="0.57" height="1.13"/><rect class="cls-17" x="31.3" y="31.86" width="1.13" height="2.23"/><polygon class="cls-17" points="40.37 15.94 40.37 18.2 42.64 18.2 42.64 15.94 42.07 15.94 42.07 13.67 41.51 13.67 41.51 15.94 40.94 15.94 40.94 13.67 40.37 13.67 40.37 15.94"/><line class="cls-17" x1="26.76" y1="12.53" x2="26.76" y2="11.4"/><rect class="cls-17" x="38.1" y="13.67" width="0.57" height="2.27"/><rect class="cls-17" x="39.24" y="13.67" width="0.57" height="2.27"/><polygon class="cls-18" points="29.78 6.86 30.16 6.86 30.54 6.86 30.92 6.86 31.3 6.86 31.3 4.59 29.03 4.59 29.03 6.86 29.78 6.86"/><polygon class="cls-18" points="33.56 6.86 34.32 6.86 35.83 6.86 35.83 5.5 35.83 4.59 33.56 4.59 33.56 6.86"/><rect class="cls-18" x="31.3" y="11.4" width="2.27" height="1.13"/><polygon class="cls-18" points="33.56 4.59 35.83 4.59 35.83 4.13 38.1 4.13 40.37 4.13 40.37 3.45 40.37 2.77 38.1 2.77 35.83 2.77 35.83 3.45 33.56 3.45 33.56 4.59"/><polygon class="cls-18" points="33.56 1.19 33.56 0.05 34.13 0.05 34.7 0.05 35.27 0.05 35.83 0.05 35.83 0.05 33.56 0.05 33.56 1.19"/><polygon points="33.56 6.86 32.81 6.86 31.3 6.86 30.92 6.86 30.54 6.86 30.16 6.86 29.78 6.86 29.03 6.86 29.03 9.13 28.65 9.13 28.27 9.13 27.89 9.13 27.89 10.26 29.03 10.26 29.03 11.4 31.3 11.4 33.56 11.4 35.83 11.4 38.1 11.4 38.1 9.13 35.84 9.13 35.84 6.86 35.83 6.86 34.32 6.86 33.56 6.86"/><polygon points="29.03 20.47 29.03 15.95 29.03 15.94 27.89 15.94 27.89 20.47 29.03 20.47"/><polygon points="29.03 3.45 29.03 2.32 26.76 2.32 26.76 3.45 28.03 3.45 29.03 3.45"/><polygon points="40.37 3.45 40.37 4.13 40.37 4.59 40.37 2.32 40.37 2.77 40.37 3.45"/><path d="M107.52,18v0Z" transform="translate(-69.42 -8.91)"/><path d="M108.66,21.44V20.31h.57v1.13Zm-1.14-1.13h.57v1.13h-.57V20.31H107v1.13h-.57V20.31h-.57v1.13h-.57v3.41H103V22.58h-2.26v2.27H99.58v4.52H98.45V43h2.27V40.77h1.13V43H103V40.77h.57V43h.57V40.77h.57V43h.56V40.77h.57V43h.57V40.77H107V43h2.84V27.11h-2.28V24.85h0v2.25h-2.25V24.86h2.25V22.58h.57v2.27h.57V22.58h.57v2.27h.57V20.31Z" transform="translate(-69.42 -8.91)"/><polygon points="33.56 3.45 35.83 3.45 35.83 2.77 35.83 2.32 35.83 1.41 35.83 1.19 35.83 0.05 35.27 0.05 35.27 1.19 34.7 1.19 34.7 0.05 34.13 0.05 34.13 1.19 33.56 1.19 31.3 1.19 31.3 2.32 31.3 3.45 31.3 3.45 33.56 3.45 33.56 3.45"/><rect x="40.94" y="13.67" width="0.57" height="2.27"/><rect x="42.07" y="13.67" width="0.57" height="2.27"/><polygon class="cls-21" points="39.24 15.94 38.67 15.94 38.1 15.94 38.1 18.2 40.37 18.2 40.37 15.94 39.8 15.94 39.24 15.94"/><polygon class="cls-21" points="38.1 9.13 38.1 9.13 40.37 9.13 40.37 6.86 38.1 6.86 38.1 9.13"/><rect class="cls-19" x="38.1" y="0.05" width="2.27"/><polygon class="cls-19" points="40.37 5.5 40.37 4.59 40.37 4.13 38.1 4.13 35.83 4.13 35.83 4.59 35.83 5.5 38.1 5.5 40.37 5.5"/><polygon class="cls-16" points="38.1 9.13 38.1 9.13 38.1 11.4 40.37 11.4 40.37 9.13 38.1 9.13"/><rect class="cls-16" x="24.49" y="6.86" width="2.27" height="2.27"/><rect class="cls-17" x="34.08" y="22.74" width="1.14" height="2.31"/><rect class="cls-17" x="36.35" y="22.74" width="1.14" height="2.31"/><rect class="cls-17" x="31.81" y="22.74" width="1.14" height="2.31"/><rect x="35.21" y="22.74" width="1.14" height="2.31"/><rect x="32.94" y="22.74" width="1.14" height="2.31"/><path d="M108,31.65h-1.13V34H108Z" transform="translate(-69.42 -8.91)"/><path class="cls-43" d="M118.15,29.5v0Z" transform="translate(-69.42 -8.91)"/><polygon class="cls-43" points="60.08 21.38 60.08 21.38 60.08 20.47 60.08 20.59 60.08 21.38"/><polygon class="cls-44" points="47.6 30.08 47.6 27.32 46.46 27.32 45.33 27.32 45.33 27.62 45.33 29.62 45.33 31.86 47.6 31.86 47.6 30.13 47.6 30.08"/><polygon class="cls-45" points="49.87 31.29 49.87 27.78 49.87 27.32 48.73 27.32 47.6 27.32 47.6 30.08 47.6 30.13 47.6 31.86 49.87 31.86 49.87 31.63 49.87 31.29"/><polygon class="cls-46" points="54.4 27.32 53.27 27.32 52.13 27.32 52.13 28.69 52.13 31.86 54.4 31.86 54.4 29.6 54.4 27.32"/><polygon class="cls-47" points="54.4 29.6 54.4 31.86 56.67 31.86 56.67 30.51 56.67 27.32 55.54 27.32 54.4 27.32 54.4 29.6"/><polygon class="cls-9" points="51 2.32 53.27 2.32 53.27 1.03 53.27 0.05 51 0.05 51 2 51 2.32"/><polygon class="cls-10" points="53.27 2.32 55.54 2.32 55.54 0.42 55.54 0.05 53.27 0.05 53.27 1.03 53.27 2.32"/><path class="cls-14" d="M120.42,13.54h.51a14.59,14.59,0,0,1,14.68,0h1.1l1.09-1.64-.13-.09A18.68,18.68,0,0,0,127.23,9H125v2.27H119.8c-.38.21-.75.44-1.12.68l1.12,1.63Z" transform="translate(-69.42 -8.91)"/><polygon class="cls-14" points="50.98 20.59 50.98 20.47 50.98 20.14 50.98 18.73 50.98 18.34 50.98 15.94 50.41 15.94 49.85 15.94 49.29 15.94 48.73 15.94 48.73 18.34 48.73 18.73 48.73 20.14 48.73 20.47 48.73 20.59 50.98 20.59"/><polygon class="cls-14" points="48.73 21.95 48.73 21.38 48.73 21.04 48.73 20.59 46.46 20.59 46.46 21.04 46.46 21.38 46.46 21.95 46.46 22.85 48.73 22.85 48.73 21.95"/><path class="cls-15" d="M118.15,15.77h0v0h4.54v-.3h0a12.07,12.07,0,0,1,9.08-.88v1.19H134v2.27h2.67V13.54h-1.1a14.59,14.59,0,0,0-14.68,0h-2.78v2.23Z" transform="translate(-69.42 -8.91)"/><polygon class="cls-15" points="51 20.59 51 21.04 51 21.38 51 21.95 51 22.85 53.27 22.85 53.27 21.95 53.27 21.38 53.27 20.59 53.27 20.59 51 20.59"/><polygon class="cls-15" points="52.13 31.86 52.13 28.69 52.13 27.32 51 27.32 49.87 27.32 49.87 27.78 49.87 31.29 49.87 31.63 49.87 31.86 50.98 31.86 51.29 31.86 52.13 31.86"/><polygon class="cls-15" points="56.62 13.71 56.62 13.71 56.61 13.71 55.54 13.71 55.54 13.72 55.54 13.82 55.54 14.85 55.54 15.94 54.4 15.94 53.27 15.94 53.27 18.73 53.27 20.14 53.27 20.47 53.27 20.59 55.54 20.59 55.54 20.47 55.54 18.25 55.54 15.94 57.81 15.94 58.14 15.94 58.14 15.94 58.14 15.94 60.05 15.94 60.05 14.85 60.05 14.85 60.05 13.71 57.81 13.71 56.62 13.71"/><polygon class="cls-16" points="46.46 21.95 46.46 21.38 46.46 21.04 46.46 20.59 48.73 20.59 48.73 20.47 48.73 20.14 48.73 18.73 48.73 18.34 48.73 15.94 47.89 15.94 46.46 15.94 46.46 18.34 46.46 20.14 46.46 20.47 46.46 20.59 44.19 20.59 44.19 21.38 44.19 22.74 44.19 22.85 46.46 22.85 46.46 21.95"/><path class="cls-17" d="M134,20.35v0Z" transform="translate(-69.42 -8.91)"/><polygon class="cls-17" points="45.33 11.45 46.46 11.45 46.46 5.43 46.46 4.59 45.33 4.59 45.33 6.8 45.33 11.45"/><polygon class="cls-17" points="42.21 13.67 44.19 13.67 44.19 13.71 44.19 11.45 44.19 8.53 44.19 4.59 42.96 4.59 43.06 4.59 43.06 10.87 43.06 11.45 42.96 11.45 42.84 11.45 41.92 11.45 41.92 13.71 41.92 13.67 42.21 13.67"/><path class="cls-17" d="M118.15,29.05v0Z" transform="translate(-69.42 -8.91)"/><polygon class="cls-17" points="41.92 18.34 41.92 20.47 41.92 20.59 41.92 20.47 41.92 18.34"/><rect class="cls-17" x="37.38" y="18.21" width="2.27" height="2.26"/><polygon class="cls-17" points="44.19 15.94 41.94 15.94 41.92 15.94 41.92 18.19 41.97 18.19 44.19 18.19 44.19 15.94"/><polygon class="cls-17" points="58.94 27.32 60.08 27.32 60.08 25.01 57.81 25.01 57.81 27.32 58.94 27.32"/><polygon class="cls-17" points="52.32 23.75 51 25.01 53.27 25.01 53.27 27.32 54.4 27.32 55.54 27.32 55.54 25.01 53.27 25.01 54.59 23.75 55.54 22.85 53.27 22.85 52.32 23.75"/><polygon class="cls-17" points="57.81 20.59 57.81 21.38 57.81 22.85 60.08 22.85 60.08 21.38 60.08 20.59 57.81 20.59"/><polygon class="cls-17" points="59.13 23.75 60.08 22.85 57.81 22.85 56.86 23.75 55.54 25.01 57.81 25.01 59.13 23.75"/><polygon class="cls-17" points="48.73 25.01 50.05 23.75 51 22.85 48.73 22.85 47.78 23.75 46.46 25.01 48.73 25.01 48.73 27.32 49.87 27.32 51 27.32 51 25.01 48.73 25.01"/><path class="cls-16" d="M125,20.07v2.55h4.51V19.31a6.79,6.79,0,0,0-4.51.76Z" transform="translate(-69.42 -8.91)"/><polygon class="cls-17" points="53.27 13.82 53.27 14.85 55.54 14.85 55.54 13.82 55.54 13.72 53.27 13.72 53.27 13.82"/><polygon class="cls-17" points="51.57 14.85 51.57 13.82 51.57 13.72 51.57 13.71 51.57 11.45 51 11.45 51 13.71 51 13.72 51 13.82 51 14.85 51 15.94 51.57 15.94 51.57 14.85"/><polygon class="cls-17" points="52.13 13.72 52.13 13.82 52.13 14.85 52.13 15.94 52.7 15.94 52.7 14.85 52.7 13.82 52.7 13.72 52.7 11.45 52.13 11.45 52.13 13.72"/><polygon class="cls-17" points="49.3 14.85 49.3 14.85 49.3 13.82 49.3 13.72 49.3 11.45 48.73 11.45 48.73 13.72 48.73 13.82 48.73 14.85 48.73 15.94 49.3 15.94 49.3 14.85"/><polygon class="cls-17" points="50.43 14.85 50.43 13.82 50.43 13.72 50.43 11.45 49.87 11.45 49.87 13.72 49.87 13.82 49.87 14.85 49.87 15.94 50.43 15.94 50.43 14.85"/><polygon class="cls-18" points="52.13 15.94 51.57 15.94 51 15.94 51 18.34 51 18.73 51 20.14 51 20.47 51 20.59 53.27 20.59 53.27 20.59 53.27 20.47 53.27 20.14 53.27 18.73 53.27 15.94 52.7 15.94 52.13 15.94"/><polygon class="cls-18" points="48.73 21.38 48.73 21.95 48.73 22.85 51 22.85 51 21.95 51 21.38 51 21.04 51 20.59 48.73 20.59 48.73 21.04 48.73 21.38"/><path class="cls-18" d="M119.29,20.35h1.13V18.08h2.93l0,0c.16-.09.32-.19.49-.27l0,0a9.88,9.88,0,0,1,1-.47l.42-.14h0l.22-.07h0a10.42,10.42,0,0,1,1.85-.35h.12a8.55,8.55,0,0,1,.88,0h.14c.3,0,.57,0,.88.07v1.31H134V15.81h-2.27V14.62a12.07,12.07,0,0,0-9.08.88h0v.3h-2.27v2.27h-2.27v2.27h1.14Z" transform="translate(-69.42 -8.91)"/><path class="cls-18" d="M125.6,17.08a9.59,9.59,0,0,1,1.85-.35,9.59,9.59,0,0,0-1.85.35Z" transform="translate(-69.42 -8.91)"/><path class="cls-18" d="M128.59,16.7c.3,0,.57,0,.88.07-.31,0-.58-.06-.88-.07Z" transform="translate(-69.42 -8.91)"/><path class="cls-18" d="M125.38,17.15l.22-.07-.22.07Z" transform="translate(-69.42 -8.91)"/><path class="cls-18" d="M127.57,16.72a8.55,8.55,0,0,1,.88,0,8.55,8.55,0,0,0-.88,0Z" transform="translate(-69.42 -8.91)"/><polyline points="39.65 11.45 39.65 13.71 41.92 13.71 41.92 11.45 40.79 11.45 40.76 11.45 39.65 11.45"/><rect x="39.65" y="18.21" width="2.27" height="2.26"/><polygon points="53.27 25.01 51 25.01 51 27.32 52.13 27.32 53.27 27.32 53.27 25.01"/><path d="M129.5,29.38h0v2.38h-2.27V29.5h2.27Zm-2.27-2.22h0V29.5H125v2.26l-.95.9-1.32,1.26H125l1.32-1.26,1-.9h2.27l-.95.9-1.32,1.26h2.27v2.31h-2.27V33.92H125v2.31h1.13v4.54h-5.67V43h9.08a17.13,17.13,0,0,0,8.33-3L138,40l-8.48-12.32v-.51Z" transform="translate(-69.42 -8.91)"/><polygon points="48.73 25.01 51 25.01 52.32 23.75 53.27 22.85 51 22.85 50.05 23.75 48.73 25.01"/><polygon points="46.46 25.01 47.78 23.75 48.73 22.85 46.46 22.85 44.19 25.01 44.19 25.11 44.19 26 44.19 27.32 45.11 27.32 45.33 27.32 46.46 27.32 47.6 27.32 48.73 27.32 48.73 25.01 46.46 25.01"/><polygon points="41.92 11.45 42.84 11.45 42.96 11.45 43.06 11.45 43.06 10.87 43.06 4.59 42.96 4.59 41.92 4.59 41.92 11.45"/><path d="M111.34,29.38v4.53h2.27V29.5h2.27V24.84h2.27V18.08h2.27V15.81h-2.27v0h0V13.54h1.65l-1.12-1.63-.12.09a14.1,14.1,0,0,0-1.85,1.5h-.83v6.85h-1.13V13.5h-1.14v9.07h-2.26v.05h-2.27v1.13h2.27v1.08h2.26V27.1h-2.26v2.27Z" transform="translate(-69.42 -8.91)"/><polygon points="51 15.94 51 14.85 51 13.82 51 13.72 51 13.71 51 11.45 51.57 11.45 51.57 13.71 51.57 13.72 51.57 13.82 51.57 14.85 51.57 15.94 52.13 15.94 52.13 14.85 52.13 13.82 52.13 13.72 52.13 11.45 51.91 11.45 51.91 10.83 51.91 9.17 51 9.17 51 10.27 51 11.45 50.43 11.45 50.43 13.72 50.43 13.82 50.43 14.85 50.43 15.94 51 15.94"/><polygon points="55.54 9.17 54.63 9.17 54.63 10.81 54.63 10.83 54.63 11.45 53.72 11.45 53.72 9.51 53.72 9.5 53.72 9.3 53.72 9.3 53.72 9.17 53.49 9.17 53.27 9.17 52.81 9.17 52.81 9.96 52.81 11.45 52.7 11.45 52.7 13.72 52.7 13.82 52.7 14.85 52.7 15.94 53.27 15.94 54.4 15.94 55.54 15.94 55.54 14.85 53.27 14.85 53.27 13.82 53.27 13.72 55.54 13.72 55.54 13.71 55.54 12.15 55.54 12.12 55.54 11.45 55.54 11.16 55.54 9.17"/><polygon points="49.87 14.85 49.87 13.82 49.87 13.72 49.87 11.45 49.3 11.45 49.3 13.72 49.3 13.82 49.3 14.85 49.3 15.94 49.87 15.94 49.87 14.85"/><path class="cls-19" d="M124.05,19.74h0V18.08H125v2a6.73,6.73,0,0,1,4.51-.75v1H134V18.08h-4.57V16.77c-.31,0-.58-.06-.88-.07h-.14a8.55,8.55,0,0,0-.88,0h-.12a10.42,10.42,0,0,0-1.85.35l-.22.07-.42.14a9.88,9.88,0,0,0-1,.47l0,0c-.17.08-.33.18-.49.27l0,0h-.21v.13h0v.2h0v1.94h.91v-.61Z" transform="translate(-69.42 -8.91)"/><polygon class="cls-19" points="52.7 11.45 52.81 11.45 52.81 9.96 52.81 9.17 51.91 9.17 51.91 10.83 51.91 11.45 52.13 11.45 52.7 11.45"/><polygon class="cls-19" points="57.81 20.47 57.81 18.25 60.05 18.25 60.05 15.94 58.14 15.94 58.14 15.94 58.14 15.94 57.81 15.94 55.54 15.94 55.54 18.25 55.54 20.47 55.54 20.59 57.81 20.59 57.81 20.47"/><polygon class="cls-19" points="55.54 22.85 55.54 21.38 55.54 20.59 53.27 20.59 53.27 21.38 53.27 21.95 53.27 22.85 55.54 22.85 55.54 22.85"/><rect class="cls-17" x="39.65" y="20.46" width="0.57" height="2.28"/><rect class="cls-17" x="40.79" y="20.46" width="0.57" height="2.28"/><rect class="cls-17" x="38.52" y="20.46" width="0.57" height="2.28"/><rect x="40.22" y="20.46" width="0.57" height="2.28"/><rect x="39.09" y="20.46" width="0.57" height="2.28"/><path d="M111.35,29.37h-.57v2.28h.57Z" transform="translate(-69.42 -8.91)"/><rect class="cls-17" x="40.79" y="9.17" width="0.57" height="2.28"/><rect class="cls-17" x="41.93" y="9.17" width="0.57" height="2.28"/><rect class="cls-17" x="39.65" y="9.17" width="0.57" height="2.28"/><rect x="41.36" y="9.17" width="0.57" height="2.28"/><rect x="40.22" y="9.17" width="0.57" height="2.28"/><path d="M112.48,18.08h-.56v2.28h.56Z" transform="translate(-69.42 -8.91)"/><polygon class="cls-17" points="44.19 25.01 44.19 22.85 46.46 22.85 44.19 25.01"/><rect class="cls-17" x="65.83" y="22.74" width="0.57" height="2.35"/><rect class="cls-17" x="66.97" y="22.74" width="0.57" height="2.35"/><rect class="cls-17" x="64.7" y="22.74" width="0.57" height="2.35"/><rect x="66.4" y="22.74" width="0.57" height="2.35"/><rect x="65.26" y="22.74" width="0.57" height="2.35"/><path d="M137.52,31.65H137V34h.56Z" transform="translate(-69.42 -8.91)"/><rect class="cls-17" x="68.1" y="0.05" width="2.27" height="6.81"/><path class="cls-37" d="M139.79,28.29V27.11h-2.27v2.27h2.27Z" transform="translate(-69.42 -8.91)"/><path class="cls-36" d="M139.79,27.11v2.27h2.27V27.11Z" transform="translate(-69.42 -8.91)"/><path class="cls-39" d="M144.33,27.11h0v2.27h2.27V27.11Z" transform="translate(-69.42 -8.91)"/><polygon class="cls-40" points="79.45 20.47 79.45 20.46 79.44 20.47 79.45 20.47"/><path class="cls-40" d="M148.55,27.11h-2v2.27h2.26c.07-.74,0-1.52,0-2.27Z" transform="translate(-69.42 -8.91)"/><rect class="cls-27" x="79.45" y="6.86" width="1.42" height="0.01"/><polygon class="cls-27" points="80.87 8.56 80.58 9.13 80.87 9.13 80.87 8.56"/><path class="cls-27" d="M150.29,15.77h-1.42V18H150a1.78,1.78,0,0,0,.28-.94V15.77Z" transform="translate(-69.42 -8.91)"/><path class="cls-27" d="M151.14,29.38h-2.27v4.54h2.27Z" transform="translate(-69.42 -8.91)"/><path class="cls-33" d="M146.6,18h2.27V15.77H146.6V18Z" transform="translate(-69.42 -8.91)"/><path class="cls-33" d="M146.85,29.38h-.25v4.54h2.27V29.38Z" transform="translate(-69.42 -8.91)"/><path class="cls-34" d="M142.06,17.45V15.77h-1.13V18h1.13Z" transform="translate(-69.42 -8.91)"/><path class="cls-34" d="M142.06,31.77V30h-2.27v4h2.27Z" transform="translate(-69.42 -8.91)"/><path class="cls-34" d="M140.93,29.38h0Z" transform="translate(-69.42 -8.91)"/><path class="cls-35" d="M142.06,17.45V18h2.27V15.77h-2.27v1.68Z" transform="translate(-69.42 -8.91)"/><path class="cls-35" d="M143.65,29.38h0Z" transform="translate(-69.42 -8.91)"/><rect class="cls-35" x="72.64" y="21.04" width="2.27" height="3.97"/><path class="cls-9" d="M140.36,26.55h1.7V24.84h-2.27v1.71Z" transform="translate(-69.42 -8.91)"/><path class="cls-10" d="M142.06,24.85v2.27h2.27V24.85h-2.27v0Z" transform="translate(-69.42 -8.91)"/><path class="cls-11" d="M148.55,27.11h.32V24.85H146.6v2.26Z" transform="translate(-69.42 -8.91)"/><path class="cls-12" d="M150.37,27.11h.75V24.85h-2.25v2.26Z" transform="translate(-69.42 -8.91)"/><path class="cls-13" d="M148.87,33.92h0Z" transform="translate(-69.42 -8.91)"/><path class="cls-13" d="M155.68,43h-2.27V38.46h-2.27V43h4.54Z" transform="translate(-69.42 -8.91)"/><rect class="cls-13" x="70.37" y="11.39" width="1" height="0.01"/><path class="cls-13" d="M148.87,38.46h2.27V36.19h-2.27Z" transform="translate(-69.42 -8.91)"/><path class="cls-13" d="M135.23,15.2h1.09v-4h-1.09v4Z" transform="translate(-69.42 -8.91)"/><path class="cls-14" d="M144.33,43V38.46h-2.27V36.19h-4.54v2.27h4.54v2.27h-2.27V43h4.54Z" transform="translate(-69.42 -8.91)"/><path class="cls-14" d="M144.33,27.11h2.27V24.85h-2.27Z" transform="translate(-69.42 -8.91)"/><rect class="cls-14" x="62.86" y="4.59" width="1.56" height="1.7"/><rect class="cls-14" x="62.86" y="7.43" width="1.56" height="1.7"/><rect class="cls-14" x="64.42" y="9.13" width="1.4" height="2.27"/><rect class="cls-14" x="82.43" y="2.32" width="1.56" height="2.27"/><path class="cls-14" d="M150.29,17.47V18h1.56V13.5h-1.56v4Z" transform="translate(-69.42 -8.91)"/><path class="cls-15" d="M146.6,43V38.46h-2.27V43h2.27Z" transform="translate(-69.42 -8.91)"/><path class="cls-15" d="M142.06,38.46h2.27V36.19h-2.27Z" transform="translate(-69.42 -8.91)"/><path class="cls-15" d="M144.33,15.77V18h2.27V15.77Z" transform="translate(-69.42 -8.91)"/><path class="cls-15" d="M136.32,18h-1.09v2.27h1.09V18Z" transform="translate(-69.42 -8.91)"/><path class="cls-15" d="M135.23,15.2v-4h-1.39v4Z" transform="translate(-69.42 -8.91)"/><rect class="cls-15" x="64.42" y="7.43" width="1.4" height="1.7"/><path class="cls-15" d="M146.6,32.78v-3.4h-2.27v4.54h2.27Z" transform="translate(-69.42 -8.91)"/><path class="cls-15" d="M139.79,36.19V33.92h-2.27v2.27Z" transform="translate(-69.42 -8.91)"/><polygon class="cls-16" points="80.45 25.01 80.45 25.01 81.72 25.01 80.45 25.01"/><path class="cls-16" d="M140.79,20.31h0Z" transform="translate(-69.42 -8.91)"/><path class="cls-16" d="M158,41.14V38.46h-2.27V43h3.52L158,41.14Z" transform="translate(-69.42 -8.91)"/><polygon class="cls-17" points="70.37 6.86 70.37 6.86 71.51 6.86 70.37 6.86"/><path class="cls-17" d="M137.52,27.11h.57v-.56h.57v.56h.57v-.56h.56V24.84h-2.26Z" transform="translate(-69.42 -8.91)"/><polygon class="cls-17" points="70.37 14.64 70.37 14.12 68.1 14.12 68.1 15.03 70.37 15.03 70.37 14.64"/><path class="cls-17" d="M142.06,24.85v-.91h-2.27v.91Z" transform="translate(-69.42 -8.91)"/><path class="cls-17" d="M151.85,15.77V18H150l-1.14,2.26h3c0-.39,0-.78,0-1.16a2.84,2.84,0,0,1,.42-1.11h1.14V13.5h-1.56v2.27Z" transform="translate(-69.42 -8.91)"/><path class="cls-17" d="M139.79,20.31V23h2.27V20.31Z" transform="translate(-69.42 -8.91)"/><polygon class="cls-17" points="74.91 11.4 74.91 11.4 77.18 11.4 74.91 11.4"/><path class="cls-17" d="M145.84,18h-.37l-1.14,2.26h2.27L147.74,18Z" transform="translate(-69.42 -8.91)"/><polygon class="cls-17" points="70.37 11.39 72.64 11.39 73.78 9.13 71.51 9.13 70.37 11.39"/><polygon class="cls-17" points="69.24 9.13 68.1 9.13 68.1 10.82 69.24 9.13"/><polygon class="cls-17" points="79.31 4.59 78.84 4.59 78.84 2.32 79.31 2.32 77.75 2.32 78.28 2.32 78.28 4.59 77.75 4.59 77.75 6.86 79.31 6.86 79.31 4.59"/><path class="cls-17" d="M144.86,13.5V11.23h.57V13.5Zm.75,2.27V13.5H146V11.23h-1.94v4.54Z" transform="translate(-69.42 -8.91)"/><path class="cls-17" d="M140.93,10.66v5.11h1.56V11.23h-.43V9h-1.13v1.7Z" transform="translate(-69.42 -8.91)"/><path class="cls-17" d="M136.32,15.77h1.2V15.2h-1.2Z" transform="translate(-69.42 -8.91)"/><path class="cls-17" d="M135.23,15.77V15.2h-1.39v.57Z" transform="translate(-69.42 -8.91)"/><rect class="cls-17" x="61.3" y="6.29" width="1.56" height="0.57"/><path class="cls-17" d="M137.52,16.33h1.85v-.56h-1.85v.56Z" transform="translate(-69.42 -8.91)"/><rect class="cls-17" x="65.81" y="6.86" width="1.08" height="0.57"/><path class="cls-17" d="M133.84,15.77h-1.56v.56h1.56Z" transform="translate(-69.42 -8.91)"/><rect class="cls-17" x="77.14" y="2.32" width="0.57" height="2.27"/><path class="cls-17" d="M140.36,40.73V38.46h-.57v2.27Z" transform="translate(-69.42 -8.91)"/><path class="cls-17" d="M140.93,40.73h.57V38.46h-.57Z" transform="translate(-69.42 -8.91)"/><rect class="cls-17" x="68.1" y="29.55" width="0.57" height="2.27"/><rect class="cls-17" x="69.24" y="29.55" width="0.57" height="2.27"/><path class="cls-17" d="M140.36,26.55h-.57v.56h.57v-.56Z" transform="translate(-69.42 -8.91)"/><path class="cls-17" d="M141.5,26.55h-.57v.56h.57v-.56Z" transform="translate(-69.42 -8.91)"/><path class="cls-17" d="M140.93,30v-.57h-1.14V30Z" transform="translate(-69.42 -8.91)"/><rect class="cls-17" x="72.64" y="20.47" width="1.13" height="0.57"/><rect class="cls-17" x="65.83" y="20.47" width="1.13" height="0.57"/><path class="cls-18" d="M148.87,43V38.46H146.6V43h2.27Z" transform="translate(-69.42 -8.91)"/><path class="cls-18" d="M142.06,33.92h0Z" transform="translate(-69.42 -8.91)"/><path class="cls-18" d="M146.43,38.46h.17V36.19h-2.27v2.27Z" transform="translate(-69.42 -8.91)"/><path class="cls-18" d="M142.06,27.11v2.27h2.27V27.11Z" transform="translate(-69.42 -8.91)"/><path class="cls-18" d="M137.52,20.3V18h-1.2v2.27h1.2Z" transform="translate(-69.42 -8.91)"/><path d="M148.87,27.11v2.27h2.27V27.11h-2.27Z" transform="translate(-69.42 -8.91)"/><path d="M139.79,23.55v.39h2.27V23h-2.27Z" transform="translate(-69.42 -8.91)"/><rect x="68.1" y="15.03" width="2.27" height="0.91"/><path d="M139.79,22.58V20.31h-2.27V23h2.27Z" transform="translate(-69.42 -8.91)"/><path d="M137.52,20.3h2.27L140.93,18h-3.41Z" transform="translate(-69.42 -8.91)"/><path d="M136.32,15.2h1.2V9h-1.2V15.2Z" transform="translate(-69.42 -8.91)"/><path d="M146.56,11.23h.57V13.5h-.57Zm.61,2.27h.53V11.23h.56V13.5h.47v2.27h-1.56Zm-.57,6.81h0Zm-4.54-9.08h.43v4.54h1.56V11.23H146V13.5h-.38v2.27h4.68V13.5h1.56V11.23h1.56V18h-1.14a2.84,2.84,0,0,0-.42,1.11c0,.38,0,.77,0,1.16h-3L150,18h-2.27L146.6,20.3h-2.27L145.47,18H143.2l-1.14,2.26h0V23h0v1.82h9.08q4.8-6.75,9.61-13.48L162.47,9H142.06v2.27Z" transform="translate(-69.42 -8.91)"/><path d="M140.93,15.77h0V11.23h0V9h-1.14v2.27h-.42v4.54Z" transform="translate(-69.42 -8.91)"/><path d="M135.23,15.77h1.09V15.2h-1.09v.57Z" transform="translate(-69.42 -8.91)"/><path d="M132.28,15.77h1.56V15.2h-1.56Z" transform="translate(-69.42 -8.91)"/><path d="M136.32,15.77v.56h1.2v-.56Z" transform="translate(-69.42 -8.91)"/><rect x="64.42" y="6.86" width="1.4" height="0.57"/><rect x="61.3" y="6.86" width="1.56" height="0.57"/><path d="M145.43,13.5V11.23h-.57V13.5Z" transform="translate(-69.42 -8.91)"/><path d="M140.36,40.73h.57V38.46h-.57Z" transform="translate(-69.42 -8.91)"/><path d="M139.79,38.46h-.56v2.27h.56Z" transform="translate(-69.42 -8.91)"/><path d="M141.5,40.69v0h.56V38.46h-.56Z" transform="translate(-69.42 -8.91)"/><rect x="68.67" y="29.55" width="0.57" height="2.27"/><path d="M140.93,26.55h-.57v.56h.57v-.56Z" transform="translate(-69.42 -8.91)"/><path d="M142.06,26.55h-.56v.56h.56v-.56Z" transform="translate(-69.42 -8.91)"/><path d="M139.79,27.11v-.56h-.56v.56Z" transform="translate(-69.42 -8.91)"/><path d="M138.66,26.55h-.57v.56h.57v-.56Z" transform="translate(-69.42 -8.91)"/><rect x="71.51" y="20.47" width="1.13" height="0.57"/><path d="M139.79,29.38h-1.13V30h1.13Z" transform="translate(-69.42 -8.91)"/><path d="M143.2,29.38V30h1.13v-.57Z" transform="translate(-69.42 -8.91)"/><rect x="66.97" y="20.47" width="1.13" height="0.57"/><path class="cls-19" d="M148.87,36.19H146.6v2.27h2.27Z" transform="translate(-69.42 -8.91)"/><path class="cls-19" d="M151.14,43V38.46h-2.27V43h2.27Z" transform="translate(-69.42 -8.91)"/><path class="cls-19" d="M146.65,33.92h0Z" transform="translate(-69.42 -8.91)"/><path class="cls-19" d="M136.32,18h4.61V15.77h-1.56v.57h-4.13V18Z" transform="translate(-69.42 -8.91)"/><path class="cls-19" d="M144.33,15.77h0Z" transform="translate(-69.42 -8.91)"/><path class="cls-16" d="M153.41,38.46V36.19h-2.27v2.27h2.27V43h2.27V38.46Z" transform="translate(-69.42 -8.91)"/><rect class="cls-17" x="80.96" y="18.21" width="0.76" height="2.27"/><rect class="cls-17" x="82.48" y="18.21" width="0.76" height="2.27"/><rect class="cls-17" x="79.45" y="18.21" width="0.76" height="2.27"/><rect x="81.72" y="18.21" width="0.76" height="2.27"/><rect x="80.21" y="18.21" width="0.76" height="2.27"/><path d="M153.41,30.3V27.12h-.76v2.26h-1.51v4.54H139.79v2.27h13.62v2.27H158v2.65L159.2,43h3.27l-9.06-12.7Z" transform="translate(-69.42 -8.91)"/><rect class="cls-17" x="60.54" y="15.94" width="0.76" height="2.27"/><rect class="cls-17" x="62.05" y="15.94" width="0.76" height="2.27"/><rect class="cls-17" x="59.03" y="15.94" width="0.76" height="2.27"/><rect x="61.3" y="15.94" width="0.76" height="2.27"/><rect x="59.78" y="15.94" width="0.76" height="2.27"/><path d="M133,24.85h-.76v2.26H133Z" transform="translate(-69.42 -8.91)"/></svg>