<svg id="Layer_1" data-name="Layer 1" xmlns="http://www.w3.org/2000/svg" viewBox="0 0 239.73 34.12"><defs><style>.cls-1{fill:#fff;}.cls-2{fill:#00f8f5;}.cls-3{fill:#10f413;}.cls-4{fill:#0500fe;}.cls-5{fill:#f9f40a;}.cls-6{fill:#f70302;}.cls-7{fill:#f605f6;}.cls-8{fill:#8052c1;}.cls-9{fill:#21119c;}.cls-10{fill:#bffdfd;}.cls-11{fill:#80fcfa;}.cls-12{fill:#40faf8;}.cls-13{fill:#5f3b93;}</style></defs><title>logo normal</title><rect class="cls-1" width="239.73" height="34.1"/><path class="cls-2" d="M25,16v2l2.23,2.7V25H29.5V22.76h2.27v3.59h0v.93H34v-3L25,13Z"/><path class="cls-2" d="M21.67,11.35h2.11L22,9.14H20.43v2.21Z"/><path class="cls-3" d="M21.94.06h9.82V2.33h0V6.87H34V.06H21.94Z"/><path class="cls-4" d="M29.49,4h0V6.87h2.26V6.75h0V2.34h0V.06H29.49V4Z"/><path class="cls-4" d="M34,34.09V27.3H31.78v-.94h0V22.76H29.51V24H27.24V20.67L25,18v.25H21.24Z"/><polygon class="cls-4" points="27.23 0.06 27.23 1.21 27.23 0.06 26.29 0.06 27.23 0.06"/><polygon class="cls-4" points="34.04 9.14 31.77 9.14 31.77 11.35 34.04 11.35 34.04 9.53 34.04 9.54 34.04 9.14"/><path class="cls-5" d="M27.24,11.35H25V9.14H22l1.81,2.21H25V13l9,11.25V19.36l-6.45-8Z"/><path class="cls-1" d="M21.24,18.22h.39V16h-.52v-4.6h-.68v6.87h.8"/><path class="cls-1" d="M23.93,16h-.56v-4.6h-.56V16h0v2.27h1.15V16Z"/><path class="cls-1" d="M23.94,16h.57v-4.6h-.57Z"/><path class="cls-1" d="M21.67,16h.57v-4.6h-.57V16Z"/><path class="cls-1" d="M29.5,6.87V9.08h0v.06h2.27V6.87Z"/><path class="cls-1" d="M18.19,18.22V25h1.14V16.89H18.19Z"/><rect class="cls-1" x="13.62" y="18.22" width="1.13" height="6.81"/><path class="cls-1" d="M23.45,6.09v.78h.76V.06h-.76v6Z"/><path class="cls-1" d="M22.69,9.14h0V.06h-.76V6.87h-.76V.06h-.75V9.14Z"/><path class="cls-1" d="M28.75,9.08H28v2.27h.76V9.08Z"/><path class="cls-1" d="M27.24,9.14V6.87H25V9.14h0v2.21h.71V9.08h.76v2.27h.76Z"/><rect class="cls-1" x="6.81" y="15.95" width="2.27" height="0.94"/><rect class="cls-1" x="11.35" y="15.95" width="2.27" height="0.94"/><path class="cls-1" d="M15.89,16V25H17V16.89h1.12V16Z"/><path class="cls-6" d="M26.29.06h0Z"/><path class="cls-6" d="M34,11.35H31.77V9.14H29.51v2.21h2.26L34,14Z"/><polygon class="cls-6" points="31.76 6.87 31.77 6.87 31.77 6.76 31.76 6.75 31.76 6.87"/><path class="cls-6" d="M27.23,1.21V6h0v.87H29.5V4h0V.06H27.23Z"/><path d="M19.33,18.22V25H18.19V16.89h1.14Zm-1.17-1.33H17V25H15.89V16.89h0V16h2.27ZM14.75,25H13.62V18.22h1.13Zm-3.4-8.14V16h2.27v.94Zm-2.27,0H6.81V16H9.08v.94Zm11.35.32V16h-1L6.81.06v34H20.43V17.21Z"/><path d="M22.81,16v-4.6h-.57V16h-.57v-4.6h-.56V16h.52v2.27h1.15V16Z"/><path d="M25,16v-4.6h-.5V16h-.57v-4.6h-.57V16h.56v2.27H25V16Z"/><path d="M31.86,6.87h-.09V9.14H34V6.87Z"/><path d="M25,9.14h0V.06h-.8V6.87h-.76V.06H22.7V9.14Z"/><path d="M21.18,3.24V6.87h.76V.06h-.76Z"/><path d="M29.5,9.08V6.87H27.24v4.48H28V9.08h.76v2.27h.75V9.08Z"/><rect x="25.72" y="9.08" width="0.76" height="2.27"/><path class="cls-7" d="M27.23,6V.06H25V6.87h2.22V6Z"/><path class="cls-7" d="M29.5,11.35H27.59l6.45,8V14l-2.27-2.61Z"/><rect class="cls-2" x="39.08" y="9.14" width="2.27" height="2.27"/><polygon class="cls-2" points="41.35 9.14 45.89 9.14 45.89 11.41 48.16 11.41 48.16 9.14 41.35 9.14"/><rect class="cls-3" x="36.81" y="0.06" width="11.35" height="2.27"/><polygon class="cls-4" points="45.89 2.33 45.89 4.6 48.16 4.6 48.16 2.33 36.81 2.33 41.35 2.33 45.89 2.33"/><polygon class="cls-5" points="45.89 11.41 45.89 11.41 45.89 9.14 41.35 9.14 41.35 11.41 43.62 11.41 45.89 11.41"/><rect class="cls-1" x="45.89" y="11.41" width="2.27" height="2.27"/><rect class="cls-1" x="41.35" y="11.41" width="2.27" height="2.27"/><rect class="cls-1" x="43.62" y="13.68" width="2.27" height="4.54"/><polygon class="cls-1" points="37.38 13.68 37.38 13.68 37.95 13.68 37.95 18.22 38.51 18.22 38.51 13.68 39.08 13.68 39.08 11.41 39.08 9.14 36.81 9.14 36.81 11.41 36.81 13.68 36.81 18.22 37.38 18.22 37.38 13.68"/><rect class="cls-1" x="36.81" y="2.33" width="4.54" height="2.27"/><polygon class="cls-1" points="39.08 18.22 39.08 18.22 41.35 18.22 40.78 18.22 40.78 13.68 40.44 13.68 40.22 13.68 40.22 18.22 39.65 18.22 39.65 13.68 39.08 13.68 39.08 18.22"/><polygon class="cls-6" points="45.89 4.6 43.62 4.6 41.35 4.6 41.35 6.87 43.62 6.87 48.16 6.87 48.16 4.6 45.89 4.6"/><polygon points="48.16 18.22 48.16 13.68 45.89 13.68 45.89 18.22 43.62 18.22 43.62 13.68 41.35 13.68 41.35 11.41 39.08 11.41 39.08 13.68 39.65 13.68 39.65 18.22 40.22 18.22 40.22 13.68 40.44 13.68 40.78 13.68 40.78 18.22 41.35 18.22 39.08 18.22 39.08 13.68 38.51 13.68 38.51 18.22 37.95 18.22 37.95 13.68 37.38 13.68 37.38 18.22 36.81 18.22 36.81 34.1 48.16 34.1 48.16 18.22"/><rect x="43.62" y="11.41" width="2.27" height="2.27"/><polygon points="45.89 4.6 45.89 4.6 45.89 2.33 41.35 2.33 41.35 4.6 43.62 4.6 45.89 4.6"/><polygon points="41.35 9.14 41.35 9.14 41.35 6.87 41.35 4.6 36.81 4.6 36.81 6.87 36.81 9.14 39.08 9.14 41.35 9.14"/><polygon class="cls-7" points="39.08 11.41 39.08 11.41 41.35 11.41 39.08 11.41"/><polygon class="cls-7" points="48.16 11.41 48.16 11.41 45.89 11.41 48.16 11.41"/><polygon class="cls-7" points="48.16 9.14 48.16 6.87 43.62 6.87 41.35 6.87 41.35 9.14 48.16 9.14"/><path class="cls-8" d="M68.2,17.14h0l0,0Z"/><polygon class="cls-8" points="68.24 17.19 68.24 17.19 68.24 17.19 68.24 17.19"/><path class="cls-9" d="M73.44,9.41l1.4-2.12c-.47.7-.93,1.41-1.4,2.12Z"/><path class="cls-2" d="M69.15,10.43V9.14H66.88v2.27h2.27V13a4.34,4.34,0,0,1,1.47.62L72,11.53a6.8,6.8,0,0,0-2.88-1.1Z"/><rect class="cls-2" x="64.58" y="11.38" height="0.05" transform="translate(4.5 37.7) rotate(-33.65)"/><path class="cls-2" d="M68.24,17.2l-1.36-2,1.34,2,0,0Z"/><path class="cls-2" d="M62.71,9.14h1.9V6.87H62.34V9.14Z"/><path class="cls-3" d="M72,11.53l1.41-2.12h0Z"/><polygon class="cls-3" points="68.25 17.2 68.24 17.2 68.25 17.21 68.25 17.2"/><polygon class="cls-3" points="68.25 17.21 68.25 17.22 68.25 17.21 68.25 17.21"/><polygon class="cls-3" points="68.25 17.21 68.25 17.21 68.25 17.21 68.25 17.21"/><polygon class="cls-3" points="68.25 17.21 68.25 17.21 68.25 17.21 68.25 17.21"/><polygon class="cls-3" points="68.24 17.2 68.24 17.19 68.25 17.2 68.24 17.2"/><path class="cls-3" d="M68.25,17.21Z"/><path class="cls-3" d="M59.67,4.69H57.8V9.14h2.27V4.6a4.71,4.71,0,0,0,.84,0,3.78,3.78,0,0,0,.85-.43c.38-.18.77-.35,1.16-.5a14.84,14.84,0,0,1,4.56-.95,14.67,14.67,0,0,1,8.77,2.45l1.41-2.12A17.33,17.33,0,0,0,58.58,3l1.11,1.65Z"/><path class="cls-4" d="M75.18,4.52a14.71,14.71,0,0,0-14.24.08h3.67V5.79a12.14,12.14,0,0,1,10.23,1.5l1.41-2.12c-.35-.23-.7-.45-1.07-.65Z"/><path class="cls-4" d="M68.2,17.14v0Z"/><path class="cls-4" d="M64.61,9.14h2.27V6.87H64.61V9.14Z"/><path class="cls-4" d="M62.34,7V7Z"/><path class="cls-7" d="M72,11.49l0,0,1.41-2.12a9.5,9.5,0,0,0-4.29-1.54v-1H66.88V9.14h2.27v1.29A7,7,0,0,1,72,11.49Z"/><path class="cls-7" d="M64.27,11.41h.34V9.14H62.34v2.27Z"/><polygon class="cls-5" points="68.23 17.19 68.23 17.18 68.24 17.19 68.23 17.19"/><path class="cls-5" d="M68.23,17.18Z"/><path class="cls-5" d="M68.22,17.16l-.08-.1.08.11Z"/><path class="cls-5" d="M68.22,17.16s0,0,0,0l0,0Z"/><path class="cls-5" d="M70.62,13.65,72,11.53Z"/><polygon class="cls-5" points="68.25 17.21 68.25 17.22 68.25 17.21 68.25 17.21"/><polygon class="cls-5" points="68.25 17.21 68.25 17.21 68.25 17.21 68.25 17.21"/><polygon class="cls-5" points="68.25 17.21 68.25 17.21 68.25 17.21 68.25 17.21"/><polygon class="cls-5" points="68.25 17.21 68.26 17.22 68.25 17.21 68.25 17.21"/><path class="cls-1" d="M60.07,18.22V16.71h0v1.51Z"/><path class="cls-1" d="M57.8,9.23v2.18h2.27V16.1h0V13.68h2.27V11.41H60.07V9.14H57.8Z"/><path class="cls-1" d="M55.53,11.41V16H55V13.68H54.4V16h-.57V13.68h-.56v4.54H56.1V13.68h.57v4.54h.57V13.68h.56V11.41H55.53V9.23H53.27v2.18Z"/><path class="cls-1" d="M57.8,16.14v2.08h.57V13.68H57.8v2.46Z"/><path class="cls-1" d="M59.51,18.22V13.68h-.57v4.54Z"/><path class="cls-1" d="M62.91,6.87V4.6h-.57V6.87Z"/><rect class="cls-1" x="63.48" y="4.6" width="0.57" height="2.27"/><rect class="cls-1" x="60.07" y="4.6" width="0.57" height="2.27"/><path class="cls-1" d="M61.21,4.69V6.87h.57V4.6h-.57Z"/><polygon class="cls-1" points="52.13 15.95 52.13 15.95 52.7 15.95 52.7 13.68 52.13 13.68 52.13 15.95"/><path class="cls-1" d="M66.88,18.22V16.71H64.61v1.51Z"/><path class="cls-1" d="M65.83,13.68H60.07V16.1h2.27v.61H60.07v1.51h2.27V16.71h2.27V16.1H62.34V13.68h2.27V16.1h2.27V13.68Z"/><path class="cls-6" d="M64.61,5.79V6.87h4.54v1a9.46,9.46,0,0,1,4.29,1.54l1.4-2.12a12.14,12.14,0,0,0-10.23-1.5Z"/><path d="M68.25,17.21"/><path d="M68.14,17.05h0Z"/><polygon points="68.25 17.2 68.25 17.2 68.25 17.2 68.25 17.2"/><polygon points="68.23 17.18 68.23 17.18 68.23 17.18 68.23 17.18"/><polygon points="68.22 17.17 68.23 17.18 68.22 17.17 68.22 17.17"/><polygon points="68.24 17.2 68.24 17.2 68.24 17.19 68.24 17.2"/><path d="M67.94,16.76l.18.26-.18-.26Z"/><path d="M68.22,17.17h0Z"/><path d="M68.14,17.05l0,0Z"/><path d="M68.25,17.21Z"/><polygon points="68.24 17.2 68.25 17.2 68.24 17.2 68.24 17.2"/><polygon points="68.25 17.21 68.25 17.21 68.25 17.22 68.25 17.21 68.25 17.21"/><path d="M68.25,17.21"/><polygon points="68.25 17.2 68.25 17.2 68.25 17.2 68.25 17.2"/><path d="M68.25,17.21"/><polygon points="68.25 17.2 68.24 17.19 68.25 17.2 68.25 17.2"/><polygon points="68.25 17.21 68.25 17.2 68.25 17.21 68.25 17.21"/><path d="M68.18,17.12h0Z"/><polygon points="68.23 17.18 68.23 17.18 68.23 17.18 68.23 17.18"/><path d="M68.12,17l.06.1Z"/><polygon points="68.22 17.16 68.22 17.17 68.22 17.16 68.22 17.16"/><path d="M68.14,17.06v0l.06.08Z"/><path d="M68.11,17l-.17-.25.19.28Z"/><path d="M68.22,17.17Z"/><path d="M68.14,17l0,0Z"/><path d="M62.91,6.87h.57V4.6h-.57V6.87Z"/><path d="M64,6.87h.57V4.6H64V6.87Z"/><path class="cls-5" d="M70.59,13.63a4.2,4.2,0,0,0-1.44-.6V11.41H66.88V9.14H64.61v4.54h2.27v0c0,.59-.17,1.29.18,1.79l1.2,1.75,2.36-3.57Z"/><path class="cls-6" d="M60.07,11.41h2.27V9.14H60.07v2.27Z"/><path d="M66.88,18.22H64.61V16.71h2.27Zm-6.81-.91v.91h0V16.71h0Zm-.56-3.63v4.54h-.57V13.68Zm-1.14,0v4.54H57.8V13.68h-.56v4.54h-.57V13.68H56.1v4.54H53.27V16h0V13.68h.56V16h.57V13.68H55V16h.56V11.41H53.27V9.23h2.26v2.18H57.8v2.27ZM52.7,16h-.57V13.68h.57Zm15.56,1.27c-.46-.67-1-1.33-1.38-2v.89H64.61V11.41H62.34V16.1h2.27v.61H62.34v1.51H60.07V16.71h2.27V16.1H60.07c0-1.56,0-3.13,0-4.69H57.8V4.69h1.89L58.57,3l0,0h0a17.32,17.32,0,0,0-6.42,19.57,17,17,0,0,0,25.51,8.62Z"/><path d="M62.34,9.14h0V7h0V4.6h-.56V6.87h-.57V4.6h-.57V6.87h-.57V9.14Z"/><polygon class="cls-1" points="60.07 16.1 60.07 16.1 60.07 16.1 60.07 16.1"/><polygon class="cls-1" points="60.07 16.1 60.07 16.1 60.07 16.1 60.07 16.1"/><polygon class="cls-3" points="82.47 31.66 80.85 28.88 80.85 34.1 83.9 34.1 82.47 31.66"/><path class="cls-4" d="M83.9,34.1h3.27L81.41,25h-.56v2.78a4.61,4.61,0,0,0,0,1.05,3.55,3.55,0,0,0,.44.78Z"/><path class="cls-4" d="M83.14,17.28v.94h2.27v-.94Z"/><path class="cls-1" d="M83.69,11.41h0V9.14h.56v2.27h-.56Zm1.13,0h0V9.14h.59v2.27Zm-1.68,0h0V13.8h2.27v3.48h2.27V13.8H85.41V11.41H86V9.14h-.55V6.87H83.13V9.14H80.85v2.27Z"/><rect class="cls-1" x="87.68" y="6.87" width="2.21" height="2.27"/><rect class="cls-1" x="89.89" y="9.14" width="2.27" height="2.27"/><path class="cls-1" d="M87.09,11.41h0V9.14h-.57v2.27Z"/><path class="cls-1" d="M83.12,22.87V25h.57V20.49h-.57Z"/><path class="cls-1" d="M84.25,24.61V25h.57V20.49h-.57Z"/><path class="cls-1" d="M81.42,25V20.49h-.57V25Z"/><path class="cls-1" d="M82,21.47V25h.57V20.49H82Z"/><path class="cls-6" d="M84.52,25H81.41l5.76,9.07h3.27Z"/><path class="cls-6" d="M85.38,21.47v0Z"/><path class="cls-6" d="M87.68,17.28H85.41v.94h2.27Z"/><path class="cls-6" d="M83.14,16.05h0V13.8H80.85v2.25Z"/><path d="M85.41,17.28h0V13.8H83.14v3.48Z"/><path d="M83.14,13.8V11.41H80.85V13.8Z"/><path d="M85.41,11.41h0V9.14h-.59v2.27Z"/><path d="M84.25,11.41h0V9.14h-.56v2.27Z"/><path d="M83.69,23.74V25h.56V20.49h-.56Z"/><path d="M82.55,22v3h.57V20.49h-.57Z"/><path d="M84.82,21.47V25h.56V20.49h-.56Z"/><path d="M82,21.47v-1h-.56V25H82Z"/><path class="cls-7" d="M85.38,25h-.86q3,4.53,5.92,9.07h3.27l-6.42-9.7c-.63-1-1.27-2-1.91-2.93Z"/><path class="cls-7" d="M83.14,18.05v-2H80.85v2.17h2.29Z"/><path class="cls-7" d="M81.56,20.49h3.82V19.35H80.85v1.14Z"/><path class="cls-2" d="M88.56,21.47H85.38c.18.26.43.66.62,1,.37.56.74,1.15,1.12,1.71L88,25.41q2.22,3.36,4.45,6.72l1.3,2H97L90.88,25c-.78-1.16-1.55-2.32-2.32-3.48Z"/><path class="cls-3" d="M92.17,19.35h0v1.14H91.12l9.13,13.61h3.19L92.16,17.28Z"/><path class="cls-3" d="M89.89,17.28H87.68v.94h2.21Z"/><path class="cls-4" d="M87.68,20.49h2.21V19.35H85.38v2.12h2.3v-1Z"/><path class="cls-5" d="M89.89,20.49v1H88.56l1.08,1.61c.41.62.82,1.25,1.24,1.87l5,7.51L97,34.1h3.27L91.12,20.49Z"/><path class="cls-5" d="M89.64,23.08l-1.08-1.61c.77,1.16,1.54,2.32,2.32,3.48C90.46,24.33,90.05,23.71,89.64,23.08Z"/><path class="cls-5" d="M92.06,17.28H89.89v.94h2.27v-.94Z"/><path class="cls-1" d="M91,13.8H89.89v3.48H91V13.8Z"/><path class="cls-1" d="M89.89,13.72V11.41H87.68v2.38h2.21Z"/><path class="cls-1" d="M92.16,11.41V17l.08.12,1.06-1.7V11.41Z"/><path class="cls-1" d="M92.16,17.28v0Z"/><polygon class="cls-1" points="92.24 17.16 92.16 17.04 92.16 17.28 92.24 17.16"/><path class="cls-6" d="M92.06,19.35H89.89v1.14h2.29V19.35h-.11Z"/><polygon class="cls-6" points="92.18 19.35 92.17 19.35 92.18 20.49 92.18 19.35"/><path d="M91,17.28h1.13V11.41H89.89V13.8H91v3.48Z"/><path d="M87.68,9.14v2.27h2.21V9.14Z"/><path d="M87.09,11.41h-.57V9.14h.57Zm.59-2.27V6.87h2.21V9.14h2.27v2.27H93.3v4L103.54.06H80.85V9.14h2.28V6.87h2.28V9.14H86v2.27h-.54v2.38h2.27V9.14Z"/><path d="M89.89,16.05V13.8H87.68v3.48h2.21V16.05Z"/><path d="M90.68,19.35h1.48V18.22H80.85v1.13h9.83Z"/><path class="cls-7" d="M87.68,21.47h2.21v-1H87.68Z"/><polygon class="cls-1" points="92.16 17.28 92.16 17.28 92.16 17.28 92.16 17.28"/><polygon class="cls-1" points="92.16 17.28 92.16 17.28 92.16 17.28 92.16 17.28"/><path class="cls-1" d="M92.16,17.28h.16l-.08-.12Z"/><rect class="cls-10" x="125.08" y="11.41" width="2.27" height="2.27"/><rect class="cls-11" x="127.35" y="11.41" width="2.27" height="2.27"/><rect class="cls-12" x="129.62" y="11.41" width="0.02" height="2.27"/><rect class="cls-12" x="129.64" y="11.41" width="2.25" height="2.27"/><polygon class="cls-2" points="131.89 11.41 131.89 11.41 131.89 13.68 134.16 13.68 134.16 11.41 133.03 11.41 131.89 11.41"/><path class="cls-3" d="M134.16,31.83c-6.81,0-9.08-4.61-9.08-8.58V13.68h-2.27v8.91c0,6,3.62,11.51,11.35,11.51V31.83Z"/><polygon class="cls-3" points="122.81 6.87 122.81 6.87 125.08 6.87 122.81 6.87"/><rect class="cls-3" x="122.81" y="9.14" width="2.27" height="2.27"/><polygon class="cls-3" points="125.08 2.33 123.95 2.33 122.81 2.33 122.81 0.06 122.81 2.33 125.08 2.33"/><polygon class="cls-4" points="127.35 2.33 127.35 2.33 126.22 2.33 125.08 2.33 127.35 2.33"/><rect class="cls-4" x="125.08" y="9.14" width="2.27" height="2.27"/><path class="cls-4" d="M127.35,23.44V13.68h-2.27v9.57c0,4,2.27,8.58,9.08,8.58V29.57c-4.5,0-6.81-2.9-6.81-6.13Z"/><polygon class="cls-4" points="127.35 6.87 127.35 6.87 125.08 6.87 127.35 6.87"/><polygon class="cls-5" points="134.16 25.03 134.16 25.03 134.16 25.06 134.16 25.03"/><polygon class="cls-5" points="134.16 11.41 134.16 11.41 133.03 11.41 134.16 11.41"/><path class="cls-5" d="M131.89,21.66c0,1.88.24,3.37,2.27,3.37V13.68h-2.27Z"/><rect class="cls-1" x="125.08" y="2.33" width="2.27" height="4.54"/><rect class="cls-1" x="127.35" y="6.87" width="2.27" height="2.27"/><rect class="cls-1" x="122.81" y="6.87" width="2.27" height="2.27"/><rect class="cls-1" x="127.35" y="0.06" width="1.13" height="2.27"/><rect class="cls-1" x="125.08" y="0.06" width="1.13" height="2.27"/><rect class="cls-1" x="122.81" y="0.06" width="1.13" height="2.27"/><polygon class="cls-1" points="129.62 2.33 129.62 2.33 129.62 6.87 129.65 6.87 130.19 6.87 130.19 2.33 130.76 2.33 130.76 6.87 131.32 6.87 131.32 2.33 130.76 2.33 130.76 0.06 129.67 0.06 129.62 0.06 129.62 2.33"/><rect class="cls-1" x="122.81" y="11.41" width="2.27" height="2.27"/><path class="cls-1" d="M132.46,6.87V2.33H133V6.87Zm-.57-4.54h0V9.14h2.27V6.87h-.57V2.33H133V.06h-1.13Z"/><polygon class="cls-6" points="129.62 2.33 129.62 2.33 128.49 2.33 127.35 2.33 129.62 2.33"/><path class="cls-6" d="M129.62,22.76l0-9.08h-2.29v9.76c0,3.23,2.31,6.12,6.81,6.12V27.3C131,27.3,129.62,25.7,129.62,22.76Z"/><polygon class="cls-6" points="127.35 11.41 129.62 11.41 129.64 11.41 129.65 9.14 129.62 9.14 127.35 9.14 127.35 11.41"/><polygon class="cls-6" points="127.35 6.87 127.35 6.87 129.62 6.87 127.35 6.87"/><rect x="122.81" y="2.33" width="2.27" height="4.54"/><rect x="127.35" y="2.33" width="2.27" height="4.54"/><rect x="125.08" y="6.87" width="2.27" height="2.27"/><polygon points="127.35 2.33 127.35 2.33 127.35 0.06 126.22 0.06 126.22 2.33 127.35 2.33"/><polygon points="125.08 2.33 125.08 2.33 125.08 0.06 123.95 0.06 123.95 2.33 125.08 2.33"/><path d="M134.16.06H133V2.33h.56V6.87h.57V34.1a11.08,11.08,0,0,0,11.35-10.8V.06Z"/><polygon points="131.32 2.33 131.32 2.33 131.32 6.87 130.76 6.87 130.76 2.33 130.19 2.33 130.19 6.87 129.65 6.87 129.62 6.87 129.62 9.14 129.65 9.14 131.89 9.14 131.89 6.87 131.89 2.33 131.89 0.06 130.76 0.06 130.76 2.33 131.32 2.33"/><rect x="128.49" y="0.06" width="1.13" height="2.27"/><rect x="132.46" y="2.33" width="0.57" height="4.54"/><path class="cls-7" d="M131.89,21.66v-8h-2.25l0,9.08c0,2.94,1.42,4.54,4.54,4.54V25c-2,0-2.27-1.49-2.27-3.37Z"/><polygon class="cls-7" points="129.65 9.14 129.64 11.41 131.89 11.41 133.03 11.41 134.16 11.41 134.16 9.14 131.89 9.14 129.65 9.14"/><polygon class="cls-2" points="162.43 13.68 162.43 13.68 173.77 13.68 173.77 11.41 162.43 11.41 162.43 13.68"/><path class="cls-3" d="M162.43,22.76h11.34V20.49H162.43v2.27Z"/><path class="cls-3" d="M153.35,11.41v2.27h2.27V11.41Z"/><path class="cls-4" d="M151.08,11.41V9.14h-2.27v4.54h2.27Z"/><path class="cls-4" d="M162.4,18.22H148.81v2.27h25V18.22H162.4Z"/><path class="cls-5" d="M157.89,13.68V11.41h-2.27v2.27Z"/><path class="cls-1" d="M153.35,18.22h.57V16h-.57V13.68h-2.27v4.54Z"/><path class="cls-1" d="M156.75,18.22h-.56V16h.56Zm1.14-4.54h-2.27v4.54h1.7V16h.57v2.27h.57V13.68H159v4.54h.57V13.68h.57V11.41h-2.27v2.27Z"/><rect class="cls-1" x="151.08" y="20.49" width="0.57" height="2.27"/><rect class="cls-1" x="152.22" y="20.49" width="0.57" height="2.27"/><rect class="cls-1" x="148.81" y="20.49" width="0.57" height="2.27"/><rect class="cls-1" x="149.95" y="20.49" width="0.57" height="2.27"/><rect class="cls-1" x="157.89" y="20.49" width="1.13" height="2.27"/><rect class="cls-1" x="160.16" y="20.49" width="1.13" height="2.27"/><rect class="cls-1" x="153.35" y="20.49" width="1.13" height="2.27"/><rect class="cls-1" x="155.62" y="20.49" width="1.13" height="2.27"/><path class="cls-1" d="M160.16,16v2.27h1.7V13.68h-.57v4.54h-.56V13.68h-.57V16Z"/><rect class="cls-1" x="154.49" y="15.95" width="0.57" height="2.27"/><polygon class="cls-6" points="162.43 18.22 162.43 18.22 173.77 18.22 173.77 15.95 162.43 15.95 162.43 18.22"/><path class="cls-6" d="M151.08,13.68h2.27V11.41h2.27V9.14h-4.54v4.54Z"/><rect x="162.4" y="22.76" width="11.38" height="11.35"/><path d="M148.81.06V18.22h2.27V13.68h-2.27V9.14h6.81v2.27h4.5V.06Z"/><rect x="148.81" y="22.76" width="11.31" height="11.35"/><rect x="151.65" y="20.49" width="0.57" height="2.27"/><rect x="150.51" y="20.49" width="0.57" height="2.27"/><rect x="152.78" y="20.49" width="0.57" height="2.27"/><rect x="149.38" y="20.49" width="0.57" height="2.27"/><path d="M160.12,22.76h0V20.49H159v2.27Z"/><rect x="156.75" y="20.49" width="1.13" height="2.27"/><path d="M162.4,22.76h0V20.49h-1.14v2.27Z"/><rect x="154.49" y="20.49" width="1.13" height="2.27"/><path d="M160.73,13.68v4.54h.56V13.68h.57v4.54h.57V11.41h11.35V.06H162.4V11.41h-2.24v2.27Z"/><path d="M160.16,18.22V13.68h-.57v4.54H159V13.68h-.56v4.54h1.7Z"/><rect x="156.19" y="15.95" width="0.57" height="2.27"/><path d="M154.49,16h.56v2.27h-.56Zm-1.14,0h.57v2.27h1.7V13.68h-2.27Z"/><rect x="157.32" y="15.95" width="0.57" height="2.27"/><rect class="cls-7" x="162.43" y="13.68" width="11.35" height="2.27"/><rect class="cls-2" x="176.81" y="22.76" width="2.27" height="2.27"/><polygon class="cls-2" points="190.43 22.76 192.7 22.76 192.7 25.03 197.24 25.03 197.24 22.76 188.16 22.76 190.43 22.76"/><path class="cls-2" d="M183.62,28.43h-2.27v1.13h4.54V28.43Z"/><path class="cls-3" d="M179.08,31.83h6.81v0h4.54V34.1h6.81V31.83H179.08Z"/><path class="cls-3" d="M190.43,28.43v0Z"/><rect class="cls-3" x="194.97" y="27.3" width="2.27" height="1.13"/><rect class="cls-4" x="176.81" y="29.56" width="20.42" height="2.27"/><path class="cls-4" d="M188.16,27.3h-2.27v1.13h4.54V27.3Z"/><rect class="cls-5" x="190.43" y="27.3" width="4.54" height="1.13"/><path class="cls-1" d="M188.16,25h2.27V22.76h-2.27Z"/><rect class="cls-1" x="179.08" y="20.49" width="2.27" height="0.76"/><path class="cls-1" d="M179.08,21.24h-2.27v1.52h2.27Z"/><path class="cls-1" d="M185.89,22.76h0V27.3h2.27V25H187V22.76h1.14V21.24h-2.27Z"/><path class="cls-1" d="M190.43,27.3h2.27V25h-2.27Z"/><path class="cls-1" d="M185.32,22.76V18.22h-.57v4.54Z"/><path class="cls-1" d="M183.05,21.24v-3h-.56v4.54h.56Z"/><path class="cls-1" d="M184.75,22.76h-.56V18.22h-.57V25h1.13Z"/><rect class="cls-1" x="179.08" y="22.76" width="1.13" height="2.27"/><path class="cls-1" d="M181.92,22.76V18.22h-.57V25h1.14V22.76Z"/><rect class="cls-1" x="180.22" y="31.83" width="1.13" height="2.27"/><rect class="cls-1" x="177.95" y="31.83" width="1.13" height="2.27"/><rect class="cls-1" x="184.75" y="31.83" width="1.13" height="2.27"/><rect class="cls-1" x="182.49" y="31.83" width="1.13" height="2.27"/><path class="cls-1" d="M188.16,31.83h-.57V34.1h.57Z"/><path class="cls-1" d="M187,31.83h-.56V34.1H187Z"/><path class="cls-1" d="M189.86,31.83V34.1h.57V31.83Z"/><path class="cls-1" d="M189.29,31.83h-.56V34.1h.56Z"/><path class="cls-6" d="M197.24,29.56V28.43h-6.81v1.13h-9.08V28.43h2.27V27.3h-6.81v2.26Z"/><path d="M190.43,25h2.27V22.76h-2.27Z"/><path d="M179.08,21.24v-.75h2.27v.75Zm4.54,1.52V18.22h.57v4.54h.56V25h-1.13Zm1.13-1.52v-3h.57v4.54h-.57Zm-5.67,1.52h1.14V25h1.13V18.22h.57v4.54h.57V18.22h.56v4.54h-.56V25h1.13v3.4h2.27V25h0V21.24h2.27V.06H176.81V21.24h2.27v1.52Z"/><path d="M190.43,27.3V25h-2.27V22.76H187V25h1.14V27.3Z"/><path d="M192.7,27.3h4.54v2.26h0V25H192.7V27.3Z"/><rect x="179.08" y="31.83" width="1.13" height="2.27"/><rect x="181.35" y="31.83" width="1.13" height="2.27"/><path d="M176.81,31.83h0V34.1H178V31.83Z"/><rect x="183.62" y="31.83" width="1.13" height="2.27"/><path d="M187.59,31.83H187V34.1h.57Z"/><path d="M188.73,31.83h-.57V34.1h.57Z"/><path d="M186.46,31.83h-.57V34.1h.57Z"/><path d="M189.86,31.83h-.57V34.1h.57Z"/><polygon class="cls-7" points="192.7 25.03 192.7 25.03 197.24 25.03 192.7 25.03"/><path class="cls-7" d="M181.35,25h-4.54V27.3h6.81V25Z"/><path class="cls-7" d="M188.16,29.56h2.27V28.43h-4.54v1.13Z"/><rect class="cls-2" x="202.08" y="9.14" width="2.27" height="2.27"/><polygon class="cls-2" points="204.35 9.14 208.89 9.14 208.89 11.41 211.16 11.41 211.16 9.14 204.35 9.14"/><rect class="cls-3" x="199.81" y="0.06" width="11.35" height="2.27"/><polygon class="cls-4" points="208.89 2.33 208.89 4.6 211.16 4.6 211.16 2.33 199.81 2.33 204.35 2.33 208.89 2.33"/><polygon class="cls-5" points="208.89 11.41 208.89 11.41 208.89 9.14 204.35 9.14 204.35 11.41 206.62 11.41 208.89 11.41"/><rect class="cls-1" x="208.89" y="11.41" width="2.27" height="2.27"/><rect class="cls-1" x="204.35" y="11.41" width="2.27" height="2.27"/><rect class="cls-1" x="206.62" y="13.68" width="2.27" height="4.54"/><polygon class="cls-1" points="200.38 13.68 200.38 13.68 200.95 13.68 200.95 18.22 201.51 18.22 201.51 13.68 202.08 13.68 202.08 11.41 202.08 9.14 199.81 9.14 199.81 11.41 199.81 13.68 199.81 18.22 200.38 18.22 200.38 13.68"/><rect class="cls-1" x="199.81" y="2.33" width="4.54" height="2.27"/><polygon class="cls-1" points="202.08 18.22 202.08 18.22 204.35 18.22 203.78 18.22 203.78 13.68 203.44 13.68 203.22 13.68 203.22 18.22 202.65 18.22 202.65 13.68 202.08 13.68 202.08 18.22"/><polygon class="cls-6" points="208.89 4.6 206.62 4.6 204.35 4.6 204.35 6.87 206.62 6.87 211.16 6.87 211.16 4.6 208.89 4.6"/><polygon points="211.16 18.22 211.16 13.68 208.89 13.68 208.89 18.22 206.62 18.22 206.62 13.68 204.35 13.68 204.35 11.41 202.08 11.41 202.08 13.68 202.65 13.68 202.65 18.22 203.22 18.22 203.22 13.68 203.44 13.68 203.78 13.68 203.78 18.22 204.35 18.22 202.08 18.22 202.08 13.68 201.51 13.68 201.51 18.22 200.95 18.22 200.95 13.68 200.38 13.68 200.38 18.22 199.81 18.22 199.81 34.1 211.16 34.1 211.16 18.22"/><rect x="206.62" y="11.41" width="2.27" height="2.27"/><polygon points="208.89 4.6 208.89 4.6 208.89 2.33 204.35 2.33 204.35 4.6 206.62 4.6 208.89 4.6"/><polygon points="204.35 9.14 204.35 9.14 204.35 6.87 204.35 4.6 199.81 4.6 199.81 6.87 199.81 9.14 202.08 9.14 204.35 9.14"/><polygon class="cls-7" points="202.08 11.41 202.08 11.41 204.35 11.41 202.08 11.41"/><polygon class="cls-7" points="211.16 11.41 211.16 11.41 208.89 11.41 211.16 11.41"/><polygon class="cls-7" points="211.16 9.14 211.16 6.87 206.62 6.87 204.35 6.87 204.35 9.14 211.16 9.14"/><path class="cls-13" d="M236.18,4.57Z"/><path class="cls-13" d="M236.18,4.57,237,2.32l-.72,1.91c-.1.25-.13.34-.13.34Z"/><path class="cls-2" d="M230.65,9.15h-4.53v2.26h7.49s.35-1,.43-1.21c.14-.38.29-.68.43-1.06h-3.82Z"/><path class="cls-3" d="M229.18.27a17.24,17.24,0,0,0-11.81,7.78,17,17,0,0,0-2.56,7.9H217V11.41h0V9.14h2.27A14.79,14.79,0,0,1,223.24,5a14.54,14.54,0,0,1,2.61-1.45l.32-.16a13.49,13.49,0,0,1,1.48-.49A15.8,15.8,0,0,1,232,2.32h.41c1.28,0,2.57,0,3.86,0H237s.61-1.62.86-2.26a57.51,57.51,0,0,0-8.71.21Z"/><path class="cls-3" d="M221.58,13.68h2.27V11.41h-2.27v2.27Z"/><path class="cls-4" d="M236.26,2.32H232a15.8,15.8,0,0,0-4.34.61,15.39,15.39,0,0,0-1.8.65A14.54,14.54,0,0,0,223.24,5a14.79,14.79,0,0,0-3.93,4.11h2.74a10.15,10.15,0,0,1,.95-1l0,0a10.66,10.66,0,0,1,.88-.76l.09-.07.34-.27a12.61,12.61,0,0,1,2.76-1.53,6.62,6.62,0,0,1,.75-.24,12.62,12.62,0,0,1,3.4-.64c1,0,2,0,3,0,1.15,0,1.95,0,2,0h0s0-.09.13-.34c0-.07.06-.17.1-.28.21-.54.41-1.09.62-1.63Z"/><path class="cls-4" d="M217,9.14v2.27h0v2.27h2.27V9.14H217Z"/><path class="cls-5" d="M230.65,13.68h2.27l.06-.19.24-.8.39-1.27h-3Z"/><path class="cls-5" d="M224.38,13.68h1.74V11.41h-2.27v2.27Z"/><rect class="cls-1" x="217.04" y="18.22" width="2.27" height="2.27"/><path class="cls-1" d="M221.58,20.49h2.27V18.22h-2.27Z"/><rect class="cls-1" x="230.65" y="18.22" width="2.27" height="2.27"/><path class="cls-1" d="M226.12,13.68h-2.27v4.54h2.27V13.68Z"/><path class="cls-1" d="M216,16h-1.17v2.27H217V16Z"/><path class="cls-1" d="M221.58,13.68H221V16h-.57V13.68h-.56V16h-.57v2.27h2.27V13.68Z"/><path class="cls-1" d="M226.94,13.68h1.45V11.42h-2.27v2.27Z"/><path class="cls-1" d="M228.39,15.08v7.68H229V18.22h.57v4.54h.57V18.22h.56V13.68h-2.26Z"/><path class="cls-1" d="M227.82,20.49V18.22h-.57v4.54h-.57V18.22h-.56v4.54h1.7V20.49Z"/><path class="cls-1" d="M222.15,16h.56V13.68h-.56Z"/><path class="cls-1" d="M219.31,13.68h-.57V16h.57V13.68Z"/><path d="M232.92,20.49h-2.27V18.22h2.27Zm0-4.54V13.68h-2.27v4.54h-.56v4.54h-.57V18.22H229v4.54h-2.83V18.22h-2.27v2.27h-2.27V18.22h-2.27v2.27H217V18.22h-2.23A17.05,17.05,0,0,0,230.6,34.06c1.45.1,2.92,0,4.38,0h4.75V16Z"/><path d="M223.85,13.68h-1.14V16h-.57V13.68h-.56v4.54h2.27V13.68Z"/><polygon points="217.04 11.41 217.04 11.41 217.04 11.41 217.04 11.41"/><path d="M218.74,16V13.68H217V11.41h0v6.81h2.27V16Z"/><path d="M228.39,11.42v2.26h2.26V11.42Z"/><path d="M228.39,15.08v-1.4h-2.27v4.54h.56v4.54h.57V18.22h.57v4.54h.57V15.08Z"/><path d="M221,16h0V13.68h-.57V16Z"/><path d="M219.31,15.44V16h.57V13.68h-.57Z"/><path class="cls-6" d="M234.22,4.56c-1,0-2,0-3,0A13,13,0,0,0,224,7.26l-.09.07c-.31.25-.61.51-.9.79a10.15,10.15,0,0,0-.95,1h-2.74v4.54h2.27V11.41h2.27v-1a1.06,1.06,0,0,1,.15-.14,10.42,10.42,0,0,1,7.85-3.48h3.47l.43-1.13c.14-.37.28-.75.43-1.13Z"/><path class="cls-7" d="M231.85,6.83A10.42,10.42,0,0,0,224,10.31l-.15.14v1h2.27V9.15h8.35l.32-.91.53-1.41Z"/></svg>