<svg xmlns="http://www.w3.org/2000/svg" viewBox="0 0 228.12 34.12"><defs><style>.cls-1{fill:#fff;}.cls-2{fill:#69c9d6;}.cls-3{fill:#63bb46;}.cls-4{fill:#3852a3;}.cls-5{fill:#f3ea28;}.cls-6{fill:#ec1c24;}.cls-7{fill:#b74f9c;}.cls-8{fill:#c6e8ef;}.cls-9{fill:#97d7e1;}.cls-10{fill:#77cdda;}.cls-11{fill:#603c92;}.cls-12{fill:#7858a4;}.cls-13{fill:#2e2f8e;}</style></defs><title>logo normal</title><g id="Layer_2" data-name="Layer 2"><rect class="cls-1" width="228.12" height="34.12"/></g><g id="Layer_1" data-name="Layer 1"><path class="cls-2" d="M18.2,16v2l2.22,2.7V25h2.26V22.76H25v3.59h0v.93h2.26v-3L18.2,13Z"/><path class="cls-2" d="M14.86,11.35H17L15.16,9.14H13.62v2.21Z"/><path class="cls-3" d="M15.13.06H25V2.33h0V6.87h2.27V.06H15.13Z"/><path class="cls-4" d="M22.68,4h0V6.87H25V6.75h0V2.34h0V.06H22.68V4Z"/><path class="cls-4" d="M27.23,34.09V27.3H25v-.94h0V22.76H22.69V24H20.43V20.67L18.2,18v.25H14.43Z"/><polygon class="cls-4" points="20.41 0.06 20.41 1.21 20.41 0.06 19.48 0.06 20.41 0.06"/><polygon class="cls-4" points="27.23 9.14 24.96 9.14 24.96 11.35 27.23 11.35 27.23 9.53 27.23 9.54 27.23 9.14"/><path class="cls-5" d="M20.42,11.35H18.2V9.14h-3L17,11.35H18.2V13l9,11.25V19.36l-6.45-8Z"/><path class="cls-1" d="M14.43,18.22h.39V16h-.53v-4.6h-.67v6.87h.8"/><path class="cls-1" d="M17.12,16h-.56v-4.6H16V16h0v2.27h1.15V16Z"/><path class="cls-1" d="M17.13,16h.57v-4.6h-.57Z"/><path class="cls-1" d="M14.86,16h.57v-4.6h-.57Z"/><path class="cls-1" d="M22.69,6.87V9.08h0v.06H25V6.87Z"/><path class="cls-1" d="M11.37,18.22V25h1.15V16.89H11.37Z"/><rect class="cls-1" x="6.81" y="18.22" width="1.13" height="6.81"/><path class="cls-1" d="M16.64,6.09v.78h.76V.06h-.76Z"/><path class="cls-1" d="M15.88,9.14h0V.06h-.76V6.87h-.76V.06h-.75V9.14Z"/><path class="cls-1" d="M21.94,9.08h-.76v2.27h.76V9.08Z"/><path class="cls-1" d="M20.42,9.14V6.87H18.2V9.14h0v2.21h.71V9.08h.76v2.27h.75Z"/><rect class="cls-1" y="15.95" width="2.27" height="0.94"/><rect class="cls-1" x="4.54" y="15.95" width="2.27" height="0.94"/><path class="cls-1" d="M9.08,16V25h1.15V16.89h1.12V16Z"/><path class="cls-6" d="M19.48.06h0Z"/><path class="cls-6" d="M27.23,11.35H25V9.14H22.69v2.21H25L27.23,14Z"/><polygon class="cls-6" points="24.95 6.87 24.96 6.87 24.96 6.76 24.95 6.75 24.95 6.87"/><path class="cls-6" d="M20.41,1.21V6h0v.87h2.27V4h0V.06H20.41Z"/><path d="M12.52,18.22V25H11.37V16.89h1.15Zm-1.17-1.33H10.23V25H9.08V16.89h0V16h2.27ZM7.94,25H6.81V18.22H7.94Zm-3.4-8.14V16H6.81v.94Zm-2.27,0H0V16H2.27v.94Zm11.35.32V16h-1L0,.06v34H13.62V17.21Z"/><path d="M16,16v-4.6h-.57V16h-.57v-4.6h-.57V16h.53v2.27H16V16Z"/><path d="M18.2,16v-4.6h-.5V16h-.57v-4.6h-.57V16h.56v2.27H18.2Z"/><path d="M25.05,6.87H25V9.14h2.27V6.87Z"/><path d="M18.2,9.14h0V.06h-.8V6.87h-.76V.06h-.75V9.14Z"/><path d="M14.37,3.24V6.87h.76V.06h-.76Z"/><path d="M22.69,9.08V6.87H20.42v4.48h.76V9.08h.76v2.27h.75V9.08Z"/><rect x="18.91" y="9.08" width="0.76" height="2.27"/><path class="cls-7" d="M20.41,6V.06H18.2V6.87h2.22V6Z"/><path class="cls-7" d="M22.69,11.35H20.78l6.45,8V14L25,11.35Z"/><rect class="cls-8" x="118.92" y="11.41" width="2.27" height="2.27"/><rect class="cls-9" x="121.19" y="11.41" width="2.27" height="2.27"/><rect class="cls-10" x="123.46" y="11.41" width="0.02" height="2.27"/><rect class="cls-10" x="123.48" y="11.41" width="2.25" height="2.27"/><polygon class="cls-2" points="125.73 11.41 125.73 11.41 125.73 13.68 128 13.68 128 11.41 126.87 11.41 125.73 11.41"/><path class="cls-3" d="M128,31.83c-6.81,0-9.07-4.61-9.07-8.58V13.68h-2.27v8.91c0,6,3.61,11.51,11.34,11.51V31.83Z"/><polygon class="cls-3" points="116.66 6.87 116.66 6.87 118.92 6.87 116.66 6.87"/><rect class="cls-3" x="116.66" y="9.14" width="2.27" height="2.27"/><polygon class="cls-3" points="118.92 2.33 117.79 2.33 116.66 2.33 116.66 0.06 116.66 2.33 118.92 2.33"/><polygon class="cls-4" points="121.19 2.33 121.19 2.33 120.06 2.33 118.92 2.33 121.19 2.33"/><rect class="cls-4" x="118.92" y="9.14" width="2.27" height="2.27"/><path class="cls-4" d="M121.19,23.44V13.68h-2.26v9.57c0,4,2.26,8.58,9.07,8.58V29.57C123.5,29.56,121.19,26.67,121.19,23.44Z"/><polygon class="cls-4" points="121.19 6.87 121.19 6.87 118.92 6.87 121.19 6.87"/><polygon class="cls-5" points="128 25.03 128 25.03 128 25.06 128 25.03"/><polygon class="cls-5" points="128 11.41 128 11.41 126.87 11.41 128 11.41"/><path class="cls-5" d="M125.73,21.66c0,1.88.24,3.37,2.27,3.37V13.68h-2.27Z"/><rect class="cls-1" x="118.92" y="2.33" width="2.27" height="4.54"/><rect class="cls-1" x="121.19" y="6.87" width="2.27" height="2.27"/><rect class="cls-1" x="116.66" y="6.87" width="2.27" height="2.27"/><rect class="cls-1" x="121.19" y="0.06" width="1.13" height="2.27"/><rect class="cls-1" x="118.92" y="0.06" width="1.13" height="2.27"/><rect class="cls-1" x="116.66" y="0.06" width="1.13" height="2.27"/><polygon class="cls-1" points="123.46 2.33 123.46 2.33 123.46 6.87 123.5 6.87 124.03 6.87 124.03 2.33 124.6 2.33 124.6 6.87 125.17 6.87 125.17 2.33 124.6 2.33 124.6 0.06 123.51 0.06 123.46 0.06 123.46 2.33"/><rect class="cls-1" x="116.66" y="11.41" width="2.27" height="2.27"/><path class="cls-1" d="M126.3,6.87V2.33h.57V6.87Zm-.57-4.54h0V9.14H128V6.87h-.57V2.33h-.56V.06h-1.14Z"/><polygon class="cls-6" points="123.46 2.33 123.46 2.33 122.33 2.33 121.19 2.33 123.46 2.33"/><path class="cls-6" d="M123.46,22.76l0-9.08h-2.29v9.76c0,3.23,2.31,6.12,6.81,6.12V27.3C124.88,27.3,123.46,25.7,123.46,22.76Z"/><polygon class="cls-6" points="121.19 11.41 123.46 11.41 123.49 11.41 123.49 9.14 123.46 9.14 121.19 9.14 121.19 11.41"/><polygon class="cls-6" points="121.19 6.87 121.19 6.87 123.46 6.87 121.19 6.87"/><rect x="116.66" y="2.33" width="2.27" height="4.54"/><rect x="121.19" y="2.33" width="2.27" height="4.54"/><rect x="118.92" y="6.87" width="2.27" height="2.27"/><polygon points="121.19 2.33 121.19 2.33 121.19 0.06 120.06 0.06 120.06 2.33 121.19 2.33"/><polygon points="118.92 2.33 118.92 2.33 118.92 0.06 117.79 0.06 117.79 2.33 118.92 2.33"/><path d="M128,.06h-1.13V2.33h.57V6.87H128V34.1a11.08,11.08,0,0,0,11.35-10.8V.06Z"/><polygon points="125.17 2.33 125.17 2.33 125.17 6.87 124.6 6.87 124.6 2.33 124.03 2.33 124.03 6.87 123.5 6.87 123.46 6.87 123.46 9.14 123.49 9.14 125.73 9.14 125.73 6.87 125.73 2.33 125.73 0.06 124.6 0.06 124.6 2.33 125.17 2.33"/><rect x="122.33" y="0.06" width="1.13" height="2.27"/><rect x="126.3" y="2.33" width="0.57" height="4.54"/><path class="cls-7" d="M125.73,21.66v-8h-2.25l0,9.08c0,2.94,1.42,4.54,4.54,4.54V25C126,25,125.73,23.54,125.73,21.66Z"/><polygon class="cls-7" points="123.49 9.14 123.49 11.41 125.73 11.41 126.87 11.41 128 11.41 128 9.14 125.73 9.14 123.49 9.14"/><polygon class="cls-2" points="154.99 13.68 154.99 13.68 166.34 13.68 166.34 11.41 154.99 11.41 154.99 13.68"/><path class="cls-3" d="M155,22.76h11.35V20.49H155v2.27Z"/><path class="cls-3" d="M145.91,11.41v2.27h2.27V11.41Z"/><path class="cls-4" d="M143.64,11.41V9.14h-2.27v4.54h2.27Z"/><path class="cls-4" d="M155,18.22H141.37v2.27h25V18.22H155Z"/><path class="cls-5" d="M150.45,13.68V11.41h-2.27v2.27Z"/><path class="cls-1" d="M145.91,18.22h.57V16h-.57V13.68h-2.27v4.54Z"/><path class="cls-1" d="M149.32,18.22h-.57V16h.57Zm1.13-4.54h-2.27v4.54h1.7V16h.57v2.27H151V13.68h.57v4.54h.56V13.68h.57V11.41h-2.27v2.27Z"/><rect class="cls-1" x="143.64" y="20.49" width="0.57" height="2.27"/><rect class="cls-1" x="144.78" y="20.49" width="0.57" height="2.27"/><rect class="cls-1" x="141.37" y="20.49" width="0.57" height="2.27"/><rect class="cls-1" x="142.51" y="20.49" width="0.57" height="2.27"/><rect class="cls-1" x="150.45" y="20.49" width="1.13" height="2.27"/><rect class="cls-1" x="152.72" y="20.49" width="1.13" height="2.27"/><rect class="cls-1" x="145.91" y="20.49" width="1.13" height="2.27"/><rect class="cls-1" x="148.18" y="20.49" width="1.13" height="2.27"/><path class="cls-1" d="M152.72,16v2.27h1.7V13.68h-.57v4.54h-.56V13.68h-.57V16Z"/><rect class="cls-1" x="147.05" y="15.95" width="0.57" height="2.27"/><polygon class="cls-6" points="154.99 18.22 154.99 18.22 166.34 18.22 166.34 15.95 154.99 15.95 154.99 18.22"/><path class="cls-6" d="M143.64,13.68h2.27V11.41h2.27V9.14h-4.54Z"/><rect x="154.96" y="22.76" width="11.38" height="11.35"/><path d="M141.37.06V18.22h2.27V13.68h-2.27V9.14h6.81v2.27h4.5V.06Z"/><rect x="141.37" y="22.76" width="11.31" height="11.35"/><rect x="144.21" y="20.49" width="0.57" height="2.27"/><rect x="143.08" y="20.49" width="0.57" height="2.27"/><rect x="145.34" y="20.49" width="0.57" height="2.27"/><rect x="141.94" y="20.49" width="0.57" height="2.27"/><path d="M152.68,22.76h0V20.49h-1.13v2.27Z"/><rect x="149.32" y="20.49" width="1.13" height="2.27"/><path d="M155,22.76h0V20.49h-1.14v2.27Z"/><rect x="147.05" y="20.49" width="1.13" height="2.27"/><path d="M153.29,13.68v4.54h.56V13.68h.57v4.54H155V11.41h11.35V.06H155V11.41h-2.24v2.27Z"/><path d="M152.72,18.22V13.68h-.57v4.54h-.56V13.68H151v4.54h1.7Z"/><rect x="148.75" y="15.95" width="0.57" height="2.27"/><path d="M147.05,16h.56v2.27h-.56Zm-1.14,0h.57v2.27h1.7V13.68h-2.27Z"/><rect x="149.88" y="15.95" width="0.57" height="2.27"/><rect class="cls-7" x="154.99" y="13.68" width="11.35" height="2.27"/><rect class="cls-2" x="168.1" y="22.76" width="2.27" height="2.27"/><polygon class="cls-2" points="181.71 22.76 183.98 22.76 183.98 25.03 188.52 25.03 188.52 22.76 179.44 22.76 181.71 22.76"/><path class="cls-2" d="M174.91,28.43h-2.27v1.13h4.53V28.43Z"/><path class="cls-3" d="M170.37,31.83h6.8v0h4.54V34.1h6.81V31.83H170.37Z"/><path class="cls-3" d="M181.71,28.43v0Z"/><rect class="cls-3" x="186.25" y="27.3" width="2.27" height="1.13"/><rect class="cls-4" x="168.1" y="29.56" width="20.42" height="2.27"/><path class="cls-4" d="M179.44,27.3h-2.27v1.13h4.54V27.3Z"/><rect class="cls-5" x="181.71" y="27.3" width="4.54" height="1.13"/><path class="cls-1" d="M179.44,25h2.27V22.76h-2.27V25Z"/><rect class="cls-1" x="170.37" y="20.49" width="2.27" height="0.76"/><path class="cls-1" d="M170.37,21.24H168.1v1.52h2.27Z"/><path class="cls-1" d="M177.17,22.76h0V27.3h2.27V25h-1.13V22.76h1.13V21.24h-2.27Z"/><path class="cls-1" d="M181.71,27.3H184V25h-2.27Z"/><path class="cls-1" d="M176.61,22.76V18.22H176v4.54Z"/><path class="cls-1" d="M174.34,21.24v-3h-.57v4.54h.57Z"/><path class="cls-1" d="M176,22.76h-.57V18.22h-.57V25H176Z"/><rect class="cls-1" x="170.37" y="22.76" width="1.13" height="2.27"/><path class="cls-1" d="M173.2,22.76V18.22h-.56V25h1.13V22.76Z"/><rect class="cls-1" x="171.5" y="31.83" width="1.13" height="2.27"/><rect class="cls-1" x="169.23" y="31.83" width="1.13" height="2.27"/><rect class="cls-1" x="176.04" y="31.83" width="1.13" height="2.27"/><rect class="cls-1" x="173.77" y="31.83" width="1.13" height="2.27"/><path class="cls-1" d="M179.44,31.83h-.56V34.1h.56Z"/><path class="cls-1" d="M178.31,31.83h-.57V34.1h.57Z"/><path class="cls-1" d="M181.15,31.83V34.1h.56V31.83Z"/><path class="cls-1" d="M180.58,31.83H180V34.1h.57Z"/><path class="cls-6" d="M188.52,29.56V28.43h-6.81v1.13h-9.07V28.43h2.26V27.3h-6.8v2.26Z"/><path d="M181.71,25H184V22.76h-2.27V25Z"/><path d="M170.37,21.24v-.75h2.27v.75Zm4.54,1.52V18.22h.56v4.54H176V25h-1.13ZM176,21.24v-3h.57v4.54H176Zm-5.67,1.52h1.13V25h1.14V18.22h.56v4.54h.57V18.22h.57v4.54h-.57V25h1.14v3.4h2.26V25h0V21.24h2.27V.06H168.1V21.24h2.27v1.52Z"/><path d="M181.71,27.3V25h-2.27V22.76h-1.13V25h1.13V27.3Z"/><path d="M184,27.3h4.54v2.26h0V25H184V27.3Z"/><rect x="170.37" y="31.83" width="1.13" height="2.27"/><rect x="172.64" y="31.83" width="1.13" height="2.27"/><path d="M168.1,31.83h0V34.1h1.13V31.83Z"/><rect x="174.91" y="31.83" width="1.13" height="2.27"/><path d="M178.88,31.83h-.57V34.1h.57Z"/><path d="M180,31.83h-.57V34.1H180Z"/><path d="M177.74,31.83h-.57V34.1h.57Z"/><path d="M181.15,31.83h-.57V34.1h.57Z"/><polygon class="cls-7" points="183.98 25.03 183.98 25.03 188.52 25.03 183.98 25.03"/><path class="cls-7" d="M172.64,25H168.1V27.3h6.81V25Z"/><path class="cls-7" d="M179.44,29.56h2.27V28.43h-4.54v1.13Z"/><rect class="cls-2" x="192.57" y="9.14" width="2.27" height="2.27"/><polygon class="cls-2" points="194.84 9.14 199.38 9.14 199.38 11.41 201.64 11.41 201.64 9.14 194.84 9.14"/><rect class="cls-3" x="190.3" y="0.06" width="11.35" height="2.27"/><polygon class="cls-4" points="199.38 2.33 199.38 4.6 201.64 4.6 201.64 2.33 190.3 2.33 194.84 2.33 199.38 2.33"/><polygon class="cls-5" points="199.38 11.41 199.38 11.41 199.38 9.14 194.84 9.14 194.84 11.41 197.1 11.41 199.38 11.41"/><rect class="cls-1" x="199.37" y="11.41" width="2.27" height="2.27"/><rect class="cls-1" x="194.84" y="11.41" width="2.27" height="2.27"/><rect class="cls-1" x="197.11" y="13.68" width="2.27" height="4.54"/><polygon class="cls-1" points="190.87 13.68 190.87 13.68 191.43 13.68 191.43 18.22 192 18.22 192 13.68 192.57 13.68 192.57 11.41 192.57 9.14 190.3 9.14 190.3 11.41 190.3 13.68 190.3 18.22 190.87 18.22 190.87 13.68"/><rect class="cls-1" x="190.3" y="2.33" width="4.54" height="2.27"/><polygon class="cls-1" points="192.57 18.22 192.57 18.22 194.84 18.22 194.27 18.22 194.27 13.68 193.93 13.68 193.7 13.68 193.7 18.22 193.13 18.22 193.13 13.68 192.57 13.68 192.57 18.22"/><polygon class="cls-6" points="199.38 4.6 197.1 4.6 194.84 4.6 194.84 6.87 197.1 6.87 201.64 6.87 201.64 4.6 199.38 4.6"/><polygon points="201.64 18.22 201.64 13.68 199.38 13.68 199.38 18.22 197.1 18.22 197.1 13.68 194.84 13.68 194.84 11.41 192.57 11.41 192.57 13.68 193.13 13.68 193.13 18.22 193.7 18.22 193.7 13.68 193.93 13.68 194.27 13.68 194.27 18.22 194.84 18.22 192.57 18.22 192.57 13.68 192 13.68 192 18.22 191.43 18.22 191.43 13.68 190.87 13.68 190.87 18.22 190.3 18.22 190.3 34.1 201.64 34.1 201.64 18.22"/><rect x="197.11" y="11.41" width="2.27" height="2.27"/><polygon points="199.38 4.6 199.38 4.6 199.38 2.33 194.84 2.33 194.84 4.6 197.1 4.6 199.38 4.6"/><polygon points="194.84 9.14 194.84 9.14 194.84 6.87 194.84 4.6 190.3 4.6 190.3 6.87 190.3 9.14 192.57 9.14 194.84 9.14"/><polygon class="cls-7" points="192.57 11.41 192.57 11.41 194.84 11.41 192.57 11.41"/><polygon class="cls-7" points="201.64 11.41 201.64 11.41 199.38 11.41 201.64 11.41"/><polygon class="cls-7" points="201.64 9.14 201.64 6.87 197.1 6.87 194.84 6.87 194.84 9.14 201.64 9.14"/><path class="cls-11" d="M224.57,4.57Z"/><path class="cls-11" d="M224.57,4.57l.85-2.25-.72,1.91c-.1.25-.13.34-.13.34Z"/><path class="cls-2" d="M219,9.15h-4.53v2.26H222s.35-1,.43-1.21c.14-.38.29-.68.43-1.06H219Z"/><path class="cls-3" d="M217.57.27a17.24,17.24,0,0,0-11.81,7.78A17,17,0,0,0,203.2,16h2.23V11.41h0V9.14h2.27A14.79,14.79,0,0,1,211.63,5a14.54,14.54,0,0,1,2.61-1.45l.32-.16A13.49,13.49,0,0,1,216,2.93a15.8,15.8,0,0,1,4.34-.61h.41c1.28,0,2.57,0,3.86,0h.77l.85-2.26a57.41,57.41,0,0,0-8.7.21Z"/><path class="cls-3" d="M210,13.68h2.27V11.41H210v2.27Z"/><path class="cls-4" d="M224.65,2.32h-4.27a15.8,15.8,0,0,0-4.34.61,15.39,15.39,0,0,0-1.8.65A14.54,14.54,0,0,0,211.63,5a14.79,14.79,0,0,0-3.93,4.11h2.74a10.15,10.15,0,0,1,.95-1l0,0a10.66,10.66,0,0,1,.88-.76l.09-.07.34-.27a12.61,12.61,0,0,1,2.76-1.53,6.62,6.62,0,0,1,.75-.24,12.62,12.62,0,0,1,3.4-.64c1,0,2,0,3,0,1.15,0,1.95,0,2,0h0s0-.09.13-.34c0-.07.06-.17.1-.28.21-.54.41-1.09.62-1.63Z"/><path class="cls-4" d="M205.43,9.14v2.27h0v2.27h2.27V9.14h-2.27Z"/><path class="cls-5" d="M219,13.68h2.27l.06-.19.24-.8.39-1.27h-3Z"/><path class="cls-5" d="M212.77,13.68h1.74V11.41h-2.27v2.27Z"/><rect class="cls-1" x="205.43" y="18.22" width="2.27" height="2.27"/><path class="cls-1" d="M210,20.49h2.27V18.22H210Z"/><rect class="cls-1" x="219.04" y="18.22" width="2.27" height="2.27"/><path class="cls-1" d="M214.51,13.68h-2.27v4.54h2.27V13.68Z"/><path class="cls-1" d="M204.37,16H203.2v2.27h2.23V16Z"/><path class="cls-1" d="M210,13.68h-.57V16h-.57V13.68h-.56V16h-.57v2.27H210V13.68Z"/><path class="cls-1" d="M215.33,13.68h1.45V11.42h-2.27v2.27Z"/><path class="cls-1" d="M216.78,15.08v7.68h.56V18.22h.57v4.54h.57V18.22H219V13.68h-2.26Z"/><path class="cls-1" d="M216.21,20.49V18.22h-.57v4.54h-.57V18.22h-.56v4.54h1.7V20.49Z"/><path class="cls-1" d="M210.54,16h.56V13.68h-.56Z"/><path class="cls-1" d="M207.7,13.68h-.57V16h.57V13.68Z"/><path d="M221.31,20.49H219V18.22h2.27Zm0-4.54V13.68H219v4.54h-.56v4.54h-.57V18.22h-.57v4.54h-2.83V18.22h-2.27v2.27H210V18.22H207.7v2.27h-2.27V18.22H203.2A17.05,17.05,0,0,0,219,34.06c1.45.1,2.92,0,4.38,0h4.75V16Z"/><path d="M212.24,13.68H211.1V16h-.57V13.68H210v4.54h2.27V13.68Z"/><polygon points="205.43 11.41 205.43 11.41 205.43 11.41 205.43 11.41"/><path d="M207.13,16V13.68h-1.7V11.41h0v6.81h2.27V16Z"/><path d="M216.78,11.42v2.26H219V11.42Z"/><path d="M216.78,15.08v-1.4h-2.27v4.54h.56v4.54h.57V18.22h.57v4.54h.57V15.08Z"/><path d="M209.4,16h0V13.68h-.57V16Z"/><path d="M207.7,15.44V16h.57V13.68h-.57Z"/><path class="cls-6" d="M222.61,4.56c-1,0-2,0-3,0a13,13,0,0,0-7.25,2.68l-.09.07c-.31.25-.61.51-.9.79a10.15,10.15,0,0,0-.95,1H207.7v4.54H210V11.41h2.27v-1a1.06,1.06,0,0,1,.15-.14,10.42,10.42,0,0,1,7.85-3.48h3.47l.43-1.13c.14-.37.28-.75.43-1.13Z"/><path class="cls-7" d="M220.24,6.83a10.42,10.42,0,0,0-7.85,3.48l-.15.14v1h2.27V9.15h8.35l.32-.91.53-1.41Z"/><rect class="cls-2" x="31.57" y="9.14" width="2.27" height="2.27"/><polygon class="cls-2" points="33.84 9.14 38.38 9.14 38.38 11.41 40.64 11.41 40.64 9.14 33.84 9.14"/><rect class="cls-3" x="29.3" y="0.06" width="11.35" height="2.27"/><polygon class="cls-4" points="38.38 2.33 38.38 4.6 40.64 4.6 40.64 2.33 29.3 2.33 33.84 2.33 38.38 2.33"/><polygon class="cls-5" points="38.38 11.41 38.38 11.41 38.38 9.14 33.84 9.14 33.84 11.41 36.1 11.41 38.38 11.41"/><rect class="cls-1" x="38.37" y="11.41" width="2.27" height="2.27"/><rect class="cls-1" x="33.84" y="11.41" width="2.27" height="2.27"/><rect class="cls-1" x="36.11" y="13.68" width="2.27" height="4.54"/><polygon class="cls-1" points="29.86 13.68 29.86 13.68 30.43 13.68 30.43 18.22 31 18.22 31 13.68 31.57 13.68 31.57 11.41 31.57 9.14 29.3 9.14 29.3 11.41 29.3 13.68 29.3 18.22 29.86 18.22 29.86 13.68"/><rect class="cls-1" x="29.3" y="2.33" width="4.54" height="2.27"/><polygon class="cls-1" points="31.57 18.22 31.57 18.22 33.84 18.22 33.27 18.22 33.27 13.68 32.93 13.68 32.7 13.68 32.7 18.22 32.13 18.22 32.13 13.68 31.57 13.68 31.57 18.22"/><polygon class="cls-6" points="38.38 4.6 36.1 4.6 33.84 4.6 33.84 6.87 36.1 6.87 40.64 6.87 40.64 4.6 38.38 4.6"/><polygon points="40.64 18.22 40.64 13.68 38.38 13.68 38.38 18.22 36.1 18.22 36.1 13.68 33.84 13.68 33.84 11.41 31.57 11.41 31.57 13.68 32.13 13.68 32.13 18.22 32.7 18.22 32.7 13.68 32.93 13.68 33.27 13.68 33.27 18.22 33.84 18.22 31.57 18.22 31.57 13.68 31 13.68 31 18.22 30.43 18.22 30.43 13.68 29.86 13.68 29.86 18.22 29.3 18.22 29.3 34.1 40.64 34.1 40.64 18.22"/><rect x="36.11" y="11.41" width="2.27" height="2.27"/><polygon points="38.38 4.6 38.38 4.6 38.38 2.33 33.84 2.33 33.84 4.6 36.1 4.6 38.38 4.6"/><polygon points="33.84 9.14 33.84 9.14 33.84 6.87 33.84 4.6 29.3 4.6 29.3 6.87 29.3 9.14 31.57 9.14 33.84 9.14"/><polygon class="cls-7" points="31.57 11.41 31.57 11.41 33.84 11.41 31.57 11.41"/><polygon class="cls-7" points="40.64 11.41 40.64 11.41 38.38 11.41 40.64 11.41"/><polygon class="cls-7" points="40.64 9.14 40.64 6.87 36.1 6.87 33.84 6.87 33.84 9.14 40.64 9.14"/><path class="cls-12" d="M59.35,17.14h0l0,0Z"/><path class="cls-12" d="M59.38,17.19Z"/><path class="cls-13" d="M64.58,9.41,66,7.29Z"/><path class="cls-2" d="M60.3,10.43V9.14H58v2.27H60.3V13a4.43,4.43,0,0,1,1.47.62l1.41-2.12A6.86,6.86,0,0,0,60.3,10.43Z"/><rect class="cls-2" x="55.73" y="11.38" height="0.05" transform="translate(2.97 32.69) rotate(-33.53)"/><path class="cls-2" d="M59.39,17.2l-1.36-2,1.34,2Z"/><path class="cls-2" d="M53.86,9.14h1.9V6.87H53.49V9.14Z"/><path class="cls-3" d="M63.18,11.53c.47-.71.93-1.42,1.4-2.12h0Z"/><polygon class="cls-3" points="59.39 17.2 59.39 17.2 59.39 17.21 59.39 17.2"/><path class="cls-3" d="M59.4,17.21h0Z"/><polygon class="cls-3" points="59.4 17.21 59.4 17.21 59.39 17.21 59.4 17.21"/><path class="cls-3" d="M59.4,17.21Z"/><polygon class="cls-3" points="59.39 17.2 59.38 17.19 59.39 17.2 59.39 17.2"/><path class="cls-3" d="M59.39,17.21h0Z"/><path class="cls-3" d="M50.82,4.69H49V9.14h2.27V4.6a4.71,4.71,0,0,0,.84,0,3.78,3.78,0,0,0,.85-.43c.38-.18.76-.35,1.16-.5a14.84,14.84,0,0,1,4.56-.95A14.69,14.69,0,0,1,67.4,5.17l1.4-2.12A17.33,17.33,0,0,0,49.72,3l1.11,1.65Z"/><path class="cls-4" d="M66.33,4.52a14.71,14.71,0,0,0-14.24.08h3.67V5.79A12.14,12.14,0,0,1,66,7.29L67.4,5.17c-.35-.23-.71-.45-1.07-.65Z"/><path class="cls-4" d="M59.35,17.14v0Z"/><path class="cls-4" d="M55.76,9.14H58V6.87H55.76Z"/><path class="cls-4" d="M53.49,7V7Z"/><path class="cls-7" d="M63.12,11.49l.06,0,1.4-2.12A9.42,9.42,0,0,0,60.3,7.87v-1H58V9.14H60.3v1.29a7,7,0,0,1,2.82,1.06Z"/><path class="cls-7" d="M55.42,11.41h.34V9.14H53.49v2.27Z"/><polygon class="cls-5" points="59.38 17.19 59.38 17.18 59.38 17.19 59.38 17.19"/><path class="cls-5" d="M59.37,17.18Z"/><path class="cls-5" d="M59.36,17.16l-.07-.1.08.11Z"/><path class="cls-5" d="M59.36,17.16s0,0,0,0Z"/><path class="cls-5" d="M61.77,13.65l1.41-2.12Z"/><path class="cls-5" d="M59.4,17.21h0Z"/><polygon class="cls-5" points="59.4 17.21 59.4 17.21 59.4 17.21 59.4 17.21"/><polygon class="cls-5" points="59.4 17.21 59.4 17.21 59.4 17.21 59.4 17.21"/><path class="cls-5" d="M59.4,17.21h0Z"/><path class="cls-1" d="M51.22,18.22V16.71h0Z"/><path class="cls-1" d="M49,9.23v2.18h2.27V16.1h0V13.68h2.27V11.41H51.22V9.14H49Z"/><path class="cls-1" d="M46.68,11.41V16h-.57V13.68h-.56V16H45V13.68h-.57v4.54h2.84V13.68h.57v4.54h.56V13.68H49V11.41H46.68V9.23H44.41v2.18Z"/><path class="cls-1" d="M49,16.14v2.08h.57V13.68H49Z"/><path class="cls-1" d="M50.65,18.22V13.68h-.56v4.54Z"/><path class="cls-1" d="M54.06,6.87V4.6h-.57V6.87Z"/><rect class="cls-1" x="54.62" y="4.6" width="0.57" height="2.27"/><rect class="cls-1" x="51.22" y="4.6" width="0.57" height="2.27"/><path class="cls-1" d="M52.35,4.69V6.87h.57V4.6h-.57Z"/><polygon class="cls-1" points="43.28 15.95 43.28 15.95 43.84 15.95 43.84 13.68 43.28 13.68 43.28 15.95"/><path class="cls-1" d="M58,18.22V16.71H55.76v1.51Z"/><path class="cls-1" d="M57,13.68H51.22V16.1h2.27v.61H51.22v1.51h2.27V16.71h2.27V16.1H53.49V13.68h2.27V16.1H58V13.68Z"/><path class="cls-6" d="M55.76,5.79V6.87H60.3v1a9.46,9.46,0,0,1,4.28,1.54L66,7.29a12.14,12.14,0,0,0-10.23-1.5Z"/><path d="M59.39,17.21"/><path d="M59.28,17.05h0Z"/><polygon points="59.39 17.2 59.39 17.2 59.39 17.2 59.39 17.2"/><path d="M59.37,17.17h0Z"/><polygon points="59.37 17.17 59.37 17.18 59.37 17.17 59.37 17.17"/><polygon points="59.39 17.2 59.39 17.2 59.38 17.19 59.39 17.2"/><path d="M59.09,16.76l.18.26-.18-.26Z"/><path d="M59.37,17.17h0Z"/><path d="M59.29,17.05l0,0,0,0Z"/><path d="M59.39,17.21Z"/><polygon points="59.39 17.2 59.39 17.2 59.39 17.2 59.39 17.2"/><polygon points="59.4 17.21 59.39 17.21 59.4 17.22 59.4 17.21"/><path d="M59.4,17.21"/><polygon points="59.39 17.2 59.39 17.2 59.39 17.2 59.39 17.2"/><path d="M59.4,17.21"/><polygon points="59.39 17.2 59.38 17.19 59.39 17.2 59.39 17.2"/><polygon points="59.4 17.21 59.39 17.2 59.4 17.21 59.4 17.21"/><path d="M59.33,17.12h0Z"/><polygon points="59.37 17.18 59.37 17.18 59.37 17.18 59.37 17.18"/><path d="M59.27,17l.06.1Z"/><path d="M59.36,17.16h0Z"/><path d="M59.29,17.06v0l.06.08Z"/><path d="M59.26,17l-.17-.25c.06.1.13.19.19.28Z"/><path d="M59.37,17.17Z"/><path d="M59.28,17l0,0Z"/><path d="M54.06,6.87h.56V4.6h-.56Z"/><path d="M55.19,6.87h.57V4.6h-.57V6.87Z"/><path class="cls-5" d="M61.74,13.63A4.2,4.2,0,0,0,60.3,13V11.41H58V9.14H55.76v4.54H58v0c0,.59-.17,1.29.17,1.79l1.2,1.75,2.37-3.57Z"/><path class="cls-6" d="M51.22,11.41h2.27V9.14H51.22v2.27Z"/><path d="M58,18.22H55.76V16.71H58Zm-6.81-.91v.91h0V16.71h0Zm-.57-3.63v4.54h-.56V13.68Zm-1.13,0v4.54H49V13.68h-.57v4.54h-.56V13.68h-.57v4.54H44.41V16h0V13.68H45V16h.57V13.68h.56V16h.57V11.41H44.41V9.23h2.27v2.18H49v2.27ZM43.85,16h-.57V13.68h.57ZM59.4,17.22c-.46-.67-.94-1.33-1.37-2v.89H55.76V11.41H53.49V16.1h2.27v.61H53.49v1.51H51.22V16.71h2.27V16.1H51.22V11.41H49V4.69h1.88L49.72,3l0,0h0a17.32,17.32,0,0,0-6.42,19.57,17,17,0,0,0,25.5,8.62Z"/><path d="M53.49,9.14h0V7h0V4.6h-.57V6.87h-.57V4.6h-.56V6.87h-.57V9.14Z"/><path class="cls-1" d="M51.22,16.1Z"/><polygon class="cls-1" points="51.22 16.1 51.22 16.1 51.22 16.1 51.22 16.1"/><polygon class="cls-3" points="72.25 31.66 70.62 28.88 70.62 34.1 73.68 34.1 72.25 31.66"/><path class="cls-4" d="M73.68,34.1H77L71.19,25h-.57v2.78a4.61,4.61,0,0,0,0,1.05,4,4,0,0,0,.44.78Z"/><path class="cls-4" d="M72.91,17.28v.94h2.27v-.94Z"/><path class="cls-1" d="M73.46,11.41h0V9.14H74v2.27h-.57Zm1.14,0h0V9.14h.58v2.27Zm-1.69,0h0V13.8h2.27v3.48h2.27V13.8H75.18V11.41h.55V9.14h-.55V6.87H72.91V9.14H70.62v2.27Z"/><rect class="cls-1" x="77.45" y="6.87" width="2.21" height="2.27"/><rect class="cls-1" x="79.67" y="9.14" width="2.27" height="2.27"/><path class="cls-1" d="M76.86,11.41h0V9.14H76.3v2.27Z"/><path class="cls-1" d="M72.89,22.87V25h.57V20.49h-.57Z"/><path class="cls-1" d="M74,24.61V25h.57V20.49H74v4.12Z"/><path class="cls-1" d="M71.19,25V20.49h-.57V25Z"/><path class="cls-1" d="M71.76,21.47V25h.57V20.49h-.57Z"/><path class="cls-6" d="M74.3,25H71.19L77,34.1h3.27Q77.25,29.57,74.3,25Z"/><path class="cls-6" d="M75.16,21.47v0Z"/><path class="cls-6" d="M77.45,17.28H75.18v.94h2.27Z"/><path class="cls-6" d="M72.91,16.05h0V13.8H70.62v2.25Z"/><path d="M75.18,17.28h0V13.8H72.91v3.48Z"/><path d="M72.91,13.8V11.41H70.62V13.8Z"/><path d="M75.18,11.41h0V9.14H74.6v2.27Z"/><path d="M74,11.41h0V9.14h-.57v2.27Z"/><path d="M73.46,23.74V25H74V20.49h-.57Z"/><path d="M72.33,22v3h.56V20.49h-.56Z"/><path d="M74.6,21.47V25h.56V20.49H74.6Z"/><path d="M71.76,21.47v-1h-.57V25h.57Z"/><path class="cls-7" d="M75.16,25H74.3q3,4.53,5.92,9.07h3.27l-6.42-9.7c-.64-1-1.28-2-1.91-2.93Z"/><path class="cls-7" d="M72.91,18.05v-2H70.62v2.17h2.29Z"/><path class="cls-7" d="M71.34,20.49h3.82V19.35H70.62v1.14Z"/><path class="cls-2" d="M78.33,21.47H75.16l.62,1c.37.56.74,1.15,1.11,1.71l.85,1.28,4.44,6.72,1.31,2h3.27L80.65,25Z"/><path class="cls-3" d="M82,19.35h0v1.14h-1L90,34.1h3.18L81.94,17.28Z"/><path class="cls-3" d="M79.67,17.28H77.45v.94h2.22Z"/><path class="cls-4" d="M77.45,20.49h2.22V19.35H75.16v2.12h2.29v-1Z"/><path class="cls-5" d="M79.67,20.49v1H78.33l1.08,1.61L80.65,25l5,7.51c.37.55.73,1.1,1.1,1.64H90L80.9,20.49Z"/><path class="cls-5" d="M79.41,23.08l-1.08-1.61L80.65,25C80.24,24.33,79.82,23.71,79.41,23.08Z"/><path class="cls-5" d="M81.84,17.28H79.67v.94h2.26v-.94Z"/><path class="cls-1" d="M80.8,13.8H79.66v3.48H80.8Z"/><path class="cls-1" d="M79.67,13.72V11.41H77.45v2.38h2.22Z"/><path class="cls-1" d="M81.93,11.41V17l.08.12,1.06-1.7V11.41Z"/><path class="cls-1" d="M81.94,17.28v0Z"/><polygon class="cls-1" points="82.01 17.16 81.93 17.04 81.94 17.28 82.01 17.16"/><path class="cls-6" d="M81.84,19.35H79.67v1.14H82V19.35h-.11Z"/><polygon class="cls-6" points="81.95 19.35 81.95 19.35 81.95 20.49 81.95 19.35"/><path d="M80.8,17.28h1.13V11.41H79.67V13.8H80.8v3.48Z"/><path d="M77.45,9.14v2.27h2.22V9.14Z"/><path d="M76.86,11.41H76.3V9.14h.56Zm.59-2.27V6.87h2.22V9.14h2.26v2.27h1.14v4L93.32.06H70.62V9.14h2.29V6.87h2.27V9.14h.55v2.27h-.55v2.38h2.27V9.14Z"/><path d="M79.67,16.05V13.8H77.45v3.48h2.22V16.05Z"/><path d="M80.46,19.35h1.47V18.22H70.62v1.13h9.84Z"/><path class="cls-7" d="M77.45,21.47h2.22v-1H77.45Z"/><polygon class="cls-1" points="81.94 17.28 81.94 17.28 81.93 17.28 81.94 17.28"/><polygon class="cls-1" points="81.93 17.28 81.94 17.28 81.94 17.28 81.93 17.28"/><path class="cls-1" d="M81.94,17.28h.15L82,17.16Z"/></g></svg>