<svg id="Layer_1" data-name="Layer 1" xmlns="http://www.w3.org/2000/svg" viewBox="0 0 234.12 34.12"><defs><style>.cls-1{fill:#69cad7;}.cls-2{fill:#63bc46;}.cls-3{fill:#3953a4;}.cls-4{fill:#f4eb2a;}.cls-5{fill:#fff;}.cls-6{fill:#ed1c24;}.cls-7{fill:#b74f9d;}.cls-8{fill:#7858a5;}.cls-9{fill:#2e2f8e;}.cls-10{fill:#c7e9f0;}.cls-11{fill:#98d8e2;}.cls-12{fill:#77cedb;}.cls-13{fill:#603c93;}</style></defs><title>normal</title><path class="cls-1" d="M87.35,71.85v2l2.23,2.7v4.36h2.26V78.65h2.27v3.6h0v.93h2.26v-3l-9-11.24Z" transform="translate(-69.15 -55.9)"/><path class="cls-1" d="M84,67.25h2.11L84.31,65H82.77v2.21Z" transform="translate(-69.15 -55.9)"/><path class="cls-2" d="M84.28,56H94.1v2.26h0v4.54h2.27V56H84.28Z" transform="translate(-69.15 -55.9)"/><path class="cls-3" d="M91.83,59.88h0v2.89H94.1v-.12h0V58.23h0V56H91.83v3.92Z" transform="translate(-69.15 -55.9)"/><path class="cls-3" d="M96.38,90v-6.8H94.12v-.93h0v-3.6H91.85v1.29H89.58V76.57l-2.23-2.71v.26H83.58Z" transform="translate(-69.15 -55.9)"/><polygon class="cls-3" points="20.41 0.06 20.41 1.21 20.41 0.06 19.48 0.06 20.41 0.06"/><polygon class="cls-3" points="27.23 9.14 24.96 9.14 24.96 11.35 27.23 11.35 27.23 9.53 27.23 9.54 27.23 9.14"/><path class="cls-4" d="M89.58,67.25H87.35V65h-3l1.81,2.21h1.23v1.68l9,11.24V75.26l-6.45-8Z" transform="translate(-69.15 -55.9)"/><path class="cls-5" d="M83.58,74.11H84V71.85h-.52v-4.6h-.68v6.87h.8" transform="translate(-69.15 -55.9)"/><path class="cls-5" d="M86.27,71.85h-.56v-4.6h-.56v4.6h0v2.26h1.15V71.85Z" transform="translate(-69.15 -55.9)"/><path class="cls-5" d="M86.28,71.85h.57v-4.6h-.57Z" transform="translate(-69.15 -55.9)"/><path class="cls-5" d="M84,71.85h.57v-4.6H84Z" transform="translate(-69.15 -55.9)"/><path class="cls-5" d="M91.84,62.77V65h0V65h2.27V62.77Z" transform="translate(-69.15 -55.9)"/><path class="cls-5" d="M80.53,74.11v6.81h1.14V72.79H80.53Z" transform="translate(-69.15 -55.9)"/><rect class="cls-5" x="6.81" y="18.22" width="1.13" height="6.81"/><path class="cls-5" d="M85.79,62v.79h.76V56h-.76Z" transform="translate(-69.15 -55.9)"/><path class="cls-5" d="M85,65h0V56h-.76v6.81h-.76V56h-.75V65Z" transform="translate(-69.15 -55.9)"/><path class="cls-5" d="M91.09,65h-.76v2.27h.76V65Z" transform="translate(-69.15 -55.9)"/><path class="cls-5" d="M89.58,65V62.77H87.35V65h0v2.21h.71V65h.76v2.27h.76Z" transform="translate(-69.15 -55.9)"/><rect class="cls-5" y="15.95" width="2.27" height="0.94"/><rect class="cls-5" x="4.54" y="15.95" width="2.27" height="0.94"/><path class="cls-5" d="M78.23,71.85v9.07h1.15V72.79H80.5v-.94Z" transform="translate(-69.15 -55.9)"/><path class="cls-6" d="M88.63,56h0Z" transform="translate(-69.15 -55.9)"/><path class="cls-6" d="M96.38,67.25H94.11V65H91.85v2.21h2.26l2.27,2.61Z" transform="translate(-69.15 -55.9)"/><polygon class="cls-6" points="24.95 6.87 24.96 6.87 24.96 6.76 24.95 6.75 24.95 6.87"/><path class="cls-6" d="M89.57,57.1v4.79h0v.88h2.27V59.88h0V56H89.57Z" transform="translate(-69.15 -55.9)"/><path d="M81.67,74.11v6.81H80.53V72.79h1.14ZM80.5,72.79H79.38v8.13H78.23V72.79h0v-.94H80.5Zm-3.41,8.13H76V74.11h1.13Zm-3.4-8.13v-.94H76v.94Zm-2.27,0H69.15v-.94h2.27v.94Zm11.35.32V71.85h-1L69.15,56V90H82.77V73.11Z" transform="translate(-69.15 -55.9)"/><path d="M85.15,71.85v-4.6h-.57v4.6H84v-4.6h-.56v4.6H84v2.26h1.15V71.85Z" transform="translate(-69.15 -55.9)"/><path d="M87.35,71.85v-4.6h-.5v4.6h-.57v-4.6h-.57v4.6h.56v2.26h1.08Z" transform="translate(-69.15 -55.9)"/><path d="M94.2,62.77h-.09V65h2.27V62.77Z" transform="translate(-69.15 -55.9)"/><path d="M87.35,65h0V56h-.8v6.81h-.76V56H85V65Z" transform="translate(-69.15 -55.9)"/><path d="M83.52,59.14v3.63h.76V56h-.76Z" transform="translate(-69.15 -55.9)"/><path d="M91.84,65V62.77H89.58v4.48h.75V65h.76v2.27h.75V65Z" transform="translate(-69.15 -55.9)"/><rect x="18.91" y="9.08" width="0.76" height="2.27"/><path class="cls-7" d="M89.57,61.89V56H87.35v6.81h2.22v-.88Z" transform="translate(-69.15 -55.9)"/><path class="cls-7" d="M91.84,67.25H89.93l6.45,8v-5.4l-2.27-2.61Z" transform="translate(-69.15 -55.9)"/><rect class="cls-1" x="32.27" y="9.14" width="2.27" height="2.27"/><polygon class="cls-1" points="34.54 9.14 39.08 9.14 39.08 11.41 41.35 11.41 41.35 9.14 34.54 9.14"/><rect class="cls-2" x="30" y="0.06" width="11.35" height="2.27"/><polygon class="cls-3" points="39.08 2.33 39.08 4.6 41.35 4.6 41.35 2.33 30 2.33 34.54 2.33 39.08 2.33"/><polygon class="cls-4" points="39.08 11.41 39.08 11.41 39.08 9.14 34.54 9.14 34.54 11.41 36.81 11.41 39.08 11.41"/><rect class="cls-5" x="39.08" y="11.41" width="2.27" height="2.27"/><rect class="cls-5" x="34.54" y="11.41" width="2.27" height="2.27"/><rect class="cls-5" x="36.81" y="13.68" width="2.27" height="4.54"/><polygon class="cls-5" points="30.57 13.68 30.57 13.68 31.14 13.68 31.14 18.22 31.7 18.22 31.7 13.68 32.27 13.68 32.27 11.41 32.27 9.14 30 9.14 30 11.41 30 13.68 30 18.22 30.57 18.22 30.57 13.68"/><rect class="cls-5" x="30" y="2.33" width="4.54" height="2.27"/><polygon class="cls-5" points="32.27 18.22 32.27 18.22 34.54 18.22 33.97 18.22 33.97 13.68 33.63 13.68 33.4 13.68 33.4 18.22 32.84 18.22 32.84 13.68 32.27 13.68 32.27 18.22"/><polygon class="cls-6" points="39.08 4.6 36.81 4.6 34.54 4.6 34.54 6.87 36.81 6.87 41.35 6.87 41.35 4.6 39.08 4.6"/><polygon points="41.35 18.22 41.35 13.68 39.08 13.68 39.08 18.22 36.81 18.22 36.81 13.68 34.54 13.68 34.54 11.41 32.27 11.41 32.27 13.68 32.84 13.68 32.84 18.22 33.4 18.22 33.4 13.68 33.63 13.68 33.97 13.68 33.97 18.22 34.54 18.22 32.27 18.22 32.27 13.68 31.7 13.68 31.7 18.22 31.14 18.22 31.14 13.68 30.57 13.68 30.57 18.22 30 18.22 30 34.1 41.35 34.1 41.35 18.22"/><rect x="36.81" y="11.41" width="2.27" height="2.27"/><polygon points="39.08 4.6 39.08 4.6 39.08 2.33 34.54 2.33 34.54 4.6 36.81 4.6 39.08 4.6"/><polygon points="34.54 9.14 34.54 9.14 34.54 6.87 34.54 4.6 30 4.6 30 6.87 30 9.14 32.27 9.14 34.54 9.14"/><polygon class="cls-7" points="32.27 11.41 32.27 11.41 34.54 11.41 32.27 11.41"/><polygon class="cls-7" points="41.35 11.41 41.35 11.41 39.08 11.41 41.35 11.41"/><polygon class="cls-7" points="41.35 9.14 41.35 6.87 36.81 6.87 34.54 6.87 34.54 9.14 41.35 9.14"/><path class="cls-8" d="M130.5,73h0v0Z" transform="translate(-69.15 -55.9)"/><path class="cls-8" d="M130.53,73.09h0Z" transform="translate(-69.15 -55.9)"/><path class="cls-9" d="M135.74,65.3l1.4-2.12Z" transform="translate(-69.15 -55.9)"/><path class="cls-1" d="M131.45,66.33V65h-2.27v2.27h2.27v1.62a4.32,4.32,0,0,1,1.47.61l1.41-2.12A7,7,0,0,0,131.45,66.33Z" transform="translate(-69.15 -55.9)"/><rect class="cls-1" x="126.88" y="67.28" height="0.05" transform="translate(-85.21 25.4) rotate(-33.53)"/><path class="cls-1" d="M130.54,73.1l-1.36-2,1.34,2Z" transform="translate(-69.15 -55.9)"/><path class="cls-1" d="M125,65h1.9V62.77h-2.27V65Z" transform="translate(-69.15 -55.9)"/><path class="cls-2" d="M134.33,67.42c.47-.7.94-1.41,1.4-2.12h0Z" transform="translate(-69.15 -55.9)"/><polygon class="cls-2" points="61.39 17.2 61.39 17.2 61.39 17.21 61.39 17.2"/><path class="cls-2" d="M130.55,73.11Z" transform="translate(-69.15 -55.9)"/><polygon class="cls-2" points="61.4 17.21 61.4 17.21 61.39 17.21 61.4 17.21"/><path class="cls-2" d="M130.55,73.11Z" transform="translate(-69.15 -55.9)"/><polygon class="cls-2" points="61.39 17.2 61.38 17.19 61.39 17.2 61.39 17.2"/><path class="cls-2" d="M130.54,73.1h0Z" transform="translate(-69.15 -55.9)"/><path class="cls-2" d="M122,60.59H120.1V65h2.27V60.5a4.71,4.71,0,0,0,.84,0,4.24,4.24,0,0,0,.85-.43c.38-.18.76-.35,1.16-.5a14.56,14.56,0,0,1,4.56-1,14.75,14.75,0,0,1,8.77,2.44l1.4-2.12a17.35,17.35,0,0,0-19.08,0L122,60.59Z" transform="translate(-69.15 -55.9)"/><path class="cls-3" d="M137.48,60.41a14.74,14.74,0,0,0-14.24.09h3.67v1.19a12.17,12.17,0,0,1,10.23,1.49l1.41-2.12c-.35-.23-.71-.45-1.07-.65Z" transform="translate(-69.15 -55.9)"/><path class="cls-3" d="M130.5,73h0Z" transform="translate(-69.15 -55.9)"/><path class="cls-3" d="M126.91,65h2.27V62.77h-2.27Z" transform="translate(-69.15 -55.9)"/><path class="cls-3" d="M124.64,62.86v0Z" transform="translate(-69.15 -55.9)"/><path class="cls-7" d="M134.28,67.39l.05,0,1.4-2.12a9.66,9.66,0,0,0-4.28-1.54v-1h-2.27V65h2.27v1.29a6.8,6.8,0,0,1,2.83,1.06Z" transform="translate(-69.15 -55.9)"/><path class="cls-7" d="M126.57,67.31h.34V65h-2.27v2.27c.64,0,1.29,0,1.93,0Z" transform="translate(-69.15 -55.9)"/><polygon class="cls-4" points="61.38 17.19 61.38 17.18 61.38 17.19 61.38 17.19"/><path class="cls-4" d="M130.52,73.07Z" transform="translate(-69.15 -55.9)"/><path class="cls-4" d="M130.51,73.06l-.07-.11.08.11Z" transform="translate(-69.15 -55.9)"/><path class="cls-4" d="M130.51,73.06s0,0,0,0Z" transform="translate(-69.15 -55.9)"/><path class="cls-4" d="M132.92,69.54l1.41-2.12Z" transform="translate(-69.15 -55.9)"/><path class="cls-4" d="M130.55,73.11Z" transform="translate(-69.15 -55.9)"/><polygon class="cls-4" points="61.4 17.21 61.4 17.21 61.4 17.21 61.4 17.21"/><polygon class="cls-4" points="61.4 17.21 61.4 17.21 61.4 17.21 61.4 17.21"/><path class="cls-4" d="M130.55,73.11Z" transform="translate(-69.15 -55.9)"/><path class="cls-5" d="M122.37,74.11V72.6h0Z" transform="translate(-69.15 -55.9)"/><path class="cls-5" d="M120.1,65.12v2.19h2.27V72h0V69.58h2.27V67.31h-2.27V65H120.1Z" transform="translate(-69.15 -55.9)"/><path class="cls-5" d="M117.83,67.31v4.54h-.56V69.58h-.57v2.27h-.57V69.58h-.57v4.53h2.84V69.58H119v4.53h.56V69.58h.57V67.31h-2.27V65.12h-2.27v2.19Z" transform="translate(-69.15 -55.9)"/><path class="cls-5" d="M120.1,72v2.09h.57V69.58h-.57Z" transform="translate(-69.15 -55.9)"/><path class="cls-5" d="M121.8,74.11V69.58h-.56v4.53Z" transform="translate(-69.15 -55.9)"/><path class="cls-5" d="M125.21,62.77V60.5h-.57v2.27Z" transform="translate(-69.15 -55.9)"/><rect class="cls-5" x="56.62" y="4.6" width="0.57" height="2.27"/><rect class="cls-5" x="53.22" y="4.6" width="0.57" height="2.27"/><path class="cls-5" d="M123.51,60.59v2.18h.56V60.5h-.56Z" transform="translate(-69.15 -55.9)"/><polygon class="cls-5" points="45.28 15.95 45.28 15.95 45.84 15.95 45.84 13.68 45.28 13.68 45.28 15.95"/><path class="cls-5" d="M129.18,74.11V72.6h-2.27v1.51Z" transform="translate(-69.15 -55.9)"/><path class="cls-5" d="M128.13,69.58h-5.76V72h2.27v.6h-2.27v1.52h2.27V72.6h2.27V72h-2.27V69.58h2.27V72h2.27V69.58Z" transform="translate(-69.15 -55.9)"/><path class="cls-6" d="M126.91,61.69v1.08h4.54v1a9.69,9.69,0,0,1,4.29,1.54l1.4-2.12a12.17,12.17,0,0,0-10.23-1.49Z" transform="translate(-69.15 -55.9)"/><path d="M130.54,73.1" transform="translate(-69.15 -55.9)"/><path d="M130.43,72.94h0Z" transform="translate(-69.15 -55.9)"/><polygon points="61.39 17.2 61.39 17.2 61.39 17.2 61.39 17.2"/><path d="M130.52,73.07h0Z" transform="translate(-69.15 -55.9)"/><polygon points="61.37 17.17 61.37 17.18 61.37 17.17 61.37 17.17"/><polygon points="61.39 17.2 61.39 17.2 61.38 17.19 61.39 17.2"/><path d="M130.24,72.66l.18.26-.18-.26Z" transform="translate(-69.15 -55.9)"/><path d="M130.52,73.07Z" transform="translate(-69.15 -55.9)"/><path d="M130.44,73l0,0,0,0Z" transform="translate(-69.15 -55.9)"/><path d="M130.54,73.1Z" transform="translate(-69.15 -55.9)"/><polygon points="61.39 17.2 61.39 17.2 61.39 17.2 61.39 17.2"/><polygon points="61.4 17.21 61.39 17.21 61.4 17.22 61.4 17.21"/><path d="M130.55,73.1" transform="translate(-69.15 -55.9)"/><polygon points="61.39 17.2 61.39 17.2 61.39 17.2 61.39 17.2"/><path d="M130.55,73.11" transform="translate(-69.15 -55.9)"/><polygon points="61.39 17.2 61.38 17.19 61.39 17.2 61.39 17.2"/><polygon points="61.4 17.21 61.39 17.2 61.4 17.21 61.4 17.21"/><path d="M130.48,73l0,0Z" transform="translate(-69.15 -55.9)"/><polygon points="61.37 17.18 61.37 17.18 61.37 17.18 61.37 17.18"/><path d="M130.42,72.92l.06.09Z" transform="translate(-69.15 -55.9)"/><path d="M130.51,73.06h0Z" transform="translate(-69.15 -55.9)"/><path d="M130.44,73h0l.06.08Z" transform="translate(-69.15 -55.9)"/><path d="M130.41,72.91l-.17-.25.19.28Z" transform="translate(-69.15 -55.9)"/><path d="M130.52,73.07h0Z" transform="translate(-69.15 -55.9)"/><path d="M130.43,72.94l0,0Z" transform="translate(-69.15 -55.9)"/><path d="M125.21,62.77h.57V60.5h-.57Z" transform="translate(-69.15 -55.9)"/><path d="M126.34,62.77h.57V60.5h-.57v2.27Z" transform="translate(-69.15 -55.9)"/><path class="cls-4" d="M132.89,69.52a4.39,4.39,0,0,0-1.44-.59V67.31h-2.27V65h-2.27v4.54h2.27v0c0,.59-.17,1.29.17,1.79l1.2,1.75,2.37-3.57Z" transform="translate(-69.15 -55.9)"/><path class="cls-6" d="M122.37,67.31h2.27V65h-2.27v2.27Z" transform="translate(-69.15 -55.9)"/><path d="M129.18,74.11h-2.27V72.6h2.27Zm-6.81-.9v.9h0V72.6h0Zm-.57-3.63v4.54h-.56V69.58Zm-1.13,0v4.54h-.57V69.58h-.57v4.54H119V69.58h-.57v4.54h-2.84V71.85h0V69.58h.57v2.27h.57V69.58h.57v2.27h.56V67.31h-2.27V65.13h2.27v2.18h2.27v2.27ZM115,71.85h-.57V69.58H115Zm15.55,1.26c-.46-.66-.94-1.32-1.37-2V72h-2.27V67.31h-2.27V72h2.27v.6h-2.27v1.51h-2.27V72.6h2.27V72h-2.27V67.31H120.1V60.59H122l-1.12-1.65,0,0h0a17.31,17.31,0,0,0-6.42,19.56,17,17,0,0,0,25.5,8.63Z" transform="translate(-69.15 -55.9)"/><path d="M124.64,65h0V62.86h0V60.5h-.57v2.27h-.56V60.5h-.57v2.27h-.57V65Z" transform="translate(-69.15 -55.9)"/><path class="cls-5" d="M122.37,72Z" transform="translate(-69.15 -55.9)"/><polygon class="cls-5" points="53.22 16.1 53.22 16.1 53.22 16.1 53.22 16.1"/><polygon class="cls-2" points="75.25 31.66 73.62 28.88 73.62 34.1 76.68 34.1 75.25 31.66"/><path class="cls-3" d="M145.83,90h3.27l-5.76-9.08h-.57V83.7a4.7,4.7,0,0,0,0,1.06,3.52,3.52,0,0,0,.45.77Z" transform="translate(-69.15 -55.9)"/><path class="cls-3" d="M145.07,73.18v.93h2.26v-.93Z" transform="translate(-69.15 -55.9)"/><path class="cls-5" d="M145.61,67.31h0V65h.57v2.27h-.57Zm1.14,0h0V65h.58v2.27Zm-1.68,0h0v2.38h2.26v3.49h2.27V69.69h-2.27V67.31h.55V65h-.55V62.77h-2.27V65h-2.28v2.27Z" transform="translate(-69.15 -55.9)"/><rect class="cls-5" x="80.45" y="6.87" width="2.21" height="2.27"/><rect class="cls-5" x="82.67" y="9.14" width="2.27" height="2.27"/><path class="cls-5" d="M149,67.31h0V65h-.57v2.27Z" transform="translate(-69.15 -55.9)"/><path class="cls-5" d="M145,78.77v2.15h.57V76.38H145Z" transform="translate(-69.15 -55.9)"/><path class="cls-5" d="M146.18,80.51v.41h.57V76.38h-.57v4.13Z" transform="translate(-69.15 -55.9)"/><path class="cls-5" d="M143.34,80.92V76.38h-.57v4.54Z" transform="translate(-69.15 -55.9)"/><path class="cls-5" d="M143.91,77.36v3.56h.57V76.38h-.57Z" transform="translate(-69.15 -55.9)"/><path class="cls-6" d="M146.45,80.92h-3.11L149.1,90h3.27Z" transform="translate(-69.15 -55.9)"/><path class="cls-6" d="M147.31,77.36v0Z" transform="translate(-69.15 -55.9)"/><path class="cls-6" d="M149.6,73.18h-2.27v.93h2.27Z" transform="translate(-69.15 -55.9)"/><path class="cls-6" d="M145.07,72h0V69.69h-2.29V72Z" transform="translate(-69.15 -55.9)"/><path d="M147.33,73.18h0V69.69h-2.26v3.49Z" transform="translate(-69.15 -55.9)"/><path d="M145.07,69.69V67.31h-2.29v2.38Z" transform="translate(-69.15 -55.9)"/><path d="M147.33,67.31h0V65h-.58v2.27Z" transform="translate(-69.15 -55.9)"/><path d="M146.18,67.31h0V65h-.57v2.27Z" transform="translate(-69.15 -55.9)"/><path d="M145.61,79.64v1.28h.57V76.38h-.57Z" transform="translate(-69.15 -55.9)"/><path d="M144.48,77.9v3H145V76.38h-.56Z" transform="translate(-69.15 -55.9)"/><path d="M146.75,77.36v3.56h.56V76.38h-.56Z" transform="translate(-69.15 -55.9)"/><path d="M143.91,77.36v-1h-.57v4.54h.57Z" transform="translate(-69.15 -55.9)"/><path class="cls-7" d="M147.31,80.92h-.86L152.37,90h3.27l-6.42-9.71c-.64-1-1.28-2-1.91-2.93Z" transform="translate(-69.15 -55.9)"/><path class="cls-7" d="M145.07,74V72h-2.29v2.16h2.29Z" transform="translate(-69.15 -55.9)"/><path class="cls-7" d="M143.49,76.38h3.82V75.25h-4.54v1.13Z" transform="translate(-69.15 -55.9)"/><path class="cls-1" d="M150.48,77.36h-3.17c.17.27.43.67.62,1,.37.56.74,1.15,1.11,1.71l.85,1.29L154.33,88l1.31,2h3.27l-6.11-9.16Z" transform="translate(-69.15 -55.9)"/><path class="cls-2" d="M154.1,75.25h0v1.13h-1L162.18,90h3.18L154.09,73.18Z" transform="translate(-69.15 -55.9)"/><path class="cls-2" d="M151.82,73.18H149.6v.93h2.22Z" transform="translate(-69.15 -55.9)"/><path class="cls-3" d="M149.6,76.38h2.22V75.25h-4.51v2.11h2.29v-1Z" transform="translate(-69.15 -55.9)"/><path class="cls-4" d="M151.82,76.38v1h-1.34L151.56,79l1.24,1.86q2.5,3.76,5,7.52L158.91,90h3.27l-9.13-13.62Z" transform="translate(-69.15 -55.9)"/><path class="cls-4" d="M151.56,79l-1.08-1.62,2.32,3.48Z" transform="translate(-69.15 -55.9)"/><path class="cls-4" d="M154,73.18h-2.17v.93h2.27v-.93Z" transform="translate(-69.15 -55.9)"/><path class="cls-5" d="M153,69.69h-1.14v3.49H153Z" transform="translate(-69.15 -55.9)"/><path class="cls-5" d="M151.82,69.62V67.31H149.6v2.38h2.22Z" transform="translate(-69.15 -55.9)"/><path class="cls-5" d="M154.09,67.31v5.63l.07.12,1.06-1.7v-4Z" transform="translate(-69.15 -55.9)"/><path class="cls-5" d="M154.09,73.18v0Z" transform="translate(-69.15 -55.9)"/><polygon class="cls-5" points="85.01 17.16 84.93 17.04 84.94 17.28 85.01 17.16"/><path class="cls-6" d="M154,75.25h-2.17v1.13h2.28V75.25H154Z" transform="translate(-69.15 -55.9)"/><polygon class="cls-6" points="84.95 19.35 84.95 19.35 84.95 20.49 84.95 19.35"/><path d="M153,73.18h1.13V67.31h-2.27v2.38H153v3.49Z" transform="translate(-69.15 -55.9)"/><path d="M149.6,65v2.27h2.22V65Z" transform="translate(-69.15 -55.9)"/><path d="M149,67.31h-.57V65H149ZM149.6,65V62.77h2.22V65h2.27v2.27h1.13v4L165.47,56h-22.7V65h2.29V62.77h2.27V65h.55v2.27h-.55v2.38h2.27V65Z" transform="translate(-69.15 -55.9)"/><path d="M151.82,72V69.69H149.6v3.49h2.22V72Z" transform="translate(-69.15 -55.9)"/><path d="M152.61,75.25h1.48V74.11H142.77v1.14h9.84Z" transform="translate(-69.15 -55.9)"/><path class="cls-7" d="M149.6,77.36h2.22v-1H149.6Z" transform="translate(-69.15 -55.9)"/><polygon class="cls-5" points="84.94 17.28 84.94 17.28 84.93 17.28 84.94 17.28"/><polygon class="cls-5" points="84.93 17.28 84.94 17.28 84.94 17.28 84.93 17.28"/><path class="cls-5" d="M154.09,73.18h.15l-.08-.12Z" transform="translate(-69.15 -55.9)"/><rect class="cls-10" x="120.92" y="11.41" width="2.27" height="2.27"/><rect class="cls-11" x="123.19" y="11.41" width="2.27" height="2.27"/><rect class="cls-12" x="125.46" y="11.41" width="0.02" height="2.27"/><rect class="cls-12" x="125.48" y="11.41" width="2.25" height="2.27"/><polygon class="cls-1" points="127.73 11.41 127.73 11.41 127.73 13.68 130 13.68 130 11.41 128.87 11.41 127.73 11.41"/><path class="cls-2" d="M199.15,87.73c-6.8,0-9.07-4.62-9.07-8.58V69.58h-2.27v8.9c0,6,3.61,11.52,11.34,11.52V87.73Z" transform="translate(-69.15 -55.9)"/><polygon class="cls-2" points="118.66 6.87 118.66 6.87 120.92 6.87 118.66 6.87"/><rect class="cls-2" x="118.66" y="9.14" width="2.27" height="2.27"/><polygon class="cls-2" points="120.92 2.33 119.79 2.33 118.66 2.33 118.66 0.06 118.66 2.33 120.92 2.33"/><polygon class="cls-3" points="123.19 2.33 123.19 2.33 122.06 2.33 120.92 2.33 123.19 2.33"/><rect class="cls-3" x="120.92" y="9.14" width="2.27" height="2.27"/><path class="cls-3" d="M192.35,79.34V69.58h-2.27v9.57c0,4,2.27,8.58,9.07,8.58V85.46C194.65,85.46,192.35,82.56,192.35,79.34Z" transform="translate(-69.15 -55.9)"/><polygon class="cls-3" points="123.19 6.87 123.19 6.87 120.92 6.87 123.19 6.87"/><polygon class="cls-4" points="130 25.03 130 25.03 130 25.06 130 25.03"/><polygon class="cls-4" points="130 11.41 130 11.41 128.87 11.41 130 11.41"/><path class="cls-4" d="M196.88,77.56c0,1.87.24,3.36,2.27,3.36V69.58h-2.27Z" transform="translate(-69.15 -55.9)"/><rect class="cls-5" x="120.92" y="2.33" width="2.27" height="4.54"/><rect class="cls-5" x="123.19" y="6.87" width="2.27" height="2.27"/><rect class="cls-5" x="118.66" y="6.87" width="2.27" height="2.27"/><rect class="cls-5" x="123.19" y="0.06" width="1.13" height="2.27"/><rect class="cls-5" x="120.92" y="0.06" width="1.13" height="2.27"/><rect class="cls-5" x="118.66" y="0.06" width="1.13" height="2.27"/><polygon class="cls-5" points="125.46 2.33 125.46 2.33 125.46 6.87 125.5 6.87 126.03 6.87 126.03 2.33 126.6 2.33 126.6 6.87 127.17 6.87 127.17 2.33 126.6 2.33 126.6 0.06 125.51 0.06 125.46 0.06 125.46 2.33"/><rect class="cls-5" x="118.66" y="11.41" width="2.27" height="2.27"/><path class="cls-5" d="M197.45,62.77V58.23H198v4.54Zm-.57-4.54h0V65h2.27V62.77h-.56V58.23H198V56h-1.14Z" transform="translate(-69.15 -55.9)"/><polygon class="cls-6" points="125.46 2.33 125.46 2.33 124.33 2.33 123.19 2.33 125.46 2.33"/><path class="cls-6" d="M194.61,78.65l0-9.07h-2.28v9.76c0,3.22,2.3,6.12,6.8,6.12V83.19C196,83.19,194.61,81.6,194.61,78.65Z" transform="translate(-69.15 -55.9)"/><polygon class="cls-6" points="123.19 11.41 125.46 11.41 125.49 11.41 125.49 9.14 125.46 9.14 123.19 9.14 123.19 11.41"/><polygon class="cls-6" points="123.19 6.87 123.19 6.87 125.46 6.87 123.19 6.87"/><rect x="118.66" y="2.33" width="2.27" height="4.54"/><rect x="123.19" y="2.33" width="2.27" height="4.54"/><rect x="120.92" y="6.87" width="2.27" height="2.27"/><polygon points="123.19 2.33 123.19 2.33 123.19 0.06 122.06 0.06 122.06 2.33 123.19 2.33"/><polygon points="120.92 2.33 120.92 2.33 120.92 0.06 119.79 0.06 119.79 2.33 120.92 2.33"/><path d="M199.15,56H198v2.27h.57v4.54h.56V90A11.09,11.09,0,0,0,210.5,79.2V56Z" transform="translate(-69.15 -55.9)"/><polygon points="127.17 2.33 127.17 2.33 127.17 6.87 126.6 6.87 126.6 2.33 126.03 2.33 126.03 6.87 125.5 6.87 125.46 6.87 125.46 9.14 125.49 9.14 127.73 9.14 127.73 6.87 127.73 2.33 127.73 0.06 126.6 0.06 126.6 2.33 127.17 2.33"/><rect x="124.33" y="0.06" width="1.13" height="2.27"/><rect x="128.3" y="2.33" width="0.57" height="4.54"/><path class="cls-7" d="M196.88,77.56v-8h-2.25l0,9.07c0,2.95,1.42,4.54,4.54,4.54V80.92C197.12,80.92,196.88,79.43,196.88,77.56Z" transform="translate(-69.15 -55.9)"/><polygon class="cls-7" points="125.49 9.14 125.49 11.41 127.73 11.41 128.87 11.41 130 11.41 130 9.14 127.73 9.14 125.49 9.14"/><polygon class="cls-1" points="157.99 13.68 157.99 13.68 169.34 13.68 169.34 11.41 157.99 11.41 157.99 13.68"/><path class="cls-2" d="M227.14,78.65h11.35V76.38H227.14v2.27Z" transform="translate(-69.15 -55.9)"/><path class="cls-2" d="M218.06,67.31v2.27h2.27V67.31Z" transform="translate(-69.15 -55.9)"/><path class="cls-3" d="M215.79,67.31V65h-2.27v4.54h2.27Z" transform="translate(-69.15 -55.9)"/><path class="cls-3" d="M227.11,74.11H213.52v2.27h25V74.11H227.11Z" transform="translate(-69.15 -55.9)"/><path class="cls-4" d="M222.6,69.58V67.31h-2.27v2.27Z" transform="translate(-69.15 -55.9)"/><path class="cls-5" d="M218.06,74.11h.57V71.85h-.57V69.58h-2.27v4.54Z" transform="translate(-69.15 -55.9)"/><path class="cls-5" d="M221.47,74.11h-.57V71.85h.57Zm1.13-4.53h-2.27v4.53H222V71.85h.57v2.26h.57V69.58h.57v4.53h.56V69.58h.57V67.31H222.6v2.27Z" transform="translate(-69.15 -55.9)"/><rect class="cls-5" x="146.64" y="20.49" width="0.57" height="2.27"/><rect class="cls-5" x="147.78" y="20.49" width="0.57" height="2.27"/><rect class="cls-5" x="144.37" y="20.49" width="0.57" height="2.27"/><rect class="cls-5" x="145.51" y="20.49" width="0.57" height="2.27"/><rect class="cls-5" x="153.45" y="20.49" width="1.13" height="2.27"/><rect class="cls-5" x="155.72" y="20.49" width="1.13" height="2.27"/><rect class="cls-5" x="148.91" y="20.49" width="1.13" height="2.27"/><rect class="cls-5" x="151.18" y="20.49" width="1.13" height="2.27"/><path class="cls-5" d="M224.87,71.85v2.26h1.7V69.58H226v4.53h-.57V69.58h-.57v2.27Z" transform="translate(-69.15 -55.9)"/><rect class="cls-5" x="150.05" y="15.95" width="0.57" height="2.27"/><polygon class="cls-6" points="157.99 18.22 157.99 18.22 169.34 18.22 169.34 15.95 157.99 15.95 157.99 18.22"/><path class="cls-6" d="M215.79,69.58h2.27V67.31h2.27V65h-4.54Z" transform="translate(-69.15 -55.9)"/><rect x="157.96" y="22.76" width="11.38" height="11.35"/><path d="M213.52,56V74.12h2.27V69.58h-2.27V65h6.81v2.27h4.5V56Z" transform="translate(-69.15 -55.9)"/><rect x="144.37" y="22.76" width="11.31" height="11.35"/><rect x="147.21" y="20.49" width="0.57" height="2.27"/><rect x="146.08" y="20.49" width="0.57" height="2.27"/><rect x="148.34" y="20.49" width="0.57" height="2.27"/><rect x="144.94" y="20.49" width="0.57" height="2.27"/><path d="M224.83,78.65h0V76.38h-1.13v2.27Z" transform="translate(-69.15 -55.9)"/><rect x="152.32" y="20.49" width="1.13" height="2.27"/><path d="M227.11,78.65h0V76.38H226v2.27Z" transform="translate(-69.15 -55.9)"/><rect x="150.05" y="20.49" width="1.13" height="2.27"/><path d="M225.44,69.58v4.54H226V69.58h.56v4.54h.57V67.31h11.35V56H227.11V67.31h-2.24v2.27Z" transform="translate(-69.15 -55.9)"/><path d="M224.87,74.11V69.58h-.57v4.53h-.56V69.58h-.57v4.53h1.7Z" transform="translate(-69.15 -55.9)"/><rect x="151.75" y="15.95" width="0.57" height="2.27"/><path d="M219.2,71.85h.57v2.26h-.57Zm-1.14,0h.57v2.26h1.7V69.58h-2.27Z" transform="translate(-69.15 -55.9)"/><rect x="152.88" y="15.95" width="0.57" height="2.27"/><rect class="cls-7" x="157.99" y="13.68" width="11.35" height="2.27"/><rect class="cls-1" x="172.1" y="22.76" width="2.27" height="2.27"/><polygon class="cls-1" points="185.71 22.76 187.98 22.76 187.98 25.03 192.52 25.03 192.52 22.76 183.44 22.76 185.71 22.76"/><path class="cls-1" d="M248.06,84.33h-2.27v1.13h4.54V84.33Z" transform="translate(-69.15 -55.9)"/><path class="cls-2" d="M243.52,87.73h6.81v0h4.53V90h6.81V87.73H243.52Z" transform="translate(-69.15 -55.9)"/><path class="cls-2" d="M254.86,84.33v0Z" transform="translate(-69.15 -55.9)"/><rect class="cls-2" x="190.25" y="27.3" width="2.27" height="1.13"/><rect class="cls-3" x="172.1" y="29.56" width="20.42" height="2.27"/><path class="cls-3" d="M252.59,83.19h-2.26v1.14h4.53V83.19Z" transform="translate(-69.15 -55.9)"/><rect class="cls-4" x="185.71" y="27.3" width="4.54" height="1.13"/><path class="cls-5" d="M252.59,80.92h2.27V78.65h-2.27v2.27Z" transform="translate(-69.15 -55.9)"/><rect class="cls-5" x="174.37" y="20.49" width="2.27" height="0.76"/><path class="cls-5" d="M243.52,77.14h-2.27v1.51h2.27Z" transform="translate(-69.15 -55.9)"/><path class="cls-5" d="M250.33,78.65h0v4.54h2.26V80.92h-1.13V78.65h1.13V77.14h-2.26Z" transform="translate(-69.15 -55.9)"/><path class="cls-5" d="M254.86,83.19h2.27V80.92h-2.27Z" transform="translate(-69.15 -55.9)"/><path class="cls-5" d="M249.76,78.65V74.11h-.57v4.54Z" transform="translate(-69.15 -55.9)"/><path class="cls-5" d="M247.49,77.14v-3h-.57v4.53h.57Z" transform="translate(-69.15 -55.9)"/><path class="cls-5" d="M249.19,78.65h-.57V74.11h-.56v6.81h1.13Z" transform="translate(-69.15 -55.9)"/><rect class="cls-5" x="174.37" y="22.76" width="1.13" height="2.27"/><path class="cls-5" d="M246.35,78.65V74.11h-.56v6.81h1.13V78.65Z" transform="translate(-69.15 -55.9)"/><rect class="cls-5" x="175.5" y="31.83" width="1.13" height="2.27"/><rect class="cls-5" x="173.23" y="31.83" width="1.13" height="2.27"/><rect class="cls-5" x="180.04" y="31.83" width="1.13" height="2.27"/><rect class="cls-5" x="177.77" y="31.83" width="1.13" height="2.27"/><path class="cls-5" d="M252.6,87.73H252V90h.57Z" transform="translate(-69.15 -55.9)"/><path class="cls-5" d="M251.46,87.73h-.57V90h.57Z" transform="translate(-69.15 -55.9)"/><path class="cls-5" d="M254.3,87.73V90h.56V87.73Z" transform="translate(-69.15 -55.9)"/><path class="cls-5" d="M253.73,87.73h-.57V90h.57Z" transform="translate(-69.15 -55.9)"/><path class="cls-6" d="M261.67,85.46V84.33h-6.81v1.13h-9.07V84.33h2.27V83.19h-6.81v2.27Z" transform="translate(-69.15 -55.9)"/><path d="M254.86,80.92h2.27V78.65h-2.27v2.27Z" transform="translate(-69.15 -55.9)"/><path d="M243.52,77.14v-.76h2.27v.76Zm4.54,1.51V74.11h.56v4.54h.57v2.27h-1.13Zm1.13-1.51v-3h.57v4.53h-.57Zm-5.67,1.51h1.13v2.27h1.14V74.11h.56v4.54h.57V74.11h.57v4.54h-.57v2.27h1.14v3.41h2.27V80.92h0V77.14h2.26V56H241.25V77.14h2.27v1.51Z" transform="translate(-69.15 -55.9)"/><path d="M254.86,83.19V80.92h-2.27V78.65h-1.13v2.27h1.13v2.27Z" transform="translate(-69.15 -55.9)"/><path d="M257.13,83.19h4.54v2.27h0V80.92h-4.54v2.27Z" transform="translate(-69.15 -55.9)"/><rect x="174.37" y="31.83" width="1.13" height="2.27"/><rect x="176.64" y="31.83" width="1.13" height="2.27"/><path d="M241.25,87.73h0V90h1.13V87.73Z" transform="translate(-69.15 -55.9)"/><rect x="178.91" y="31.83" width="1.13" height="2.27"/><path d="M252,87.73h-.57V90H252Z" transform="translate(-69.15 -55.9)"/><path d="M253.16,87.73h-.56V90h.56Z" transform="translate(-69.15 -55.9)"/><path d="M250.89,87.73h-.56V90h.56Z" transform="translate(-69.15 -55.9)"/><path d="M254.3,87.73h-.57V90h.57Z" transform="translate(-69.15 -55.9)"/><polygon class="cls-7" points="187.98 25.03 187.98 25.03 192.52 25.03 187.98 25.03"/><path class="cls-7" d="M245.79,80.92h-4.54v2.27h6.81V80.92Z" transform="translate(-69.15 -55.9)"/><path class="cls-7" d="M252.59,85.46h2.27V84.33h-4.54v1.13Z" transform="translate(-69.15 -55.9)"/><rect class="cls-1" x="197.27" y="9.14" width="2.27" height="2.27"/><polygon class="cls-1" points="199.54 9.14 204.08 9.14 204.08 11.41 206.35 11.41 206.35 9.14 199.54 9.14"/><rect class="cls-2" x="195" y="0.06" width="11.35" height="2.27"/><polygon class="cls-3" points="204.08 2.33 204.08 4.6 206.35 4.6 206.35 2.33 195 2.33 199.54 2.33 204.08 2.33"/><polygon class="cls-4" points="204.08 11.41 204.08 11.41 204.08 9.14 199.54 9.14 199.54 11.41 201.81 11.41 204.08 11.41"/><rect class="cls-5" x="204.08" y="11.41" width="2.27" height="2.27"/><rect class="cls-5" x="199.54" y="11.41" width="2.27" height="2.27"/><rect class="cls-5" x="201.81" y="13.68" width="2.27" height="4.54"/><polygon class="cls-5" points="195.57 13.68 195.57 13.68 196.13 13.68 196.13 18.22 196.7 18.22 196.7 13.68 197.27 13.68 197.27 11.41 197.27 9.14 195 9.14 195 11.41 195 13.68 195 18.22 195.57 18.22 195.57 13.68"/><rect class="cls-5" x="195" y="2.33" width="4.54" height="2.27"/><polygon class="cls-5" points="197.27 18.22 197.27 18.22 199.54 18.22 198.97 18.22 198.97 13.68 198.63 13.68 198.4 13.68 198.4 18.22 197.84 18.22 197.84 13.68 197.27 13.68 197.27 18.22"/><polygon class="cls-6" points="204.08 4.6 201.81 4.6 199.54 4.6 199.54 6.87 201.81 6.87 206.35 6.87 206.35 4.6 204.08 4.6"/><polygon points="206.35 18.22 206.35 13.68 204.08 13.68 204.08 18.22 201.81 18.22 201.81 13.68 199.54 13.68 199.54 11.41 197.27 11.41 197.27 13.68 197.84 13.68 197.84 18.22 198.4 18.22 198.4 13.68 198.63 13.68 198.97 13.68 198.97 18.22 199.54 18.22 197.27 18.22 197.27 13.68 196.7 13.68 196.7 18.22 196.13 18.22 196.13 13.68 195.57 13.68 195.57 18.22 195 18.22 195 34.1 206.35 34.1 206.35 18.22"/><rect x="201.81" y="11.41" width="2.27" height="2.27"/><polygon points="204.08 4.6 204.08 4.6 204.08 2.33 199.54 2.33 199.54 4.6 201.81 4.6 204.08 4.6"/><polygon points="199.54 9.14 199.54 9.14 199.54 6.87 199.54 4.6 195 4.6 195 6.87 195 9.14 197.27 9.14 199.54 9.14"/><polygon class="cls-7" points="197.27 11.41 197.27 11.41 199.54 11.41 197.27 11.41"/><polygon class="cls-7" points="206.35 11.41 206.35 11.41 204.08 11.41 206.35 11.41"/><polygon class="cls-7" points="206.35 9.14 206.35 6.87 201.81 6.87 199.54 6.87 199.54 9.14 206.35 9.14"/><path class="cls-13" d="M299.72,60.47Z" transform="translate(-69.15 -55.9)"/><path class="cls-13" d="M299.72,60.47l.85-2.25-.72,1.91c-.1.25-.13.34-.13.34Z" transform="translate(-69.15 -55.9)"/><path class="cls-1" d="M294.2,65.05h-4.54v2.26h7.5l.42-1.21c.14-.38.29-.69.43-1.06H294.2Z" transform="translate(-69.15 -55.9)"/><path class="cls-2" d="M292.72,56.17A17.2,17.2,0,0,0,280.92,64a16.94,16.94,0,0,0-2.57,7.9h2.23V67.31h0V65h2.27a14.94,14.94,0,0,1,3.93-4.11,14.54,14.54,0,0,1,2.61-1.45,3.36,3.36,0,0,1,.33-.16,11,11,0,0,1,1.47-.49,16.2,16.2,0,0,1,4.34-.62H296c1.27,0,2.56,0,3.85,0h.77s.61-1.61.86-2.25a56.24,56.24,0,0,0-8.71.21Z" transform="translate(-69.15 -55.9)"/><path class="cls-2" d="M285.12,69.58h2.27V67.31h-2.27v2.27Z" transform="translate(-69.15 -55.9)"/><path class="cls-3" d="M299.8,58.22h-4.27a15.8,15.8,0,0,0-4.34.61,14.31,14.31,0,0,0-1.8.65,14.54,14.54,0,0,0-2.61,1.45A14.94,14.94,0,0,0,282.85,65h2.74a10.15,10.15,0,0,1,1-1l0,0c.28-.27.58-.52.88-.77l.09-.06c.11-.09.22-.19.34-.27a12.61,12.61,0,0,1,2.76-1.53c.23-.09.48-.17.75-.25a12.61,12.61,0,0,1,3.4-.63c1,0,2,0,3,0,1.15,0,1.95,0,2,0h0s0-.09.13-.34l.1-.28c.21-.54.42-1.09.62-1.64h-.77Z" transform="translate(-69.15 -55.9)"/><path class="cls-3" d="M280.58,65v2.27h0v2.27h2.27V65h-2.27Z" transform="translate(-69.15 -55.9)"/><path class="cls-4" d="M294.2,69.58h2.27l0-.19.24-.8.39-1.27H294.2Z" transform="translate(-69.15 -55.9)"/><path class="cls-4" d="M287.92,69.58h1.74V67.31h-2.27v2.27Z" transform="translate(-69.15 -55.9)"/><rect class="cls-5" x="211.43" y="18.22" width="2.27" height="2.27"/><path class="cls-5" d="M285.12,76.38h2.27V74.11h-2.27Z" transform="translate(-69.15 -55.9)"/><rect class="cls-5" x="225.04" y="18.22" width="2.27" height="2.27"/><path class="cls-5" d="M289.66,69.58h-2.27v4.54h2.27V69.58Z" transform="translate(-69.15 -55.9)"/><path class="cls-5" d="M279.52,71.85h-1.17v2.26h2.23V71.85Z" transform="translate(-69.15 -55.9)"/><path class="cls-5" d="M285.12,69.58h-.57v2.27H284V69.58h-.56v2.27h-.57v2.26h2.27V69.58Z" transform="translate(-69.15 -55.9)"/><path class="cls-5" d="M290.48,69.58h1.45V67.32h-2.27v2.27Z" transform="translate(-69.15 -55.9)"/><path class="cls-5" d="M291.93,71v7.67h.56V74.11h.57v4.54h.57V74.11h.57V69.58h-2.27Z" transform="translate(-69.15 -55.9)"/><path class="cls-5" d="M291.36,76.38V74.12h-.57v4.53h-.57V74.12h-.56v4.53h1.7V76.38Z" transform="translate(-69.15 -55.9)"/><path class="cls-5" d="M285.69,71.85h.56V69.58h-.56Z" transform="translate(-69.15 -55.9)"/><path class="cls-5" d="M282.85,69.58h-.57v2.27h.57V69.58Z" transform="translate(-69.15 -55.9)"/><path d="M296.47,76.38H294.2V74.12h2.27Zm0-4.53V69.58H294.2v4.54h-.57v4.53h-.57V74.12h-.57v4.53h-2.83V74.12h-2.27v2.26h-2.27V74.12h-2.27v2.26h-2.27V74.12h-2.23a17.16,17.16,0,0,0,8.1,13.36A17,17,0,0,0,294.14,90c1.45.11,2.93,0,4.38,0h4.75V71.85Z" transform="translate(-69.15 -55.9)"/><path d="M287.39,69.58h-1.14v2.27h-.56V69.58h-.57v4.54h2.27V69.58Z" transform="translate(-69.15 -55.9)"/><polygon points="211.43 11.41 211.43 11.41 211.43 11.41 211.43 11.41"/><path d="M282.28,71.85V69.58h-1.7V67.31h0v6.81h2.27V71.85Z" transform="translate(-69.15 -55.9)"/><path d="M291.93,67.32v2.26h2.27V67.32Z" transform="translate(-69.15 -55.9)"/><path d="M291.93,71v-1.4h-2.27v4.53h.57v4.54h.56V74.11h.57v4.54h.57V71Z" transform="translate(-69.15 -55.9)"/><path d="M284.55,71.85h0V69.58H284v2.27Z" transform="translate(-69.15 -55.9)"/><path d="M282.85,71.33v.52h.57V69.58h-.57Z" transform="translate(-69.15 -55.9)"/><path class="cls-6" d="M297.76,60.46c-1,0-2,0-3,0a12.83,12.83,0,0,0-7.25,2.68l-.09.06c-.31.25-.61.52-.9.8a10.15,10.15,0,0,0-1,1h-2.74v4.54h2.27V67.31h2.27v-1l.15-.15a10.46,10.46,0,0,1,7.85-3.47h3.47l.43-1.13c.14-.38.29-.75.43-1.13Z" transform="translate(-69.15 -55.9)"/><path class="cls-7" d="M295.39,62.73a10.46,10.46,0,0,0-7.85,3.47l-.15.15v1h2.27V65.05H298l.32-.91s.36-.94.53-1.41Z" transform="translate(-69.15 -55.9)"/></svg>
