<svg id="Layer_1" data-name="Layer 1" xmlns="http://www.w3.org/2000/svg" viewBox="0 0 239.73 34.18"><defs><style>.cls-1{fill:#fff;}.cls-2{fill:#00014f;}.cls-3{fill:#fbabac;}.cls-4{fill:#f85658;}.cls-5{fill:#a30103;}.cls-6{fill:#510102;}.cls-7{fill:#a6a307;}.cls-8{fill:#535103;}.cls-9{fill:#00029e;}.cls-10{fill:#555;}.cls-11{fill:#aaabf9;}.cls-12{fill:#5557f3;}.cls-13{fill:#00f8f5;}.cls-14{fill:#10f413;}.cls-15{fill:#0500fe;}.cls-16{fill:#f9f40a;}.cls-17{fill:#f70302;}.cls-18{fill:#aaa;}.cls-19{fill:#f605f6;}.cls-20{fill:#5df9bd;}.cls-21{fill:#acaaff;}.cls-22{fill:#5855fe;}.cls-23{fill:#0300a9;}.cls-24{fill:#020055;}.cls-25{fill:#affbb0;}.cls-26{fill:#60f862;}.cls-27{fill:#0ba30d;}.cls-28{fill:#055106;}.cls-29{fill:#fdfbad;}.cls-30{fill:#fbf85c;}.cls-31{fill:#55faf8;}.cls-32{fill:#00a5a3;}.cls-33{fill:#aafdfc;}.cls-34{fill:#005352;}.cls-35{fill:#f7fa59;}.cls-36{fill:#a2a504;}.cls-37{fill:#515202;}.cls-38{fill:#5103a0;}.cls-39{fill:#a30252;}.cls-40{fill:#fcabe1;}.cls-41{fill:#f858c4;}.cls-42{fill:#a3036f;}.cls-43{fill:#520137;}.cls-44{fill:#f504a6;}.cls-45{fill:#f50355;}.cls-46{fill:#0ba45c;}.cls-47{fill:#0553a4;}</style></defs><title>logo glitch</title><rect class="cls-1" width="239.73" height="34.1"/><rect class="cls-2" x="41.35" y="12.62" width="2.27" height="1.13"/><polygon class="cls-3" points="36.81 11.48 35.68 11.48 34.54 11.48 34.54 12.62 36.81 12.62 36.81 11.48"/><polygon class="cls-3" points="36.81 11.48 36.81 11.48 36.81 12.62 36.81 11.48"/><path class="cls-3" d="M36.81,11.48Z"/><polygon class="cls-4" points="39.08 11.48 39.08 11.48 36.81 11.48 39.08 11.48"/><rect class="cls-4" x="36.81" y="11.48" width="2.27" height="1.13"/><polygon class="cls-5" points="43.62 11.48 43.62 11.48 41.35 11.48 43.62 11.48"/><path class="cls-5" d="M43.62,11.48h0Z"/><rect class="cls-5" x="41.35" y="11.48" width="2.27" height="1.13"/><polygon class="cls-6" points="43.62 11.48 44.19 11.48 44.75 11.48 45.32 11.48 45.89 11.48 43.62 11.48"/><rect class="cls-7" x="34.54" y="6.94" width="1.13" height="2.27"/><rect class="cls-7" x="35.68" y="6.94" width="0.38" height="2.27"/><rect class="cls-7" x="36.05" y="6.94" width="0.38" height="2.27"/><rect class="cls-7" x="36.43" y="6.94" width="0.38" height="2.27"/><path class="cls-7" d="M36.81,6.94Z"/><path class="cls-7" d="M36.81,9.21v0Z"/><polygon class="cls-8" points="38.7 6.94 38.7 6.94 39.08 6.94 38.7 6.94"/><polygon class="cls-8" points="38.32 6.94 38.32 6.94 38.7 6.94 38.32 6.94"/><polygon class="cls-8" points="37.95 6.94 37.95 6.94 38.32 6.94 37.95 6.94"/><polygon class="cls-8" points="37.57 6.94 37.57 6.94 37.95 6.94 37.57 6.94"/><polygon class="cls-8" points="36.81 6.94 36.81 6.94 37.57 6.94 36.81 6.94"/><rect class="cls-9" x="39.08" y="12.62" width="2.27" height="1.13"/><polygon class="cls-10" points="43.63 16.04 43.63 18.29 45.89 18.29 45.89 16.04 45.89 16.02 43.63 16.02 43.63 16.04"/><polygon class="cls-10" points="43.63 9.21 45.89 9.21 45.89 6.94 45.13 6.94 43.63 6.94 43.63 9.21"/><line class="cls-11" x1="34.54" y1="13.75" x2="34.54" y2="12.62"/><polygon class="cls-12" points="36.81 12.62 36.81 12.62 34.54 12.62 34.54 13.75 36.81 13.75 36.81 12.62"/><polygon class="cls-13" points="43.62 5.58 43.62 6.94 43.63 6.94 45.13 6.94 45.89 6.94 48.16 6.94 48.16 5.58 45.89 5.58 43.62 5.58"/><polygon class="cls-14" points="39.08 3.54 39.08 3.54 41.35 3.54 39.08 3.54 39.08 3.54 39.08 2.4 39.08 1.27 41.35 1.27 41.35 0.14 39.08 0.14 39.08 2.4 39.08 3.54"/><polygon class="cls-14" points="45.89 0.14 45.32 0.14 44.75 0.14 44.19 0.14 43.62 0.14 43.62 1.27 43.62 1.5 45.89 1.5 48.16 1.5 48.16 1.27 48.16 0.14 45.89 0.14"/><rect class="cls-15" x="36.81" y="12.62" width="2.27" height="1.13"/><polygon class="cls-15" points="45.89 1.5 43.62 1.5 43.62 2.4 43.62 2.86 45.89 2.86 48.16 2.86 48.16 2.4 48.16 1.5 45.89 1.5"/><polygon class="cls-15" points="39.08 6.94 40.59 6.94 41.35 6.94 41.35 4.67 43.62 4.67 41.35 4.67 41.35 3.54 41.35 4.67 39.08 4.67 36.81 4.67 39.08 4.67 39.08 6.94"/><polygon class="cls-15" points="43.62 0.14 44.19 0.14 44.75 0.14 45.32 0.14 45.89 0.14 45.89 0.14 43.62 0.14 43.62 0.14"/><path class="cls-15" d="M43.62,3.54Z"/><polygon class="cls-16" points="36.81 3.54 36.81 3.54 39.08 3.54 39.08 2.4 39.08 0.14 36.81 0.14 36.81 2.4 36.81 3.54"/><line class="cls-16" x1="34.54" y1="9.21" x2="34.54" y2="6.94"/><rect class="cls-1" x="41.35" y="13.75" width="2.27" height="2.27"/><rect class="cls-1" x="35.68" y="10.35" width="1.13" height="1.13"/><polygon class="cls-1" points="36.81 16.02 36.81 16.04 36.81 20.56 37.95 20.56 37.95 16.04 37.95 16.02 39.08 16.02 39.08 13.75 36.81 13.75 36.81 16.02"/><polygon class="cls-1" points="36.81 20.56 36.81 20.56 35.68 20.56 35.68 25.1 36.81 25.1 36.81 20.56"/><polygon class="cls-1" points="36.81 4.67 36.81 4.67 39.08 4.67 41.35 4.67 41.35 3.54 39.08 3.54 39.08 3.54 36.81 3.54 35.82 3.54 34.54 3.54 34.54 4.67 35.82 4.67 36.81 4.67"/><rect class="cls-1" x="43.62" y="31.94" width="0.57" height="2.23"/><rect class="cls-1" x="44.75" y="31.94" width="0.57" height="2.23"/><rect class="cls-1" x="41.35" y="31.94" width="0.57" height="2.23"/><rect class="cls-1" x="42.48" y="31.94" width="0.57" height="2.23"/><rect class="cls-1" x="45.89" y="11.48" width="0.57" height="1.13"/><rect class="cls-1" x="47.02" y="11.48" width="0.57" height="1.13"/><rect class="cls-1" x="43.62" y="11.48" width="0.57" height="1.13"/><polygon class="cls-1" points="44.75 12.62 44.75 12.62 45.32 12.62 45.32 11.48 44.75 11.48 44.75 12.62"/><polygon class="cls-1" points="41.92 1.27 41.92 1.27 41.92 0.14 41.35 0.14 41.35 1.27 41.92 1.27"/><rect class="cls-1" x="42.48" y="0.14" width="0.57" height="1.13"/><rect class="cls-1" x="39.08" y="31.94" width="1.13" height="2.23"/><polygon class="cls-1" points="48.16 16.02 48.16 18.29 50.43 18.29 50.43 16.02 49.86 16.02 49.86 13.75 49.29 13.75 49.29 16.02 48.73 16.02 48.73 13.75 48.16 13.75 48.16 16.02"/><line class="cls-1" x1="34.54" y1="12.62" x2="34.54" y2="11.48"/><rect class="cls-1" x="45.89" y="13.75" width="0.57" height="2.27"/><rect class="cls-1" x="47.02" y="13.75" width="0.57" height="2.27"/><polygon class="cls-17" points="37.57 6.94 37.95 6.94 38.32 6.94 38.7 6.94 39.08 6.94 39.08 4.67 36.81 4.67 36.81 6.94 37.57 6.94"/><polygon class="cls-17" points="41.35 6.94 42.11 6.94 43.62 6.94 43.62 5.58 43.62 4.67 41.35 4.67 41.35 6.94"/><rect class="cls-17" x="39.08" y="11.48" width="2.27" height="1.13"/><polygon class="cls-17" points="41.35 4.67 43.62 4.67 43.62 4.22 45.89 4.22 48.16 4.22 48.16 3.54 48.16 2.86 45.89 2.86 43.62 2.86 43.62 3.54 41.35 3.54 41.35 4.67"/><polygon class="cls-17" points="41.35 1.27 41.35 0.14 41.92 0.14 42.48 0.14 43.05 0.14 43.62 0.14 43.62 0.14 41.35 0.14 41.35 1.27"/><polygon points="41.35 6.94 40.59 6.94 39.08 6.94 38.7 6.94 38.32 6.94 37.95 6.94 37.57 6.94 36.81 6.94 36.81 9.21 36.43 9.21 36.05 9.21 35.68 9.21 35.68 10.35 36.81 10.35 36.81 11.48 39.08 11.48 41.35 11.48 43.62 11.48 45.89 11.48 45.89 9.21 43.63 9.21 43.63 6.94 43.62 6.94 42.11 6.94 41.35 6.94"/><polygon points="36.81 20.56 36.81 16.04 36.81 16.02 35.68 16.02 35.68 20.56 36.81 20.56"/><polygon points="36.81 3.54 36.81 2.4 34.54 2.4 34.54 3.54 35.82 3.54 36.81 3.54"/><polygon points="48.16 3.54 48.16 4.22 48.16 4.67 48.16 2.4 48.16 2.86 48.16 3.54"/><path d="M45.89,9.21v0Z"/><path d="M47,12.62V11.48h.57v1.14Zm-1.13-1.14h.57v1.14h-.57V11.48h-.57v1.14h-.57V11.48h-.56v1.14h-.57V16H41.35V13.75H39.08V16H38v4.54H36.81V34.18h2.27V31.94h1.13v2.24h1.14V31.94h.57v2.24h.56V31.94h.57v2.24h.57V31.94h.57v2.24h.56V31.94h.57v2.24h2.84V18.29H45.89v0H43.63V16h2.26V13.75h.57V16H47V13.75h.57V16h.57V11.48Z"/><polygon points="41.35 3.54 43.62 3.54 43.62 2.86 43.62 2.4 43.62 1.5 43.62 1.27 43.62 0.14 43.05 0.14 43.05 1.27 42.48 1.27 42.48 0.14 41.92 0.14 41.92 1.27 41.35 1.27 39.08 1.27 39.08 2.4 39.08 3.54 39.08 3.54 41.35 3.54 41.35 3.54"/><rect x="48.73" y="13.75" width="0.57" height="2.27"/><rect x="49.86" y="13.75" width="0.57" height="2.27"/><polygon class="cls-18" points="47.02 16.02 46.45 16.02 45.89 16.02 45.89 18.29 48.16 18.29 48.16 16.02 47.59 16.02 47.02 16.02"/><polygon class="cls-18" points="45.89 9.21 45.89 9.21 48.16 9.21 48.16 6.94 45.89 6.94 45.89 9.21"/><rect class="cls-19" x="45.89" y="0.14" width="2.27"/><polygon class="cls-19" points="48.16 5.58 48.16 4.67 48.16 4.22 45.89 4.22 43.62 4.22 43.62 4.67 43.62 5.58 45.89 5.58 48.16 5.58"/><polygon class="cls-16" points="45.89 9.21 45.89 9.21 45.89 11.48 48.16 11.48 48.16 9.21 45.89 9.21"/><rect class="cls-16" x="32.27" y="6.94" width="2.27" height="2.27"/><rect class="cls-1" x="43.2" y="22.79" width="1.14" height="2.31"/><rect class="cls-1" x="45.47" y="22.79" width="1.14" height="2.31"/><rect class="cls-1" x="40.93" y="22.79" width="1.14" height="2.31"/><rect x="44.34" y="22.79" width="1.14" height="2.31"/><rect x="42.07" y="22.79" width="1.14" height="2.31"/><path d="M47.75,22.79H46.61V25.1h1.14Z"/><path class="cls-20" d="M57.85,20.63v0Z"/><polygon class="cls-20" points="69.2 21.42 69.2 21.42 69.2 20.52 69.2 20.64 69.2 21.42"/><polygon class="cls-21" points="56.72 30.13 56.72 27.37 55.59 27.37 54.45 27.37 54.45 27.66 54.45 29.66 54.45 31.91 56.72 31.91 56.72 30.18 56.72 30.13"/><polygon class="cls-22" points="58.99 31.34 58.99 27.82 58.99 27.37 57.85 27.37 56.72 27.37 56.72 30.13 56.72 30.18 56.72 31.91 58.99 31.91 58.99 31.67 58.99 31.34"/><polygon class="cls-23" points="63.53 27.37 62.39 27.37 61.26 27.37 61.26 28.73 61.26 31.91 63.53 31.91 63.53 29.64 63.53 27.37"/><polygon class="cls-24" points="63.53 29.64 63.53 31.91 65.8 31.91 65.8 30.55 65.8 27.37 64.66 27.37 63.53 27.37 63.53 29.64"/><polygon class="cls-25" points="60.12 2.36 62.39 2.36 62.39 1.07 62.39 0.09 60.12 0.09 60.12 2.04 60.12 2.36"/><polygon class="cls-26" points="62.39 2.36 64.66 2.36 64.66 0.47 64.66 0.09 62.39 0.09 62.39 1.07 62.39 2.36"/><path class="cls-14" d="M60.12,4.67h.51a14.62,14.62,0,0,1,14.68,0h1.1L77.5,3,77.37,3A18.69,18.69,0,0,0,66.93.09H64.66V2.36H59.5q-.57.33-1.11.69L59.5,4.67Z"/><polygon class="cls-14" points="60.1 20.64 60.1 20.52 60.1 20.18 60.1 18.77 60.1 18.38 60.1 15.98 59.54 15.98 58.98 15.98 58.41 15.98 57.85 15.98 57.85 18.38 57.85 18.77 57.85 20.18 57.85 20.52 57.85 20.64 60.1 20.64"/><polygon class="cls-14" points="57.85 21.99 57.85 21.42 57.85 21.09 57.85 20.64 55.59 20.64 55.59 21.09 55.59 21.42 55.59 21.99 55.59 22.89 57.85 22.89 57.85 21.99"/><path class="cls-15" d="M57.85,6.9h0v0h4.54v-.3h0a12,12,0,0,1,9.08-.88V6.94h2.27V9.21h2.67V4.67h-1.1a14.62,14.62,0,0,0-14.68,0H57.85V6.9Z"/><polygon class="cls-15" points="60.12 20.64 60.12 21.09 60.12 21.42 60.12 21.99 60.12 22.89 62.39 22.89 62.39 21.99 62.39 21.42 62.39 20.64 62.39 20.64 60.12 20.64"/><polygon class="cls-15" points="61.26 31.91 61.26 28.73 61.26 27.37 60.12 27.37 58.99 27.37 58.99 27.82 58.99 31.34 58.99 31.67 58.99 31.91 60.1 31.91 60.41 31.91 61.26 31.91"/><polygon class="cls-15" points="65.74 13.75 65.74 13.75 65.73 13.75 64.66 13.75 64.66 13.76 64.66 13.87 64.66 14.89 64.66 15.98 63.53 15.98 62.39 15.98 62.39 18.77 62.39 20.18 62.39 20.52 62.39 20.64 64.66 20.64 64.66 20.52 64.66 18.29 64.66 15.98 66.93 15.98 67.26 15.98 67.26 15.98 67.27 15.98 69.17 15.98 69.17 14.89 69.17 14.89 69.17 13.75 66.93 13.75 65.74 13.75"/><polygon class="cls-16" points="55.59 21.99 55.59 21.42 55.59 21.09 55.59 20.64 57.85 20.64 57.85 20.52 57.85 20.18 57.85 18.77 57.85 18.38 57.85 15.98 57.01 15.98 55.59 15.98 55.59 18.38 55.59 20.18 55.59 20.52 55.59 20.64 53.32 20.64 53.32 21.42 53.32 22.79 53.32 22.89 55.59 22.89 55.59 21.99"/><path class="cls-1" d="M73.74,11.49v0Z"/><polygon class="cls-1" points="54.45 11.49 55.59 11.49 55.59 5.47 55.59 4.63 54.45 4.63 54.45 6.84 54.45 11.49"/><polygon class="cls-1" points="51.33 13.71 53.32 13.71 53.32 13.75 53.32 11.49 53.32 8.57 53.32 4.63 52.08 4.63 52.18 4.63 52.18 10.91 52.18 11.49 52.08 11.49 51.97 11.49 51.05 11.49 51.05 13.75 51.05 13.71 51.33 13.71"/><path class="cls-1" d="M57.85,20.18v0Z"/><polygon class="cls-1" points="51.05 18.38 51.05 20.52 51.05 20.64 51.05 20.52 51.05 18.38"/><rect class="cls-1" x="46.51" y="18.25" width="2.27" height="2.26"/><polygon class="cls-1" points="53.32 15.98 51.06 15.98 51.05 15.98 51.05 18.24 51.1 18.24 53.31 18.24 53.32 15.98"/><polygon class="cls-1" points="68.07 27.37 69.2 27.37 69.2 25.06 66.93 25.06 66.93 27.37 68.07 27.37"/><polygon class="cls-1" points="61.45 23.79 60.12 25.06 62.39 25.06 62.39 27.37 63.53 27.37 64.66 27.37 64.66 25.06 62.39 25.06 63.72 23.79 64.66 22.89 62.39 22.89 61.45 23.79"/><polygon class="cls-1" points="66.93 20.64 66.93 21.42 66.93 22.89 69.2 22.89 69.2 21.42 69.2 20.64 66.93 20.64"/><polygon class="cls-1" points="68.25 23.79 69.2 22.89 66.93 22.89 65.98 23.79 64.66 25.06 66.93 25.06 68.25 23.79"/><polygon class="cls-1" points="57.85 25.06 59.18 23.79 60.12 22.89 57.85 22.89 56.91 23.79 55.59 25.06 57.85 25.06 57.85 27.37 58.99 27.37 60.12 27.37 60.12 25.06 57.85 25.06"/><path class="cls-16" d="M64.66,11.21v2.54h4.51v-3.3a6.73,6.73,0,0,0-4.51.76Z"/><polygon class="cls-1" points="62.39 13.87 62.39 14.89 64.66 14.89 64.66 13.87 64.66 13.76 62.39 13.76 62.39 13.87"/><polygon class="cls-1" points="60.69 14.89 60.69 13.87 60.69 13.76 60.69 13.75 60.69 11.49 60.12 11.49 60.12 13.75 60.12 13.76 60.12 13.87 60.12 14.89 60.12 15.98 60.69 15.98 60.69 14.89"/><polygon class="cls-1" points="61.26 13.76 61.26 13.87 61.26 14.89 61.26 15.98 61.83 15.98 61.83 14.89 61.83 13.87 61.83 13.76 61.83 11.49 61.26 11.49 61.26 13.76"/><polygon class="cls-1" points="58.42 14.89 58.42 14.89 58.42 13.87 58.42 13.76 58.42 11.49 57.85 11.49 57.85 13.76 57.85 13.87 57.85 14.89 57.85 15.98 58.42 15.98 58.42 14.89"/><polygon class="cls-1" points="59.56 14.89 59.56 13.87 59.56 13.76 59.56 11.49 58.99 11.49 58.99 13.76 58.99 13.87 58.99 14.89 58.99 15.98 59.56 15.98 59.56 14.89"/><polygon class="cls-17" points="61.26 15.98 60.69 15.98 60.12 15.98 60.12 18.38 60.12 18.77 60.12 20.18 60.12 20.52 60.12 20.64 62.39 20.64 62.39 20.64 62.39 20.52 62.39 20.18 62.39 18.77 62.39 15.98 61.83 15.98 61.26 15.98"/><polygon class="cls-17" points="57.85 21.42 57.85 21.99 57.85 22.89 60.12 22.89 60.12 21.99 60.12 21.42 60.12 21.09 60.12 20.64 57.85 20.64 57.85 21.09 57.85 21.42"/><path class="cls-17" d="M59,11.49h1.13V9.21h2.93l0,0,.49-.28,0,0a9.82,9.82,0,0,1,1-.46l.42-.15h0l.22-.06h0a8.89,8.89,0,0,1,1.85-.35h.12c.29,0,.59,0,.88,0h.14a8.69,8.69,0,0,1,.88.07v1.3h4.57V6.94H71.47V5.76a12,12,0,0,0-9.08.88h0v.3H60.12V9.21H57.85v2.28H59Z"/><path class="cls-17" d="M65.3,8.22a8.89,8.89,0,0,1,1.85-.35,8.89,8.89,0,0,0-1.85.35Z"/><path class="cls-17" d="M68.29,7.84a6.52,6.52,0,0,1,.88.07,8.69,8.69,0,0,0-.88-.07Z"/><path class="cls-17" d="M65.08,8.28l.22-.06Z"/><path class="cls-17" d="M67.27,7.86a8.63,8.63,0,0,1,.88,0,8.63,8.63,0,0,0-.88,0Z"/><polyline points="48.78 11.49 48.78 13.75 51.05 13.75 51.05 11.49 49.91 11.49 49.88 11.49 48.78 11.49"/><rect x="48.78" y="18.25" width="2.27" height="2.26"/><polygon points="62.39 25.06 60.12 25.06 60.12 27.37 61.26 27.37 62.39 27.37 62.39 25.06"/><path d="M69.2,20.52h0v2.37H66.93V20.63H69.2Zm-2.27-2.23h0v2.34H64.66v2.26l-.94.9-1.33,1.27h2.27L66,23.79l.94-.9H69.2l-1,.9-1.32,1.27H69.2v2.31H66.93V25.06H64.66v2.31H65.8v4.54H60.12v2.26H69.2a17.13,17.13,0,0,0,8.33-3l.13-.09L69.17,18.81v-.52Z"/><polygon points="57.85 25.06 60.12 25.06 61.45 23.79 62.39 22.89 60.12 22.89 59.18 23.79 57.85 25.06"/><polygon points="55.59 25.06 56.91 23.79 57.85 22.89 55.59 22.89 53.32 25.06 53.32 25.15 53.32 26.04 53.32 27.37 54.23 27.37 54.45 27.37 55.59 27.37 56.72 27.37 57.85 27.37 57.85 25.06 55.59 25.06"/><polygon points="51.05 11.49 51.97 11.49 52.08 11.49 52.18 11.49 52.18 10.91 52.18 4.63 52.08 4.63 51.05 4.63 51.05 11.49"/><path d="M51.05,20.52V25h2.26V20.63h2.26V16h2.27V9.21h2.27V6.94H57.85v0h0V4.67H59.5L58.39,3.05l-.13.08a15.74,15.74,0,0,0-1.85,1.5h-.82v6.86H54.45V4.63H53.32v9.08H51.05v0H48.78v1.13h2.27V16h2.27v2.26H51.05v2.27Z"/><polygon points="60.12 15.98 60.12 14.89 60.12 13.87 60.12 13.76 60.12 13.75 60.12 11.49 60.69 11.49 60.69 13.75 60.69 13.76 60.69 13.87 60.69 14.89 60.69 15.98 61.26 15.98 61.26 14.89 61.26 13.87 61.26 13.76 61.26 11.49 61.03 11.49 61.03 10.87 61.03 9.21 60.12 9.21 60.12 10.31 60.12 11.49 59.56 11.49 59.56 13.76 59.56 13.87 59.56 14.89 59.56 15.98 60.12 15.98"/><polygon points="64.66 9.21 63.76 9.21 63.76 10.85 63.76 10.87 63.76 11.49 62.85 11.49 62.85 9.55 62.85 9.55 62.85 9.34 62.85 9.34 62.85 9.21 62.62 9.21 62.39 9.21 61.94 9.21 61.94 10.01 61.94 11.49 61.83 11.49 61.83 13.76 61.83 13.87 61.83 14.89 61.83 15.98 62.39 15.98 63.53 15.98 64.66 15.98 64.66 14.89 62.39 14.89 62.39 13.87 62.39 13.76 64.66 13.76 64.66 13.75 64.66 12.19 64.66 12.17 64.66 11.49 64.66 11.21 64.66 9.21"/><polygon points="58.99 14.89 58.99 13.87 58.99 13.76 58.99 11.49 58.42 11.49 58.42 13.76 58.42 13.87 58.42 14.89 58.42 15.98 58.99 15.98 58.99 14.89"/><path class="cls-19" d="M63.75,10.87h0V9.21h.91v2a6.73,6.73,0,0,1,4.51-.76v1h4.57V9.21H69.17V7.91c-.31,0-.58-.06-.88-.07h-.14c-.29,0-.59,0-.88,0h-.12a8.89,8.89,0,0,0-1.85.35l-.22.06-.42.15a9.82,9.82,0,0,0-1,.46l0,0-.49.28,0,0h-.2v.13h0v.21h0v1.94h.9v-.62Z"/><polygon class="cls-19" points="61.83 11.49 61.94 11.49 61.94 10.01 61.94 9.21 61.03 9.21 61.03 10.87 61.03 11.49 61.26 11.49 61.83 11.49"/><polygon class="cls-19" points="66.93 20.52 66.93 18.29 69.17 18.29 69.17 15.98 67.27 15.98 67.26 15.98 67.26 15.98 66.93 15.98 64.66 15.98 64.66 18.29 64.66 20.52 64.66 20.64 66.93 20.64 66.93 20.52"/><polygon class="cls-19" points="64.66 22.89 64.66 21.42 64.66 20.64 62.39 20.64 62.39 21.42 62.39 21.99 62.39 22.89 64.66 22.89 64.66 22.89"/><rect class="cls-1" x="48.78" y="20.51" width="0.57" height="2.28"/><rect class="cls-1" x="49.91" y="20.51" width="0.57" height="2.28"/><rect class="cls-1" x="47.64" y="20.51" width="0.57" height="2.28"/><rect x="49.35" y="20.51" width="0.57" height="2.28"/><rect x="48.21" y="20.51" width="0.57" height="2.28"/><path d="M51.05,20.51h-.57v2.28h.57Z"/><rect class="cls-1" x="49.91" y="9.21" width="0.57" height="2.28"/><rect class="cls-1" x="51.05" y="9.21" width="0.57" height="2.28"/><rect class="cls-1" x="48.78" y="9.21" width="0.57" height="2.28"/><rect x="50.48" y="9.21" width="0.57" height="2.28"/><rect x="49.35" y="9.21" width="0.57" height="2.28"/><path d="M52.19,9.21h-.57v2.28h.57Z"/><polygon class="cls-1" points="53.32 25.06 53.32 22.89 55.59 22.89 53.32 25.06"/><rect class="cls-1" x="76.33" y="22.79" width="0.57" height="2.35"/><rect class="cls-1" x="77.46" y="22.79" width="0.57" height="2.35"/><rect class="cls-1" x="75.19" y="22.79" width="0.57" height="2.35"/><rect x="76.9" y="22.79" width="0.57" height="2.35"/><rect x="75.76" y="22.79" width="0.57" height="2.35"/><path d="M78.6,22.79H78v2.35h.57Z"/><rect class="cls-1" x="78.6" y="0.09" width="2.27" height="6.81"/><path class="cls-3" d="M80.87,19.43V18.25H78.6v2.27h2.27Z"/><path class="cls-4" d="M80.87,18.25v2.27h2.27V18.25Z"/><path class="cls-5" d="M85.41,18.25h0v2.27h2.27V18.25Z"/><polygon class="cls-6" points="89.95 20.52 89.95 20.51 89.94 20.52 89.95 20.52"/><path class="cls-6" d="M89.62,18.25H87.68v2.27h2.26c.06-.74,0-1.52,0-2.27Z"/><rect class="cls-2" x="89.95" y="6.9" width="1.42" height="0.01"/><polygon class="cls-2" points="91.36 8.61 91.08 9.17 91.36 9.17 91.36 8.61"/><path class="cls-2" d="M91.36,6.91H90V9.17h1.13a1.77,1.77,0,0,0,.28-.93Z"/><path class="cls-2" d="M92.21,20.52H90v4.54h2.26V20.52Z"/><path class="cls-9" d="M87.68,9.17H90V6.9H87.68Z"/><path class="cls-9" d="M87.92,20.52h-.24v4.54H90V20.52Z"/><path class="cls-11" d="M83.14,8.58V6.9H82V9.17h1.14Z"/><path class="cls-11" d="M83.14,22.91V21.09H80.87v4h2.27Z"/><path class="cls-11" d="M82,20.52h0Z"/><path class="cls-12" d="M83.14,8.58v.59h2.27V6.9H83.14V8.58Z"/><path class="cls-12" d="M84.73,20.52h0Z"/><rect class="cls-12" x="83.14" y="21.09" width="2.27" height="3.97"/><path class="cls-25" d="M81.44,17.68h1.7V16H80.87v1.7Z"/><path class="cls-26" d="M83.14,16v2.27h2.27V16H83.14v0Z"/><path class="cls-27" d="M89.62,18.25H90V16H87.68v2.27Z"/><path class="cls-28" d="M91.45,18.25h.74V16H90v2.27Z"/><path class="cls-13" d="M90,25.06h0Z"/><path class="cls-13" d="M96.75,34.13H94.48V29.6H92.22v4.53h4.53Z"/><rect class="cls-13" x="80.87" y="11.43" width="1" height="0.01"/><path class="cls-13" d="M90,29.6h2.26V27.33H90Z"/><path class="cls-13" d="M76.31,6.33h1.08v-4H76.31Z"/><path class="cls-14" d="M85.41,34.13V29.6H83.14V27.33H78.6V29.6h4.54v2.26H80.87v2.27h4.54Z"/><path class="cls-14" d="M85.41,18.25h2.27V16H85.41Z"/><rect class="cls-14" x="73.35" y="4.63" width="1.56" height="1.7"/><rect class="cls-14" x="73.35" y="7.47" width="1.56" height="1.7"/><rect class="cls-14" x="74.91" y="9.17" width="1.4" height="2.27"/><rect class="cls-14" x="92.92" y="2.36" width="1.56" height="2.27"/><path class="cls-14" d="M91.36,8.61v.56h1.56V4.63H91.36Z"/><path class="cls-15" d="M87.68,34.13V29.6H85.41v4.53h2.27Z"/><path class="cls-15" d="M83.14,29.6h2.27V27.33H83.14Z"/><path class="cls-15" d="M85.41,6.91V9.17h2.27V6.9H85.41Z"/><path class="cls-15" d="M77.39,9.17H76.31v2.27h1.08Z"/><path class="cls-15" d="M76.31,6.33v-4h-1.4v4Z"/><rect class="cls-15" x="74.91" y="7.47" width="1.4" height="1.7"/><path class="cls-15" d="M87.68,23.91V20.52H85.41v4.54h2.27Z"/><path class="cls-15" d="M80.87,27.33V25.06H78.6v2.27Z"/><polygon class="cls-16" points="90.95 25.06 90.95 25.06 92.22 25.06 90.95 25.06"/><path class="cls-16" d="M81.87,11.44h0Z"/><path class="cls-16" d="M99,32.27V29.6H96.75v4.53h3.52L99,32.27Z"/><polygon class="cls-1" points="80.87 6.9 80.87 6.9 82 6.9 80.87 6.9"/><path class="cls-1" d="M78.6,18.25h.57v-.57h.56v.57h.57v-.57h.57V16H78.6Z"/><polygon class="cls-1" points="80.87 14.68 80.87 14.16 78.6 14.16 78.6 15.07 80.87 15.07 80.87 14.68"/><path class="cls-1" d="M83.14,16v-.91H80.87V16Z"/><path class="cls-1" d="M92.92,6.91V9.17H91.08L90,11.43h3c0-.38,0-.77,0-1.16a2.76,2.76,0,0,1,.43-1.11h1.13V4.63H92.92V6.91Z"/><path class="cls-1" d="M80.87,11.44v2.72h2.27V11.44Z"/><polygon class="cls-1" points="85.41 11.44 85.41 11.44 87.68 11.44 85.41 11.44"/><path class="cls-1" d="M86.91,9.17h-.37l-1.13,2.26h2.27c.37-.75.75-1.5,1.13-2.26Z"/><polygon class="cls-1" points="80.87 11.43 83.14 11.43 84.27 9.17 82 9.17 80.87 11.43"/><polygon class="cls-1" points="79.73 9.17 78.6 9.17 78.6 10.87 79.73 9.17"/><polygon class="cls-1" points="89.8 4.63 89.34 4.63 89.34 2.36 89.8 2.36 88.24 2.36 88.77 2.36 88.77 4.63 88.24 4.63 88.24 6.9 89.8 6.9 89.8 4.63"/><path class="cls-1" d="M85.93,4.63V2.36h.57V4.63Zm.75,2.27V4.63h.39V2.36H85.12V6.9Z"/><path class="cls-1" d="M82,1.8V6.9h1.56V2.36h-.42V.09H82V1.8Z"/><path class="cls-1" d="M77.39,6.9H78.6V6.33H77.39Z"/><path class="cls-1" d="M76.31,6.9V6.33h-1.4V6.9Z"/><rect class="cls-1" x="71.79" y="6.33" width="1.56" height="0.57"/><path class="cls-1" d="M78.6,7.47h1.84V6.9H78.6v.57Z"/><rect class="cls-1" x="76.31" y="6.9" width="1.08" height="0.57"/><path class="cls-1" d="M74.91,6.9H73.35v.57h1.56Z"/><rect class="cls-1" x="87.63" y="2.36" width="0.57" height="2.27"/><path class="cls-1" d="M81.44,31.86V29.6h-.57v2.26Z"/><path class="cls-1" d="M82,31.86h.57V29.6H82Z"/><rect class="cls-1" x="78.6" y="29.6" width="0.57" height="2.27"/><rect class="cls-1" x="79.73" y="29.6" width="0.57" height="2.27"/><path class="cls-1" d="M81.44,17.68h-.57v.57h.57Z"/><path class="cls-1" d="M82.57,17.68H82v.57h.57v-.57Z"/><path class="cls-1" d="M82,21.09v-.57H80.87v.57Z"/><rect class="cls-1" x="83.14" y="20.52" width="1.13" height="0.57"/><rect class="cls-1" x="76.33" y="20.52" width="1.13" height="0.57"/><path class="cls-17" d="M90,34.13V29.6H87.68v4.53H90Z"/><path class="cls-17" d="M83.14,25.06h0Z"/><path class="cls-17" d="M87.5,29.6h.18V27.33H85.41V29.6Z"/><path class="cls-17" d="M83.14,18.25v2.27h2.27V18.25Z"/><path class="cls-17" d="M78.6,11.43V9.17H77.39v2.27H78.6Z"/><path d="M90,18.25v2.27h2.26V18.25H90Z"/><path d="M80.87,14.68v.39h2.27v-.91H80.87Z"/><rect x="78.6" y="15.07" width="2.27" height="0.91"/><path d="M80.87,13.71V11.44H78.6v2.72h2.27Z"/><path d="M78.6,11.43h2.27L82,9.17H78.6Z"/><path d="M77.39,6.33H78.6V.09H77.39Z"/><path d="M87.63,2.36h.57V4.63h-.57Zm.61,2.27h.53V2.36h.57V4.63h.46V6.9H88.24Zm-.56,6.81h0ZM83.14,2.36h.42V6.9h1.56V2.36h1.95V4.63h-.39V6.9h4.68V4.63h1.56V2.36h1.56V9.17H93.35a2.82,2.82,0,0,0-.43,1.11c0,.39,0,.78,0,1.16H90l1.13-2.26H88.81l-1.13,2.26H85.41l1.13-2.26H84.27l-1.13,2.26h0v2.72h0V16h9.08l9.6-13.48c.58-.8,1.15-1.6,1.72-2.41H83.14V2.36Z"/><path d="M82,6.9h0V2.36h0V.09H80.87V2.36h-.43V6.9Z"/><path d="M76.31,6.9h1.08V6.33H76.31V6.9Z"/><path d="M73.35,6.9h1.56V6.33H73.35Z"/><path d="M77.39,6.9v.57H78.6V6.9Z"/><rect x="74.91" y="6.9" width="1.4" height="0.57"/><rect x="71.79" y="6.9" width="1.56" height="0.57"/><path d="M86.5,4.63V2.36h-.57V4.63Z"/><path d="M81.44,31.86H82V29.6h-.56Z"/><path d="M80.87,29.6H80.3v2.26h.57Z"/><path d="M82.57,31.82v0h.57V29.6h-.57v2.22Z"/><rect x="79.17" y="29.6" width="0.57" height="2.27"/><path d="M82,17.68h-.56v.57H82Z"/><path d="M83.14,17.68h-.57v.57h.57Z"/><path d="M80.87,18.25v-.57H80.3v.57Z"/><path d="M79.73,17.68h-.56v.57h.56Z"/><rect x="82" y="20.52" width="1.13" height="0.57"/><path d="M80.87,20.52H79.73v.57h1.14Z"/><path d="M84.27,20.52v.57h1.14v-.57Z"/><rect x="77.46" y="20.52" width="1.13" height="0.57"/><path class="cls-19" d="M90,27.33H87.68V29.6H90Z"/><path class="cls-19" d="M92.21,34.13V29.6H90v4.53h2.26Z"/><path class="cls-19" d="M87.73,25.06h0Z"/><path class="cls-19" d="M77.39,9.17H82V6.9H80.44v.57H76.31v1.7Z"/><path class="cls-19" d="M85.41,6.9h0Z"/><path class="cls-16" d="M94.48,29.6V27.33H92.22V29.6h2.26v4.53h2.27V29.6Z"/><rect class="cls-1" x="91.46" y="18.25" width="0.76" height="2.27"/><rect class="cls-1" x="92.97" y="18.25" width="0.76" height="2.27"/><rect class="cls-1" x="89.95" y="18.25" width="0.76" height="2.27"/><rect x="92.21" y="18.25" width="0.76" height="2.27"/><rect x="90.7" y="18.25" width="0.76" height="2.27"/><path d="M94.48,21.43V18.25h-.75v2.27H92.21v4.54H80.87v2.27H94.48V29.6H99v2.64l1.25,1.89h3.27l-9.06-12.7Z"/><rect class="cls-1" x="71.03" y="15.98" width="0.76" height="2.27"/><rect class="cls-1" x="72.55" y="15.98" width="0.76" height="2.27"/><rect class="cls-1" x="69.52" y="15.98" width="0.76" height="2.27"/><rect x="71.79" y="15.98" width="0.76" height="2.27"/><rect x="70.28" y="15.98" width="0.76" height="2.27"/><path d="M74.06,16H73.3v2.27h.76Z"/><path class="cls-10" d="M138.7,31.86h-2.26v2.27h2.26Z"/><path class="cls-25" d="M125.08,23.29v-.5h-2.26v2.27h2.26Z"/><path class="cls-25" d="M125.08,6.9V4.63h-2.26V8.39h2.26V6.9Z"/><path class="cls-26" d="M127.35,23.48v-.69h-2.27v2.27h2.27Z"/><path class="cls-26" d="M127.35,6.9c0-.75.05-1.51.07-2.27h-2.34V8.39h.76v0h1.51Z"/><path class="cls-27" d="M129.62,22.79v2.27h2.27V22.79Z"/><path class="cls-27" d="M129.62,6.9V8.41h2.27V4.63h-2.27V6.9Z"/><path class="cls-28" d="M132.65,25.06h1.51V22.79h-2.27v2.27Z"/><rect class="cls-28" x="131.89" y="4.63" width="2.27" height="3.76"/><path class="cls-13" d="M134.16,25.06Z"/><path class="cls-13" d="M134.16,22.79v0Z"/><path class="cls-14" d="M125.08,25.06h-2.26c.87,5,4.68,9.07,11.34,9.07V31.87C128.36,31.86,125.7,28.51,125.08,25.06Z"/><path class="cls-14" d="M123.57,20.53h1.52V14.84h0V16h-2.26v4.54h.75Z"/><path class="cls-14" d="M125.08,12.58h0V9.17h-2.27v3.41Z"/><path class="cls-14" d="M127.35,25.06h2.27V22.79h-2.27Z"/><path class="cls-14" d="M127.35,6.9V8.41h2.27V4.63h-2.2Z"/><path class="cls-15" d="M127.35,25.06h-2.27c.62,3.45,3.28,6.8,9.08,6.8V29.6C130.41,29.6,128,27.59,127.35,25.06Z"/><path class="cls-15" d="M127.35,20.52Z"/><path class="cls-15" d="M127.35,16h2.27V14.84h-2.27Z"/><polygon class="cls-15" points="128.49 18.25 127.36 18.25 127.36 20.52 129.62 20.52 129.62 18.25 128.49 18.25"/><path class="cls-15" d="M127.35,12.58h2.27V9.17h-2.27Z"/><path class="cls-15" d="M122.82,13.71V9.17h-2.27v4.54Z"/><rect class="cls-15" x="122.82" y="13.71" width="2.27" height="2.27"/><path class="cls-15" d="M125.84,4.63h.76V3.54h-.3V1.31h-1.22V3.54h.76Z"/><polygon class="cls-16" points="133.03 15.99 134.16 15.99 134.16 13.71 131.89 13.71 131.89 15.99 133.03 15.99"/><rect class="cls-1" x="144.56" y="15.97" width="0.95" height="4.59"/><polygon class="cls-1" points="141.73 20.56 141.73 15.97 140.97 15.97 140.97 20.52 140.96 20.52 140.96 20.56 141.73 20.56"/><rect class="cls-1" x="134.16" y="20.56" width="0.95" height="2.23"/><path class="cls-1" d="M137.94,22.79h1.9V20.56h-1.9Z"/><path class="cls-1" d="M143.62,22.79V16h-1v4.59h-.94v2.23Z"/><path class="cls-1" d="M137,21v-.46h-.95v2.23H137Z"/><path class="cls-1" d="M133,16.89v1.25l1.13,0V16H133Z"/><path class="cls-1" d="M130.76,16v2.17h.36v2.36h0V22h.73V18.16h0V16Z"/><path class="cls-1" d="M127.35,12.58v2.26h2.27V12.58Z"/><path class="cls-1" d="M122.82,12.58h0v1.13h2.26V12.58Z"/><rect class="cls-1" x="120.55" y="13.71" width="2.27" height="1.13"/><path class="cls-1" d="M128.49,18.25h1.13v2.27h.75V18.16h-.75V16h-1.13Z"/><rect class="cls-1" x="122.82" y="1.31" width="1.12" height="3.32"/><rect class="cls-1" x="127.42" y="1.31" width="1.08" height="2.23"/><path class="cls-1" d="M125.08,1.31h2.34V.09h-2.34Z"/><path class="cls-1" d="M122.82.09h-2.27V1.31h2.27Z"/><rect class="cls-1" x="137.34" y="0.09" width="0.91" height="2.27"/><rect class="cls-1" x="139.15" y="0.09" width="0.91" height="2.27"/><path class="cls-1" d="M122.82,9.17h3V8.4h-3V4.63h-2.27V9.17Z"/><path class="cls-1" d="M125.08,21.28V22h1.52V20.52h-1.52Z"/><path class="cls-1" d="M123.57,21.28V22h.76V20.53h-.76Z"/><path class="cls-1" d="M111.47,22.79h3V22h-3"/><path class="cls-1" d="M128.11,21.26V22H126.6v.78h3.78V22h-.76V20.52h-1.51v.74Z"/><rect class="cls-1" x="116.01" y="22.02" width="1.51" height="0.76"/><path class="cls-1" d="M131.89,8.4h-1.51v.77h3.78V8.4Z"/><path class="cls-1" d="M127.35,8.41h0v.76h1.52V8.41Z"/><path class="cls-1" d="M136.68,27.33h-.5v4.53h.5Z"/><path class="cls-1" d="M134.16,27.33v4.53h.51V27.33Z"/><path class="cls-1" d="M135.67,28.08v-.75h-.5v4.54h.5Z"/><path class="cls-17" d="M129.62,25.06h-2.27c.65,2.53,3.06,4.54,6.81,4.54V27.33C132.44,27.35,130.35,26.81,129.62,25.06Z"/><path class="cls-17" d="M127.35,20.52h0V14.84h-2.27v5.68Z"/><path class="cls-17" d="M127.35,12.58h0V9.17h-2.27v3.41Z"/><polygon class="cls-17" points="127.42 4.63 127.42 4.63 127.42 3.54 126.6 3.54 126.6 4.63 127.42 4.63"/><path d="M128.49,16h-1.14v2.26h1.14Z"/><path d="M127.35,12.58h-2.27v2.26h2.27Z"/><path d="M120.55,12.58h-2.27v2.26h2.27Z"/><path d="M122.82,4.63V1.31h-1V4.63Z"/><path d="M123.94,1.31V4.63h1.14V.09h-2.26V1.31Z"/><rect x="126.6" y="20.52" width="1.51" height="1.49"/><path d="M125.08,22.79h1.52V22h-1.52V20.53h-.75V22h-.76V20.53h-.75v2.26Z"/><rect x="117.52" y="22.02" width="1.51" height="0.76"/><rect x="114.49" y="22.02" width="1.51" height="0.76"/><rect x="125.84" y="8.41" width="1.51" height="0.76"/><path d="M127.42,1.31h1.08V3.54h-1.08Zm7.75,28.79V27.33h.5v4.53h-.5Zm.88-9.54v0h1.89v0h1.9v0H141V16h.76v4.59h.94V16h1v6.82h-1.89V20.56h-1.9v2.23h-1.89V20.56H137v2.19h-.95V20.56ZM144.56,16h.95v4.59h-.95ZM127.42,1.31H126.3V3.54h1.12V4.63h6.74V9.17h-3.78V8.41h-1.51v.76h.75v4.54h0v1.13h2.27V13.71h2.27v4.41l-1.13,0V16h-1.14v2.17h0V22h-.73V20.52h0V18.16h-.36V16h-1.14v2.17h.75v2.36h-.75V22h.76v.78h3.78v0h0V20.56h1v2.23h-1v4.54h.5v4.54h-.5v2.26h2.28V31.87h-.26V27.33h.5v4.54h6.56V27.33h2.27V.09h-5.45V2.36h-.91V.09h-.9V2.36h-.91V.09h-9.92V1.31Z"/><rect x="139.84" y="20.52" width="1.13" height="0.04"/><rect x="137" y="20.52" width="0.95" height="0.04"/><path class="cls-18" d="M138.72,31.86h0v2.27H141V31.86Z"/><path class="cls-19" d="M134.16,22.75V20.52h0Z"/><path class="cls-19" d="M134.16,25.06h-4.54c.73,1.75,2.82,2.29,4.54,2.27V25.06Z"/><path class="cls-19" d="M130.76,16h1.13V14.84h-2.27V16Z"/><rect class="cls-19" x="125.08" y="3.54" width="0.76" height="1.09"/><rect class="cls-1" x="122.7" y="22.79" width="1.13" height="0.76"/><rect class="cls-1" x="124.97" y="22.79" width="1.13" height="0.76"/><rect class="cls-1" x="120.43" y="22.79" width="1.13" height="0.76"/><rect x="123.83" y="22.79" width="1.13" height="0.76"/><rect x="121.56" y="22.79" width="1.13" height="0.76"/><path d="M127.24,22.79H126.1v.75h1.14Z"/><rect class="cls-1" x="115.89" y="6.9" width="1.13" height="0.76"/><rect class="cls-1" x="118.16" y="6.9" width="1.13" height="0.76"/><rect class="cls-1" x="113.62" y="6.9" width="1.13" height="0.76"/><rect x="117.03" y="6.9" width="1.13" height="0.76"/><rect x="114.76" y="6.9" width="1.13" height="0.76"/><path d="M120.43,6.9h-1.14v.76h1.14Z"/><path class="cls-29" d="M6.24,27.37h.57V25.1H4.54v2.27Z"/><path class="cls-29" d="M6.81,27.37v0Z"/><path class="cls-29" d="M6.81,27.37Z"/><polygon class="cls-30" points="9.08 27.28 9.08 27.28 9.08 25.1 6.81 25.1 6.81 27.28 9.08 27.28"/><path class="cls-30" d="M9.08,27.37v0Z"/><rect class="cls-30" x="6.81" y="27.28" width="2.27" height="0.09"/><path class="cls-30" d="M9.08,27.37Z"/><path class="cls-30" d="M6.81,27.37Z"/><path class="cls-7" d="M13.62,25.1h0Z"/><polygon class="cls-7" points="13.62 27.28 13.62 27.28 13.62 25.1 11.35 25.1 11.35 27.28 13.62 27.28"/><path class="cls-7" d="M13.62,27.37v0Z"/><rect class="cls-7" x="11.35" y="27.28" width="2.27" height="0.09"/><polygon class="cls-7" points="11.35 27.37 11.35 27.37 13.62 27.37 11.35 27.37"/><path class="cls-8" d="M14.37,25.1h0Z"/><rect class="cls-8" x="14.37" y="25.1" width="1.51" height="2.18"/><path class="cls-8" d="M14.37,27.28v0Z"/><rect class="cls-8" x="14.37" y="27.28" width="1.51" height="0.09"/><path class="cls-8" d="M14.37,27.37v0Z"/><polygon class="cls-8" points="13.62 25.1 13.62 25.1 14.37 25.1 13.62 25.1"/><rect class="cls-8" x="13.62" y="25.1" width="0.76" height="2.18"/><rect class="cls-8" x="13.62" y="27.28" width="0.76" height="0.09"/><path class="cls-31" d="M27.35,18.29h-.12v4.54H29.5V18.29Z"/><path class="cls-32" d="M25,22.83V18.29H22.69v4.54Z"/><rect class="cls-33" x="29.5" y="18.29" width="2.27" height="4.54"/><path class="cls-34" d="M21.79,22.83h.9V18.29H20.42v4.54Z"/><path class="cls-25" d="M31.77,18.27H34V16H31.77Z"/><path class="cls-26" d="M9.08,20.56V18.29H6.81v2.27Z"/><rect class="cls-26" x="29.5" y="16" width="2.27" height="2.27"/><ellipse class="cls-27" cx="12.52" cy="19.42" rx="1.64" ry="1.62"/><path class="cls-27" d="M25,16v2.27h2.27V16Z"/><path class="cls-28" d="M13.69,20.56h2.2V18.29h-2.2v2.27Z"/><rect class="cls-28" x="22.69" y="16" width="2.27" height="2.27"/><path class="cls-13" d="M34,20.59h0v2.27H31.77V20.59h0v2.27H29.5V27.4h2.27v2.27H34V20.59Z"/><path class="cls-13" d="M27.23,20.56V18.29H25v4.54h2.27V20.56Z"/><path class="cls-14" d="M29.24,1.27,31.77,4.7V1.27Z"/><rect class="cls-14" x="29.24" y="0.14" width="2.53" height="0.57"/><path class="cls-14" d="M9.08,11.48h2.27V10.37H9.08v1.11Z"/><path class="cls-14" d="M11.35,18.29H9.08v2.27h2.27Z"/><path class="cls-14" d="M29.5,18.11V16H27.23v2.27H29.5Z"/><rect class="cls-14" x="18.16" y="0.14" width="2.27" height="2.27"/><path class="cls-14" d="M18.16,10.37v1.11h2.26V6.94H18.16v3.43Z"/><path class="cls-15" d="M29.24,1.27H25.6l2.32,3.36H29.5V6.94c0,.41-.05-.08.18.23.67.91,1.39,1.79,2.09,2.68V4.7l-1-1.41c-.49-.67-1-1.35-1.5-2Z"/><path class="cls-15" d="M9.08,13.75h0Z"/><path class="cls-15" d="M20.42,13.79V16h1.64Z"/><path class="cls-15" d="M29.5,27.37H27.23v4.54H29.5v2.27h2.27V29.64H29.5Z"/><path class="cls-15" d="M27.23,27.37h0V22.83H23.67l.75,1.06c.17.23.54.8.54.8v2.68Z"/><path class="cls-15" d="M22.69,9.21H25V6.94H22.69Z"/><path class="cls-13" d="M20.42,13.75a4.94,4.94,0,0,0,.79,1.1L22.06,16H25l-4.54-5.65Z"/><line class="cls-16" x1="31.77" y1="20.56" x2="31.77" y2="20.56"/><path class="cls-16" d="M9.08,16h4.61V13.75H9.08Z"/><path class="cls-16" d="M25.69,16H29.5l-4.08-5.65H29.5V9.21H22.69v1.16H20.42L25,16Z"/><path class="cls-16" d="M9.08,27.37h2.27V25.1H9.08Z"/><path class="cls-1" d="M29.5,9.21v0Z"/><path class="cls-1" d="M29.5,10.37v0Z"/><path class="cls-1" d="M25,.14h0V.7h4.28v.57h2.53V.7H29.24V.14Z"/><path class="cls-1" d="M11.35,6.94V8.08h2.27V6.94Z"/><path class="cls-1" d="M9.08,6.94H6.81V8.08H9.08Z"/><path class="cls-1" d="M11.35,16h0v2.27h0V17.16h2.34V16Z"/><path class="cls-1" d="M13.69,18.29v0Z"/><path class="cls-1" d="M13.62,9.21h2.27v1.14H14.47l.85,1.13h.57V10.35h2.27V9.21H15.89V8.08H13.62V9.21Z"/><rect class="cls-1" x="11.35" y="8.08" height="1.13"/><path class="cls-1" d="M9.08,10.37h2.27V9.21H6.81v1.16Z"/><path class="cls-1" d="M9.08,13.75h2.27l-.83-.82a8.68,8.68,0,0,0-1.35-1.36,1.17,1.17,0,0,0-.68-.09H6.81Z"/><path class="cls-1" d="M11.35,11.48c.68.69,2.34,2.27,2.34,2.27h2.2l-1-.95c-.37-.38-1.24-1.32-1.24-1.32H11.35V10.37h0v1.11Z"/><path class="cls-1" d="M20.42,13.79c0-.77,0-1.54,0-2.31H15.89l2.27,2.27H17c.57.76,1.14,1.51,1.7,2.27h1.7Z"/><path class="cls-1" d="M9.08,17.16v1.13h.57V16H9.08Z"/><path class="cls-1" d="M10.21,17.16v1.13h.57V16h-.57v1.14Z"/><path class="cls-1" d="M11.92,31.91h-.57v2.27h.57Z"/><path class="cls-1" d="M13.05,31.91h-.57v2.27h.57V31.91Z"/><path class="cls-1" d="M9.65,31.91H9.08v2.27h.57Z"/><path class="cls-1" d="M10.78,31.91h-.57v2.27h.57Z"/><path class="cls-1" d="M23.26.7V.14h-.57V2.4h.57Z"/><path class="cls-1" d="M24.4.7V.14h-.57V2.4h.57Z"/><path class="cls-1" d="M21,.7V.14h-.57V2.4H21Z"/><path class="cls-1" d="M22.13.7V.14h-.57V2.4h.57V.7Z"/><path class="cls-1" d="M20.42,3.54V2.4H19.29V6.94h1.13V3.54Z"/><path class="cls-1" d="M6.24,28.43V27.37H5.67v2.27h.57Z"/><path class="cls-1" d="M2.27,12.62v1.13h.57V12.62Z"/><path class="cls-1" d="M1.7,12.62H1.14v1.13H1.7Z"/><rect class="cls-1" x="4.54" y="16.02" width="0.57" height="1.13"/><rect class="cls-1" x="5.67" y="16.02" width="0.57" height="1.13"/><path class="cls-17" d="M29.5,9.21h0v1.16h-.77l3,4.15V9.85l-.9-1.16L29.5,6.94Z"/><path class="cls-17" d="M25,6.94H29.5V4.63H27.92L25.6,1.27H25V2.4H22.89l1.63,2.23H25V6.94Z"/><path class="cls-17" d="M11.35,9.21V6.94H9.08V9.21Z"/><rect x="6.81" y="10.37" width="2.27" height="1.11"/><path d="M9.08,8.08V6.94H11.8L7.64,1.27H6.81V6.94H9.08V8.08H6.81V9.21H9.08Z"/><path d="M13.62,8.08h2.27V6.94H13.62Z"/><path d="M4.42,1.27H6.81V.14H4.42Z"/><path d="M22.69,10.37V6.94H20.42v3.43Z"/><path d="M2.27,9.21h0v1.16H6.81V9.21Z"/><path d="M11.35,8.08h0V9.21h0v1.16h0v1.11h2.34s.84.91,1.2,1.27l1,1h-2.2l-2.34-2.27H9.08l2.27,2.27h2.34V16h0v1.14H11.35v1.13h2.34v0h2.2v2.27H6.81V25.1h9.08v2.27H6.24v2.27h.57v4.53H9.08V31.91h.57v2.26h.56V31.91h.57v2.26h.57V31.91h.57v2.26h.56V31.91h.57v2.26h7.38V16H18.72c-.56-.76-1.13-1.51-1.7-2.27h1.14l-1.53-1.53-.74-.74h-.57l-.85-1.13h1.42V9.21H13.62V8.08H11.35Z"/><path d="M15.89,11.48h2.27V10.35H15.89v1.13Z"/><line x1="6.81" y1="16.02" x2="6.81" y2="16.02"/><path d="M6.81,16"/><path d="M6.81,13.75,4.54,11.48H6.81l.15.15,2.12,2.12h0v1.14H6.81Z"/><path d="M19.29,6.94V2.4H18.15V6.94h1.14Z"/><path d="M10.21,17.16V16H9.65v2.27h.56Z"/><path d="M9.08,18.29V16H8.51v2.27Z"/><path d="M10.78,17.16v1.13h.57V16h-.57Z"/><path d="M7.94,17.16V16H7.38v2.27h.56Z"/><path d="M21,.7V2.4h.57V.14h.57V2.4h.56V.14h.57V2.4h.57V.14h.57V2.4H25V1.27h4.28V.7H25V.14H21V.7Z"/><path d="M5.67,28.43V27.37H5.11v2.27h.56Z"/><path d="M4.61,12.62H3.85v1.13h.76Z"/><path d="M6.81,16H6.24v1.14h.57Z"/><rect x="5.11" y="16.02" width="0.57" height="1.13"/><path class="cls-19" d="M25,5.24V4.63h-.44L22.89,2.4H20.43V6.94H25Z"/><path class="cls-19" d="M27.88,9.21H29.5V6.94H25V9.21Z"/><path class="cls-19" d="M34,15.81V14.5l-.52-.71-1-1.42-1.48-2H27.69L31.77,16H34"/><polygon class="cls-14" points="34.3 4.79 34.3 0.13 31.77 0.13 31.77 1.28 34.3 4.79"/><rect class="cls-1" x="1.59" y="12.62" width="0.76" height="1.13"/><path class="cls-1" d="M6.81,13.75,4.55,11.48H2.76l1.13,1.14H3.1v1.13h.75V12.62h.76v1.13Z"/><polygon class="cls-1" points="0.83 12.62 0.83 12.62 0.07 12.62 0 12.62 0 13.75 0.57 13.75 0.83 13.75 0.83 12.62"/><rect x="2.34" y="12.62" width="0.76" height="1.13"/><rect x="0.83" y="12.62" width="0.76" height="1.13"/><rect class="cls-1" x="3.85" y="5.81" width="0.76" height="1.13"/><rect class="cls-1" x="5.37" y="5.81" width="0.76" height="1.13"/><rect class="cls-1" x="2.34" y="5.81" width="0.76" height="1.13"/><rect x="4.61" y="5.81" width="0.76" height="1.13"/><rect x="3.1" y="5.81" width="0.76" height="1.13"/><path d="M6.88,5.81H6.12V6.94h.76Z"/><polygon class="cls-1" points="32.34 33.07 32.34 33.07 32.34 32.05 32.34 31.94 32.34 29.67 31.77 29.67 31.77 31.94 31.77 32.05 31.77 33.07 31.77 34.16 32.34 34.16 32.34 33.07"/><polygon class="cls-1" points="33.47 33.07 33.47 32.05 33.47 31.94 33.47 29.67 32.9 29.67 32.9 31.94 32.9 32.05 32.9 33.07 32.9 34.16 33.47 34.16 33.47 33.07"/><polygon points="32.9 33.07 32.9 32.05 32.9 31.94 32.9 29.67 32.34 29.67 32.34 31.94 32.34 32.05 32.34 33.07 32.34 34.16 32.9 34.16 32.9 33.07"/><polygon points="34.04 33.07 34.04 32.05 34.04 31.94 34.04 29.67 33.47 29.67 33.47 31.94 33.47 32.05 33.47 33.07 33.47 34.16 34.04 34.16 34.04 33.07"/><rect class="cls-35" x="157.89" y="21.85" width="0.65" height="0.94"/><polygon class="cls-36" points="165.02 21.85 163.9 21.85 163.9 22.79 164.7 22.79 165.02 22.79 165.02 21.85"/><rect class="cls-36" x="161.78" y="21.85" width="0.63" height="0.94"/><polygon class="cls-36" points="163.9 21.85 162.42 21.85 162.41 22.79 162.43 22.79 163.9 22.79 163.9 21.85"/><rect class="cls-36" x="162.41" y="21.85" width="0.01" height="0.94"/><polygon class="cls-37" points="166.97 22.79 168.26 22.79 168.26 21.85 165.02 21.85 165.02 22.79 166.97 22.79"/><polygon class="cls-38" points="160.16 20.52 160.16 18.25 160.16 18.25 160.16 18.23 159.4 18.23 159.02 18.23 157.89 18.23 157.89 18.25 157.89 18.25 157.89 20.52 159.02 20.52 160.16 20.52"/><polygon class="cls-39" points="160.16 18.25 160.16 20.52 160.2 20.52 161.29 20.52 162.41 20.52 162.43 20.52 162.43 18.25 162.43 18.25 162.43 18.22 162.41 18.22 161.29 18.22 160.16 18.22 160.16 18.23 160.16 18.25 160.16 18.25"/><rect class="cls-2" x="153.35" y="25.06" width="2.27" height="1.13"/><polygon class="cls-40" points="148.81 11.44 148.81 11.44 148.81 11.43 148.81 11.43 148.81 9.17 146.54 9.17 146.54 11.44 148.81 11.44"/><polygon class="cls-41" points="151.08 11.43 151.08 9.17 149.94 9.17 148.81 9.17 148.81 11.43 148.81 11.43 148.81 11.44 151.08 11.44 151.08 11.43 151.08 11.43"/><polygon class="cls-42" points="155.62 11.43 155.62 9.17 154.48 9.17 153.35 9.17 153.35 11.43 153.35 11.43 153.35 11.44 155.62 11.44 155.62 11.43 155.62 11.43"/><polygon class="cls-43" points="157.89 11.43 157.89 9.17 156.75 9.17 156.38 9.17 155.62 9.17 155.62 11.43 155.62 11.43 155.62 11.44 156.38 11.44 157.89 11.44 157.89 11.43 157.89 11.43"/><polygon class="cls-44" points="153.35 11.43 153.35 9.17 152.21 9.17 151.08 9.17 151.08 11.43 151.08 11.43 151.08 11.44 153.35 11.44 153.35 11.43 153.35 11.43"/><polygon class="cls-9" points="151.08 25.06 151.08 26.19 153.35 26.19 153.35 25.06 152.22 25.06 151.08 25.06"/><polygon class="cls-10" points="169.24 10.31 169.24 9.17 168.08 9.17 167.96 9.17 166.98 9.17 166.98 11.38 166.98 11.44 167.96 11.44 169.24 11.44 169.24 10.31"/><polyline class="cls-11" points="173.78 14.82 171.5 14.82 171.5 15.51 171.5 15.94 173.78 15.94 173.78 14.82"/><polygon class="cls-11" points="153.35 18.25 153.35 18.25 152.49 18.25 151.08 18.25 151.08 18.25 151.08 18.32 151.08 20.52 152.49 20.52 153.35 20.52 153.35 18.32 153.35 18.25"/><polygon class="cls-12" points="155.62 18.25 155.62 18.25 153.35 18.25 153.35 18.25 153.35 18.32 153.35 20.52 154.39 20.52 155.62 20.52 155.62 18.32 155.62 18.25"/><rect class="cls-25" x="144.27" y="2.36" width="2.27" height="2.27"/><rect class="cls-26" x="148.81" y="26.19" width="2.27" height="1.13"/><rect class="cls-26" x="146.54" y="2.36" width="2.27" height="2.27"/><rect class="cls-27" x="153.35" y="26.19" width="2.27" height="1.13"/><rect class="cls-27" x="151.08" y="2.36" width="2.27" height="2.27"/><rect class="cls-28" x="155.62" y="26.19" width="2.27" height="1.13"/><polygon class="cls-28" points="154.11 4.63 154.49 4.63 155.62 4.63 155.62 2.36 154.11 2.36 153.35 2.36 153.35 4.63 154.11 4.63"/><polygon class="cls-13" points="157.89 12.57 157.89 11.44 156.38 11.44 155.62 11.44 153.35 11.44 151.08 11.44 148.81 11.44 146.54 11.44 144.27 11.44 142 11.44 142 12.57 146.54 12.57 148.81 12.57 157.89 12.57"/><polygon class="cls-13" points="166.97 13.71 166.97 15.98 173.78 15.98 173.78 15.07 173.78 14.16 173.78 13.71 167.19 13.71 166.97 13.71"/><polygon class="cls-14" points="148.81 23.92 149.95 23.92 151.08 23.92 152.22 23.92 153.35 23.92 153.35 22.79 152.22 22.79 151.08 22.79 149.95 22.79 148.81 22.79 148.81 22.79 148.81 23.92 148.81 23.92"/><rect class="cls-14" x="151.08" y="26.19" width="2.27" height="1.13"/><rect class="cls-14" x="148.81" y="2.36" width="2.27" height="2.27"/><polygon class="cls-14" points="162.43 13.26 162.43 13.71 162.51 13.71 162.65 13.71 163.22 13.71 163.78 13.71 164.41 13.71 164.42 13.71 164.7 13.71 164.7 13.26 164.7 12.57 164.7 11.44 164.41 11.44 162.43 11.44 162.43 12.57 162.43 13.26"/><polygon class="cls-15" points="157.89 18.25 156.38 18.25 156.29 18.25 155.62 18.25 155.62 18.25 155.62 18.32 155.62 20.52 156.29 20.52 157.89 20.52 157.89 18.25 157.89 18.25"/><polygon class="cls-15" points="151.08 25.06 151.08 25.06 149.95 25.06 148.81 25.06 148.81 26.19 151.08 26.19 151.08 25.06"/><polygon class="cls-15" points="148.81 22.79 149.95 22.79 151.08 22.79 152.22 22.79 153.35 22.79 152.49 22.79 152.22 22.79 152.05 22.79 151.08 22.79 149.95 22.79 148.81 22.79 148.81 22.79 148.81 22.79"/><polygon class="cls-15" points="165.02 21.85 168.26 21.85 171.51 21.85 171.51 22.79 173.78 22.79 173.78 20.52 164.82 20.52 163.9 20.52 163.9 21.85 165.02 21.85"/><polygon class="cls-15" points="160.16 21.85 160.16 21.42 160.16 21.29 160.16 21.13 160.16 20.52 159.02 20.52 157.89 20.52 157.89 21.13 157.89 21.29 157.89 21.85 158.54 21.85 160.16 21.85"/><polygon class="cls-15" points="158.6 13.71 159.02 13.71 160.16 13.71 160.2 13.71 161.29 13.71 162.42 13.71 162.43 13.71 162.43 13.71 162.43 13.26 162.43 12.57 162.43 11.44 162.42 11.44 160.16 11.44 159.4 11.44 158.6 11.44 157.89 11.44 157.89 12.57 157.89 13.26 157.89 13.71 158.6 13.71"/><path class="cls-16" d="M173.78,9.17v0Z"/><polygon class="cls-1" points="148.81 22.79 149.95 22.79 151.08 22.79 151.08 21.85 149.95 21.85 148.81 21.85 148.81 21.42 148.81 21.13 148.81 20.52 151.08 20.52 151.08 18.32 151.08 18.25 151.08 18.25 148.81 18.25 148.81 18.25 148.68 18.25 148.68 22.79 148.81 22.79 148.81 22.79"/><polygon class="cls-1" points="159.4 9.17 160.16 9.17 160.16 11.43 160.16 11.43 160.16 11.44 162.42 11.44 162.43 11.44 162.43 11.43 162.43 11.43 162.43 9.17 162.43 6.9 162.43 4.63 162.43 0.09 162.43 0.09 160.16 0.09 160.16 6.87 159.02 9.17 159.4 9.17"/><polygon class="cls-1" points="152.21 9.17 153.35 6.87 151.08 6.87 149.94 9.17 151.08 9.17 152.21 9.17"/><polygon class="cls-1" points="153.35 23.92 153.35 23.92 153.35 22.79 153.35 23.92"/><polygon class="cls-1" points="151.08 23.92 151.08 23.92 151.08 25.06 152.22 25.06 153.35 25.06 153.35 23.92 152.22 23.92 151.08 23.92"/><rect class="cls-1" x="171.51" y="13.69" width="2.27" height="1.13"/><polygon class="cls-1" points="169.24 12.57 170.23 12.57 170.23 11.44 173.78 11.44 173.78 9.17 171.53 9.17 171.51 9.17 171.49 9.17 171.49 10.31 171.49 11.44 169.25 11.44 169.24 11.44 167.96 11.44 166.97 11.44 164.7 11.44 164.7 12.57 169.24 12.57"/><polygon class="cls-1" points="154.11 4.63 153.35 4.63 151.08 4.63 148.81 4.63 148.81 5.77 154.49 5.77 154.49 4.63 154.11 4.63"/><rect class="cls-1" x="143.14" y="5.77" width="5.67" height="1.11"/><polygon class="cls-1" points="154.49 6.87 155.62 6.87 154.48 9.17 155.62 9.17 156.38 9.17 156.75 9.17 157.89 6.87 160.16 6.87 160.16 5.77 154.49 5.77 154.49 6.87"/><polygon class="cls-1" points="147.11 25.06 146.54 25.06 146.54 26.19 146.54 27.33 147.11 27.33 147.11 26.19 147.11 25.06"/><polygon class="cls-1" points="148.25 25.06 147.68 25.06 147.68 26.19 147.68 27.33 148.25 27.33 148.25 26.19 148.25 25.06"/><polygon class="cls-1" points="145.97 25.06 145.41 25.06 145.41 26.19 145.41 27.33 145.97 27.33 145.97 26.19 145.97 25.06"/><rect class="cls-1" x="151.08" y="0.09" width="0.57" height="2.27"/><rect class="cls-1" x="152.22" y="0.09" width="0.57" height="2.27"/><rect class="cls-1" x="148.81" y="0.09" width="0.57" height="2.27"/><rect class="cls-1" x="149.95" y="0.09" width="0.57" height="2.27"/><rect class="cls-1" x="169.24" y="31.9" width="0.57" height="2.23"/><rect class="cls-1" x="170.37" y="31.9" width="0.57" height="2.23"/><rect class="cls-1" x="166.97" y="31.9" width="0.57" height="2.23"/><rect class="cls-1" x="168.1" y="31.9" width="0.57" height="2.23"/><rect class="cls-1" x="164.7" y="32.43" width="1.13" height="1.7"/><rect class="cls-1" x="148.25" y="29.6" width="0.57" height="2.27"/><rect class="cls-1" x="145.98" y="29.6" width="0.57" height="2.27"/><polygon class="cls-1" points="146.54 31.86 146.54 32.43 147.68 32.43 147.68 31.86 147.68 29.59 147.11 29.59 147.11 31.86 146.54 31.86"/><rect class="cls-1" x="144.27" y="31.86" width="1.13" height="0.57"/><rect class="cls-1" x="142" y="31.86" width="1.13" height="0.57"/><polygon class="cls-1" points="151.08 31.86 150.51 31.86 149.95 31.86 149.95 29.59 149.38 29.59 149.38 31.86 148.81 31.86 148.81 32.43 151.08 32.43 151.08 31.86"/><rect class="cls-1" x="153.35" y="31.86" width="2.27" height="0.57"/><polygon class="cls-17" points="171.51 13.26 170.23 13.26 170.23 13.71 167.19 13.71 173.78 13.71 173.78 13.26 171.51 13.26"/><polygon class="cls-17" points="150.51 13.71 151.08 13.71 153.35 13.71 155.62 13.71 157.89 13.71 157.89 13.26 148.81 13.26 148.81 13.71 149.38 13.71 149.95 13.71 150.51 13.71"/><polygon class="cls-17" points="173.78 18.25 164.82 18.25 163.9 18.25 162.65 18.25 162.65 18.25 162.65 18.21 162.43 18.21 162.43 18.22 162.43 18.25 162.43 18.25 162.43 20.52 162.51 20.52 163.9 20.52 164.82 20.52 173.78 20.52 173.78 19.93 173.78 18.25"/><polygon points="170.23 11.44 170.23 12.57 171.51 12.57 173.78 12.57 173.78 11.44 170.23 11.44"/><polygon points="149.94 9.17 151.08 6.87 153.35 6.87 152.21 9.17 153.35 9.17 154.48 9.17 155.62 6.87 154.49 6.87 154.49 5.77 148.81 5.77 148.81 6.87 148.81 9.17 149.94 9.17"/><path d="M148.81,13.71v0Z"/><polygon points="161.29 20.52 160.2 20.52 160.16 20.52 160.16 21.13 160.16 21.29 160.16 21.42 160.16 21.85 161.78 21.85 162.41 21.85 162.42 21.85 163.9 21.85 163.9 20.52 162.51 20.52 162.43 20.52 162.41 20.52 161.29 20.52"/><path d="M153.35,31.86h2.27v.57h-2.27Zm-4,0V29.6H150v2.26h1.13v.57h-2.27v1.7h11.35V23.92h2.69l.06-1.13h-5V20.52h-9.08v1.33h2.27v.94h2.27v2.27h2.27v1.13h2.27v1.14h-9.08v4.53Z"/><polygon points="153.35 2.36 154.11 2.36 155.62 2.36 155.62 4.63 154.49 4.63 154.49 5.77 160.16 5.77 160.16 4.63 160.16 2.36 160.16 0.09 153.35 0.09 152.78 0.09 152.78 2.36 152.22 2.36 152.22 0.09 151.65 0.09 151.65 2.36 151.08 2.36 151.08 0.09 150.51 0.09 150.51 2.36 149.95 2.36 149.95 0.09 149.38 0.09 149.38 2.36 148.81 2.36 151.08 2.36 153.35 2.36"/><polygon points="148.81 4.63 146.54 4.63 144.27 4.63 143.14 4.63 143.14 5.77 148.81 5.77 148.81 4.63"/><polygon points="147.68 25.06 147.11 25.06 147.11 26.19 147.11 27.33 147.68 27.33 147.68 26.19 147.68 25.06"/><polygon points="146.54 25.06 145.97 25.06 145.97 26.19 145.97 27.33 146.54 27.33 146.54 26.19 146.54 25.06"/><polygon points="148.81 25.06 149.95 25.06 151.08 25.06 151.08 23.92 149.95 23.92 148.81 23.92 148.81 23.92 148.81 25.06 148.81 25.06"/><polygon points="148.81 25.06 148.81 25.06 148.25 25.06 148.25 26.19 148.25 27.33 148.81 27.33 148.81 26.19 148.81 25.06"/><polygon points="145.41 25.06 144.84 25.06 144.84 26.19 144.84 27.33 145.41 27.33 145.41 26.19 145.41 25.06"/><polygon points="156.75 9.17 157.89 9.17 157.89 11.43 157.89 11.43 157.89 11.44 158.6 11.44 159.4 11.44 160.16 11.44 160.16 11.43 160.16 11.43 160.16 9.17 159.4 9.17 159.02 9.17 160.16 6.87 157.89 6.87 156.75 9.17"/><rect x="146.54" y="29.6" width="0.57" height="2.27"/><polygon points="146.54 32.43 146.54 31.86 145.97 31.86 145.41 31.86 145.41 32.43 146.54 32.43"/><rect x="143.14" y="31.86" width="1.13" height="0.57"/><polygon points="147.68 31.86 147.68 32.43 148.81 32.43 148.81 31.86 148.25 31.86 148.25 29.59 147.68 29.59 147.68 31.86"/><rect x="140.87" y="31.86" width="1.13" height="0.57"/><polygon points="162.43 6.9 162.43 9.17 162.43 11.43 162.43 11.43 162.43 11.44 164.41 11.44 164.7 11.44 166.97 11.44 167.96 11.44 166.98 11.44 166.98 11.38 166.98 9.17 167.96 9.17 168.08 9.17 169.24 9.17 169.25 9.17 171.49 9.17 171.51 9.17 171.53 9.17 173.78 9.17 173.78 6.9 173.78 0.09 173.43 0.09 172.86 0.09 172.64 0.09 172.29 0.09 171.72 0.09 171.16 0.09 170.59 0.09 170.02 0.09 169.46 0.09 162.43 0.09 162.43 4.63 162.43 6.9"/><path d="M173.78,9.17v0Z"/><polygon class="cls-18" points="169.24 9.17 169.24 10.31 169.24 11.44 169.25 11.44 171.49 11.44 171.49 10.31 171.49 9.17 169.25 9.17 169.24 9.17"/><polygon class="cls-19" points="173.78 13.26 173.78 12.57 171.51 12.57 170.23 12.57 170.23 13.26 171.51 13.26 173.78 13.26"/><polygon class="cls-19" points="148.81 13.26 157.89 13.26 157.89 12.57 148.81 12.57 146.54 12.57 146.54 13.26 148.81 13.26"/><polygon class="cls-16" points="158.54 21.85 158.54 22.79 160.16 22.79 161.78 22.79 161.78 21.85 160.16 21.85 158.54 21.85"/><polygon class="cls-1" points="149.14 11.44 149.14 12.01 150.11 12.01 150.11 11.44 149.62 11.44 149.14 11.44"/><rect class="cls-1" x="147.19" y="11.44" width="0.97" height="0.57"/><rect class="cls-1" x="145.25" y="11.44" width="0.97" height="0.57"/><polygon points="149.14 12.01 149.14 11.44 148.65 11.44 148.16 11.44 148.16 12.01 149.14 12.01"/><rect x="146.22" y="11.44" width="0.97" height="0.57"/><polygon points="150.11 11.44 150.11 12.01 151.08 12.01 151.08 11.44 150.6 11.44 150.11 11.44"/><rect x="144.27" y="11.44" width="0.97" height="0.57"/><rect class="cls-4" x="146.54" y="15.98" width="2.27" height="2.27"/><rect class="cls-3" x="144.27" y="15.98" width="2.27" height="2.27"/><rect class="cls-17" x="148.81" y="15.98" width="2.27" height="2.27"/><rect class="cls-45" x="151.08" y="15.98" width="2.27" height="2.27"/><rect class="cls-44" x="153.35" y="15.98" width="2.27" height="2.27"/><rect class="cls-19" x="155.62" y="15.98" width="18.15" height="2.27"/><rect class="cls-19" x="148.81" y="13.71" width="18.15" height="2.27"/><rect x="164.7" y="11.44" width="6.81" height="2.27"/><rect x="162.43" y="22.79" width="11.35" height="11.35"/><rect class="cls-7" x="179.09" y="16" width="2.27" height="2.25"/><rect class="cls-8" x="182.12" y="16" width="1.51" height="2.25"/><rect class="cls-8" x="181.36" y="16" width="0.76" height="2.25"/><rect class="cls-10" x="183.61" y="0.11" width="2.28" height="2.27"/><path class="cls-31" d="M176.82,16V11.46h-2.27V16Z"/><rect class="cls-13" x="192.7" y="22.79" width="2.27" height="2.27"/><path class="cls-32" d="M181.36,16V11.46h-2.27V16Z"/><path class="cls-17" d="M188.16,25.06h2.27V22.79h-2.27Z"/><rect class="cls-33" x="174.54" y="11.44" width="2.27" height="4.54"/><rect class="cls-16" x="194.97" y="22.79" width="2.27" height="2.27"/><path class="cls-34" d="M181.36,16h2.27V11.46h-2.27Z"/><path class="cls-15" d="M185.89,25.06h2.27V22.79h-2.27Z"/><polygon class="cls-13" points="179.08 22.79 179.08 22.79 181.35 22.79 179.08 22.79"/><rect class="cls-14" x="181.35" y="22.79" width="2.27" height="2.27"/><path class="cls-13" d="M181.35,29.6h0V27.33h-2.27V29.6Z"/><path class="cls-13" d="M179.09,11.46h-2.27V16h2.27Z"/><path class="cls-19" d="M190.43,22.79v2.27h2.27V22.79"/><line class="cls-19" x1="194.97" y1="25.06" x2="194.97" y2="25.06"/><polygon class="cls-14" points="185.89 31.86 185.89 31.86 185.89 31.86 185.89 34.13 190.43 34.13 190.43 31.86 185.89 31.86"/><polygon class="cls-14" points="194.97 31.86 194.97 31.86 194.97 34.13 197.24 34.13 197.24 31.86 194.97 31.86"/><rect class="cls-14" x="179.08" y="31.86" width="2.27" height="2.27"/><polygon class="cls-15" points="185.89 31.86 185.89 31.86 190.43 31.86 185.89 31.86"/><path class="cls-15" d="M179.09,20.54h-2.27v2.27h2.27Z"/><path class="cls-15" d="M183.62,29.6h-4.54v2.26h4.54V29.6h2.27v1.13H195v1.14h2.27V29.6H183.62Z"/><polygon class="cls-16" points="179.09 18.25 179.09 16 176.82 16 176.82 18.27 179.09 18.27 179.09 18.25"/><path class="cls-1" d="M181.36,18.25v2.29h2.27v2.27h.57V20.54h-.57V18.25Z"/><path class="cls-1" d="M181.35,28.46h2.27V27.33h-2.27Z"/><rect class="cls-1" x="183.62" y="28.46" width="2.27" height="1.13"/><path class="cls-1" d="M188.17,13.73H187v4.54h1.14Z"/><rect class="cls-1" x="188.17" y="9.19" width="1.13" height="4.54"/><path class="cls-1" d="M185.89,31.3H195v-.57h-9.08Z"/><path class="cls-1" d="M186.47,22.81V20.54h-.57v2.27Z"/><path class="cls-1" d="M187.6,22.81V20.54H187v2.27Z"/><rect class="cls-1" x="184.76" y="20.54" width="0.57" height="2.27"/><path class="cls-1" d="M193.27,31.86h-.57v2.27h.57Z"/><path class="cls-1" d="M194.4,31.86h-.57v2.27h.57V31.86Z"/><path class="cls-1" d="M191,31.86h-.57v2.27H191Z"/><path class="cls-1" d="M192.13,31.86h-.57v2.27h.57Z"/><rect class="cls-1" x="181.35" y="31.86" width="1.51" height="2.27"/><path class="cls-1" d="M185.89,31.86h-1.51v2.27h1.51Z"/><path class="cls-1" d="M176.82,11.46h1.51V9.19h-1.51Z"/><path class="cls-1" d="M181.36,11.46V9.19h-1.51v2.27Z"/><polygon class="cls-17" points="185.89 28.46 185.89 29.6 197.24 29.59 197.24 27.33 185.89 27.33 185.89 28.46"/><polygon class="cls-17" points="179.08 27.33 179.08 27.33 181.35 27.33 179.08 27.33"/><path class="cls-17" d="M185.89,31.86V30.73h0V29.6h-2.27v2.26Z"/><path class="cls-17" d="M179.09,20.54h0v2.27h2.27V20.54Z"/><path d="M179.09,20.54h2.27V18.25h-2.27v0h-2.27v2.27Z"/><path d="M178.33,11.46h1.52V9.19h1.51v2.27h2.27V16h0v4.54h.57v2.27h.56V20.54h.57v2.27h.57V20.54h.57v2.27H187V20.54h.57v2.27h.57V18.27H187V13.73h1.14V2.38h-2.28v0h-2.28V.11h-6.79V9.19h1.52v2.27Z"/><path d="M181.35,22.79h2.27v2.27l-1.31,1.3-1,.95h1l1.32,0,1.23-1.23c.32-.33,1-1,1-1V22.79h-4.54Z"/><rect x="183.62" y="27.33" width="2.27" height="1.13"/><path d="M181.35,28.46h0V29.6h2.27V28.46Z"/><polygon points="188.17 16 188.17 18.27 189.3 18.27 189.3 13.73 188.17 13.73 188.17 16"/><path d="M176.81,29.6v2.26h2.27V29.6Z"/><path d="M179.08,25.06v2.25l2.27-2.25Z"/><path d="M195,31.86V31.3h-9.08v.56H191v2.27h.56V31.86h.57v2.27h.57V31.86h.57v2.27h.56V31.86h.57v2.27H195Z"/><path d="M184.38,31.86h-1.52v2.27h1.52Z"/><rect class="cls-18" x="185.89" y="0.12" width="2.28" height="2.27"/><path class="cls-19" d="M176.81,29.6h2.27V27.33h-2.27Z"/><path class="cls-19" d="M183.63,22.81V20.54h-2.27v2.27Z"/><path class="cls-14" d="M179.08,25.06h2.27V22.79h-2.27Z"/><rect class="cls-1" x="176.07" y="16" width="0.76" height="1.13"/><rect class="cls-1" x="177.58" y="16" width="0.76" height="1.13"/><rect class="cls-1" x="174.55" y="16" width="0.76" height="1.13"/><rect x="176.82" y="16" width="0.76" height="1.13"/><rect x="175.31" y="16" width="0.76" height="1.13"/><path d="M179.09,16h-.76v1.13h.76Z"/><rect class="cls-1" x="178.33" y="17.13" width="0.76" height="1.13"/><rect class="cls-1" x="179.85" y="17.13" width="0.76" height="1.13"/><rect class="cls-1" x="176.82" y="17.13" width="0.76" height="1.13"/><rect x="179.09" y="17.13" width="0.76" height="1.13"/><rect x="177.58" y="17.13" width="0.76" height="1.13"/><path d="M181.36,17.13h-.76v1.14h.76Z"/><rect class="cls-1" x="178.33" y="0.11" width="0.76" height="2.27"/><rect class="cls-1" x="179.85" y="0.11" width="0.76" height="2.27"/><rect class="cls-1" x="174.55" y="0.11" width="3.03" height="2.27"/><rect x="179.09" y="0.11" width="0.76" height="2.27"/><rect x="177.58" y="0.11" width="0.76" height="2.27"/><path d="M181.36.11h-.76V2.38h.76Z"/><rect class="cls-1" x="185.14" y="2.95" width="0.76" height="0.57"/><rect class="cls-1" x="186.66" y="2.95" width="0.76" height="0.57"/><rect class="cls-1" x="183.63" y="2.95" width="0.76" height="0.57"/><rect x="185.9" y="2.95" width="0.76" height="0.57"/><rect x="184.39" y="2.95" width="0.76" height="0.57"/><path d="M188.17,3h-.76v.57h.76Z"/><rect class="cls-1" x="176.07" y="1.82" width="0.76" height="0.57"/><rect class="cls-1" x="177.58" y="1.82" width="0.76" height="0.57"/><rect class="cls-1" x="174.55" y="1.82" width="0.76" height="0.57"/><rect x="176.82" y="1.82" width="0.76" height="0.57"/><rect x="175.31" y="1.82" width="0.76" height="0.57"/><path d="M179.09,1.82h-.76v.56h.76Z"/><rect class="cls-1" x="173.79" y="4.06" width="0.76" height="0.57"/><rect class="cls-1" x="175.3" y="4.06" width="0.76" height="0.57"/><rect class="cls-1" x="172.27" y="4.06" width="0.76" height="0.57"/><rect x="174.54" y="4.06" width="0.76" height="0.57"/><rect x="173.03" y="4.06" width="0.76" height="0.57"/><path d="M176.81,4.06h-.75v.57h.75Z"/><path d="M192.7,25.06"/><polygon points="185.89 27.33 188.16 25.06 190.43 25.06 188.16 27.33 185.89 27.33"/><polygon class="cls-1" points="183.62 27.33 185.89 25.06 188.16 25.06 185.89 27.33 183.62 27.33"/><polygon points="190.43 27.33 192.7 25.06 194.97 25.06 192.7 27.33 190.43 27.33"/><polygon points="194.97 27.33 197.24 25.06 197.24 27.33 194.97 27.33"/><polygon class="cls-1" points="179.08 27.33 181.35 25.06 183.62 25.06 181.35 27.33 179.08 27.33"/><polygon class="cls-1" points="188.16 27.33 190.43 25.06 192.7 25.06 190.43 27.33 188.16 27.33"/><polygon class="cls-1" points="192.7 27.33 194.97 25.06 197.24 25.06 194.97 27.33 192.7 27.33"/><rect class="cls-2" x="204.35" y="12.58" width="2.27" height="1.13"/><polygon class="cls-3" points="199.81 11.44 198.68 11.44 197.54 11.44 197.54 12.58 199.81 12.58 199.81 11.44"/><polygon class="cls-3" points="199.81 11.44 199.81 11.44 199.81 12.58 199.81 11.44"/><path class="cls-3" d="M199.81,11.44Z"/><polygon class="cls-4" points="202.08 11.44 202.08 11.44 199.81 11.44 202.08 11.44"/><rect class="cls-4" x="199.81" y="11.44" width="2.27" height="1.13"/><polygon class="cls-5" points="206.62 11.44 206.62 11.44 204.35 11.44 206.62 11.44"/><path class="cls-5" d="M206.62,11.44h0Z"/><rect class="cls-5" x="204.35" y="11.44" width="2.27" height="1.13"/><polygon class="cls-6" points="206.62 11.44 207.19 11.44 207.75 11.44 208.32 11.44 208.89 11.44 206.62 11.44"/><rect class="cls-7" x="197.54" y="6.9" width="1.13" height="2.27"/><rect class="cls-7" x="198.68" y="6.9" width="0.38" height="2.27"/><rect class="cls-7" x="199.06" y="6.9" width="0.38" height="2.27"/><rect class="cls-7" x="199.43" y="6.9" width="0.38" height="2.27"/><path class="cls-7" d="M199.81,6.9Z"/><path class="cls-7" d="M199.81,9.17v0Z"/><polygon class="cls-8" points="201.7 6.9 201.7 6.9 202.08 6.9 201.7 6.9"/><polygon class="cls-8" points="201.32 6.9 201.32 6.9 201.7 6.9 201.32 6.9"/><polygon class="cls-8" points="200.95 6.9 200.95 6.9 201.33 6.9 200.95 6.9"/><polygon class="cls-8" points="200.57 6.9 200.57 6.9 200.95 6.9 200.57 6.9"/><polygon class="cls-8" points="199.81 6.9 199.81 6.9 200.57 6.9 199.81 6.9"/><rect class="cls-9" x="202.08" y="12.58" width="2.27" height="1.13"/><polygon class="cls-10" points="206.63 16 206.63 18.25 208.89 18.25 208.89 16 208.89 15.98 206.63 15.98 206.63 16"/><polygon class="cls-10" points="206.63 9.17 208.89 9.17 208.89 6.9 208.13 6.9 206.63 6.9 206.63 9.17"/><line class="cls-11" x1="197.54" y1="13.71" x2="197.54" y2="12.58"/><polygon class="cls-12" points="199.81 12.58 199.81 12.58 197.54 12.58 197.54 13.71 199.81 13.71 199.81 12.58"/><polygon class="cls-13" points="206.62 5.54 206.62 6.9 206.63 6.9 208.13 6.9 208.89 6.9 211.16 6.9 211.16 5.54 208.89 5.54 206.62 5.54"/><polygon class="cls-14" points="202.08 3.5 202.08 3.5 204.35 3.5 202.08 3.5 202.08 3.5 202.08 2.36 202.08 1.23 204.35 1.23 204.35 0.09 202.08 0.09 202.08 2.36 202.08 3.5"/><polygon class="cls-14" points="208.89 0.1 208.32 0.1 207.75 0.1 207.19 0.1 206.62 0.1 206.62 1.23 206.62 1.46 208.89 1.46 211.16 1.46 211.16 1.23 211.16 0.1 208.89 0.1"/><rect class="cls-15" x="199.81" y="12.58" width="2.27" height="1.13"/><polygon class="cls-15" points="208.89 1.46 206.62 1.46 206.62 2.36 206.62 2.82 208.89 2.82 211.16 2.82 211.16 2.36 211.16 1.46 208.89 1.46"/><polygon class="cls-15" points="202.08 6.9 203.59 6.9 204.35 6.9 204.35 4.63 206.62 4.63 204.35 4.63 204.35 3.5 204.35 4.63 202.08 4.63 199.81 4.63 202.08 4.63 202.08 6.9"/><polygon class="cls-15" points="206.62 0.1 207.19 0.1 207.75 0.1 208.32 0.1 208.89 0.1 208.89 0.09 206.62 0.09 206.62 0.1"/><path class="cls-15" d="M206.62,3.5Z"/><polygon class="cls-16" points="199.81 3.5 199.81 3.5 202.08 3.5 202.08 2.36 202.08 0.09 199.81 0.09 199.81 2.36 199.81 3.5"/><line class="cls-16" x1="197.54" y1="9.17" x2="197.54" y2="6.9"/><rect class="cls-1" x="204.35" y="13.71" width="2.27" height="2.27"/><rect class="cls-1" x="198.68" y="10.31" width="1.13" height="1.13"/><polygon class="cls-1" points="199.81 15.98 199.81 16 199.81 20.52 200.95 20.52 200.95 16 200.95 15.98 202.08 15.98 202.08 13.71 199.81 13.71 199.81 15.98"/><polygon class="cls-1" points="199.81 20.52 199.81 20.52 198.68 20.52 198.68 25.06 199.81 25.06 199.81 20.52"/><polygon class="cls-1" points="199.81 4.63 199.81 4.63 202.08 4.63 204.35 4.63 204.35 3.5 202.08 3.5 202.08 3.5 199.81 3.5 198.82 3.5 197.54 3.5 197.54 4.63 198.82 4.63 199.81 4.63"/><rect class="cls-1" x="206.62" y="31.9" width="0.57" height="2.23"/><rect class="cls-1" x="207.76" y="31.9" width="0.57" height="2.23"/><rect class="cls-1" x="204.35" y="31.9" width="0.57" height="2.23"/><rect class="cls-1" x="205.49" y="31.9" width="0.57" height="2.23"/><rect class="cls-1" x="208.89" y="11.44" width="0.57" height="1.13"/><rect class="cls-1" x="210.02" y="11.44" width="0.57" height="1.13"/><rect class="cls-1" x="206.62" y="11.44" width="0.57" height="1.13"/><polygon class="cls-1" points="207.75 12.58 207.75 12.58 208.32 12.58 208.32 11.44 207.75 11.44 207.75 12.58"/><polygon class="cls-1" points="204.92 1.23 204.92 1.23 204.92 0.1 204.35 0.1 204.35 1.23 204.92 1.23"/><rect class="cls-1" x="205.49" y="0.09" width="0.57" height="1.13"/><rect class="cls-1" x="202.08" y="31.9" width="1.13" height="2.23"/><polygon class="cls-1" points="211.16 15.98 211.16 18.25 213.43 18.25 213.43 15.98 212.86 15.98 212.86 13.71 212.29 13.71 212.29 15.98 211.73 15.98 211.73 13.71 211.16 13.71 211.16 15.98"/><line class="cls-1" x1="197.54" y1="12.58" x2="197.54" y2="11.44"/><rect class="cls-1" x="208.89" y="13.71" width="0.57" height="2.27"/><rect class="cls-1" x="210.02" y="13.71" width="0.57" height="2.27"/><polygon class="cls-17" points="200.57 6.9 200.95 6.9 201.32 6.9 201.7 6.9 202.08 6.9 202.08 4.63 199.81 4.63 199.81 6.9 200.57 6.9"/><polygon class="cls-17" points="204.35 6.9 205.11 6.9 206.62 6.9 206.62 5.54 206.62 4.63 204.35 4.63 204.35 6.9"/><rect class="cls-17" x="202.08" y="11.44" width="2.27" height="1.13"/><polygon class="cls-17" points="204.35 4.63 206.62 4.63 206.62 4.18 208.89 4.18 211.16 4.18 211.16 3.5 211.16 2.82 208.89 2.82 206.62 2.82 206.62 3.5 204.35 3.5 204.35 4.63"/><polygon class="cls-17" points="204.35 1.23 204.35 0.1 204.92 0.1 205.49 0.1 206.05 0.1 206.62 0.1 206.62 0.09 204.35 0.09 204.35 1.23"/><polygon points="204.35 6.9 203.59 6.9 202.08 6.9 201.7 6.9 201.32 6.9 200.95 6.9 200.57 6.9 199.81 6.9 199.81 9.17 199.43 9.17 199.06 9.17 198.68 9.17 198.68 10.31 199.81 10.31 199.81 11.44 202.08 11.44 204.35 11.44 206.62 11.44 208.89 11.44 208.89 9.17 206.63 9.17 206.63 6.9 206.62 6.9 205.11 6.9 204.35 6.9"/><polygon points="199.81 20.52 199.81 16 199.81 15.98 198.68 15.98 198.68 20.52 199.81 20.52"/><polygon points="199.81 3.5 199.81 2.36 197.54 2.36 197.54 3.5 198.82 3.5 199.81 3.5"/><polygon points="211.16 3.5 211.16 4.18 211.16 4.63 211.16 2.36 211.16 2.82 211.16 3.5"/><path d="M208.89,9.17v0Z"/><path d="M210,12.58V11.44h.57v1.14Zm-1.13-1.14h.57v1.14h-.57V11.44h-.57v1.14h-.57V11.44h-.56v1.14h-.57V16h-2.27V13.71h-2.27V16H201v4.54h-1.14V34.13h2.27V31.9h1.14v2.23h1.13V31.9h.57v2.23h.57V31.9h.56v2.23h.57V31.9h.57v2.23h.57V31.9h.56v2.23h2.84V18.25h-2.27v0h-2.26V16h2.26V13.71h.57V16H210V13.71h.57V16h.57V11.44Z"/><polygon points="204.35 3.5 206.62 3.5 206.62 2.82 206.62 2.36 206.62 1.46 206.62 1.23 206.62 0.1 206.05 0.1 206.05 1.23 205.49 1.23 205.49 0.1 204.92 0.1 204.92 1.23 204.35 1.23 202.08 1.23 202.08 2.36 202.08 3.5 202.08 3.5 204.35 3.5 204.35 3.5"/><rect x="211.73" y="13.71" width="0.57" height="2.27"/><rect x="212.86" y="13.71" width="0.57" height="2.27"/><polygon class="cls-18" points="210.02 15.98 209.46 15.98 208.89 15.98 208.89 18.25 211.16 18.25 211.16 15.98 210.59 15.98 210.02 15.98"/><polygon class="cls-18" points="208.89 9.17 208.89 9.17 211.16 9.17 211.16 6.9 208.89 6.9 208.89 9.17"/><rect class="cls-19" x="208.89" y="0.09" width="2.27"/><polygon class="cls-19" points="211.16 5.54 211.16 4.63 211.16 4.18 208.89 4.18 206.62 4.18 206.62 4.63 206.62 5.54 208.89 5.54 211.16 5.54"/><polygon class="cls-16" points="208.89 9.17 208.89 9.17 208.89 11.44 211.16 11.44 211.16 9.17 208.89 9.17"/><rect class="cls-16" x="195.27" y="6.9" width="2.27" height="2.27"/><rect class="cls-1" x="215.34" y="4.59" width="3.97" height="2.31"/><path class="cls-2" d="M221.58,30.73h0l0,0Z"/><path class="cls-2" d="M221.61,30.73h2.24V29.6h-2.27v1.11Z"/><path class="cls-46" d="M226.13,2.28h0V4.59h2.26V2.28Z"/><path class="cls-47" d="M228.39,2.28V4.59h2.5V2.28Z"/><path class="cls-47" d="M228.39,2.6v0S228.36,2.61,228.39,2.6Z"/><path class="cls-47" d="M228.39,2.62v0S228.42,2.62,228.39,2.62Z"/><path class="cls-9" d="M221.58,30.73V29.6h-2.27v1.13Z"/><rect class="cls-10" x="232.93" y="31.82" width="3.4" height="0.04"/><rect class="cls-11" x="212.5" y="29.6" width="2.27" height="1.13"/><path class="cls-12" d="M216.62,29.6h-1.85v1.13H217V29.6Z"/><path class="cls-31" d="M212.5,22.75V20.48h-2.27v2.27Z"/><path class="cls-32" d="M216.3,22.75H217V20.48h-2.27v2.27Z"/><polygon class="cls-33" points="207.96 22.75 207.96 22.75 210.23 22.75 210.23 20.48 207.96 20.48 207.96 22.75"/><path class="cls-34" d="M217.61,20.48H217v2.27h2.27V20.48Z"/><path class="cls-25" d="M221.58,30.73h-2.27v3.4h2.27Z"/><path class="cls-25" d="M219.31,4.59h2.27V2.29h-2.27v2.3Z"/><path class="cls-25" d="M223.85,2.28h2.28V.05h-2.28Z"/><path class="cls-26" d="M223.85,31.86V30.73h-2.27v3.4h2.27Z"/><path class="cls-26" d="M221.58,4.59h2.23V2.28h-2.23V4.59Z"/><path class="cls-26" d="M226.13,2.28h2.26V.05h-2.26Z"/><path class="cls-27" d="M228.39,31.86V30.73h-2.27v3.4h2.27Z"/><path class="cls-28" d="M230.66,31.86V30.73h-2.27v3.4h2.27Z"/><path class="cls-13" d="M234.26,9.11a18.77,18.77,0,0,0-4.62.26,8,8,0,0,0-3.66,2h7Z"/><path class="cls-13" d="M224.36,13.71h0Z"/><path class="cls-13" d="M212.5,22.75h2.27V20.48H212.5Z"/><path class="cls-14" d="M225.25,12.23v1.48h3.14V11.4h-3.14Z"/><rect class="cls-14" x="212.5" y="15.9" width="1.7" height="4.58"/><path class="cls-14" d="M224.36,13.71h-.51V15.9h4.54V13.71Z"/><path class="cls-14" d="M226.12,31.86V30.73h-2.27v3.4h2.27Z"/><path class="cls-14" d="M217,13.71V9.17h-2.26v4.54Z"/><path class="cls-14" d="M219.17,9.17h.14V6.9H217V9.17Z"/><path class="cls-14" d="M220.44,6.9h1.14V4.59h-2.27V6.9Z"/><path class="cls-14" d="M226.13,4.59h0V2.29h-2.32v2.3Z"/><path class="cls-14" d="M228.39,2.28h10L239.73.05c-3,0-6,0-9.07,0h-2.27Z"/><path class="cls-15" d="M221.58,6.21V6.9h2.27v.46C227.66,4.31,232.38,4.6,237,4.6l1.4-2.32h-7.49V4.59h-9.31V6.21Z"/><path class="cls-15" d="M219.31,29.6H217v1.13h2.27Z"/><path class="cls-15" d="M215.91,17.11v3.37h1.7V15.9h1.7V15h0V13.71h2.76V11.4h-2.76V9.17H217v4.54h-1.12V15.9h0v1.21Z"/><path class="cls-16" d="M231.58,11.4h-3.19v2.31h0V15.9h2.27V13.67h2.27V11.4Z"/><path class="cls-1" d="M236.21,18.21h.12l1.13-2.31H235.2l-1.14,2.31Z"/><path class="cls-1" d="M230.66,15.9l-1.14,2.31h2.27l1.14-2.31Z"/><path class="cls-1" d="M228.25,15.9H226.1L225,18.21h2.27l1.14-2.31Z"/><path class="cls-1" d="M221.56,15.9l-2.25,4.58h2.27l2.25-4.58Z"/><path class="cls-1" d="M223.85,25.07h0V22.75h-2.27v2.32Z"/><path class="cls-1" d="M217,22.75h-.42v2.32h1.64V29.6h1.05V22.75Z"/><path class="cls-1" d="M221.58,26.59V25.07h-.92V29.6h.92Z"/><path class="cls-1" d="M216.62,25.07h-.93V29.6h.93Z"/><rect class="cls-1" x="236.33" y="31.86" width="3.4" height="2.27"/><path class="cls-1" d="M222.15,9V6.9h-.57v4.5h.57Z"/><path class="cls-1" d="M222.71,8.4v3h.57V6.9h-.57Z"/><path class="cls-1" d="M221,9.63V6.9h-.57v4.5H221Z"/><path class="cls-17" d="M236.18,4.6a36.33,36.33,0,0,0-6.84.26,12.56,12.56,0,0,0-5.49,2.5v3.08a10.18,10.18,0,0,1,5-3.18c2.18-.61,4.51-.4,6.75-.4L237,4.6Z"/><path class="cls-17" d="M215.91,20.48V15.9H214.2v4.58Z"/><path class="cls-17" d="M223.85,15.16V13.71h-4.19a8.15,8.15,0,0,0-.35,2.19h4.54v-.74Z"/><path class="cls-17" d="M219.66,13.71h-.35v1.74a13.74,13.74,0,0,1,.35-1.74Z"/><path d="M219.31,20.48l2.25-4.58h-2.25Z"/><path d="M218.26,26.59V25.07h-1.64V29.6h1.64Z"/><path d="M215.69,25.07h.93V22.75H212.5v2.32h2.27V29.6h.92V25.07Z"/><path d="M228.39,25.08h-2.27V22.83h2.27Zm-2.27,2.25h-2.27V25.07h2.27Zm4.54-9.12h-1.14l1.14-2.31h-2.29l-1.14,2.31H225l1.14-2.31h-2.27l-2.25,4.58h-2.27V29.6h1.35V25.08h.92V22.75h2.27v2.33h-2.27V29.6h2.27v1.13h6.81v3.4h2.27V31.82h6.8V15.9h-2.27l-1.13,2.31h-2.27l1.14-2.31h-2.27l-1.14,2.31Z"/><path d="M222.15,9V11.4h.56V6.9h-.56Z"/><path d="M221.58,8.65V6.9H221v4.5h.57Z"/><path d="M223.28,11.4h.57V6.9h-.57Z"/><path d="M220.44,11.4V6.9h-.56v4.5Z"/><path d="M218.17,6.9h0V4.59h-.56V6.9Z"/><path d="M216.47,6.9H217V4.59h-.56V6.9Z"/><path d="M219.31,4.59h-.57V6.9h.57V4.59Z"/><path d="M215.34,6.9h.57V4.59h-.57Z"/><path d="M208,20.49Z"/><rect class="cls-18" x="236.33" y="31.82" width="3.4" height="0.04"/><rect class="cls-18" x="232.93" y="31.86" width="3.4" height="2.27"/><path class="cls-19" d="M234.26,9.11l1.36-2.25c-2.44,0-4.93-.24-7.28.55a10.44,10.44,0,0,0-4.51,3s0,.49,0,1H226a8.27,8.27,0,0,1,2.5-1.66c1.85-.77,3.83-.63,5.78-.63Z"/><path class="cls-19" d="M222,13.71Z"/><path class="cls-19" d="M219.31,20.48h0V15h0v.87h-1.7v4.58Z"/><path class="cls-19" d="M215.91,15V13.71H212.5V15.9h3.41Z"/><rect class="cls-1" x="219.31" y="6.9" width="0.57" height="4.5"/><rect class="cls-1" x="207.5" y="18.21" width="0.57" height="2.27"/><rect class="cls-1" x="208.64" y="18.21" width="0.57" height="2.27"/><rect class="cls-1" x="206.37" y="18.21" width="0.57" height="2.27"/><rect x="208.07" y="18.21" width="0.57" height="2.27"/><rect x="206.93" y="18.21" width="0.57" height="2.27"/><path d="M209.77,18.21h-.57v2.27h.57Z"/><rect class="cls-1" x="210.91" y="18.21" width="0.57" height="2.27"/><rect class="cls-1" x="212.04" y="18.21" width="0.57" height="2.27"/><rect class="cls-1" x="209.77" y="18.21" width="0.57" height="2.27"/><rect x="211.47" y="18.21" width="0.57" height="2.27"/><rect x="210.34" y="18.21" width="0.57" height="2.27"/><path d="M213.18,18.21h-.57v2.27h.57Z"/><path class="cls-1" d="M214.93,15.37v.57h.49v-.57Z"/><rect class="cls-1" x="213.96" y="15.37" width="0.49" height="0.57"/><rect class="cls-1" x="212.99" y="15.37" width="0.49" height="0.57"/><path d="M214.93,15.94v-.57h-.48v.57Z"/><rect x="213.47" y="15.37" width="0.49" height="0.57"/><path d="M215.42,15.37v.57h.49v-.57Z"/><rect x="212.5" y="15.37" width="0.49" height="0.57"/><rect class="cls-1" x="209.1" y="22.75" width="1.14" height="0.82"/><rect class="cls-1" x="206.82" y="22.75" width="1.14" height="0.82"/><rect x="207.96" y="22.75" width="1.14" height="0.82"/><rect x="205.68" y="22.75" width="1.14" height="0.82"/><rect class="cls-17" x="221.58" y="11.4" width="3.7" height="2.31"/></svg>