<svg xmlns="http://www.w3.org/2000/svg" viewBox="0 0 228.12 34.13"><defs><style>.cls-1{fill:#fff;}.cls-2{fill:#555;}.cls-3{fill:#b7dba7;}.cls-4{fill:#84c551;}.cls-5{fill:#15a34a;}.cls-6{fill:#205128;}.cls-7{fill:#69cad7;}.cls-8{fill:#63bc46;}.cls-9{fill:#3953a4;}.cls-10{fill:#f4eb2a;}.cls-11{fill:#ed1c24;}.cls-12{fill:#ababab;}.cls-13{fill:#b74f9d;}.cls-14{fill:#f2ec60;}.cls-15{fill:#a1a538;}.cls-16{fill:#525323;}.cls-17{fill:#542e91;}.cls-18{fill:#a31d55;}.cls-19{fill:#17154c;}.cls-20{fill:#eeaccd;}.cls-21{fill:#dd62a5;}.cls-22{fill:#a22171;}.cls-23{fill:#500937;}.cls-24{fill:#e23594;}.cls-25{fill:#2b318a;}.cls-26{fill:#acaad4;}.cls-27{fill:#5760ac;}.cls-28{fill:#f1575a;}.cls-29{fill:#f7aaac;}.cls-30{fill:#ed1557;}.cls-31{fill:#a4a336;}.cls-32{fill:#535222;}.cls-33{fill:#80d0dd;}.cls-34{fill:#00a5a3;}.cls-35{fill:#b6e2ea;}.cls-36{fill:#005353;}.cls-37{fill:#a11d21;}.cls-38{fill:#4c1212;}.cls-39{fill:#04a45b;}.cls-40{fill:#0954a3;}.cls-41{fill:#84ccab;}.cls-42{fill:#ada8d3;}.cls-43{fill:#5960ab;}.cls-44{fill:#2a3491;}.cls-45{fill:#1b1751;}.cls-46{fill:#fbf5af;}.cls-47{fill:#f7ee64;}</style></defs><title>logo glitch</title><g id="Layer_2" data-name="Layer 2"><rect class="cls-1" width="228.12" height="34.09"/></g><g id="Layer_1" data-name="Layer 1"><path class="cls-2" d="M132.54,31.82h-2.26v2.27h2.26Z"/><path class="cls-3" d="M118.93,23.24v-.5h-2.27V25h2.27Z"/><path class="cls-3" d="M118.93,6.86V4.59h-2.27V8.35h2.27V6.86Z"/><path class="cls-4" d="M121.2,23.43v-.69h-2.27V25h2.27Z"/><path class="cls-4" d="M121.2,6.86l.06-2.27h-2.33V8.35h2.27Z"/><path class="cls-5" d="M123.47,22.75V25h2.26V22.74h-2.26Z"/><path class="cls-5" d="M123.46,6.86v1.5h2.27V4.59h-2.27V6.86Z"/><path class="cls-6" d="M126.49,25H128V22.74h-2.27V25Z"/><rect class="cls-6" x="125.73" y="4.59" width="2.27" height="3.76"/><path class="cls-7" d="M128,25Z"/><path class="cls-7" d="M128,22.74v0Z"/><path class="cls-8" d="M118.93,25h-2.27c.87,5,4.68,9.08,11.34,9.08V31.82C122.2,31.82,119.54,28.46,118.93,25Z"/><path class="cls-8" d="M117.41,20.49h1.52v0h0V14.8h0v1.14h-2.27v4.53h.75Z"/><path class="cls-8" d="M118.93,12.54h0V9.13h-2.27v3.41Z"/><path class="cls-8" d="M121.2,25h2.26V22.74H121.2Z"/><path class="cls-8" d="M121.2,6.86v1.5h2.26V4.59h-2.2Z"/><path class="cls-9" d="M121.2,25h-2.27c.61,3.45,3.27,6.81,9.07,6.81V29.55C124.26,29.55,121.84,27.54,121.2,25Z"/><path class="cls-9" d="M121.2,20.47Z"/><path class="cls-9" d="M121.2,15.94h2.27V14.8H121.2Z"/><polygon class="cls-9" points="122.33 18.2 121.2 18.2 121.2 20.47 123.47 20.47 123.47 18.2 122.33 18.2"/><path class="cls-9" d="M121.2,12.54h2.27V9.13H121.2Z"/><path class="cls-9" d="M116.66,13.67V9.13h-2.27v4.54Z"/><rect class="cls-9" x="116.66" y="13.67" width="2.27" height="2.27"/><path class="cls-9" d="M119.68,4.59h.76V3.5h-.3V1.27h-1.21V3.5h.75Z"/><polygon class="cls-10" points="126.87 15.95 128 15.95 128 13.67 125.73 13.67 125.73 15.95 126.87 15.95"/><rect class="cls-1" x="138.4" y="15.93" width="0.95" height="4.59"/><polygon class="cls-1" points="135.57 20.52 135.57 15.93 134.81 15.93 134.81 20.47 134.81 20.47 134.81 20.52 135.57 20.52"/><rect class="cls-1" x="128" y="20.51" width="0.95" height="2.23"/><path class="cls-1" d="M131.79,22.74h1.89V20.51h-1.89Z"/><path class="cls-1" d="M137.46,22.74V15.93h-1v4.58h-.94v2.23Z"/><path class="cls-1" d="M130.84,20.94v-.47h-1V22.7h1Z"/><path class="cls-1" d="M126.87,16.85v1.24l1.13,0V15.94h-1.13Z"/><path class="cls-1" d="M124.6,15.94v2.17H125v2.36h0V22h.73V18.11h0V15.94Z"/><path class="cls-1" d="M121.2,12.54V14.8h2.26V12.54Z"/><path class="cls-1" d="M116.66,12.54h0v1.13h2.27V12.54Z"/><rect class="cls-1" x="114.39" y="13.67" width="2.27" height="1.13"/><path class="cls-1" d="M122.33,18.21h1.14v2.27h.74V18.11h-.74V16h-1.14Z"/><rect class="cls-1" x="116.66" y="1.27" width="1.12" height="3.32"/><rect class="cls-1" x="121.26" y="1.27" width="1.08" height="2.23"/><path class="cls-1" d="M118.93,1.27h2.33V.05h-2.33Z"/><path class="cls-1" d="M116.66.05h-2.27V1.27h2.27Z"/><rect class="cls-1" x="131.18" y="0.05" width="0.91" height="2.27"/><rect class="cls-1" x="133" y="0.05" width="0.91" height="2.27"/><path class="cls-1" d="M116.66,9.13h3V8.35h-3V4.59h-2.27V9.13Z"/><path class="cls-1" d="M118.93,21.23V22h1.51v-1.5h-1.51v.76Z"/><path class="cls-1" d="M117.41,21.23V22h.76V20.49h-.76v.74Z"/><path class="cls-1" d="M105.31,22.74h3V22h-3"/><path class="cls-1" d="M122,21.22V22h-1.51v.77h3.78V22h-.75V20.48H122v.74Z"/><rect class="cls-1" x="109.85" y="21.98" width="1.51" height="0.76"/><path class="cls-1" d="M125.73,8.35h-1.51v.78H128V8.35Z"/><path class="cls-1" d="M121.2,8.36h0v.77h1.51V8.36Z"/><path class="cls-1" d="M130.53,27.28H130v4.54h.51Z"/><path class="cls-1" d="M128,27.28v4.54h.51V27.28Z"/><path class="cls-1" d="M129.52,28v-.76H129v4.54h.51Z"/><path class="cls-11" d="M123.47,25H121.2c.64,2.53,3.06,4.54,6.8,4.54V27.28C126.28,27.3,124.19,26.76,123.47,25Z"/><path class="cls-11" d="M121.2,20.47h0V14.8h-2.27v5.67Z"/><path class="cls-11" d="M121.2,12.54h0V9.13h-2.27v3.41Z"/><polygon class="cls-11" points="121.27 4.59 121.27 4.59 121.27 3.5 120.44 3.5 120.44 4.59 121.27 4.59"/><path d="M122.33,15.94H121.2V18.2h1.13Z"/><path d="M121.2,12.54h-2.27V14.8h2.27Z"/><path d="M114.39,12.54h-2.27V14.8h2.27V12.54Z"/><path d="M116.66,4.59V1.27h-1V4.59Z"/><path d="M117.78,1.27V4.59h1.15V.05h-2.27V1.27Z"/><rect x="120.44" y="20.47" width="1.51" height="1.49"/><path d="M118.93,22.74h1.51V22h-1.51V20.49h-.76V22h-.76V20.49h-.75v2.25Z"/><rect x="111.36" y="21.98" width="1.51" height="0.76"/><rect x="108.34" y="21.98" width="1.51" height="0.76"/><rect x="119.68" y="8.36" width="1.51" height="0.76"/><path d="M121.26,1.27h1.08V3.5h-1.08ZM129,30.06V27.28h.51v4.54H129Zm.88-9.55v0h1.9v0h1.89v0h1.13V15.93h.76v4.58h.94V15.93h1v6.81h-1.89V20.51h-1.89v2.23h-1.9V20.51h-.94V22.7h-1V20.51Zm8.51-4.58h.95v4.58h-.95ZM121.26,1.27h-1.12V3.49h1.12v1.1H128V9.13h-3.78V8.36h-1.51v.77h.75v4.54h0V14.8h2.27V13.67H128v4.4l-1.13,0V15.94h-1.14v2.17h0V22H125V20.48h0V18.11h-.36V16h-1.14v2.16h.75v2.37h-.75V22h.76v.77H128v0h0V20.52H129v2.22H128v4.54h.51v4.54H128v2.27h2.28V31.82H130V27.28h.5v4.54h6.56V27.28h2.27V.05H133.9V2.32H133V.05h-.9V2.32h-.91V.05h-9.92V1.27Z"/><rect x="133.68" y="20.47" width="1.13" height="0.04"/><rect x="130.84" y="20.47" width="0.95" height="0.04"/><path class="cls-12" d="M132.56,31.82h0v2.27h2.27V31.82Z"/><path class="cls-13" d="M128,22.7V20.48h0Z"/><path class="cls-13" d="M128,25h-4.54c.73,1.75,2.82,2.3,4.54,2.27V25Z"/><path class="cls-13" d="M124.6,15.94h1.13V14.8h-2.26v1.14Z"/><rect class="cls-13" x="118.93" y="3.49" width="0.76" height="1.09"/><rect class="cls-1" x="116.54" y="22.74" width="1.13" height="0.76"/><rect class="cls-1" x="118.81" y="22.74" width="1.13" height="0.76"/><rect class="cls-1" x="114.27" y="22.74" width="1.13" height="0.76"/><rect x="117.67" y="22.74" width="1.13" height="0.76"/><rect x="115.41" y="22.74" width="1.13" height="0.76"/><path d="M121.08,22.74h-1.14v.76h1.14Z"/><rect class="cls-1" x="109.73" y="6.86" width="1.13" height="0.76"/><rect class="cls-1" x="112" y="6.86" width="1.13" height="0.76"/><rect class="cls-1" x="107.46" y="6.86" width="1.13" height="0.76"/><rect x="110.87" y="6.86" width="1.13" height="0.76"/><rect x="108.6" y="6.86" width="1.13" height="0.76"/><path d="M114.27,6.86h-1.13v.75h1.13Z"/><rect class="cls-14" x="150.45" y="21.8" width="0.65" height="0.94"/><polygon class="cls-15" points="157.58 21.8 156.46 21.8 156.46 22.74 157.26 22.74 157.58 22.74 157.58 21.8"/><rect class="cls-15" x="154.34" y="21.8" width="0.63" height="0.94"/><polygon class="cls-15" points="156.46 21.8 154.98 21.8 154.98 22.74 154.99 22.74 156.46 22.74 156.46 21.8"/><rect class="cls-15" x="154.97" y="21.8" width="0.01" height="0.94"/><polygon class="cls-16" points="159.53 22.74 160.82 22.74 160.82 21.8 157.58 21.8 157.58 22.74 159.53 22.74"/><polygon class="cls-17" points="152.72 20.48 152.72 18.2 152.72 18.2 152.72 18.19 151.96 18.19 151.59 18.19 150.45 18.19 150.45 18.2 150.45 18.2 150.45 20.48 151.59 20.48 152.72 20.48"/><polygon class="cls-18" points="152.72 18.2 152.72 20.48 152.76 20.48 153.85 20.48 154.97 20.48 154.99 20.48 154.99 18.2 154.99 18.2 154.99 18.18 154.97 18.18 153.85 18.18 152.72 18.18 152.72 18.19 152.72 18.2 152.72 18.2"/><rect class="cls-19" x="145.91" y="25.01" width="2.27" height="1.13"/><polygon class="cls-20" points="141.37 11.4 141.37 11.4 141.37 11.39 141.37 11.39 141.37 9.13 139.1 9.13 139.1 11.4 141.37 11.4"/><polygon class="cls-21" points="143.64 11.39 143.64 9.13 142.5 9.13 141.37 9.13 141.37 11.39 141.37 11.39 141.37 11.4 143.64 11.4 143.64 11.39 143.64 11.39"/><polygon class="cls-22" points="148.18 11.39 148.18 9.13 147.04 9.13 145.91 9.13 145.91 11.39 145.91 11.39 145.91 11.4 148.18 11.4 148.18 11.39 148.18 11.39"/><polygon class="cls-23" points="150.45 11.39 150.45 9.13 149.31 9.13 148.94 9.13 148.18 9.13 148.18 11.39 148.18 11.39 148.18 11.4 148.94 11.4 150.45 11.4 150.45 11.39 150.45 11.39"/><polygon class="cls-24" points="145.91 11.39 145.91 9.13 144.77 9.13 143.64 9.13 143.64 11.39 143.64 11.39 143.64 11.4 145.91 11.4 145.91 11.39 145.91 11.39"/><polygon class="cls-25" points="143.64 25.01 143.64 26.15 145.91 26.15 145.91 25.01 144.78 25.01 143.64 25.01"/><polygon class="cls-2" points="161.8 10.26 161.8 9.13 160.65 9.13 160.52 9.13 159.54 9.13 159.54 11.34 159.54 11.4 160.52 11.4 161.8 11.4 161.8 10.26"/><polyline class="cls-26" points="166.34 14.78 164.07 14.78 164.07 15.46 164.07 15.9 166.34 15.9 166.34 14.78"/><polygon class="cls-26" points="145.91 18.2 145.91 18.2 145.05 18.2 143.64 18.2 143.64 18.2 143.64 18.28 143.64 20.48 145.05 20.48 145.91 20.48 145.91 18.28 145.91 18.2"/><polygon class="cls-27" points="148.18 18.2 148.18 18.2 145.91 18.2 145.91 18.2 145.91 18.28 145.91 20.48 146.95 20.48 148.18 20.48 148.18 18.28 148.18 18.2"/><rect class="cls-3" x="136.83" y="2.32" width="2.27" height="2.27"/><rect class="cls-4" x="141.37" y="26.15" width="2.27" height="1.13"/><rect class="cls-4" x="139.1" y="2.32" width="2.27" height="2.27"/><rect class="cls-5" x="145.91" y="26.15" width="2.27" height="1.13"/><rect class="cls-5" x="143.64" y="2.32" width="2.27" height="2.27"/><rect class="cls-6" x="148.18" y="26.15" width="2.27" height="1.13"/><polygon class="cls-6" points="146.67 4.59 147.05 4.59 148.18 4.59 148.18 2.32 146.67 2.32 145.91 2.32 145.91 4.59 146.67 4.59"/><polygon class="cls-7" points="150.45 12.53 150.45 11.4 148.94 11.4 148.18 11.4 145.91 11.4 143.64 11.4 141.37 11.4 139.1 11.4 136.84 11.4 134.56 11.4 134.56 12.53 139.1 12.53 141.37 12.53 150.45 12.53"/><polygon class="cls-7" points="159.53 13.67 159.53 15.94 166.34 15.94 166.34 15.03 166.34 14.12 166.34 13.67 159.75 13.67 159.53 13.67"/><polygon class="cls-8" points="141.37 23.88 142.51 23.88 143.64 23.88 144.78 23.88 145.91 23.88 145.91 22.74 144.78 22.74 143.64 22.74 142.51 22.74 141.37 22.74 141.37 22.74 141.37 23.88 141.37 23.88"/><rect class="cls-8" x="143.64" y="26.15" width="2.27" height="1.13"/><rect class="cls-8" x="141.37" y="2.32" width="2.27" height="2.27"/><polygon class="cls-8" points="154.99 13.21 154.99 13.67 155.07 13.67 155.21 13.67 155.78 13.67 156.34 13.67 156.97 13.67 156.98 13.67 157.26 13.67 157.26 13.21 157.26 12.53 157.26 11.4 156.97 11.4 154.99 11.4 154.99 12.53 154.99 13.21"/><polygon class="cls-9" points="150.45 18.2 148.94 18.2 148.85 18.2 148.18 18.2 148.18 18.2 148.18 18.28 148.18 20.48 148.85 20.48 150.45 20.48 150.45 18.2 150.45 18.2"/><polygon class="cls-9" points="143.64 25.01 143.64 25.01 142.51 25.01 141.37 25.01 141.37 26.15 143.64 26.15 143.64 25.01"/><polygon class="cls-9" points="141.37 22.74 142.51 22.74 143.64 22.74 144.78 22.74 145.91 22.74 145.05 22.74 144.78 22.74 144.62 22.74 143.64 22.74 142.51 22.74 141.37 22.74 141.37 22.74 141.37 22.74"/><polygon class="cls-9" points="157.58 21.8 160.82 21.8 164.07 21.8 164.07 22.74 166.34 22.74 166.34 20.48 157.38 20.48 156.46 20.48 156.46 21.8 157.58 21.8"/><polygon class="cls-9" points="152.72 21.8 152.72 21.37 152.72 21.25 152.72 21.08 152.72 20.48 151.59 20.48 150.45 20.48 150.45 21.08 150.45 21.25 150.45 21.8 151.1 21.8 152.72 21.8"/><polygon class="cls-9" points="151.16 13.67 151.59 13.67 152.72 13.67 152.76 13.67 153.85 13.67 154.98 13.67 154.99 13.67 154.99 13.67 154.99 13.21 154.99 12.53 154.99 11.4 154.98 11.4 152.72 11.4 151.96 11.4 151.16 11.4 150.45 11.4 150.45 12.53 150.45 13.21 150.45 13.67 151.16 13.67"/><path class="cls-10" d="M166.34,9.13v0Z"/><polygon class="cls-1" points="141.37 22.74 142.51 22.74 143.64 22.74 143.64 21.8 142.51 21.8 141.37 21.8 141.37 21.37 141.37 21.08 141.37 20.48 143.64 20.48 143.64 18.28 143.64 18.2 143.64 18.2 141.37 18.2 141.37 18.2 141.25 18.2 141.25 22.74 141.37 22.74 141.37 22.74"/><polygon class="cls-1" points="151.96 9.13 152.72 9.13 152.72 11.39 152.72 11.39 152.72 11.4 154.98 11.4 154.99 11.4 154.99 11.39 154.99 11.39 154.99 9.13 154.99 6.86 154.99 4.59 154.99 0.05 154.99 0.05 152.72 0.05 152.72 6.83 151.58 9.13 151.96 9.13"/><polygon class="cls-1" points="144.77 9.13 145.91 6.83 143.64 6.83 142.5 9.13 143.64 9.13 144.77 9.13"/><polygon class="cls-1" points="145.91 23.88 145.91 23.88 145.91 22.74 145.91 23.88"/><polygon class="cls-1" points="143.64 23.88 143.64 23.88 143.64 25.01 144.78 25.01 145.91 25.01 145.91 23.88 144.78 23.88 143.64 23.88"/><rect class="cls-1" x="164.07" y="13.65" width="2.27" height="1.13"/><polygon class="cls-1" points="161.8 12.53 162.79 12.53 162.79 11.4 166.34 11.4 166.34 9.13 164.1 9.13 164.07 9.13 164.05 9.13 164.05 10.26 164.05 11.4 161.82 11.4 161.8 11.4 160.52 11.4 159.53 11.4 157.26 11.4 157.26 12.53 161.8 12.53"/><polygon class="cls-1" points="146.67 4.59 145.91 4.59 143.64 4.59 141.37 4.59 141.37 5.72 147.05 5.72 147.05 4.59 146.67 4.59"/><rect class="cls-1" x="135.7" y="5.72" width="5.67" height="1.11"/><polygon class="cls-1" points="147.05 6.83 148.18 6.83 147.04 9.13 148.18 9.13 148.94 9.13 149.31 9.13 150.45 6.83 152.72 6.83 152.72 5.72 147.05 5.72 147.05 6.83"/><polygon class="cls-1" points="139.67 25.01 139.1 25.01 139.1 26.15 139.1 27.28 139.67 27.28 139.67 26.15 139.67 25.01"/><polygon class="cls-1" points="140.81 25.01 140.24 25.01 140.24 26.15 140.24 27.28 140.81 27.28 140.81 26.15 140.81 25.01"/><polygon class="cls-1" points="138.54 25.01 137.97 25.01 137.97 26.15 137.97 27.28 138.54 27.28 138.54 26.15 138.54 25.01"/><rect class="cls-1" x="143.64" y="0.05" width="0.57" height="2.27"/><rect class="cls-1" x="144.78" y="0.05" width="0.57" height="2.27"/><rect class="cls-1" x="141.37" y="0.05" width="0.57" height="2.27"/><rect class="cls-1" x="142.51" y="0.05" width="0.57" height="2.27"/><rect class="cls-1" x="161.8" y="31.86" width="0.57" height="2.23"/><rect class="cls-1" x="162.93" y="31.86" width="0.57" height="2.23"/><rect class="cls-1" x="159.53" y="31.86" width="0.57" height="2.23"/><rect class="cls-1" x="160.66" y="31.86" width="0.57" height="2.23"/><rect class="cls-1" x="157.26" y="32.39" width="1.13" height="1.7"/><rect class="cls-1" x="140.81" y="29.55" width="0.57" height="2.27"/><rect class="cls-1" x="138.54" y="29.55" width="0.57" height="2.27"/><polygon class="cls-1" points="139.1 31.82 139.1 32.39 140.24 32.39 140.24 31.82 140.24 29.55 139.67 29.55 139.67 31.82 139.1 31.82"/><rect class="cls-1" x="136.83" y="31.82" width="1.13" height="0.57"/><rect class="cls-1" x="134.57" y="31.82" width="1.13" height="0.57"/><polygon class="cls-1" points="143.64 31.82 143.07 31.82 142.51 31.82 142.51 29.55 141.94 29.55 141.94 31.82 141.37 31.82 141.37 32.39 143.64 32.39 143.64 31.82"/><rect class="cls-1" x="145.91" y="31.82" width="2.27" height="0.57"/><polygon class="cls-11" points="164.07 13.21 162.79 13.21 162.79 13.67 159.75 13.67 166.34 13.67 166.34 13.21 164.07 13.21"/><polygon class="cls-11" points="143.07 13.67 143.64 13.67 145.91 13.67 148.18 13.67 150.45 13.67 150.45 13.21 141.37 13.21 141.37 13.67 141.94 13.67 142.51 13.67 143.07 13.67"/><polygon class="cls-11" points="166.34 18.2 157.38 18.2 156.46 18.2 155.21 18.2 155.21 18.2 155.21 18.16 154.99 18.16 154.99 18.18 154.99 18.2 154.99 18.2 154.99 20.48 155.07 20.48 156.46 20.48 157.38 20.48 166.34 20.48 166.34 19.89 166.34 18.2"/><polygon points="162.79 11.4 162.79 12.53 164.07 12.53 166.34 12.53 166.34 11.4 162.79 11.4"/><polygon points="142.5 9.13 143.64 6.83 145.91 6.83 144.77 9.13 145.91 9.13 147.04 9.13 148.18 6.83 147.05 6.83 147.05 5.72 141.37 5.72 141.37 6.83 141.37 9.13 142.5 9.13"/><path d="M141.37,13.67v0Z"/><polygon points="153.85 20.48 152.76 20.48 152.72 20.48 152.72 21.08 152.72 21.25 152.72 21.37 152.72 21.8 154.34 21.8 154.97 21.8 154.98 21.8 156.46 21.8 156.46 20.48 155.07 20.48 154.99 20.48 154.97 20.48 153.85 20.48"/><path d="M145.91,31.82h2.27v.57h-2.27Zm-4,0V29.55h.57v2.27h1.13v.57h-2.27v1.7h11.35V23.88h2.69l.06-1.14h-5V20.47h-9.08V21.8h2.27v.94h2.27V25h2.27v1.14h2.27v1.13h-9.08v4.54Z"/><polygon points="145.91 2.32 146.67 2.32 148.18 2.32 148.18 4.59 147.05 4.59 147.05 5.72 152.72 5.72 152.72 4.59 152.72 2.32 152.72 0.05 145.91 0.05 145.34 0.05 145.34 2.32 144.78 2.32 144.78 0.05 144.21 0.05 144.21 2.32 143.64 2.32 143.64 0.05 143.07 0.05 143.07 2.32 142.51 2.32 142.51 0.05 141.94 0.05 141.94 2.32 141.37 2.32 143.64 2.32 145.91 2.32"/><polygon points="141.37 4.59 139.1 4.59 136.84 4.59 135.7 4.59 135.7 5.72 141.37 5.72 141.37 4.59"/><polygon points="140.24 25.01 139.67 25.01 139.67 26.15 139.67 27.28 140.24 27.28 140.24 26.15 140.24 25.01"/><polygon points="139.1 25.01 138.54 25.01 138.54 26.15 138.54 27.28 139.1 27.28 139.1 26.15 139.1 25.01"/><polygon points="141.37 25.01 142.51 25.01 143.64 25.01 143.64 23.88 142.51 23.88 141.37 23.88 141.37 23.88 141.37 25.01 141.37 25.01"/><polygon points="141.37 25.01 141.37 25.01 140.81 25.01 140.81 26.15 140.81 27.28 141.37 27.28 141.37 26.15 141.37 25.01"/><polygon points="137.97 25.01 137.4 25.01 137.4 26.15 137.4 27.28 137.97 27.28 137.97 26.15 137.97 25.01"/><polygon points="149.31 9.13 150.45 9.13 150.45 11.39 150.45 11.39 150.45 11.4 151.16 11.4 151.96 11.4 152.72 11.4 152.72 11.39 152.72 11.39 152.72 9.13 151.96 9.13 151.58 9.13 152.72 6.83 150.45 6.83 149.31 9.13"/><rect x="139.1" y="29.55" width="0.57" height="2.27"/><polygon points="139.1 32.39 139.1 31.82 138.54 31.82 137.97 31.82 137.97 32.39 139.1 32.39"/><rect x="135.7" y="31.82" width="1.13" height="0.57"/><polygon points="140.24 31.82 140.24 32.39 141.37 32.39 141.37 31.82 140.81 31.82 140.81 29.55 140.24 29.55 140.24 31.82"/><rect x="133.43" y="31.82" width="1.13" height="0.57"/><polygon points="154.99 6.86 154.99 9.13 154.99 11.39 154.99 11.39 154.99 11.4 156.97 11.4 157.26 11.4 159.53 11.4 160.52 11.4 159.54 11.4 159.54 11.34 159.54 9.13 160.52 9.13 160.65 9.13 161.8 9.13 161.82 9.13 164.05 9.13 164.07 9.13 164.1 9.13 166.34 9.13 166.34 6.86 166.34 0.05 165.99 0.05 165.42 0.05 165.2 0.05 164.85 0.05 164.28 0.05 163.72 0.05 163.15 0.05 162.58 0.05 162.02 0.05 154.99 0.05 154.99 4.59 154.99 6.86"/><path d="M166.34,9.13v0Z"/><polygon class="cls-12" points="161.8 9.13 161.8 10.26 161.8 11.4 161.82 11.4 164.05 11.4 164.05 10.26 164.05 9.13 161.82 9.13 161.8 9.13"/><polygon class="cls-13" points="166.34 13.21 166.34 12.53 164.07 12.53 162.79 12.53 162.79 13.21 164.07 13.21 166.34 13.21"/><polygon class="cls-13" points="141.37 13.21 150.45 13.21 150.45 12.53 141.37 12.53 139.1 12.53 139.1 13.21 141.37 13.21"/><polygon class="cls-10" points="151.1 21.8 151.1 22.74 152.72 22.74 154.34 22.74 154.34 21.8 152.72 21.8 151.1 21.8"/><polygon class="cls-1" points="141.7 11.4 141.7 11.96 142.67 11.96 142.67 11.4 142.18 11.4 141.7 11.4"/><rect class="cls-1" x="139.75" y="11.4" width="0.97" height="0.57"/><rect class="cls-1" x="137.81" y="11.4" width="0.97" height="0.57"/><polygon points="141.7 11.96 141.7 11.4 141.21 11.4 140.72 11.4 140.72 11.96 141.7 11.96"/><rect x="138.78" y="11.4" width="0.97" height="0.57"/><polygon points="142.67 11.4 142.67 11.96 143.64 11.96 143.64 11.4 143.16 11.4 142.67 11.4"/><rect x="136.83" y="11.4" width="0.97" height="0.57"/><rect class="cls-28" x="139.1" y="15.94" width="2.27" height="2.27"/><rect class="cls-29" x="136.83" y="15.94" width="2.27" height="2.27"/><rect class="cls-11" x="141.37" y="15.94" width="2.27" height="2.27"/><rect class="cls-30" x="143.64" y="15.94" width="2.27" height="2.27"/><rect class="cls-24" x="145.91" y="15.94" width="2.27" height="2.27"/><rect class="cls-13" x="148.18" y="15.94" width="18.15" height="2.27"/><rect class="cls-13" x="141.37" y="13.67" width="18.15" height="2.27"/><rect x="157.26" y="11.4" width="6.81" height="2.27"/><rect x="154.99" y="22.74" width="11.35" height="11.35"/><rect class="cls-31" x="172.64" y="15.94" width="2.27" height="2.25"/><rect class="cls-32" x="175.66" y="15.94" width="1.51" height="2.25"/><rect class="cls-32" x="174.91" y="15.94" width="0.76" height="2.25"/><rect class="cls-2" x="174.88" y="0.01" width="2.28" height="2.27"/><path class="cls-33" d="M170.37,15.94V11.4H168.1v4.54Z"/><rect class="cls-7" x="183.98" y="22.74" width="2.27" height="2.27"/><path class="cls-34" d="M174.91,15.94V11.4h-2.27v4.54Z"/><path class="cls-11" d="M179.44,25h2.27V22.74h-2.27Z"/><rect class="cls-35" x="165.83" y="11.4" width="2.27" height="4.54"/><rect class="cls-10" x="186.25" y="22.74" width="2.27" height="2.27"/><path class="cls-36" d="M174.91,15.94h2.26V11.4h-2.26v4.54Z"/><path class="cls-9" d="M177.17,25h2.27V22.74h-2.27Z"/><polygon class="cls-7" points="170.37 22.74 170.37 22.74 172.64 22.74 170.37 22.74"/><rect class="cls-8" x="172.64" y="22.74" width="2.27" height="2.27"/><path class="cls-7" d="M172.64,29.55h0V27.28h-2.27v2.27Z"/><path class="cls-7" d="M172.64,11.4h-2.27v4.54h2.27Z"/><path class="cls-13" d="M181.71,22.74V25H184V22.74"/><line class="cls-13" x1="186.25" y1="25.01" x2="186.25" y2="25.01"/><polygon class="cls-8" points="177.18 31.82 177.18 31.82 177.17 31.82 177.17 34.09 181.71 34.09 181.71 31.82 177.18 31.82"/><polygon class="cls-8" points="186.25 31.82 186.25 31.82 186.25 34.09 188.52 34.09 188.52 31.82 186.25 31.82"/><rect class="cls-8" x="170.37" y="31.82" width="2.27" height="2.27"/><polygon class="cls-9" points="177.18 31.82 177.18 31.82 181.71 31.82 177.18 31.82"/><path class="cls-9" d="M172.64,20.47h-2.27v2.27h2.27Z"/><path class="cls-9" d="M174.91,29.55h-4.54v2.27h4.54V29.55h2.26v1.14h9.08v1.13h2.27V29.55H174.91Z"/><polygon class="cls-10" points="172.64 18.19 172.64 15.94 170.37 15.94 170.37 18.2 172.64 18.2 172.64 18.19"/><path class="cls-1" d="M174.91,18.19v2.28h2.26v2.27h.57V20.47h-.57V18.19Z"/><path class="cls-1" d="M172.64,28.42h2.27V27.28h-2.27Z"/><rect class="cls-1" x="174.91" y="28.42" width="2.27" height="1.13"/><path class="cls-1" d="M179.44,13.58h-1.13v4.54h1.13V13.58Z"/><rect class="cls-1" x="181.71" y="9.13" width="1.13" height="4.54"/><path class="cls-1" d="M177.17,31.25h9.08v-.56h-9.08Z"/><path class="cls-1" d="M180,22.74V20.48h-.57v2.26Z"/><path class="cls-1" d="M181.15,22.74V20.48h-.57v2.26Z"/><rect class="cls-1" x="178.31" y="20.47" width="0.57" height="2.27"/><path class="cls-1" d="M184.55,31.82H184v2.27h.57Z"/><path class="cls-1" d="M185.68,31.82h-.56v2.27h.56Z"/><path class="cls-1" d="M182.28,31.82h-.57v2.27h.57Z"/><path class="cls-1" d="M183.41,31.82h-.56v2.27h.56Z"/><rect class="cls-1" x="172.64" y="31.82" width="1.51" height="2.27"/><path class="cls-1" d="M177.17,31.82h-1.51v2.27h1.51Z"/><path class="cls-1" d="M170.37,11.4h1.51V9.13h-1.51V11.4Z"/><path class="cls-1" d="M174.91,11.4V9.13h-1.52V11.4Z"/><polygon class="cls-11" points="177.17 28.42 177.17 29.55 188.52 29.55 188.52 27.28 177.17 27.28 177.17 28.42"/><polygon class="cls-11" points="170.37 27.28 170.37 27.28 172.64 27.28 170.37 27.28"/><path class="cls-11" d="M177.17,31.82V30.69h0V29.55h-2.26v2.27Z"/><path class="cls-11" d="M172.64,20.47h0v2.27h2.27V20.47Z"/><path d="M172.64,20.47h2.27V18.19h-2.27v0h-2.27v2.26Z"/><path d="M169.61,11.36h1.51V9.09h1.52v2.27h2.26v4.53h0v4.54h.57V22.7H176V20.43h.57V22.7h.56V20.43h.57V22.7h.57V20.43h.57V22.7h.56V18.16h-1.13V13.62h1.13V2.28h-2.28v0h-2.27V0H168.1V9.09h1.51v2.27Z"/><path d="M172.64,22.74h2.27V25l-1.32,1.31c-.32.32-.64.63-1,.95h2.27l1.22-1.23c.33-.32,1-1,1-1V22.75h-4.53Z"/><rect x="174.91" y="27.28" width="2.27" height="1.13"/><path d="M172.64,28.42h0v1.13h2.27V28.42Z"/><polygon points="179.44 15.85 179.44 18.12 180.58 18.12 180.58 13.58 179.44 13.58 179.44 15.85"/><path d="M168.1,29.55v2.27h2.27V29.55Z"/><path d="M170.37,25v2.26L172.64,25Z"/><path d="M186.25,31.82v-.57h-9.08v.57h5.11v2.27h.57V31.82h.57v2.27H184V31.82h.57v2.27h.57V31.82h.57v2.27h.56Z"/><path d="M175.66,31.82h-1.51v2.27h1.51Z"/><rect class="cls-12" x="177.16" y="0.01" width="2.28" height="2.27"/><path class="cls-13" d="M168.1,29.55h2.27V27.28H168.1Z"/><path class="cls-13" d="M177.17,22.74V20.48h-2.26v2.26Z"/><path class="cls-8" d="M170.37,25h2.27V22.74h-2.27Z"/><rect class="cls-1" x="169.61" y="15.94" width="0.76" height="1.13"/><rect class="cls-1" x="171.12" y="15.94" width="0.76" height="1.13"/><rect class="cls-1" x="168.1" y="15.94" width="0.76" height="1.13"/><rect x="170.37" y="15.94" width="0.76" height="1.13"/><rect x="168.85" y="15.94" width="0.76" height="1.13"/><path d="M172.64,15.94h-.76v1.13h.76Z"/><rect class="cls-1" x="171.88" y="17.07" width="0.76" height="1.13"/><rect class="cls-1" x="173.39" y="17.07" width="0.76" height="1.13"/><rect class="cls-1" x="170.37" y="17.07" width="0.76" height="1.13"/><rect x="172.64" y="17.07" width="0.76" height="1.13"/><rect x="171.12" y="17.07" width="0.76" height="1.13"/><path d="M174.91,17.07h-.76v1.14h.76Z"/><rect class="cls-1" x="169.61" y="0.05" width="0.76" height="2.27"/><rect class="cls-1" x="171.12" y="0.05" width="0.76" height="2.27"/><rect class="cls-1" x="165.83" y="0.05" width="3.03" height="2.27"/><rect x="170.37" y="0.05" width="0.76" height="2.27"/><rect x="168.85" y="0.05" width="0.76" height="2.27"/><path d="M172.64.05h-.76V2.32h.76Z"/><rect class="cls-1" x="176.41" y="2.85" width="0.76" height="0.57"/><rect class="cls-1" x="177.92" y="2.85" width="0.76" height="0.57"/><rect class="cls-1" x="174.9" y="2.85" width="0.76" height="0.57"/><rect x="177.16" y="2.85" width="0.76" height="0.57"/><rect x="175.65" y="2.85" width="0.76" height="0.57"/><path d="M179.43,2.85h-.75v.56h.75Z"/><rect class="cls-1" x="167.34" y="1.75" width="0.76" height="0.57"/><rect class="cls-1" x="168.85" y="1.75" width="0.76" height="0.57"/><rect class="cls-1" x="165.83" y="1.75" width="0.76" height="0.57"/><rect x="168.1" y="1.75" width="0.76" height="0.57"/><rect x="166.58" y="1.75" width="0.76" height="0.57"/><path d="M170.37,1.75h-.76v.57h.76Z"/><rect class="cls-1" x="165.07" y="4.02" width="0.76" height="0.57"/><rect class="cls-1" x="166.58" y="4.02" width="0.76" height="0.57"/><rect class="cls-1" x="163.56" y="4.02" width="0.76" height="0.57"/><rect x="165.83" y="4.02" width="0.76" height="0.57"/><rect x="164.32" y="4.02" width="0.76" height="0.57"/><path d="M168.1,4h-.76v.57h.76Z"/><path d="M184,25"/><polygon points="177.17 27.28 179.44 25.01 181.71 25.01 179.44 27.28 177.17 27.28"/><polygon class="cls-1" points="174.91 27.28 177.17 25.01 179.44 25.01 177.17 27.28 174.91 27.28"/><polygon points="181.71 27.28 183.98 25.01 186.25 25.01 183.98 27.28 181.71 27.28"/><polygon points="186.25 27.28 188.52 25.01 188.52 27.28 186.25 27.28"/><polygon class="cls-1" points="170.37 27.28 172.64 25.01 174.91 25.01 172.64 27.28 170.37 27.28"/><polygon class="cls-1" points="179.44 27.28 181.71 25.01 183.98 25.01 181.71 27.28 179.44 27.28"/><polygon class="cls-1" points="183.98 27.28 186.25 25.01 188.52 25.01 186.25 27.28 183.98 27.28"/><rect class="cls-19" x="194.83" y="12.53" width="2.27" height="1.13"/><polygon class="cls-29" points="190.29 11.4 189.16 11.4 188.03 11.4 188.03 12.53 190.29 12.53 190.29 11.4"/><polygon class="cls-29" points="190.29 11.4 190.29 11.4 190.29 12.53 190.29 11.4"/><path class="cls-29" d="M190.3,11.4"/><polygon class="cls-28" points="192.56 11.4 192.56 11.4 190.29 11.4 192.56 11.4"/><rect class="cls-28" x="190.3" y="11.4" width="2.27" height="1.13"/><polygon class="cls-37" points="197.1 11.4 197.1 11.4 194.83 11.4 197.1 11.4"/><path class="cls-37" d="M197.1,11.4h0Z"/><rect class="cls-37" x="194.83" y="11.4" width="2.27" height="1.13"/><polygon class="cls-38" points="197.1 11.4 197.67 11.4 198.24 11.4 198.81 11.4 199.37 11.4 197.1 11.4"/><rect class="cls-31" x="188.03" y="6.86" width="1.13" height="2.27"/><rect class="cls-31" x="189.16" y="6.86" width="0.38" height="2.27"/><rect class="cls-31" x="189.54" y="6.86" width="0.38" height="2.27"/><rect class="cls-31" x="189.92" y="6.86" width="0.38" height="2.27"/><path class="cls-31" d="M190.3,6.86"/><path class="cls-31" d="M190.3,9.13v0Z"/><polygon class="cls-32" points="192.19 6.86 192.19 6.86 192.56 6.86 192.19 6.86"/><polygon class="cls-32" points="191.81 6.86 191.81 6.86 192.19 6.86 191.81 6.86"/><polygon class="cls-32" points="191.43 6.86 191.43 6.86 191.81 6.86 191.43 6.86"/><polygon class="cls-32" points="191.05 6.86 191.05 6.86 191.43 6.86 191.05 6.86"/><polygon class="cls-32" points="190.29 6.86 190.29 6.86 191.05 6.86 190.29 6.86"/><rect class="cls-25" x="192.57" y="12.53" width="2.27" height="1.13"/><polygon class="cls-2" points="197.11 15.95 197.11 18.2 199.37 18.2 199.37 15.95 199.37 15.94 197.11 15.94 197.11 15.95"/><polygon class="cls-2" points="197.11 9.13 199.37 9.13 199.37 6.86 198.62 6.86 197.11 6.86 197.11 9.13"/><line class="cls-26" x1="188.03" y1="13.67" x2="188.03" y2="12.53"/><polygon class="cls-27" points="190.29 12.53 190.29 12.53 188.03 12.53 188.03 13.67 190.29 13.67 190.29 12.53"/><polygon class="cls-7" points="197.1 5.5 197.1 6.86 197.11 6.86 198.62 6.86 199.37 6.86 201.64 6.86 201.64 5.5 199.37 5.5 197.1 5.5"/><polygon class="cls-8" points="192.56 3.45 192.56 3.45 194.83 3.45 192.56 3.45 192.56 3.45 192.56 2.32 192.56 1.19 194.83 1.19 194.83 0.05 192.56 0.05 192.56 2.32 192.56 3.45"/><polygon class="cls-8" points="199.37 0.05 198.81 0.05 198.24 0.05 197.67 0.05 197.1 0.05 197.1 1.19 197.1 1.41 199.37 1.41 201.64 1.41 201.64 1.19 201.64 0.05 199.37 0.05"/><rect class="cls-9" x="190.3" y="12.53" width="2.27" height="1.13"/><polygon class="cls-9" points="199.37 1.41 197.1 1.41 197.1 2.32 197.1 2.77 199.37 2.77 201.64 2.77 201.64 2.32 201.64 1.41 199.37 1.41"/><polygon class="cls-9" points="192.56 6.86 194.08 6.86 194.83 6.86 194.83 4.59 197.1 4.59 194.83 4.59 194.83 3.45 194.83 4.59 192.56 4.59 190.29 4.59 192.56 4.59 192.56 6.86"/><polygon class="cls-9" points="197.1 0.05 197.67 0.05 198.24 0.05 198.81 0.05 199.37 0.05 199.37 0.05 197.1 0.05 197.1 0.05"/><path class="cls-9" d="M197.1,3.45"/><polygon class="cls-10" points="190.29 3.45 190.29 3.45 192.56 3.45 192.56 2.32 192.56 0.05 190.29 0.05 190.29 2.32 190.29 3.45"/><line class="cls-10" x1="188.03" y1="9.13" x2="188.03" y2="6.86"/><rect class="cls-1" x="194.83" y="13.67" width="2.27" height="2.27"/><rect class="cls-1" x="189.16" y="10.26" width="1.13" height="1.13"/><polygon class="cls-1" points="190.29 15.94 190.29 15.95 190.29 20.47 191.43 20.47 191.43 15.95 191.43 15.94 192.56 15.94 192.56 13.67 190.29 13.67 190.29 15.94"/><polygon class="cls-1" points="190.29 20.47 190.29 20.47 189.16 20.47 189.16 25.01 190.29 25.01 190.29 20.47"/><polygon class="cls-1" points="190.29 4.59 190.29 4.59 192.56 4.59 194.83 4.59 194.83 3.45 192.56 3.45 192.56 3.45 190.29 3.45 189.3 3.45 188.03 3.45 188.03 4.59 189.3 4.59 190.29 4.59"/><rect class="cls-1" x="197.1" y="31.86" width="0.57" height="2.23"/><rect class="cls-1" x="198.24" y="31.86" width="0.57" height="2.23"/><rect class="cls-1" x="194.83" y="31.86" width="0.57" height="2.23"/><rect class="cls-1" x="195.97" y="31.86" width="0.57" height="2.23"/><rect class="cls-1" x="199.37" y="11.4" width="0.57" height="1.13"/><rect class="cls-1" x="200.51" y="11.4" width="0.57" height="1.13"/><rect class="cls-1" x="197.1" y="11.4" width="0.57" height="1.13"/><polygon class="cls-1" points="198.24 12.53 198.24 12.53 198.81 12.53 198.81 11.4 198.24 11.4 198.24 12.53"/><polygon class="cls-1" points="195.4 1.19 195.4 1.19 195.4 0.05 194.83 0.05 194.83 1.19 195.4 1.19"/><rect class="cls-1" x="195.97" y="0.05" width="0.57" height="1.13"/><rect class="cls-1" x="192.57" y="31.86" width="1.13" height="2.23"/><polygon class="cls-1" points="201.64 15.94 201.64 18.2 203.91 18.2 203.91 15.94 203.34 15.94 203.34 13.67 202.78 13.67 202.78 15.94 202.21 15.94 202.21 13.67 201.64 13.67 201.64 15.94"/><line class="cls-1" x1="188.03" y1="12.53" x2="188.03" y2="11.4"/><rect class="cls-1" x="199.37" y="13.67" width="0.57" height="2.27"/><rect class="cls-1" x="200.51" y="13.67" width="0.57" height="2.27"/><polygon class="cls-11" points="191.05 6.86 191.43 6.86 191.81 6.86 192.19 6.86 192.56 6.86 192.56 4.59 190.29 4.59 190.29 6.86 191.05 6.86"/><polygon class="cls-11" points="194.83 6.86 195.59 6.86 197.1 6.86 197.1 5.5 197.1 4.59 194.83 4.59 194.83 6.86"/><rect class="cls-11" x="192.57" y="11.4" width="2.27" height="1.13"/><polygon class="cls-11" points="194.83 4.59 197.1 4.59 197.1 4.13 199.37 4.13 201.64 4.13 201.64 3.45 201.64 2.77 199.37 2.77 197.1 2.77 197.1 3.45 194.83 3.45 194.83 4.59"/><polygon class="cls-11" points="194.83 1.19 194.83 0.05 195.4 0.05 195.97 0.05 196.54 0.05 197.1 0.05 197.1 0.05 194.83 0.05 194.83 1.19"/><polygon points="194.83 6.86 194.08 6.86 192.56 6.86 192.19 6.86 191.81 6.86 191.43 6.86 191.05 6.86 190.29 6.86 190.29 9.13 189.92 9.13 189.54 9.13 189.16 9.13 189.16 10.26 190.29 10.26 190.29 11.4 192.56 11.4 194.83 11.4 197.1 11.4 199.37 11.4 199.37 9.13 197.11 9.13 197.11 6.86 197.1 6.86 195.59 6.86 194.83 6.86"/><polygon points="190.29 20.47 190.29 15.95 190.29 15.94 189.16 15.94 189.16 20.47 190.29 20.47"/><polygon points="190.29 3.45 190.29 2.32 188.03 2.32 188.03 3.45 189.3 3.45 190.29 3.45"/><polygon points="201.64 3.45 201.64 4.13 201.64 4.59 201.64 2.32 201.64 2.77 201.64 3.45"/><path d="M199.37,9.13v0Z"/><path d="M200.51,12.53V11.4h.57v1.13Zm-1.14-1.13h.57v1.13h-.57V11.4h-.56v1.13h-.57V11.4h-.57v1.13h-.57v3.41h-2.27V13.67h-2.27v2.27h-1.13v4.52h-1.14V34.09h2.27V31.86h1.14v2.23h1.13V31.86h.57v2.23H196V31.86h.57v2.23h.56V31.86h.57v2.23h.57V31.86h.57v2.23h2.83V18.21h-2.27V15.94h0v2.26h-2.26V16h2.26V13.67h.57v2.27h.57V13.67h.57v2.27h.56V11.4Z"/><polygon points="194.83 3.45 197.1 3.45 197.1 2.77 197.1 2.32 197.1 1.41 197.1 1.19 197.1 0.05 196.54 0.05 196.54 1.19 195.97 1.19 195.97 0.05 195.4 0.05 195.4 1.19 194.83 1.19 192.56 1.19 192.56 2.32 192.56 3.45 192.56 3.45 194.83 3.45 194.83 3.45"/><rect x="202.21" y="13.67" width="0.57" height="2.27"/><rect x="203.34" y="13.67" width="0.57" height="2.27"/><polygon class="cls-12" points="200.51 15.94 199.94 15.94 199.37 15.94 199.37 18.2 201.64 18.2 201.64 15.94 201.07 15.94 200.51 15.94"/><polygon class="cls-12" points="199.37 9.13 199.37 9.13 201.64 9.13 201.64 6.86 199.37 6.86 199.37 9.13"/><rect class="cls-13" x="199.37" y="0.05" width="2.27"/><polygon class="cls-13" points="201.64 5.5 201.64 4.59 201.64 4.13 199.37 4.13 197.1 4.13 197.1 4.59 197.1 5.5 199.37 5.5 201.64 5.5"/><polygon class="cls-10" points="199.37 9.13 199.37 9.13 199.37 11.4 201.64 11.4 201.64 9.13 199.37 9.13"/><rect class="cls-10" x="185.76" y="6.86" width="2.27" height="2.27"/><rect class="cls-1" x="203.73" y="4.55" width="3.97" height="2.31"/><path class="cls-19" d="M210,30.69h0l0,0Z"/><path class="cls-19" d="M210,30.69h2.24V29.55H210v1.11l0,0Z"/><path class="cls-39" d="M214.52,2.24h0V4.55h2.26V2.24Z"/><path class="cls-40" d="M216.78,2.24V4.55h2.5V2.24Z"/><path class="cls-40" d="M216.78,2.56v0s0,0,0,0Z"/><path class="cls-40" d="M216.78,2.58v0s0,0,0,0Z"/><path class="cls-25" d="M210,30.69V29.55H207.7v1.14Z"/><rect class="cls-2" x="221.31" y="31.78" width="3.4" height="0.04"/><rect class="cls-26" x="200.89" y="29.55" width="2.27" height="1.13"/><path class="cls-27" d="M205,29.55h-1.85v1.14h2.27V29.55Z"/><path class="cls-33" d="M200.89,22.7V20.43h-2.27V22.7Z"/><path class="cls-34" d="M204.69,22.7h.74V20.43h-2.27V22.7Z"/><polygon class="cls-35" points="196.35 22.7 196.35 22.7 198.62 22.7 198.62 20.43 196.35 20.43 196.35 22.7"/><path class="cls-36" d="M206,20.43h-.57V22.7h2.27V20.43Z"/><path class="cls-3" d="M210,30.69H207.7v3.4H210v-3.4Z"/><path class="cls-3" d="M207.7,4.55H210V2.24H207.7V4.55Z"/><path class="cls-3" d="M212.24,2.24h2.28V0h-2.28V2.24Z"/><path class="cls-4" d="M212.24,31.82V30.69H210v3.4h2.27Z"/><path class="cls-4" d="M210,4.55h2.23V2.24H210V4.55Z"/><path class="cls-4" d="M214.52,2.24h2.26V0h-2.26V2.24Z"/><path class="cls-5" d="M216.78,31.82V30.69h-2.27v3.4h2.27Z"/><path class="cls-6" d="M219.05,31.82V30.69h-2.27v3.4h2.27Z"/><path class="cls-7" d="M222.65,9.07a18.77,18.77,0,0,0-4.62.26,8,8,0,0,0-3.66,2h6.95Z"/><path class="cls-7" d="M212.74,13.67h0Z"/><path class="cls-7" d="M200.89,22.7h2.27V20.43h-2.27Z"/><path class="cls-8" d="M213.64,12.19v1.48h3.14V11.36h-3.14Z"/><rect class="cls-8" x="200.89" y="15.85" width="1.7" height="4.58"/><path class="cls-8" d="M212.74,13.67h-.5v2.18h4.54V13.67Z"/><path class="cls-8" d="M214.51,31.82V30.69h-2.27v3.4h2.27Z"/><path class="cls-8" d="M205.42,13.67V9.13h-2.26v4.54Z"/><path class="cls-8" d="M207.56,9.13h.14V6.86h-2.28V9.13Z"/><path class="cls-8" d="M208.83,6.86H210V4.55H207.7V6.86Z"/><path class="cls-8" d="M214.52,4.55h0V2.24H212.2V4.55Z"/><path class="cls-8" d="M216.78,2.24h10L228.12,0c-3,0-6.05,0-9.07,0h-2.27V2.24Z"/><path class="cls-9" d="M210,6.17v.69h2.27v.46c3.81-3.06,8.53-2.76,13.13-2.76l1.4-2.32h-7.49V4.55H210V6.17Z"/><path class="cls-9" d="M207.7,29.55h-2.27v1.14h2.27Z"/><path class="cls-9" d="M204.3,17.07v3.36H206V15.85h1.7V15h0V13.67h2.75V11.36H207.7V9.13h-2.28v4.54h-1.13v2.18h0v1.22Z"/><path class="cls-10" d="M220,11.36h-3.19v2.31h0v2.18h2.27V13.63h2.26V11.36Z"/><path class="cls-1" d="M224.6,18.16h.12l1.13-2.31h-2.27l-1.13,2.31Z"/><path class="cls-1" d="M219.05,15.85l-1.14,2.31h2.27l1.13-2.31Z"/><path class="cls-1" d="M216.64,15.85h-2.15l-1.14,2.31h2.27l1.14-2.31Z"/><path class="cls-1" d="M210,15.85l-2.25,4.58H210l2.25-4.58Z"/><path class="cls-1" d="M212.24,25h0V22.7H210V25Z"/><path class="cls-1" d="M205.43,22.7H205V25h1.64v4.52h1V22.7Z"/><path class="cls-1" d="M210,26.55V25H209v4.52H210Z"/><path class="cls-1" d="M205,25h-.93v4.52H205Z"/><rect class="cls-1" x="224.72" y="31.82" width="3.4" height="2.27"/><path class="cls-1" d="M210.54,9V6.86H210v4.5h.57Z"/><path class="cls-1" d="M211.1,8.35v3h.57V6.86h-.57V8.35Z"/><path class="cls-1" d="M209.4,9.58V6.86h-.57v4.5h.57V9.58Z"/><path class="cls-11" d="M224.57,4.56a36.33,36.33,0,0,0-6.84.26,12.45,12.45,0,0,0-5.49,2.5v3.07a10.23,10.23,0,0,1,5-3.17c2.18-.61,4.51-.4,6.75-.4l1.36-2.26Z"/><path class="cls-11" d="M204.3,20.43V15.85h-1.71v4.58Z"/><path class="cls-11" d="M212.24,15.12V13.67h-4.19a8.07,8.07,0,0,0-.35,2.18h4.54v-.73Z"/><path class="cls-11" d="M208.05,13.67h-.35V15.4a12.33,12.33,0,0,1,.35-1.73Z"/><path d="M207.7,20.43,210,15.85H207.7v4.58Z"/><path d="M206.65,26.55V25H205v4.52h1.64Z"/><path d="M204.08,25H205V22.7h-4.12V25h2.27v4.52h.92V25Z"/><path d="M216.78,25h-2.27V22.79h2.27Zm-2.27,2.24h-2.27V25h2.27Zm4.54-9.12h-1.14l1.14-2.31h-2.29l-1.14,2.31h-2.27l1.14-2.31h-2.27L210,20.43H207.7v9.12h1.35V25H210V22.7h2.27V25H210v4.52h2.27v1.14h6.81v3.4h2.27V31.78h6.8V15.85h-2.27l-1.13,2.31h-2.27l1.14-2.31h-2.27l-1.14,2.31Z"/><path d="M210.54,9v2.39h.56V6.86h-.56V9Z"/><path d="M210,8.61V6.86h-.57v4.5H210V8.61Z"/><path d="M211.67,11.36h.57V6.86h-.57v4.5Z"/><path d="M208.83,11.36V6.86h-.56v4.5Z"/><path d="M206.56,6.86h0V4.55H206V6.86Z"/><path d="M204.86,6.86h.56V4.55h-.56V6.86Z"/><path d="M207.7,4.55h-.57V6.86h.57V4.55Z"/><path d="M203.73,6.86h.57V4.55h-.57Z"/><path d="M196.34,20.44"/><rect class="cls-12" x="224.72" y="31.78" width="3.4" height="0.04"/><rect class="cls-12" x="221.31" y="31.82" width="3.4" height="2.27"/><path class="cls-13" d="M222.65,9.07,224,6.82c-2.44,0-4.93-.25-7.28.55a10.23,10.23,0,0,0-3,1.58,10.51,10.51,0,0,0-1.54,1.44s0,.49,0,1h2.13a8.27,8.27,0,0,1,2.5-1.66c1.84-.77,3.83-.63,5.78-.63Z"/><path class="cls-13" d="M210.36,13.67Z"/><path class="cls-13" d="M207.7,20.43h0V15h0v.86H206v4.58Z"/><path class="cls-13" d="M204.3,15V13.67h-3.41v2.18h3.41Z"/><rect class="cls-1" x="207.7" y="6.86" width="0.57" height="4.5"/><rect class="cls-1" x="195.89" y="18.16" width="0.57" height="2.27"/><rect class="cls-1" x="197.03" y="18.16" width="0.57" height="2.27"/><rect class="cls-1" x="194.76" y="18.16" width="0.57" height="2.27"/><rect x="196.46" y="18.16" width="0.57" height="2.27"/><rect x="195.32" y="18.16" width="0.57" height="2.27"/><path d="M198.16,18.16h-.57v2.27h.57Z"/><rect class="cls-1" x="199.3" y="18.16" width="0.57" height="2.27"/><rect class="cls-1" x="200.43" y="18.16" width="0.57" height="2.27"/><rect class="cls-1" x="198.16" y="18.16" width="0.57" height="2.27"/><rect x="199.86" y="18.16" width="0.57" height="2.27"/><rect x="198.73" y="18.16" width="0.57" height="2.27"/><path d="M201.56,18.16H201v2.27h.56Z"/><path class="cls-1" d="M203.32,15.33v.56h.49v-.56Z"/><rect class="cls-1" x="202.35" y="15.33" width="0.49" height="0.57"/><rect class="cls-1" x="201.38" y="15.33" width="0.49" height="0.57"/><path d="M203.32,15.89v-.56h-.48v.56Z"/><rect x="201.86" y="15.33" width="0.49" height="0.57"/><path d="M203.81,15.33v.56h.48v-.56Z"/><rect x="200.89" y="15.33" width="0.49" height="0.57"/><rect class="cls-1" x="197.49" y="22.7" width="1.14" height="0.82"/><rect class="cls-1" x="195.21" y="22.7" width="1.14" height="0.82"/><rect x="196.35" y="22.7" width="1.14" height="0.82"/><rect x="194.07" y="22.7" width="1.14" height="0.82"/><rect class="cls-11" x="209.97" y="11.35" width="3.7" height="2.31"/><line class="cls-10" x1="25.23" y1="20.47" x2="25.23" y2="20.47"/><rect class="cls-19" x="33.83" y="12.53" width="2.27" height="1.13"/><polygon class="cls-29" points="29.3 11.4 28.16 11.4 27.03 11.4 27.03 12.53 29.3 12.53 29.3 11.4"/><polygon class="cls-29" points="29.3 11.4 29.3 11.4 29.3 12.53 29.3 11.4"/><path class="cls-29" d="M29.3,11.4"/><polygon class="cls-28" points="31.57 11.4 31.57 11.4 29.3 11.4 31.57 11.4"/><rect class="cls-28" x="29.3" y="11.4" width="2.27" height="1.13"/><polygon class="cls-37" points="36.1 11.4 36.1 11.4 33.83 11.4 36.1 11.4"/><path class="cls-37" d="M36.1,11.4h0Z"/><rect class="cls-37" x="33.83" y="11.4" width="2.27" height="1.13"/><polygon class="cls-38" points="36.1 11.4 36.67 11.4 37.24 11.4 37.81 11.4 38.37 11.4 36.1 11.4"/><rect class="cls-31" x="27.03" y="6.86" width="1.13" height="2.27"/><rect class="cls-31" x="28.16" y="6.86" width="0.38" height="2.27"/><rect class="cls-31" x="28.54" y="6.86" width="0.38" height="2.27"/><rect class="cls-31" x="28.92" y="6.86" width="0.38" height="2.27"/><path class="cls-31" d="M29.3,6.86"/><path class="cls-31" d="M29.3,9.13v0Z"/><polygon class="cls-32" points="31.19 6.86 31.19 6.86 31.57 6.86 31.19 6.86"/><polygon class="cls-32" points="30.81 6.86 30.81 6.86 31.19 6.86 30.81 6.86"/><polygon class="cls-32" points="30.43 6.86 30.43 6.86 30.81 6.86 30.43 6.86"/><polygon class="cls-32" points="30.05 6.86 30.05 6.86 30.43 6.86 30.05 6.86"/><polygon class="cls-32" points="29.3 6.86 29.3 6.86 30.05 6.86 29.3 6.86"/><rect class="cls-25" x="31.57" y="12.53" width="2.27" height="1.13"/><polygon class="cls-2" points="36.11 15.95 36.11 18.2 38.37 18.2 38.37 15.95 38.37 15.94 36.11 15.94 36.11 15.95"/><polygon class="cls-2" points="36.11 9.13 38.37 9.13 38.37 6.86 37.62 6.86 36.11 6.86 36.11 9.13"/><line class="cls-26" x1="27.03" y1="13.67" x2="27.03" y2="12.53"/><polygon class="cls-27" points="29.3 12.53 29.3 12.53 27.03 12.53 27.03 13.67 29.3 13.67 29.3 12.53"/><polygon class="cls-7" points="36.1 5.5 36.1 6.86 36.11 6.86 37.62 6.86 38.37 6.86 40.64 6.86 40.64 5.5 38.37 5.5 36.1 5.5"/><polygon class="cls-8" points="31.57 3.45 31.57 3.45 33.83 3.45 31.57 3.45 31.57 3.45 31.57 2.32 31.57 1.19 33.83 1.19 33.83 0.05 31.57 0.05 31.57 2.32 31.57 3.45"/><polygon class="cls-8" points="38.37 0.05 37.81 0.05 37.24 0.05 36.67 0.05 36.1 0.05 36.1 1.19 36.1 1.41 38.37 1.41 40.64 1.41 40.64 1.19 40.64 0.05 38.37 0.05"/><rect class="cls-9" x="29.3" y="12.53" width="2.27" height="1.13"/><polygon class="cls-9" points="38.37 1.41 36.1 1.41 36.1 2.32 36.1 2.77 38.37 2.77 40.64 2.77 40.64 2.32 40.64 1.41 38.37 1.41"/><polygon class="cls-9" points="31.57 6.86 33.08 6.86 33.83 6.86 33.83 4.59 36.1 4.59 33.83 4.59 33.83 3.45 33.83 4.59 31.57 4.59 29.3 4.59 31.57 4.59 31.57 6.86"/><polygon class="cls-9" points="36.1 0.05 36.67 0.05 37.24 0.05 37.81 0.05 38.37 0.05 38.37 0.05 36.1 0.05 36.1 0.05"/><path class="cls-9" d="M36.1,3.45"/><polygon class="cls-10" points="29.3 3.45 29.3 3.45 31.57 3.45 31.57 2.32 31.57 0.05 29.3 0.05 29.3 2.32 29.3 3.45"/><line class="cls-10" x1="27.03" y1="9.13" x2="27.03" y2="6.86"/><rect class="cls-1" x="33.83" y="13.67" width="2.27" height="2.27"/><rect class="cls-1" x="28.16" y="10.26" width="1.13" height="1.13"/><polygon class="cls-1" points="29.3 15.94 29.3 15.95 29.3 20.47 30.43 20.47 30.43 15.95 30.43 15.94 31.57 15.94 31.57 13.67 29.3 13.67 29.3 15.94"/><polygon class="cls-1" points="29.3 20.47 29.3 20.47 28.16 20.47 28.16 25.01 29.3 25.01 29.3 20.47"/><polygon class="cls-1" points="29.3 4.59 29.3 4.59 31.57 4.59 33.83 4.59 33.83 3.45 31.57 3.45 31.57 3.45 29.3 3.45 28.3 3.45 27.03 3.45 27.03 4.59 28.3 4.59 29.3 4.59"/><rect class="cls-1" x="36.1" y="31.86" width="0.57" height="2.23"/><rect class="cls-1" x="37.24" y="31.86" width="0.57" height="2.23"/><rect class="cls-1" x="33.83" y="31.86" width="0.57" height="2.23"/><rect class="cls-1" x="34.97" y="31.86" width="0.57" height="2.23"/><rect class="cls-1" x="38.37" y="11.4" width="0.57" height="1.13"/><rect class="cls-1" x="39.51" y="11.4" width="0.57" height="1.13"/><rect class="cls-1" x="36.1" y="11.4" width="0.57" height="1.13"/><polygon class="cls-1" points="37.24 12.53 37.24 12.53 37.81 12.53 37.81 11.4 37.24 11.4 37.24 12.53"/><polygon class="cls-1" points="34.4 1.19 34.4 1.19 34.4 0.05 33.83 0.05 33.83 1.19 34.4 1.19"/><rect class="cls-1" x="34.97" y="0.05" width="0.57" height="1.13"/><rect class="cls-1" x="31.57" y="31.86" width="1.13" height="2.23"/><polygon class="cls-1" points="40.64 15.94 40.64 18.2 42.91 18.2 42.91 15.94 42.34 15.94 42.34 13.67 41.78 13.67 41.78 15.94 41.21 15.94 41.21 13.67 40.64 13.67 40.64 15.94"/><line class="cls-1" x1="27.03" y1="12.53" x2="27.03" y2="11.4"/><rect class="cls-1" x="38.37" y="13.67" width="0.57" height="2.27"/><rect class="cls-1" x="39.51" y="13.67" width="0.57" height="2.27"/><polygon class="cls-11" points="30.05 6.86 30.43 6.86 30.81 6.86 31.19 6.86 31.57 6.86 31.57 4.59 29.3 4.59 29.3 6.86 30.05 6.86"/><polygon class="cls-11" points="33.83 6.86 34.59 6.86 36.1 6.86 36.1 5.5 36.1 4.59 33.83 4.59 33.83 6.86"/><rect class="cls-11" x="31.57" y="11.4" width="2.27" height="1.13"/><polygon class="cls-11" points="33.83 4.59 36.1 4.59 36.1 4.13 38.37 4.13 40.64 4.13 40.64 3.45 40.64 2.77 38.37 2.77 36.1 2.77 36.1 3.45 33.83 3.45 33.83 4.59"/><polygon class="cls-11" points="33.83 1.19 33.83 0.05 34.4 0.05 34.97 0.05 35.54 0.05 36.1 0.05 36.1 0.05 33.83 0.05 33.83 1.19"/><polygon points="33.83 6.86 33.08 6.86 31.57 6.86 31.19 6.86 30.81 6.86 30.43 6.86 30.05 6.86 29.3 6.86 29.3 9.13 28.92 9.13 28.54 9.13 28.16 9.13 28.16 10.26 29.3 10.26 29.3 11.4 31.57 11.4 33.83 11.4 36.1 11.4 38.37 11.4 38.37 9.13 36.11 9.13 36.11 6.86 36.1 6.86 34.59 6.86 33.83 6.86"/><polygon points="29.3 20.47 29.3 15.95 29.3 15.94 28.16 15.94 28.16 20.47 29.3 20.47"/><polygon points="29.3 3.45 29.3 2.32 27.03 2.32 27.03 3.45 28.3 3.45 29.3 3.45"/><polygon points="40.64 3.45 40.64 4.13 40.64 4.59 40.64 2.32 40.64 2.77 40.64 3.45"/><path d="M38.37,9.13v0Z"/><path d="M39.51,12.53V11.4h.57v1.13ZM38.37,11.4h.57v1.13h-.57V11.4h-.56v1.13h-.57V11.4h-.57v1.13H36.1v3.41H33.83V13.67H31.56v2.27H30.43v4.52H29.29V34.09h2.27V31.86H32.7v2.23h1.13V31.86h.57v2.23H35V31.86h.57v2.23h.56V31.86h.57v2.23h.57V31.86h.57v2.23h2.83V18.21H38.37V15.94h0v2.26H36.11V16h2.26V13.67h.57v2.27h.57V13.67h.57v2.27h.56V11.4Z"/><polygon points="33.83 3.45 36.1 3.45 36.1 2.77 36.1 2.32 36.1 1.41 36.1 1.19 36.1 0.05 35.54 0.05 35.54 1.19 34.97 1.19 34.97 0.05 34.4 0.05 34.4 1.19 33.83 1.19 31.57 1.19 31.57 2.32 31.57 3.45 31.57 3.45 33.83 3.45 33.83 3.45"/><rect x="41.21" y="13.67" width="0.57" height="2.27"/><rect x="42.34" y="13.67" width="0.57" height="2.27"/><polygon class="cls-12" points="39.51 15.94 38.94 15.94 38.37 15.94 38.37 18.2 40.64 18.2 40.64 15.94 40.08 15.94 39.51 15.94"/><polygon class="cls-12" points="38.37 9.13 38.37 9.13 40.64 9.13 40.64 6.86 38.37 6.86 38.37 9.13"/><rect class="cls-13" x="38.37" y="0.05" width="2.27"/><polygon class="cls-13" points="40.64 5.5 40.64 4.59 40.64 4.13 38.37 4.13 36.1 4.13 36.1 4.59 36.1 5.5 38.37 5.5 40.64 5.5"/><polygon class="cls-10" points="38.37 9.13 38.37 9.13 38.37 11.4 40.64 11.4 40.64 9.13 38.37 9.13"/><rect class="cls-10" x="24.76" y="6.86" width="2.27" height="2.27"/><rect class="cls-1" x="34.35" y="22.74" width="1.14" height="2.31"/><rect class="cls-1" x="36.62" y="22.74" width="1.14" height="2.31"/><rect class="cls-1" x="32.08" y="22.74" width="1.14" height="2.31"/><rect x="35.48" y="22.74" width="1.14" height="2.31"/><rect x="33.21" y="22.74" width="1.14" height="2.31"/><path d="M38.89,22.74H37.76v2.31h1.13Z"/><path class="cls-41" d="M49,20.59v0Z"/><polygon class="cls-41" points="60.35 21.38 60.35 21.38 60.35 20.47 60.35 20.59 60.35 21.38"/><polygon class="cls-42" points="47.87 30.08 47.87 27.32 46.73 27.32 45.6 27.32 45.6 27.62 45.6 29.62 45.6 31.86 47.87 31.86 47.87 30.13 47.87 30.08"/><polygon class="cls-43" points="50.13 31.29 50.13 27.78 50.13 27.32 49 27.32 47.87 27.32 47.87 30.08 47.87 30.13 47.87 31.86 50.13 31.86 50.13 31.63 50.13 31.29"/><polygon class="cls-44" points="54.67 27.32 53.54 27.32 52.4 27.32 52.4 28.69 52.4 31.86 54.67 31.86 54.67 29.6 54.67 27.32"/><polygon class="cls-45" points="54.67 29.6 54.67 31.86 56.94 31.86 56.94 30.51 56.94 27.32 55.81 27.32 54.67 27.32 54.67 29.6"/><polygon class="cls-3" points="51.27 2.32 53.54 2.32 53.54 1.03 53.54 0.05 51.27 0.05 51.27 2 51.27 2.32"/><polygon class="cls-4" points="53.54 2.32 55.81 2.32 55.81 0.42 55.81 0.05 53.54 0.05 53.54 1.03 53.54 2.32"/><path class="cls-8" d="M51.27,4.63h.51a14.62,14.62,0,0,1,14.68,0h1.1L68.65,3l-.13-.09A18.76,18.76,0,0,0,58.08.05H55.81V2.32H50.65c-.38.21-.75.44-1.12.69l1.12,1.62Z"/><polygon class="cls-8" points="51.24 20.59 51.24 20.47 51.24 20.14 51.24 18.73 51.24 18.34 51.24 15.94 50.68 15.94 50.12 15.94 49.56 15.94 49 15.94 49 18.34 49 18.73 49 20.14 49 20.47 49 20.59 51.24 20.59"/><polygon class="cls-8" points="49 21.95 49 21.38 49 21.04 49 20.59 46.73 20.59 46.73 21.04 46.73 21.38 46.73 21.95 46.73 22.85 49 22.85 49 21.95"/><path class="cls-9" d="M49,6.86h0v0h4.54V6.6h0a12.07,12.07,0,0,1,9.08-.88V6.9h2.26V9.17h2.67V4.63H66.46a14.62,14.62,0,0,0-14.68,0H49V6.86Z"/><polygon class="cls-9" points="51.27 20.59 51.27 21.04 51.27 21.38 51.27 21.95 51.27 22.85 53.54 22.85 53.54 21.95 53.54 21.38 53.54 20.59 53.54 20.59 51.27 20.59"/><polygon class="cls-9" points="52.4 31.86 52.4 28.69 52.4 27.32 51.27 27.32 50.13 27.32 50.13 27.78 50.13 31.29 50.13 31.63 50.13 31.86 51.24 31.86 51.56 31.86 52.4 31.86"/><polygon class="cls-9" points="56.89 13.71 56.89 13.71 56.88 13.71 55.81 13.71 55.81 13.72 55.81 13.82 55.81 14.85 55.81 15.94 54.67 15.94 53.54 15.94 53.54 18.73 53.54 20.14 53.54 20.47 53.54 20.59 55.81 20.59 55.81 20.47 55.81 18.25 55.81 15.94 58.08 15.94 58.41 15.94 58.41 15.94 58.41 15.94 60.32 15.94 60.32 14.85 60.32 14.85 60.32 13.71 58.08 13.71 56.89 13.71"/><polygon class="cls-10" points="46.73 21.95 46.73 21.38 46.73 21.04 46.73 20.59 49 20.59 49 20.47 49 20.14 49 18.73 49 18.34 49 15.94 48.16 15.94 46.73 15.94 46.73 18.34 46.73 20.14 46.73 20.47 46.73 20.59 44.46 20.59 44.46 21.38 44.46 22.74 44.46 22.85 46.73 22.85 46.73 21.95"/><path class="cls-1" d="M64.89,11.44v0Z"/><polygon class="cls-1" points="45.6 11.45 46.73 11.45 46.73 5.43 46.73 4.59 45.6 4.59 45.6 6.8 45.6 11.45"/><polygon class="cls-1" points="42.48 13.67 44.46 13.67 44.46 13.71 44.46 11.45 44.46 8.53 44.46 4.59 43.23 4.59 43.33 4.59 43.33 10.87 43.33 11.45 43.23 11.45 43.11 11.45 42.19 11.45 42.19 13.71 42.19 13.67 42.48 13.67"/><path class="cls-1" d="M49,20.14v0Z"/><polygon class="cls-1" points="42.19 18.34 42.19 20.47 42.19 20.59 42.19 20.47 42.19 18.34"/><rect class="cls-1" x="37.65" y="18.21" width="2.27" height="2.26"/><polygon class="cls-1" points="44.46 15.94 42.21 15.94 42.19 15.94 42.19 18.19 42.24 18.19 44.46 18.19 44.46 15.94"/><polygon class="cls-1" points="59.21 27.32 60.35 27.32 60.35 25.01 58.08 25.01 58.08 27.32 59.21 27.32"/><polygon class="cls-1" points="52.59 23.75 51.27 25.01 53.54 25.01 53.54 27.32 54.67 27.32 55.81 27.32 55.81 25.01 53.54 25.01 54.86 23.75 55.81 22.85 53.54 22.85 52.59 23.75"/><polygon class="cls-1" points="58.08 20.59 58.08 21.38 58.08 22.85 60.35 22.85 60.35 21.38 60.35 20.59 58.08 20.59"/><polygon class="cls-1" points="59.4 23.75 60.35 22.85 58.08 22.85 57.13 23.75 55.81 25.01 58.08 25.01 59.4 23.75"/><polygon class="cls-1" points="49 25.01 50.32 23.75 51.27 22.85 49 22.85 48.05 23.75 46.73 25.01 49 25.01 49 27.32 50.13 27.32 51.27 27.32 51.27 25.01 49 25.01"/><path class="cls-10" d="M55.81,11.16v2.55h4.51v-3.3a6.73,6.73,0,0,0-4.51.75Z"/><polygon class="cls-1" points="53.54 13.82 53.54 14.85 55.81 14.85 55.81 13.82 55.81 13.72 53.54 13.72 53.54 13.82"/><polygon class="cls-1" points="51.84 14.85 51.84 13.82 51.84 13.72 51.84 13.71 51.84 11.45 51.27 11.45 51.27 13.71 51.27 13.72 51.27 13.82 51.27 14.85 51.27 15.94 51.84 15.94 51.84 14.85"/><polygon class="cls-1" points="52.4 13.72 52.4 13.82 52.4 14.85 52.4 15.94 52.97 15.94 52.97 14.85 52.97 13.82 52.97 13.72 52.97 11.45 52.4 11.45 52.4 13.72"/><polygon class="cls-1" points="49.57 14.85 49.57 14.85 49.57 13.82 49.57 13.72 49.57 11.45 49 11.45 49 13.72 49 13.82 49 14.85 49 15.94 49.57 15.94 49.57 14.85"/><polygon class="cls-1" points="50.7 14.85 50.7 13.82 50.7 13.72 50.7 11.45 50.13 11.45 50.13 13.72 50.13 13.82 50.13 14.85 50.13 15.94 50.7 15.94 50.7 14.85"/><polygon class="cls-11" points="52.4 15.94 51.84 15.94 51.27 15.94 51.27 18.34 51.27 18.73 51.27 20.14 51.27 20.47 51.27 20.59 53.54 20.59 53.54 20.59 53.54 20.47 53.54 20.14 53.54 18.73 53.54 15.94 52.97 15.94 52.4 15.94"/><polygon class="cls-11" points="49 21.38 49 21.95 49 22.85 51.27 22.85 51.27 21.95 51.27 21.38 51.27 21.04 51.27 20.59 49 20.59 49 21.04 49 21.38"/><path class="cls-11" d="M50.13,11.44h1.14V9.17H54.2l0,0c.16-.09.32-.19.49-.27l0,0a8.15,8.15,0,0,1,1.05-.46l.42-.15h0l.22-.07h0a10.42,10.42,0,0,1,1.85-.35h.12a8.55,8.55,0,0,1,.88,0h.14c.3,0,.57,0,.88.07V9.17h4.57V6.9H62.62V5.71a12.07,12.07,0,0,0-9.08.88h0v.3H51.27V9.17H49v2.27h1.13Z"/><path class="cls-11" d="M56.45,8.17a10.42,10.42,0,0,1,1.85-.35,10.42,10.42,0,0,0-1.85.35Z"/><path class="cls-11" d="M59.44,7.79c.3,0,.57,0,.88.07-.31,0-.58-.06-.88-.07Z"/><path class="cls-11" d="M56.23,8.24l.22-.07-.22.07Z"/><path class="cls-11" d="M58.42,7.81a8.55,8.55,0,0,1,.88,0,8.55,8.55,0,0,0-.88,0Z"/><polyline points="39.92 11.45 39.92 13.71 42.19 13.71 42.19 11.45 41.06 11.45 41.02 11.45 39.92 11.45"/><rect x="39.92" y="18.21" width="2.27" height="2.26"/><polygon points="53.54 25.01 51.27 25.01 51.27 27.32 52.4 27.32 53.54 27.32 53.54 25.01"/><path d="M60.35,20.47h0v2.38H58.08V20.59h2.27Zm-2.27-2.22h0v2.34H55.81v2.26l-1,.9L53.54,25h2.27l1.32-1.26.95-.9h2.27l-1,.9L58.08,25h2.27v2.31H58.08V25H55.81v2.31h1.13v4.54h-5.7l0,0v2.25h9.08a17.13,17.13,0,0,0,8.33-3l.12-.08L60.32,18.76v-.51Z"/><polygon points="49 25.01 51.27 25.01 52.59 23.75 53.54 22.85 51.27 22.85 50.32 23.75 49 25.01"/><polygon points="46.73 25.01 48.05 23.75 49 22.85 46.73 22.85 44.46 25.01 44.46 25.11 44.46 26 44.46 27.32 45.38 27.32 45.6 27.32 46.73 27.32 47.87 27.32 49 27.32 49 25.01 46.73 25.01"/><polygon points="42.19 11.45 43.11 11.45 43.23 11.45 43.33 11.45 43.33 10.87 43.33 4.59 43.23 4.59 42.19 4.59 42.19 11.45"/><path d="M42.19,20.47V25h2.27V20.59h2.27V15.94H49V9.17h2.27V6.9H49v0h0V4.63h1.65L49.53,3l-.13.09a15.55,15.55,0,0,0-1.85,1.5h-.82v6.85H45.6V4.59H44.46v9.08H42.19v0H39.93v1.13h2.26v1.09h2.27v2.25H42.24v0h-.06v2.26Z"/><polygon points="51.27 15.94 51.27 14.85 51.27 13.82 51.27 13.72 51.27 13.71 51.27 11.45 51.84 11.45 51.84 13.71 51.84 13.72 51.84 13.82 51.84 14.85 51.84 15.94 52.4 15.94 52.4 14.85 52.4 13.82 52.4 13.72 52.4 11.45 52.18 11.45 52.18 10.83 52.18 9.17 51.27 9.17 51.27 10.27 51.27 11.45 50.7 11.45 50.7 13.72 50.7 13.82 50.7 14.85 50.7 15.94 51.27 15.94"/><polygon points="55.81 9.17 54.9 9.17 54.9 10.81 54.9 10.83 54.9 11.45 53.99 11.45 53.99 9.51 53.99 9.5 53.99 9.3 53.99 9.3 53.99 9.17 53.76 9.17 53.54 9.17 53.09 9.17 53.09 9.96 53.09 11.45 52.97 11.45 52.97 13.72 52.97 13.82 52.97 14.85 52.97 15.94 53.54 15.94 54.67 15.94 55.81 15.94 55.81 14.85 53.54 14.85 53.54 13.82 53.54 13.72 55.81 13.72 55.81 13.71 55.81 12.15 55.81 12.12 55.81 11.45 55.81 11.16 55.81 9.17"/><polygon points="50.13 14.85 50.13 13.82 50.13 13.72 50.13 11.45 49.57 11.45 49.57 13.72 49.57 13.82 49.57 14.85 49.57 15.94 50.13 15.94 50.13 14.85"/><path class="cls-13" d="M54.9,10.83h0V9.17h.91v2a6.73,6.73,0,0,1,4.51-.75v1h4.56V9.17H60.32V7.86a8.89,8.89,0,0,0-.89-.07H59.3a8.55,8.55,0,0,0-.88,0H58.3a10.42,10.42,0,0,0-1.85.35l-.22.07-.42.15a8.15,8.15,0,0,0-1.05.46l0,0-.48.27,0,0H54V9.3h0v.2h0v1.94h.91v-.61Z"/><polygon class="cls-13" points="52.97 11.45 53.09 11.45 53.09 9.96 53.09 9.17 52.18 9.17 52.18 10.83 52.18 11.45 52.4 11.45 52.97 11.45"/><polygon class="cls-13" points="58.08 20.47 58.08 18.25 60.32 18.25 60.32 15.94 58.41 15.94 58.41 15.94 58.41 15.94 58.08 15.94 55.81 15.94 55.81 18.25 55.81 20.47 55.81 20.59 58.08 20.59 58.08 20.47"/><polygon class="cls-13" points="55.81 22.85 55.81 21.38 55.81 20.59 53.54 20.59 53.54 21.38 53.54 21.95 53.54 22.85 55.81 22.85 55.81 22.85"/><rect class="cls-1" x="39.92" y="20.46" width="0.57" height="2.28"/><rect class="cls-1" x="41.06" y="20.46" width="0.57" height="2.28"/><rect class="cls-1" x="38.79" y="20.46" width="0.57" height="2.28"/><rect x="40.49" y="20.46" width="0.57" height="2.28"/><rect x="39.36" y="20.46" width="0.57" height="2.28"/><path d="M42.2,20.46h-.57v2.28h.57Z"/><rect class="cls-1" x="41.06" y="9.17" width="0.57" height="2.28"/><rect class="cls-1" x="42.2" y="9.17" width="0.57" height="2.28"/><rect class="cls-1" x="39.92" y="9.17" width="0.57" height="2.28"/><rect x="41.63" y="9.17" width="0.57" height="2.28"/><rect x="40.49" y="9.17" width="0.57" height="2.28"/><path d="M43.33,9.17h-.57v2.28h.57Z"/><polygon class="cls-1" points="44.46 25.01 44.46 22.85 46.73 22.85 44.46 25.01"/><path d="M173.78,19.33V17.06h-2.29v2.27h0V21.6h2.27Z"/><rect class="cls-1" x="66.1" y="22.74" width="0.57" height="2.35"/><rect class="cls-1" x="67.24" y="22.74" width="0.57" height="2.35"/><rect class="cls-1" x="64.97" y="22.74" width="0.57" height="2.35"/><rect x="66.67" y="22.74" width="0.57" height="2.35"/><rect x="65.53" y="22.74" width="0.57" height="2.35"/><path d="M68.37,22.74H67.8v2.35h.57Z"/><rect class="cls-1" x="68.37" y="0.05" width="2.27" height="6.81"/><path class="cls-29" d="M70.64,19.38V18.21H68.37v2.26h2.27Z"/><path class="cls-28" d="M70.64,18.21v2.26h2.27V18.21Z"/><path class="cls-37" d="M75.18,18.21h0v2.26h2.27V18.21Z"/><polygon class="cls-38" points="79.72 20.47 79.72 20.46 79.71 20.47 79.72 20.47"/><path class="cls-38" d="M79.39,18.21H77.45v2.26h2.26c.07-.74,0-1.51,0-2.26Z"/><rect class="cls-19" x="79.72" y="6.86" width="1.42" height="0.01"/><polygon class="cls-19" points="81.14 8.56 80.86 9.13 81.14 9.13 81.14 8.56"/><path class="cls-19" d="M81.14,6.86H79.72V9.13h1.14a1.78,1.78,0,0,0,.28-.94V6.86Z"/><path class="cls-19" d="M82,20.47H79.72V25H82Z"/><path class="cls-25" d="M77.45,9.13h2.27V6.86H77.45V9.13Z"/><path class="cls-25" d="M77.7,20.47h-.25V25h2.27V20.47Z"/><path class="cls-26" d="M72.91,8.54V6.86H71.78V9.13h1.13Z"/><path class="cls-26" d="M72.91,22.86V21H70.64v4h2.27Z"/><path class="cls-26" d="M71.78,20.47h0Z"/><path class="cls-27" d="M72.91,8.54v.59h2.27V6.86H72.91V8.54Z"/><path class="cls-27" d="M74.5,20.47h0Z"/><rect class="cls-27" x="72.91" y="21.04" width="2.27" height="3.97"/><path class="cls-3" d="M71.21,17.64h1.7v-1.7H70.64v1.7Z"/><path class="cls-4" d="M72.91,15.94v2.27h2.27V15.94H72.91v0Z"/><path class="cls-5" d="M79.39,18.21h.33V15.94H77.45v2.27Z"/><path class="cls-6" d="M81.22,18.21H82V15.94H79.72v2.27Z"/><path class="cls-7" d="M79.72,25h0Z"/><path class="cls-7" d="M86.53,34.09H84.26V29.55H82v4.54h4.54Z"/><rect class="cls-7" x="70.64" y="11.39" width="1" height="0.01"/><path class="cls-7" d="M79.72,29.55H82V27.28H79.72Z"/><path class="cls-7" d="M66.08,6.29h1.09v-4H66.08v4Z"/><path class="cls-8" d="M75.18,34.09V29.55H72.91V27.28H68.37v2.27h4.54v2.27H70.64v2.27h4.54Z"/><path class="cls-8" d="M75.18,18.21h2.27V15.94H75.18Z"/><rect class="cls-8" x="63.13" y="4.59" width="1.56" height="1.7"/><rect class="cls-8" x="63.13" y="7.43" width="1.56" height="1.7"/><rect class="cls-8" x="64.69" y="9.13" width="1.4" height="2.27"/><rect class="cls-8" x="82.7" y="2.32" width="1.56" height="2.27"/><path class="cls-8" d="M81.14,8.56v.57H82.7V4.59H81.14v4Z"/><path class="cls-9" d="M77.45,34.09V29.55H75.18v4.54h2.27Z"/><path class="cls-9" d="M72.91,29.55h2.27V27.28H72.91Z"/><path class="cls-9" d="M75.18,6.86V9.13h2.27V6.86Z"/><path class="cls-9" d="M67.17,9.13H66.08V11.4h1.09V9.13Z"/><path class="cls-9" d="M66.08,6.29v-4H64.69v4Z"/><rect class="cls-9" x="64.69" y="7.43" width="1.4" height="1.7"/><path class="cls-9" d="M77.45,23.87V20.48H75.18V25h2.27Z"/><path class="cls-9" d="M70.64,27.28V25H68.37v2.27Z"/><polygon class="cls-10" points="80.72 25.01 80.72 25.01 81.99 25.01 80.72 25.01"/><path class="cls-10" d="M71.64,11.4h0Z"/><path class="cls-10" d="M88.8,32.23V29.55H86.53v4.54h3.52L88.8,32.23Z"/><polygon class="cls-1" points="70.64 6.86 70.64 6.86 71.78 6.86 70.64 6.86"/><path class="cls-1" d="M68.37,18.21h.57v-.57h.57v.57h.57v-.57h.56v-1.7H68.37Z"/><polygon class="cls-1" points="70.64 14.64 70.64 14.12 68.37 14.12 68.37 15.03 70.64 15.03 70.64 14.64"/><path class="cls-1" d="M72.91,15.94V15H70.64v.91Z"/><path class="cls-1" d="M82.7,6.86V9.13H80.86l-1.14,2.26h3c0-.39,0-.78,0-1.16a2.84,2.84,0,0,1,.42-1.11h1.14V4.59H82.7V6.86Z"/><path class="cls-1" d="M70.64,11.4v2.72h2.27V11.4Z"/><polygon class="cls-1" points="75.18 11.4 75.18 11.4 77.45 11.4 75.18 11.4"/><path class="cls-1" d="M76.69,9.13h-.37l-1.14,2.26h2.27l1.14-2.26Z"/><polygon class="cls-1" points="70.64 11.39 72.91 11.39 74.05 9.13 71.78 9.13 70.64 11.39"/><polygon class="cls-1" points="69.51 9.13 68.37 9.13 68.37 10.82 69.51 9.13"/><polygon class="cls-1" points="79.58 4.59 79.11 4.59 79.11 2.32 79.58 2.32 78.02 2.32 78.54 2.32 78.54 4.59 78.02 4.59 78.02 6.86 79.58 6.86 79.58 4.59"/><path class="cls-1" d="M75.71,4.59V2.32h.57V4.59Zm.75,2.27V4.59h.38V2.32H74.9V6.86Z"/><path class="cls-1" d="M71.78,1.75V6.86h1.56V2.32h-.43V.05H71.78v1.7Z"/><path class="cls-1" d="M67.17,6.86h1.2V6.29h-1.2Z"/><path class="cls-1" d="M66.08,6.86V6.29H64.69v.57Z"/><rect class="cls-1" x="61.57" y="6.29" width="1.56" height="0.57"/><path class="cls-1" d="M68.37,7.43h1.85V6.86H68.37v.57Z"/><rect class="cls-1" x="66.08" y="6.86" width="1.08" height="0.57"/><path class="cls-1" d="M64.69,6.86H63.13v.57h1.56Z"/><rect class="cls-1" x="77.41" y="2.32" width="0.57" height="2.27"/><path class="cls-1" d="M71.21,31.82V29.55h-.57v2.27Z"/><path class="cls-1" d="M71.78,31.82h.56V29.55h-.56Z"/><rect class="cls-1" x="68.37" y="29.55" width="0.57" height="2.27"/><rect class="cls-1" x="69.51" y="29.55" width="0.57" height="2.27"/><path class="cls-1" d="M71.21,17.64h-.57v.57h.57v-.57Z"/><path class="cls-1" d="M72.34,17.64h-.56v.57h.56v-.57Z"/><path class="cls-1" d="M71.78,21v-.57H70.64V21Z"/><rect class="cls-1" x="72.91" y="20.47" width="1.13" height="0.57"/><rect class="cls-1" x="66.1" y="20.47" width="1.13" height="0.57"/><path class="cls-11" d="M79.72,34.09V29.55H77.45v4.54h2.27Z"/><path class="cls-11" d="M72.91,25h0Z"/><path class="cls-11" d="M77.28,29.55h.17V27.28H75.18v2.27Z"/><path class="cls-11" d="M72.91,18.21v2.26h2.27V18.21Z"/><path class="cls-11" d="M68.37,11.39V9.13h-1.2V11.4h1.2Z"/><path d="M79.72,18.21v2.26H82V18.21H79.72Z"/><path d="M70.64,14.64V15h2.27v-.91H70.64Z"/><rect x="68.37" y="15.03" width="2.27" height="0.91"/><path d="M70.64,13.67V11.4H68.37v2.72h2.27Z"/><path d="M68.37,11.39h2.27l1.14-2.26H68.37Z"/><path d="M67.17,6.29h1.2V.05h-1.2V6.29Z"/><path d="M77.41,2.32H78V4.59h-.57ZM78,4.59h.52V2.32h.57V4.59h.47V6.86H78Zm-.57,6.81h0ZM72.91,2.32h.43V6.86H74.9V2.32h1.94V4.59h-.38V6.86h4.68V4.59H82.7V2.32h1.56V9.13H83.12a2.69,2.69,0,0,0-.42,1.11c0,.38,0,.77,0,1.16h-3l1.14-2.26H78.59l-1.14,2.26H75.18l1.14-2.26H74.05l-1.14,2.26h0v2.72h0v1.82H82L91.6,2.46,93.32.05H72.91V2.32Z"/><path d="M71.78,6.86h0V2.32h0V.05H70.64V2.32h-.42V6.86Z"/><path d="M66.08,6.86h1.09V6.29H66.08v.57Z"/><path d="M63.13,6.86h1.56V6.29H63.13Z"/><path d="M67.17,6.86v.57h1.2V6.86Z"/><rect x="64.69" y="6.86" width="1.4" height="0.57"/><rect x="61.57" y="6.86" width="1.56" height="0.57"/><path d="M76.28,4.59V2.32h-.57V4.59Z"/><path d="M71.21,31.82h.57V29.55h-.57Z"/><path d="M70.64,29.55h-.56v2.27h.56Z"/><path d="M72.34,31.78v0h.57V29.55h-.57Z"/><rect x="68.94" y="29.55" width="0.57" height="2.27"/><path d="M71.78,17.64h-.57v.57h.57v-.57Z"/><path d="M72.91,17.64h-.57v.57h.57v-.57Z"/><path d="M70.64,18.21v-.57h-.56v.57Z"/><path d="M69.51,17.64h-.57v.57h.57v-.57Z"/><rect x="71.78" y="20.47" width="1.13" height="0.57"/><path d="M70.64,20.47H69.51V21h1.13Z"/><path d="M74.05,20.47V21h1.13v-.57Z"/><rect x="67.24" y="20.47" width="1.13" height="0.57"/><path class="cls-13" d="M79.72,27.28H77.45v2.27h2.27Z"/><path class="cls-13" d="M82,34.09V29.55H79.72v4.54H82Z"/><path class="cls-13" d="M77.5,25h0Z"/><path class="cls-13" d="M67.17,9.13h4.61V6.86H70.22v.57H66.08v1.7Z"/><path class="cls-13" d="M75.18,6.86h0Z"/><path class="cls-10" d="M84.26,29.55V27.28H82v2.27h2.27v4.54h2.27V29.55Z"/><rect class="cls-1" x="81.23" y="18.21" width="0.76" height="2.27"/><rect class="cls-1" x="82.75" y="18.21" width="0.76" height="2.27"/><rect class="cls-1" x="79.72" y="18.21" width="0.76" height="2.27"/><rect x="81.99" y="18.21" width="0.76" height="2.27"/><rect x="80.48" y="18.21" width="0.76" height="2.27"/><path d="M84.26,21.39v-.9h0V18.21H83.5v2.27H82V25H70.64v2.27H84.26v2.27H88.8V32.2l1.25,1.89h3.27l-9.06-12.7Z"/><rect class="cls-1" x="60.81" y="15.94" width="0.76" height="2.27"/><rect class="cls-1" x="62.32" y="15.94" width="0.76" height="2.27"/><rect class="cls-1" x="59.3" y="15.94" width="0.76" height="2.27"/><rect x="61.57" y="15.94" width="0.76" height="2.27"/><rect x="60.05" y="15.94" width="0.76" height="2.27"/><path d="M63.83,15.94h-.75v2.27h.75Z"/><path class="cls-46" d="M0,27.28v0Z"/><path class="cls-46" d="M0,27.28"/><polygon class="cls-47" points="2.27 27.19 2.27 27.19 2.27 25.01 0 25.01 0 27.19 2.27 27.19"/><path class="cls-47" d="M2.27,27.28v0Z"/><rect class="cls-47" y="27.19" width="2.27" height="0.09"/><path class="cls-47" d="M2.27,27.28"/><path class="cls-47" d="M0,27.28Z"/><path class="cls-31" d="M6.81,25h0Z"/><polygon class="cls-31" points="6.81 27.19 6.81 27.19 6.81 25.01 4.54 25.01 4.54 27.19 6.81 27.19"/><path class="cls-31" d="M6.81,27.28v0Z"/><rect class="cls-31" x="4.54" y="27.19" width="2.27" height="0.09"/><polygon class="cls-31" points="4.54 27.28 4.54 27.28 6.81 27.28 4.54 27.28"/><path class="cls-32" d="M7.56,25h0Z"/><rect class="cls-32" x="7.56" y="25.01" width="1.51" height="2.18"/><path class="cls-32" d="M7.56,27.19v0Z"/><rect class="cls-32" x="7.56" y="27.19" width="1.51" height="0.09"/><path class="cls-32" d="M7.56,27.28v0Z"/><polygon class="cls-32" points="6.81 25.01 6.81 25.01 7.56 25.01 6.81 25.01"/><rect class="cls-32" x="6.81" y="25.01" width="0.76" height="2.18"/><rect class="cls-32" x="6.81" y="27.19" width="0.76" height="0.09"/><path class="cls-33" d="M22.81,18.2H22.7v4.54H25V18.2Z"/><path class="cls-34" d="M18.16,22.74V18.21H15.89v4.53Z"/><path class="cls-36" d="M15,22.74h.91V18.21H13.62v4.53Z"/><path class="cls-3" d="M25,18.2h2.27V15.93H25Z"/><path class="cls-4" d="M2.27,20.47V18.21H0v2.26Z"/><rect class="cls-4" x="20.42" y="15.94" width="2.27" height="2.27"/><path class="cls-5" d="M4.54,18.21v2.26H6.88V18.21Z"/><path class="cls-5" d="M15.89,15.94v2.27h2.26V15.94Z"/><path class="cls-6" d="M6.88,20.47h2.2V18.21H6.88Z"/><rect class="cls-6" x="13.62" y="15.94" width="2.27" height="2.27"/><path class="cls-7" d="M27.23,20.47h0v2.27H25V20.47h0v2.27H22.69v4.54H25v2.27h2.27V20.47Z"/><path class="cls-7" d="M20.42,20.47V18.21H18.16v4.53h2.26V20.47Z"/><rect class="cls-8" x="22.43" y="0.05" width="2.53" height="0.57"/><path class="cls-8" d="M2.27,11.4H4.54V10.28H2.27V11.4Z"/><path class="cls-8" d="M4.54,18.21H2.27v2.26H4.54V18.21Z"/><path class="cls-8" d="M20.42,18v-2.1H18.16V18.2h2.26Z"/><rect class="cls-8" x="11.35" y="0.05" width="2.27" height="2.27"/><path class="cls-8" d="M11.35,10.28V11.4h2.27V6.86H11.35v3.42Z"/><path class="cls-9" d="M22.43,1.19H18.8l2.31,3.36h1.58V6.86c0,.4-.05-.08.18.22C23.54,8,24.26,8.87,25,9.77V4.61l-1-1.41c-.49-.67-1-1.34-1.5-2Z"/><path class="cls-9" d="M2.27,13.67h0Z"/><path class="cls-9" d="M13.62,13.7v2.24h1.63Z"/><path class="cls-9" d="M20.42,27.28h0V22.74H16.86l.75,1.06c.17.24.54.81.54.81v2.67Z"/><path class="cls-9" d="M15.89,9.13h2.27V6.86H15.89V9.13Z"/><path class="cls-7" d="M13.62,13.67a4.8,4.8,0,0,0,.78,1.1l.85,1.17h2.91l-4.54-5.66v3.39Z"/><path class="cls-10" d="M2.27,15.94H6.88V13.67H2.27v2.27Z"/><path class="cls-10" d="M18.89,15.94h3.8l-4.07-5.65h4.07V9.13h-6.8v1.16H13.62l4.54,5.65Z"/><path class="cls-10" d="M2.27,27.28H4.54V25H2.27Z"/><path class="cls-1" d="M22.69,9.13v0Z"/><path class="cls-1" d="M22.69,10.28v0Z"/><path class="cls-1" d="M18.16.05h0V.62h4.27v.57H25V.62H22.43V.05Z"/><path class="cls-1" d="M4.54,6.86V8H6.81V6.86Z"/><path class="cls-1" d="M2.27,6.86H0V8H2.27Z"/><path class="cls-1" d="M4.54,15.94h0v2.27h0V17.07H6.88V15.94Z"/><path class="cls-1" d="M6.88,18.21v0Z"/><path class="cls-1" d="M6.81,9.13H9.08v1.13H7.66l.85,1.14h.57V10.26h2.27V9.13H9.08V8H6.81V9.13Z"/><rect class="cls-1" x="4.54" y="7.99" height="1.13"/><path class="cls-1" d="M2.27,10.28H4.54V9.13H0v1.15Z"/><path class="cls-1" d="M2.27,13.67H4.54l-.83-.83a8.62,8.62,0,0,0-1.35-1.35c-.22-.14-.39-.09-.68-.09H0l2.27,2.27Z"/><path class="cls-1" d="M4.54,11.4c.69.68,2.34,2.27,2.34,2.27h2.2l-1-1c-.37-.37-1.24-1.31-1.24-1.31H4.54V10.28h0V11.4Z"/><path class="cls-1" d="M13.62,13.7V11.4H9.08l2.27,2.27H10.21c.57.75,1.14,1.51,1.7,2.27h1.7c0-.75,0-1.49,0-2.24Z"/><path class="cls-1" d="M2.27,17.07v1.14h.57V15.94H2.27v1.13Z"/><path class="cls-1" d="M3.4,17.07v1.14H4V15.94H3.4v1.13Z"/><path class="cls-1" d="M5.11,31.82H4.54v2.27h.57Z"/><path class="cls-1" d="M6.24,31.82H5.67v2.27h.57Z"/><path class="cls-1" d="M2.84,31.82H2.27v2.27h.57Z"/><path class="cls-1" d="M4,31.82H3.4v2.27H4Z"/><path class="cls-1" d="M16.45.62V.05h-.56V2.32h.56Z"/><path class="cls-1" d="M17.59.62V.05H17V2.32h.57Z"/><path class="cls-1" d="M14.18.62V.05h-.56V2.32h.56Z"/><path class="cls-1" d="M15.32.62V.05h-.57V2.32h.57V.62Z"/><path class="cls-1" d="M13.62,3.45V2.32H12.48V6.86h1.14V3.45Z"/><path class="cls-11" d="M22.69,9.13h0v1.15h-.77l3,4.16V9.77l-.9-1.16L22.69,6.86Z"/><path class="cls-11" d="M18.16,6.86h4.53V4.55H21.11L18.8,1.19h-.64V2.32H16.08l1.63,2.23h.44c0,.77,0,1.54,0,2.31Z"/><path class="cls-11" d="M4.54,9.13V6.86H2.27V9.13Z"/><rect y="10.28" width="2.27" height="1.11"/><path d="M2.27,8V6.86H5L.83,1.19H0V6.86H2.27V8H0V9.13H2.27Z"/><path d="M6.81,8H9.08V6.86H6.81Z"/><path d="M15.89,10.28V6.86H13.62v3.43Z"/><path d="M0,29.55v4.54H2.27V31.82h.57v2.27H3.4V31.82H4v2.27h.57V31.82h.57v2.27h.56V31.82h.57v2.27h7.38V15.94h-1.7l-1.71-2.27h1.14L9.82,12.14l-.74-.74H8.51l-.85-1.14H9.08V9.13H6.81V8H4.54V9.13h0v1.15h0V11.4H6.88s.84.9,1.2,1.27l1,1H6.88L4.54,11.4H2.27l2.27,2.27H6.88v2.27h0v1.13H4.54v1.14H6.88v0h2.2v2.26H0V25H9.08v2.27H0"/><path d="M9.08,11.4h2.27V10.26H9.08V11.4Z"/><line y1="15.94" y2="15.94"/><path d="M0,15.94"/><path d="M12.48,6.86V2.32H11.35V6.86h1.13Z"/><path d="M3.4,17.07V15.94H2.84V18.2H3.4Z"/><path d="M2.27,18.21V15.94H1.7v2.27Z"/><path d="M4,17.07v1.14h.57V15.94H4v1.13Z"/><path d="M1.13,17.07V15.94H.57V18.2h.56Z"/><path d="M14.18.62v1.7h.57V.05h.57V2.32h.57V.05h.56V2.32H17V.05h.57V2.32h.57V1.19h4.28V.62H18.16V.05h-4V.62Z"/><path class="cls-13" d="M18.16,5.15v-.6h-.45L16.08,2.32H13.62V6.86h4.54Z"/><path class="cls-13" d="M21.07,9.13h1.62V6.86H18.15V9.13Z"/><path class="cls-13" d="M27.18,15.75V14.43l-.52-.7-1-1.42-1.49-2h-3.3l4.08,5.66h2.27"/><polygon class="cls-8" points="27.03 4.71 27.03 0.04 24.5 0.04 24.5 1.19 27.03 4.71"/><path class="cls-9" d="M25,27.28H22.69v4.54H25v2.27h2.27V29.55H25Z"/><path d="M20.42,25v2.27h2.27V25Z"/><path d="M19.29,30.69V29.55h-.57v2.27h.57Z"/><path d="M19.86,30.69v1.13h.56V29.55h-.56v1.14Z"/><path class="cls-9" d="M22.69,29.55V27.28H20.42v4.54h2.27v2.27H25V29.55ZM21,30.69v1.13h-.56V29.55H21Zm1.14,1.13h-.57V29.55h.57Z"/><path d="M21.56,30.69V29.55H21v2.27h.57Z"/><path d="M22.13,30.69v1.13h.57V29.55h-.57v1.14Z"/></g></svg>