<svg id="Layer_1" data-name="Layer 1" xmlns="http://www.w3.org/2000/svg" viewBox="0 0 228.99 34.13"><defs><style>.cls-1{fill:#fbf5af;}.cls-2{fill:#f7ee64;}.cls-3{fill:#a4a336;}.cls-4{fill:#535222;}.cls-5{fill:#80d0dd;}.cls-6{fill:#00a5a3;}.cls-7{fill:#b6e2ea;}.cls-8{fill:#005353;}.cls-9{fill:#b7dba7;}.cls-10{fill:#84c551;}.cls-11{fill:#15a34a;}.cls-12{fill:#205128;}.cls-13{fill:#69cad7;}.cls-14{fill:#63bc46;}.cls-15{fill:#3953a4;}.cls-16{fill:#f4eb2a;}.cls-17{fill:#fff;}.cls-18{fill:#ed1c24;}.cls-19{fill:#b74f9d;}.cls-20{fill:#555;}.cls-21{fill:#ababab;}.cls-22{fill:#f2ec60;}.cls-23{fill:#a1a538;}.cls-24{fill:#525323;}.cls-25{fill:#542e91;}.cls-26{fill:#a31d55;}.cls-27{fill:#17154c;}.cls-28{fill:#eeaccd;}.cls-29{fill:#dd62a5;}.cls-30{fill:#a22171;}.cls-31{fill:#500937;}.cls-32{fill:#e23594;}.cls-33{fill:#2b318a;}.cls-34{fill:#acaad4;}.cls-35{fill:#5760ac;}.cls-36{fill:#f1575a;}.cls-37{fill:#f7aaac;}.cls-38{fill:#ed1557;}.cls-39{fill:#a11d21;}.cls-40{fill:#4c1212;}.cls-41{fill:#04a45b;}.cls-42{fill:#0954a3;}.cls-43{fill:#84ccab;}.cls-44{fill:#ada8d3;}.cls-45{fill:#5960ab;}.cls-46{fill:#2a3491;}.cls-47{fill:#1b1751;}</style></defs><title>logo glitch</title><path class="cls-1" d="M1.13,27.28v0Z"/><path class="cls-1" d="M1.13,27.28"/><polygon class="cls-2" points="3.4 27.19 3.4 27.19 3.4 25.01 1.14 25.01 1.14 27.19 3.4 27.19"/><path class="cls-2" d="M3.4,27.28v0Z"/><rect class="cls-2" x="1.13" y="27.19" width="2.27" height="0.09"/><path class="cls-2" d="M3.4,27.28"/><path class="cls-2" d="M1.13,27.28Z"/><path class="cls-3" d="M7.94,25h0Z"/><polygon class="cls-3" points="7.94 27.19 7.94 27.19 7.94 25.01 5.67 25.01 5.67 27.19 7.94 27.19"/><path class="cls-3" d="M7.94,27.28v0Z"/><rect class="cls-3" x="5.67" y="27.19" width="2.27" height="0.09"/><polygon class="cls-3" points="5.67 27.28 5.67 27.28 7.94 27.28 5.67 27.28"/><path class="cls-4" d="M8.7,25h0Z"/><rect class="cls-4" x="8.7" y="25.01" width="1.51" height="2.18"/><path class="cls-4" d="M8.7,27.19v0Z"/><rect class="cls-4" x="8.7" y="27.19" width="1.51" height="0.09"/><path class="cls-4" d="M8.7,27.28v0Z"/><polygon class="cls-4" points="7.94 25.01 7.94 25.01 8.7 25.01 7.94 25.01"/><rect class="cls-4" x="7.94" y="25.01" width="0.76" height="2.18"/><rect class="cls-4" x="7.94" y="27.19" width="0.76" height="0.09"/><path class="cls-5" d="M21.68,18.21h-.12v4.53h2.27V18.2H21.68Z"/><path class="cls-6" d="M19.29,22.74V18.21H17v4.53Z"/><rect class="cls-7" x="23.83" y="18.21" width="2.27" height="4.54"/><path class="cls-8" d="M16.11,22.74H17V18.21H14.75v4.53Z"/><path class="cls-9" d="M23.83,18.21H26.1V15.94H23.83Z"/><path class="cls-10" d="M3.4,20.47V18.21H1.14v2.26Z"/><rect class="cls-10" x="21.56" y="15.94" width="2.27" height="2.27"/><path class="cls-11" d="M5.67,18.21v2.26H8V18.21Z"/><path class="cls-11" d="M17,15.94v2.27h2.27V15.94Z"/><path class="cls-12" d="M8,20.47h2.2V18.21H8Z"/><rect class="cls-12" x="14.75" y="15.94" width="2.27" height="2.27"/><path class="cls-13" d="M26.1,20.48h0v2.26H23.83V20.48h0v2.26H21.56v4.54h2.27v2.27H26.1V20.48Z"/><path class="cls-13" d="M21.56,20.47V18.21H19.29v4.53h2.27V20.47Z"/><path class="cls-14" d="M23.57,1.19,26.1,4.61V1.19Z"/><rect class="cls-14" x="23.57" y="0.05" width="2.53" height="0.57"/><path class="cls-14" d="M3.41,11.4H5.67V10.28H3.4V11.4Z"/><path class="cls-14" d="M5.67,18.21H3.4v2.26H5.67V18.21Z"/><path class="cls-14" d="M21.56,18v-2.1H19.29V18.2h2.27Z"/><rect class="cls-14" x="12.48" y="0.05" width="2.27" height="2.27"/><path class="cls-14" d="M12.48,10.28V11.4h2.27V6.86H12.48v3.42Z"/><path class="cls-15" d="M23.57,1.19H19.93l2.31,3.36h1.59V6.86c0,.4,0-.08.18.22.67.92,1.39,1.79,2.09,2.69V4.61l-1-1.41c-.5-.67-1-1.34-1.5-2Z"/><path class="cls-15" d="M3.41,13.67h0Z"/><path class="cls-15" d="M14.75,13.7v2.24h1.64Z"/><path class="cls-15" d="M23.83,27.28H21.56v4.54h2.27v2.27H26.1V29.55H23.83Z"/><path class="cls-15" d="M21.56,27.28h0V22.74H18c.25.36.51.71.76,1.06s.54.81.54.81v2.67Z"/><path class="cls-15" d="M17,9.13h2.27V6.86H17V9.13Z"/><path class="cls-13" d="M14.75,13.67a5.13,5.13,0,0,0,.78,1.1l.86,1.17h2.9l-4.54-5.66v3.39Z"/><line class="cls-16" x1="26.1" y1="20.47" x2="26.1" y2="20.47"/><path class="cls-16" d="M3.4,15.94H8V13.67H3.4v2.27Z"/><path class="cls-16" d="M20,15.94h3.81l-4.08-5.65h4.08V9.13H17v1.16H14.75l4.54,5.65Z"/><path class="cls-16" d="M3.4,27.28H5.67V25H3.4Z"/><path class="cls-17" d="M23.83,9.13v0Z"/><path class="cls-17" d="M23.83,10.28v0Z"/><path class="cls-17" d="M19.29.05h0V.62h4.28v.57H26.1V.62H23.57V.05Z"/><path class="cls-17" d="M5.67,6.86V8H7.94V6.86Z"/><path class="cls-17" d="M3.4,6.86H1.14V8H3.4Z"/><path class="cls-17" d="M5.67,15.94h0v2.27h0V17.07H8V15.94Z"/><path class="cls-17" d="M8,18.21v0Z"/><path class="cls-17" d="M7.94,9.13h2.27v1.13H8.79l.86,1.14h.56V10.26h2.27V9.13H10.21V8H7.94V9.13Z"/><rect class="cls-17" x="5.67" y="7.99" height="1.13"/><path class="cls-17" d="M3.4,10.28H5.67V9.13H1.13v1.15Z"/><path class="cls-17" d="M3.4,13.67H5.67l-.82-.83a8.68,8.68,0,0,0-1.36-1.35c-.21-.14-.39-.09-.67-.09H1.13L3.4,13.67Z"/><path class="cls-17" d="M5.67,11.4C6.36,12.08,8,13.67,8,13.67h2.2l-1-1C8.88,12.34,8,11.4,8,11.4H5.67V10.28h0V11.4Z"/><path class="cls-17" d="M14.75,13.7V11.4H10.21l2.27,2.27H11.35l1.7,2.27h1.7V13.7Z"/><path class="cls-17" d="M3.4,17.07v1.14H4V15.94H3.4v1.13Z"/><path class="cls-17" d="M4.54,17.07v1.14h.57V15.94H4.54v1.13Z"/><path class="cls-17" d="M6.24,31.82H5.67v2.27h.57Z"/><path class="cls-17" d="M7.38,31.82H6.81v2.27h.57Z"/><path class="cls-17" d="M4,31.82H3.4v2.27H4Z"/><path class="cls-17" d="M5.11,31.82H4.54v2.27h.57Z"/><path class="cls-17" d="M17.59.62V.05H17V2.32h.57Z"/><path class="cls-17" d="M18.72.62V.05h-.56V2.32h.56Z"/><path class="cls-17" d="M15.32.62V.05h-.57V2.32h.57Z"/><path class="cls-17" d="M16.45.62V.05h-.56V2.32h.56V.62Z"/><path class="cls-17" d="M14.75,3.45V2.32H13.62V6.86h1.13V3.45Z"/><path class="cls-17" d="M.57,28.35V27.28H0v2.27H.57Z"/><path class="cls-18" d="M23.83,9.13h0v1.15h-.78l3.05,4.16V9.77l-.91-1.16L23.83,6.86Z"/><path class="cls-18" d="M19.29,6.86h4.54V4.55H22.24L19.93,1.19h-.64V2.32H17.21l1.64,2.23h.44V6.86Z"/><path class="cls-18" d="M5.67,9.13V6.86H3.4V9.13Z"/><rect x="1.13" y="10.28" width="2.27" height="1.11"/><path d="M3.4,8V6.86H6.13L2,1.19H1.14V6.86H3.4V8H1.14V9.13H3.4Z"/><path d="M7.94,8h2.27V6.86H7.94Z"/><path d="M17,10.28V6.86H14.75v3.43Z"/><path d="M1.14,29.55v4.54H3.4V31.82H4v2.27h.57V31.82h.57v2.27h.56V31.82h.57v2.27h.57V31.82h.57v2.27h7.37V15.94h-1.7c-.57-.76-1.13-1.52-1.7-2.27h1.13L11,12.14l-.74-.74H9.65L8.8,10.26h1.41V9.13H8V8H5.67V9.13h0v1.15h0V11.4H8s.84.9,1.2,1.27l1,1H8L5.68,11.4H3.4l2.27,2.27H8v2.27H8v1.13H5.67v1.14H8v0h2.2v2.26H1.13V25h9.08v2.27H1.13"/><path d="M10.21,11.4h2.27V10.26H10.21V11.4Z"/><line x1="1.13" y1="15.94" x2="1.13" y2="15.94"/><path d="M1.13,15.94"/><path d="M13.62,6.86V2.32H12.48V6.86h1.14Z"/><path d="M4.54,17.07V15.94H4V18.2h.57Z"/><path d="M3.4,18.21V15.94H2.84v2.27Z"/><path d="M5.11,17.07v1.14h.56V15.94H5.11v1.13Z"/><path d="M2.27,17.07V15.94H1.7V18.2h.57Z"/><path d="M15.32.62v1.7h.57V.05h.56V2.32H17V.05h.57V2.32h.57V.05h.56V2.32h.57V1.19h4.28V.62H19.29V.05h-4V.62Z"/><path class="cls-19" d="M19.29,5.15v-.6h-.44L17.21,2.32H14.75V6.86h4.54Z"/><path class="cls-19" d="M22.2,9.13h1.63V6.86H19.29V9.13Z"/><path class="cls-19" d="M26.1,15.75V14.43l-.52-.7-1-1.42-1.49-2h-3.3l4.08,5.66H26.1"/><polygon class="cls-14" points="26.1 4.71 26.1 0.04 23.57 0.04 23.57 1.19 26.1 4.71"/><path class="cls-20" d="M133.41,31.82h-2.26v2.27h2.26Z"/><path class="cls-9" d="M119.79,23.24v-.5h-2.27V25h2.27Z"/><path class="cls-9" d="M119.79,6.86V4.59h-2.27V8.35h2.27V6.86Z"/><path class="cls-10" d="M122.06,23.43v-.69h-2.27V25h2.27Z"/><path class="cls-10" d="M122.06,6.86c0-.76,0-1.51.07-2.27h-2.34V8.35h2.27Z"/><path class="cls-11" d="M124.33,22.75V25h2.27V22.74h-2.27Z"/><path class="cls-11" d="M124.33,6.86v1.5h2.27V4.59h-2.27V6.86Z"/><path class="cls-12" d="M127.36,25h1.51V22.74H126.6V25Z"/><rect class="cls-12" x="126.6" y="4.59" width="2.27" height="3.76"/><path class="cls-13" d="M128.87,25h0Z"/><path class="cls-13" d="M128.87,22.74v0Z"/><path class="cls-14" d="M119.79,25h-2.27c.87,5,4.69,9.08,11.35,9.08V31.82C123.06,31.82,120.4,28.46,119.79,25Z"/><path class="cls-14" d="M118.28,20.49h1.51v0h0V14.8h0v1.14h-2.27v4.53h.76Z"/><path class="cls-14" d="M119.79,12.54h0V9.13h-2.27v3.41Z"/><path class="cls-14" d="M122.06,25h2.27V22.74h-2.27Z"/><path class="cls-14" d="M122.06,6.86v1.5h2.27V4.59h-2.2Z"/><path class="cls-15" d="M122.06,25h-2.27c.61,3.45,3.27,6.81,9.08,6.81V29.55C125.12,29.55,122.7,27.54,122.06,25Z"/><path class="cls-15" d="M122.06,20.47Z"/><path class="cls-15" d="M122.06,15.94h2.27V14.8h-2.27Z"/><polygon class="cls-15" points="123.2 18.2 122.06 18.2 122.06 20.47 124.33 20.47 124.33 18.2 123.2 18.2"/><path class="cls-15" d="M122.06,12.54h2.27V9.13h-2.27Z"/><path class="cls-15" d="M117.52,13.67V9.13h-2.27v4.54Z"/><rect class="cls-15" x="117.52" y="13.67" width="2.27" height="2.27"/><path class="cls-15" d="M120.55,4.59h.75V3.5H121V1.27h-1.22V3.5h.76Z"/><polygon class="cls-16" points="127.73 15.95 128.87 15.95 128.87 13.67 126.6 13.67 126.6 15.95 127.73 15.95"/><rect class="cls-17" x="139.27" y="15.93" width="0.95" height="4.59"/><polygon class="cls-17" points="136.43 20.52 136.43 15.93 135.68 15.93 135.68 20.47 135.67 20.47 135.67 20.52 136.43 20.52"/><rect class="cls-17" x="128.87" y="20.51" width="0.95" height="2.23"/><path class="cls-17" d="M132.65,22.74h1.89V20.51h-1.89Z"/><path class="cls-17" d="M138.32,22.74V15.93h-.94v4.58h-.95v2.23Z"/><path class="cls-17" d="M131.71,20.94v-.47h-1V22.7h1Z"/><path class="cls-17" d="M127.73,16.85v1.24l1.14,0V15.94h-1.14Z"/><path class="cls-17" d="M125.46,15.94v2.17h.37v2.36h0V22h.74V18.11h0V15.94Z"/><path class="cls-17" d="M122.06,12.54V14.8h2.27V12.54Z"/><path class="cls-17" d="M117.52,12.54h0v1.13h2.27V12.54Z"/><rect class="cls-17" x="115.25" y="13.67" width="2.27" height="1.13"/><path class="cls-17" d="M123.2,18.21h1.13v2.27h.75V18.11h-.75V16H123.2Z"/><rect class="cls-17" x="117.52" y="1.27" width="1.12" height="3.32"/><rect class="cls-17" x="122.13" y="1.27" width="1.08" height="2.23"/><path class="cls-17" d="M119.79,1.27h2.34V.05h-2.34Z"/><path class="cls-17" d="M117.52.05h-2.27V1.27h2.27Z"/><rect class="cls-17" x="132.05" y="0.05" width="0.91" height="2.27"/><rect class="cls-17" x="133.86" y="0.05" width="0.91" height="2.27"/><path class="cls-17" d="M117.52,9.13h3V8.35h-3V4.59h-2.27V9.13Z"/><path class="cls-17" d="M119.79,21.23V22h1.51v-1.5h-1.51v.76Z"/><path class="cls-17" d="M118.28,21.23V22H119V20.49h-.76v.74Z"/><path class="cls-17" d="M106.18,22.74h3V22h-3"/><path class="cls-17" d="M122.82,21.22V22H121.3v.77h3.79V22h-.76V20.48h-1.51v.74Z"/><rect class="cls-17" x="110.71" y="21.98" width="1.51" height="0.76"/><path class="cls-17" d="M126.6,8.35h-1.51v.78h3.78V8.35Z"/><path class="cls-17" d="M122.06,8.36h0v.77h1.51V8.36Z"/><path class="cls-17" d="M131.39,27.28h-.5v4.54h.5Z"/><path class="cls-17" d="M128.87,27.28v4.54h.5V27.28Z"/><path class="cls-17" d="M130.38,28v-.76h-.5v4.54h.5Z"/><path class="cls-18" d="M124.33,25h-2.27c.64,2.53,3.06,4.54,6.81,4.54V27.28C127.15,27.3,125.05,26.76,124.33,25Z"/><path class="cls-18" d="M122.06,20.47h0V14.8h-2.27v5.67Z"/><path class="cls-18" d="M122.06,12.54h0V9.13h-2.27v3.41Z"/><polygon class="cls-18" points="122.13 4.59 122.13 4.59 122.13 3.5 121.3 3.5 121.3 4.59 122.13 4.59"/><path d="M123.2,15.94h-1.14V18.2h1.14Z"/><path d="M122.06,12.54h-2.27V14.8h2.27Z"/><path d="M115.25,12.54H113V14.8h2.27V12.54Z"/><path d="M117.52,4.59V1.27h-1V4.59Z"/><path d="M118.65,1.27V4.59h1.14V.05h-2.27V1.27Z"/><rect x="121.3" y="20.47" width="1.51" height="1.49"/><path d="M119.79,22.74h1.51V22h-1.51V20.49H119V22h-.76V20.49h-.76v2.25Z"/><rect x="112.23" y="21.98" width="1.51" height="0.76"/><rect x="109.2" y="21.98" width="1.51" height="0.76"/><rect x="120.55" y="8.36" width="1.51" height="0.76"/><path d="M122.13,1.27h1.08V3.5h-1.08Zm7.75,28.79V27.28h.5v4.54h-.5Zm.88-9.55v0h1.89v0h1.89v0h1.14V15.93h.75v4.58h.95V15.93h.94v6.81h-1.89V20.51h-1.89v2.23h-1.89V20.51h-1V22.7h-.94V20.51Zm8.51-4.58h.95v4.58h-.95ZM122.13,1.27H121V3.49h1.12v1.1h6.74V9.13h-3.78V8.36h-1.52v.77h.76v4.54h0V14.8h2.27V13.67h2.27v4.4l-1.14,0V15.94H126.6v2.17h0V22h-.74V20.48h0V18.11h-.37V16h-1.13v2.16h.75v2.37h-.75V22h.75v.77h3.79v0h0V20.52h.94v2.22h-.94v4.54h.5v4.54h-.5v2.27h2.28V31.82h-.27V27.28h.51v4.54h6.55V27.28h2.27V.05h-5.44V2.32h-.91V.05H133V2.32H132V.05h-9.91V1.27Z"/><rect x="134.54" y="20.47" width="1.13" height="0.04"/><rect x="131.71" y="20.47" width="0.95" height="0.04"/><path class="cls-21" d="M133.43,31.82h0v2.27h2.27V31.82Z"/><path class="cls-19" d="M128.87,22.7V20.48h0Z"/><path class="cls-19" d="M128.86,25h-4.53c.72,1.75,2.82,2.3,4.54,2.27V25Z"/><path class="cls-19" d="M125.46,15.94h1.14V14.8h-2.27v1.14Z"/><rect class="cls-19" x="119.79" y="3.49" width="0.76" height="1.09"/><rect class="cls-17" x="117.41" y="22.74" width="1.13" height="0.76"/><rect class="cls-17" x="119.67" y="22.74" width="1.13" height="0.76"/><rect class="cls-17" x="115.14" y="22.74" width="1.13" height="0.76"/><rect x="118.54" y="22.74" width="1.13" height="0.76"/><rect x="116.27" y="22.74" width="1.13" height="0.76"/><path d="M121.94,22.74h-1.13v.76h1.13Z"/><rect class="cls-17" x="110.6" y="6.86" width="1.13" height="0.76"/><rect class="cls-17" x="112.87" y="6.86" width="1.13" height="0.76"/><rect class="cls-17" x="108.33" y="6.86" width="1.13" height="0.76"/><rect x="111.73" y="6.86" width="1.13" height="0.76"/><rect x="109.46" y="6.86" width="1.13" height="0.76"/><path d="M115.14,6.86H114v.75h1.14Z"/><rect class="cls-22" x="151.32" y="21.8" width="0.65" height="0.94"/><polygon class="cls-23" points="158.45 21.8 157.32 21.8 157.32 22.74 158.12 22.74 158.45 22.74 158.45 21.8"/><rect class="cls-23" x="155.21" y="21.8" width="0.63" height="0.94"/><polygon class="cls-23" points="157.32 21.8 155.85 21.8 155.84 22.74 155.85 22.74 157.32 22.74 157.32 21.8"/><rect class="cls-23" x="155.83" y="21.8" width="0.01" height="0.94"/><polygon class="cls-24" points="160.39 22.74 161.69 22.74 161.69 21.8 158.45 21.8 158.45 22.74 160.39 22.74"/><polygon class="cls-25" points="153.59 20.48 153.59 18.2 153.59 18.2 153.59 18.19 152.83 18.19 152.45 18.19 151.32 18.19 151.32 18.2 151.32 18.2 151.32 20.48 152.45 20.48 153.59 20.48"/><polygon class="cls-26" points="153.59 18.2 153.59 20.48 153.63 20.48 154.72 20.48 155.84 20.48 155.85 20.48 155.85 18.2 155.85 18.2 155.85 18.18 155.84 18.18 154.72 18.18 153.59 18.18 153.59 18.19 153.59 18.2 153.59 18.2"/><rect class="cls-27" x="146.78" y="25.01" width="2.27" height="1.13"/><polygon class="cls-28" points="142.24 11.4 142.24 11.4 142.24 11.39 142.24 11.39 142.24 9.13 139.97 9.13 139.97 11.4 142.24 11.4"/><polygon class="cls-29" points="144.51 11.39 144.51 9.13 143.37 9.13 142.24 9.13 142.24 11.39 142.24 11.39 142.24 11.4 144.51 11.4 144.51 11.39 144.51 11.39"/><polygon class="cls-30" points="149.05 11.39 149.05 9.13 147.9 9.13 146.78 9.13 146.78 11.39 146.78 11.39 146.78 11.4 149.05 11.4 149.05 11.39 149.05 11.39"/><polygon class="cls-31" points="151.32 11.39 151.32 9.13 150.17 9.13 149.8 9.13 149.05 9.13 149.05 11.39 149.05 11.39 149.05 11.4 149.8 11.4 151.32 11.4 151.32 11.39 151.32 11.39"/><polygon class="cls-32" points="146.78 11.39 146.78 9.13 145.63 9.13 144.51 9.13 144.51 11.39 144.51 11.39 144.51 11.4 146.78 11.4 146.78 11.39 146.78 11.39"/><polygon class="cls-33" points="144.51 25.01 144.51 26.15 146.78 26.15 146.78 25.01 145.64 25.01 144.51 25.01"/><polygon class="cls-20" points="162.66 10.26 162.66 9.13 161.51 9.13 161.39 9.13 160.4 9.13 160.4 11.34 160.4 11.4 161.39 11.4 162.66 11.4 162.66 10.26"/><polyline class="cls-34" points="167.2 14.78 164.93 14.78 164.93 15.46 164.93 15.9 167.2 15.9 167.2 14.78"/><polygon class="cls-34" points="146.78 18.2 146.78 18.2 145.91 18.2 144.51 18.2 144.51 18.2 144.51 18.28 144.51 20.48 145.91 20.48 146.78 20.48 146.78 18.28 146.78 18.2"/><polygon class="cls-35" points="149.05 18.2 149.05 18.2 146.78 18.2 146.78 18.2 146.78 18.28 146.78 20.48 147.82 20.48 149.05 20.48 149.05 18.28 149.05 18.2"/><rect class="cls-9" x="137.7" y="2.32" width="2.27" height="2.27"/><rect class="cls-10" x="142.24" y="26.15" width="2.27" height="1.13"/><rect class="cls-10" x="139.97" y="2.32" width="2.27" height="2.27"/><rect class="cls-11" x="146.78" y="26.15" width="2.27" height="1.13"/><rect class="cls-11" x="144.51" y="2.32" width="2.27" height="2.27"/><rect class="cls-12" x="149.05" y="26.15" width="2.27" height="1.13"/><polygon class="cls-12" points="147.53 4.59 147.91 4.59 149.05 4.59 149.05 2.32 147.53 2.32 146.78 2.32 146.78 4.59 147.53 4.59"/><polygon class="cls-13" points="151.32 12.53 151.32 11.4 149.8 11.4 149.05 11.4 146.78 11.4 144.51 11.4 142.24 11.4 139.97 11.4 137.7 11.4 135.43 11.4 135.43 12.53 139.97 12.53 142.24 12.53 151.32 12.53"/><polygon class="cls-13" points="160.39 13.67 160.39 15.94 167.2 15.94 167.2 15.03 167.2 14.12 167.2 13.67 160.61 13.67 160.39 13.67"/><polygon class="cls-14" points="142.24 23.88 143.37 23.88 144.51 23.88 145.64 23.88 146.78 23.88 146.78 22.74 145.64 22.74 144.51 22.74 143.37 22.74 142.24 22.74 142.24 22.74 142.24 23.88 142.24 23.88"/><rect class="cls-14" x="144.51" y="26.15" width="2.27" height="1.13"/><rect class="cls-14" x="142.24" y="2.32" width="2.27" height="2.27"/><polygon class="cls-14" points="155.85 13.21 155.85 13.67 155.94 13.67 156.07 13.67 156.64 13.67 157.21 13.67 157.84 13.67 157.84 13.67 158.12 13.67 158.12 13.21 158.12 12.53 158.12 11.4 157.84 11.4 155.85 11.4 155.85 12.53 155.85 13.21"/><polygon class="cls-15" points="151.32 18.2 149.8 18.2 149.72 18.2 149.05 18.2 149.05 18.2 149.05 18.28 149.05 20.48 149.72 20.48 151.32 20.48 151.32 18.2 151.32 18.2"/><polygon class="cls-15" points="144.51 25.01 144.51 25.01 143.37 25.01 142.24 25.01 142.24 26.15 144.51 26.15 144.51 25.01"/><polygon class="cls-15" points="142.24 22.74 143.37 22.74 144.51 22.74 145.64 22.74 146.78 22.74 145.91 22.74 145.64 22.74 145.48 22.74 144.51 22.74 143.37 22.74 142.24 22.74 142.24 22.74 142.24 22.74"/><polygon class="cls-15" points="158.45 21.8 161.69 21.8 164.93 21.8 164.93 22.74 167.2 22.74 167.2 20.48 158.25 20.48 157.32 20.48 157.32 21.8 158.45 21.8"/><polygon class="cls-15" points="153.59 21.8 153.59 21.37 153.59 21.25 153.59 21.08 153.59 20.48 152.45 20.48 151.32 20.48 151.32 21.08 151.32 21.25 151.32 21.8 151.96 21.8 153.59 21.8"/><polygon class="cls-15" points="152.03 13.67 152.45 13.67 153.59 13.67 153.63 13.67 154.72 13.67 155.84 13.67 155.85 13.67 155.85 13.67 155.85 13.21 155.85 12.53 155.85 11.4 155.84 11.4 153.59 11.4 152.83 11.4 152.03 11.4 151.32 11.4 151.32 12.53 151.32 13.21 151.32 13.67 152.03 13.67"/><path class="cls-16" d="M167.2,9.13v0Z"/><polygon class="cls-17" points="142.24 22.74 143.37 22.74 144.51 22.74 144.51 21.8 143.37 21.8 142.24 21.8 142.24 21.37 142.24 21.08 142.24 20.48 144.51 20.48 144.51 18.28 144.51 18.2 144.51 18.2 142.24 18.2 142.24 18.2 142.11 18.2 142.11 22.74 142.24 22.74 142.24 22.74"/><polygon class="cls-17" points="152.83 9.13 153.59 9.13 153.59 11.39 153.59 11.39 153.59 11.4 155.84 11.4 155.85 11.4 155.85 11.39 155.85 11.39 155.85 9.13 155.85 6.86 155.85 4.59 155.85 0.05 155.85 0.05 153.59 0.05 153.59 6.83 152.44 9.13 152.83 9.13"/><polygon class="cls-17" points="145.63 9.13 146.78 6.83 144.51 6.83 143.37 9.13 144.51 9.13 145.63 9.13"/><polygon class="cls-17" points="146.78 23.88 146.78 23.88 146.78 22.74 146.78 23.88"/><polygon class="cls-17" points="144.51 23.88 144.51 23.88 144.51 25.01 145.64 25.01 146.78 25.01 146.78 23.88 145.64 23.88 144.51 23.88"/><rect class="cls-17" x="164.93" y="13.65" width="2.27" height="1.13"/><polygon class="cls-17" points="162.66 12.53 163.66 12.53 163.66 11.4 167.2 11.4 167.2 9.13 164.96 9.13 164.93 9.13 164.91 9.13 164.91 10.26 164.91 11.4 162.68 11.4 162.66 11.4 161.39 11.4 160.39 11.4 158.12 11.4 158.12 12.53 162.66 12.53"/><polygon class="cls-17" points="147.53 4.59 146.78 4.59 144.51 4.59 142.24 4.59 142.24 5.72 147.91 5.72 147.91 4.59 147.53 4.59"/><rect class="cls-17" x="136.56" y="5.72" width="5.67" height="1.11"/><polygon class="cls-17" points="147.91 6.83 149.05 6.83 147.9 9.13 149.05 9.13 149.8 9.13 150.17 9.13 151.32 6.83 153.59 6.83 153.59 5.72 147.91 5.72 147.91 6.83"/><polygon class="cls-17" points="140.54 25.01 139.97 25.01 139.97 26.15 139.97 27.28 140.54 27.28 140.54 26.15 140.54 25.01"/><polygon class="cls-17" points="141.67 25.01 141.1 25.01 141.1 26.15 141.1 27.28 141.67 27.28 141.67 26.15 141.67 25.01"/><polygon class="cls-17" points="139.4 25.01 138.84 25.01 138.84 26.15 138.84 27.28 139.4 27.28 139.4 26.15 139.4 25.01"/><rect class="cls-17" x="144.51" y="0.05" width="0.57" height="2.27"/><rect class="cls-17" x="145.64" y="0.05" width="0.57" height="2.27"/><rect class="cls-17" x="142.24" y="0.05" width="0.57" height="2.27"/><rect class="cls-17" x="143.37" y="0.05" width="0.57" height="2.27"/><rect class="cls-17" x="162.66" y="31.86" width="0.57" height="2.23"/><rect class="cls-17" x="163.8" y="31.86" width="0.57" height="2.23"/><rect class="cls-17" x="160.39" y="31.86" width="0.57" height="2.23"/><rect class="cls-17" x="161.53" y="31.86" width="0.57" height="2.23"/><rect class="cls-17" x="158.12" y="32.39" width="1.13" height="1.7"/><rect class="cls-17" x="141.67" y="29.55" width="0.57" height="2.27"/><rect class="cls-17" x="139.4" y="29.55" width="0.57" height="2.27"/><polygon class="cls-17" points="139.97 31.82 139.97 32.39 141.1 32.39 141.1 31.82 141.1 29.55 140.54 29.55 140.54 31.82 139.97 31.82"/><rect class="cls-17" x="137.7" y="31.82" width="1.13" height="0.57"/><rect class="cls-17" x="135.43" y="31.82" width="1.13" height="0.57"/><polygon class="cls-17" points="144.51 31.82 143.94 31.82 143.37 31.82 143.37 29.55 142.81 29.55 142.81 31.82 142.24 31.82 142.24 32.39 144.51 32.39 144.51 31.82"/><rect class="cls-17" x="146.78" y="31.82" width="2.27" height="0.57"/><polygon class="cls-18" points="164.93 13.21 163.66 13.21 163.66 13.67 160.61 13.67 167.2 13.67 167.2 13.21 164.93 13.21"/><polygon class="cls-18" points="143.94 13.67 144.51 13.67 146.78 13.67 149.05 13.67 151.32 13.67 151.32 13.21 142.24 13.21 142.24 13.67 142.81 13.67 143.37 13.67 143.94 13.67"/><polygon class="cls-18" points="167.2 18.2 158.25 18.2 157.32 18.2 156.07 18.2 156.07 18.2 156.07 18.16 155.85 18.16 155.85 18.18 155.85 18.2 155.85 18.2 155.85 20.48 155.94 20.48 157.32 20.48 158.25 20.48 167.2 20.48 167.2 19.89 167.2 18.2"/><polygon points="163.66 11.4 163.66 12.53 164.93 12.53 167.2 12.53 167.2 11.4 163.66 11.4"/><polygon points="143.37 9.13 144.51 6.83 146.78 6.83 145.63 9.13 146.78 9.13 147.9 9.13 149.05 6.83 147.91 6.83 147.91 5.72 142.24 5.72 142.24 6.83 142.24 9.13 143.37 9.13"/><path d="M142.24,13.67v0Z"/><polygon points="154.72 20.48 153.63 20.48 153.59 20.48 153.59 21.08 153.59 21.25 153.59 21.37 153.59 21.8 155.21 21.8 155.83 21.8 155.85 21.8 157.32 21.8 157.32 20.48 155.94 20.48 155.85 20.48 155.84 20.48 154.72 20.48"/><path d="M146.78,31.82h2.27v.57h-2.27Zm-4,0V29.55h.56v2.27h1.14v.57h-2.27v1.7h11.35V23.88h2.69l.05-1.14h-5V20.47h-9.08V21.8h2.27v.94h2.27V25h2.27v1.14h2.27v1.13h-9.08v4.54Z"/><polygon points="146.78 2.32 147.53 2.32 149.05 2.32 149.05 4.59 147.91 4.59 147.91 5.72 153.59 5.72 153.59 4.59 153.59 2.32 153.59 0.05 146.78 0.05 146.21 0.05 146.21 2.32 145.64 2.32 145.64 0.05 145.07 0.05 145.07 2.32 144.51 2.32 144.51 0.05 143.94 0.05 143.94 2.32 143.37 2.32 143.37 0.05 142.81 0.05 142.81 2.32 142.24 2.32 144.51 2.32 146.78 2.32"/><polygon points="142.24 4.59 139.97 4.59 137.7 4.59 136.56 4.59 136.56 5.72 142.24 5.72 142.24 4.59"/><polygon points="141.1 25.01 140.54 25.01 140.54 26.15 140.54 27.28 141.1 27.28 141.1 26.15 141.1 25.01"/><polygon points="139.97 25.01 139.4 25.01 139.4 26.15 139.4 27.28 139.97 27.28 139.97 26.15 139.97 25.01"/><polygon points="142.24 25.01 143.37 25.01 144.51 25.01 144.51 23.88 143.37 23.88 142.24 23.88 142.24 23.88 142.24 25.01 142.24 25.01"/><polygon points="142.24 25.01 142.24 25.01 141.67 25.01 141.67 26.15 141.67 27.28 142.24 27.28 142.24 26.15 142.24 25.01"/><polygon points="138.84 25.01 138.27 25.01 138.27 26.15 138.27 27.28 138.84 27.28 138.84 26.15 138.84 25.01"/><polygon points="150.17 9.13 151.32 9.13 151.32 11.39 151.32 11.39 151.32 11.4 152.03 11.4 152.83 11.4 153.59 11.4 153.59 11.39 153.59 11.39 153.59 9.13 152.83 9.13 152.44 9.13 153.59 6.83 151.32 6.83 150.17 9.13"/><rect x="139.97" y="29.55" width="0.57" height="2.27"/><polygon points="139.97 32.39 139.97 31.82 139.4 31.82 138.84 31.82 138.84 32.39 139.97 32.39"/><rect x="136.56" y="31.82" width="1.13" height="0.57"/><polygon points="141.1 31.82 141.1 32.39 142.24 32.39 142.24 31.82 141.67 31.82 141.67 29.55 141.1 29.55 141.1 31.82"/><rect x="134.3" y="31.82" width="1.13" height="0.57"/><polygon points="155.85 6.86 155.85 9.13 155.85 11.39 155.85 11.39 155.85 11.4 157.84 11.4 158.12 11.4 160.39 11.4 161.39 11.4 160.4 11.4 160.4 11.34 160.4 9.13 161.39 9.13 161.51 9.13 162.66 9.13 162.68 9.13 164.91 9.13 164.93 9.13 164.96 9.13 167.2 9.13 167.2 6.86 167.2 0.05 166.85 0.05 166.28 0.05 166.07 0.05 165.72 0.05 165.15 0.05 164.58 0.05 164.02 0.05 163.45 0.05 162.88 0.05 155.85 0.05 155.85 4.59 155.85 6.86"/><path d="M167.2,9.13v0Z"/><polygon class="cls-21" points="162.66 9.13 162.66 10.26 162.66 11.4 162.68 11.4 164.91 11.4 164.91 10.26 164.91 9.13 162.68 9.13 162.66 9.13"/><polygon class="cls-19" points="167.2 13.21 167.2 12.53 164.93 12.53 163.66 12.53 163.66 13.21 164.93 13.21 167.2 13.21"/><polygon class="cls-19" points="142.24 13.21 151.32 13.21 151.32 12.53 142.24 12.53 139.97 12.53 139.97 13.21 142.24 13.21"/><polygon class="cls-16" points="151.96 21.8 151.96 22.74 153.59 22.74 155.21 22.74 155.21 21.8 153.59 21.8 151.96 21.8"/><polygon class="cls-17" points="142.56 11.4 142.56 11.96 143.53 11.96 143.53 11.4 143.05 11.4 142.56 11.4"/><rect class="cls-17" x="140.62" y="11.4" width="0.97" height="0.57"/><rect class="cls-17" x="138.67" y="11.4" width="0.97" height="0.57"/><polygon points="142.56 11.96 142.56 11.4 142.08 11.4 141.59 11.4 141.59 11.96 142.56 11.96"/><rect x="139.64" y="11.4" width="0.97" height="0.57"/><polygon points="143.53 11.4 143.53 11.96 144.51 11.96 144.51 11.4 144.02 11.4 143.53 11.4"/><rect x="137.7" y="11.4" width="0.97" height="0.57"/><rect class="cls-36" x="139.97" y="15.94" width="2.27" height="2.27"/><rect class="cls-37" x="137.7" y="15.94" width="2.27" height="2.27"/><rect class="cls-18" x="142.24" y="15.94" width="2.27" height="2.27"/><rect class="cls-38" x="144.51" y="15.94" width="2.27" height="2.27"/><rect class="cls-32" x="146.78" y="15.94" width="2.27" height="2.27"/><rect class="cls-19" x="149.05" y="15.94" width="18.15" height="2.27"/><rect class="cls-19" x="142.24" y="13.67" width="18.15" height="2.27"/><rect x="158.12" y="11.4" width="6.81" height="2.27"/><rect x="155.85" y="22.74" width="11.35" height="11.35"/><rect class="cls-3" x="173.5" y="15.94" width="2.27" height="2.25"/><rect class="cls-4" x="176.53" y="15.94" width="1.51" height="2.25"/><rect class="cls-4" x="175.77" y="15.94" width="0.76" height="2.25"/><rect class="cls-20" x="178.02" y="0.05" width="2.28" height="2.27"/><path class="cls-5" d="M171.23,15.94V11.4H169v4.54Z"/><rect class="cls-13" x="184.85" y="22.74" width="2.27" height="2.27"/><path class="cls-6" d="M175.77,15.94V11.4H173.5v4.54Z"/><path class="cls-18" d="M180.31,25h2.27V22.74h-2.27Z"/><rect class="cls-7" x="166.69" y="11.4" width="2.27" height="4.54"/><rect class="cls-16" x="187.12" y="22.74" width="2.27" height="2.27"/><path class="cls-8" d="M175.77,15.94H178V11.4h-2.27v4.54Z"/><path class="cls-15" d="M178,25h2.27V22.74H178Z"/><polygon class="cls-13" points="171.23 22.74 171.23 22.74 173.5 22.74 171.23 22.74"/><rect class="cls-14" x="173.5" y="22.74" width="2.27" height="2.27"/><path class="cls-13" d="M173.5,29.55h0V27.28h-2.27v2.27Z"/><path class="cls-13" d="M173.5,11.4h-2.27v4.54h2.27Z"/><path class="cls-19" d="M182.58,22.74V25h2.27V22.74"/><line class="cls-19" x1="187.12" y1="25.01" x2="187.12" y2="25.01"/><polygon class="cls-14" points="178.04 31.82 178.04 31.82 178.04 31.82 178.04 34.09 182.58 34.09 182.58 31.82 178.04 31.82"/><polygon class="cls-14" points="187.12 31.82 187.12 31.82 187.12 34.09 189.39 34.09 189.39 31.82 187.12 31.82"/><rect class="cls-14" x="171.23" y="31.82" width="2.27" height="2.27"/><polygon class="cls-15" points="178.04 31.82 178.04 31.82 182.58 31.82 178.04 31.82"/><path class="cls-15" d="M173.5,20.47h-2.27v2.27h2.27Z"/><path class="cls-15" d="M175.77,29.55h-4.54v2.27h4.54V29.55H178v1.14h9.08v1.13h2.27V29.55H175.77Z"/><polygon class="cls-16" points="173.5 18.19 173.5 15.94 171.23 15.94 171.23 18.2 173.5 18.2 173.5 18.19"/><path class="cls-17" d="M175.77,18.19v2.28H178v2.27h.57V20.47H178V18.19Z"/><path class="cls-17" d="M173.5,28.42h2.27V27.28H173.5Z"/><rect class="cls-17" x="175.77" y="28.42" width="2.27" height="1.13"/><path class="cls-17" d="M182.58,13.67h-1.14v4.54h1.14V13.67Z"/><rect class="cls-17" x="182.58" y="9.13" width="1.13" height="4.54"/><path class="cls-17" d="M178,31.25h9.08v-.56H178Z"/><path class="cls-17" d="M180.88,22.74V20.48h-.57v2.26Z"/><path class="cls-17" d="M182,22.74V20.48h-.57v2.26Z"/><rect class="cls-17" x="179.17" y="20.47" width="0.57" height="2.27"/><path class="cls-17" d="M185.41,31.82h-.56v2.27h.56Z"/><path class="cls-17" d="M186.55,31.82H186v2.27h.57Z"/><path class="cls-17" d="M183.15,31.82h-.57v2.27h.57Z"/><path class="cls-17" d="M184.28,31.82h-.57v2.27h.57Z"/><rect class="cls-17" x="173.5" y="31.82" width="1.51" height="2.27"/><path class="cls-17" d="M178,31.82h-1.51v2.27H178Z"/><path class="cls-17" d="M171.23,11.4h1.51V9.13h-1.51V11.4Z"/><path class="cls-17" d="M175.77,11.4V9.13h-1.51V11.4Z"/><polygon class="cls-18" points="178.04 28.42 178.04 29.55 189.39 29.55 189.39 27.28 178.04 27.28 178.04 28.42"/><polygon class="cls-18" points="171.23 27.28 171.23 27.28 173.5 27.28 171.23 27.28"/><path class="cls-18" d="M178,31.82V30.69h0V29.55h-2.27v2.27Z"/><path class="cls-18" d="M173.5,20.47h0v2.27h2.27V20.47Z"/><path d="M173.5,20.47h2.27V18.19H173.5v0h-2.27v2.26Z"/><path d="M172.74,11.4h1.52V9.13h1.51V11.4H178v4.54h0v4.54h.57v2.26h.56V20.48h.57v2.26h.57V20.48h.57v2.26h.56V20.48H182v2.26h.57V18.21h-1.14V13.67h1.14V2.32H180.3v0H178V.05h-6.79V9.13h1.52V11.4Z"/><path d="M173.5,22.74h2.27V25l-1.31,1.31-1,.95h2.27L177,26.05l1-1V22.75H173.5Z"/><rect x="175.77" y="27.28" width="2.27" height="1.13"/><path d="M173.5,28.42h0v1.13h2.27V28.42Z"/><polygon points="182.58 15.94 182.58 18.2 183.71 18.2 183.71 13.67 182.58 13.67 182.58 15.94"/><path d="M169,29.55v2.27h2.27V29.55Z"/><path d="M171.23,25v2.26L173.5,25Z"/><path d="M187.12,31.82v-.57H178v.57h5.11v2.27h.56V31.82h.57v2.27h.57V31.82h.57v2.27H186V31.82h.57v2.27h.57Z"/><path d="M176.53,31.82H175v2.27h1.52Z"/><rect class="cls-21" x="180.3" y="0.05" width="2.28" height="2.27"/><path class="cls-19" d="M169,29.55h2.27V27.28H169Z"/><path class="cls-19" d="M178,22.74V20.48h-2.27v2.26Z"/><path class="cls-14" d="M171.23,25h2.27V22.74h-2.27Z"/><rect class="cls-17" x="170.47" y="15.94" width="0.76" height="1.13"/><rect class="cls-17" x="171.99" y="15.94" width="0.76" height="1.13"/><rect class="cls-17" x="168.96" y="15.94" width="0.76" height="1.13"/><rect x="171.23" y="15.94" width="0.76" height="1.13"/><rect x="169.72" y="15.94" width="0.76" height="1.13"/><path d="M173.5,15.94h-.76v1.13h.76Z"/><rect class="cls-17" x="172.74" y="17.07" width="0.76" height="1.13"/><rect class="cls-17" x="174.26" y="17.07" width="0.76" height="1.13"/><rect class="cls-17" x="171.23" y="17.07" width="0.76" height="1.13"/><rect x="173.5" y="17.07" width="0.76" height="1.13"/><rect x="171.99" y="17.07" width="0.76" height="1.13"/><path d="M175.77,17.07H175v1.14h.76Z"/><rect class="cls-17" x="172.74" y="0.05" width="0.76" height="2.27"/><rect class="cls-17" x="174.26" y="0.05" width="0.76" height="2.27"/><rect class="cls-17" x="168.96" y="0.05" width="3.03" height="2.27"/><rect x="173.5" y="0.05" width="0.76" height="2.27"/><rect x="171.99" y="0.05" width="0.76" height="2.27"/><path d="M175.77.05H175V2.32h.76Z"/><rect class="cls-17" x="179.55" y="2.89" width="0.76" height="0.57"/><rect class="cls-17" x="181.07" y="2.89" width="0.76" height="0.57"/><rect class="cls-17" x="178.04" y="2.89" width="0.76" height="0.57"/><rect x="180.31" y="2.89" width="0.76" height="0.57"/><rect x="178.8" y="2.89" width="0.76" height="0.57"/><path d="M182.58,2.89h-.76v.56h.76Z"/><rect class="cls-17" x="170.47" y="1.75" width="0.76" height="0.57"/><rect class="cls-17" x="171.99" y="1.75" width="0.76" height="0.57"/><rect class="cls-17" x="168.96" y="1.75" width="0.76" height="0.57"/><rect x="171.23" y="1.75" width="0.76" height="0.57"/><rect x="169.72" y="1.75" width="0.76" height="0.57"/><path d="M173.5,1.75h-.76v.57h.76Z"/><rect class="cls-17" x="165.94" y="4.02" width="0.76" height="0.57"/><rect class="cls-17" x="167.45" y="4.02" width="0.76" height="0.57"/><rect class="cls-17" x="164.42" y="4.02" width="0.76" height="0.57"/><rect x="166.69" y="4.02" width="0.76" height="0.57"/><rect x="165.18" y="4.02" width="0.76" height="0.57"/><path d="M169,4h-.75v.57H169Z"/><path d="M184.85,25"/><polygon points="178.04 27.28 180.31 25.01 182.58 25.01 180.31 27.28 178.04 27.28"/><polygon class="cls-17" points="175.77 27.28 178.04 25.01 180.31 25.01 178.04 27.28 175.77 27.28"/><polygon points="182.58 27.28 184.85 25.01 187.12 25.01 184.85 27.28 182.58 27.28"/><polygon points="187.12 27.28 189.39 25.01 189.39 27.28 187.12 27.28"/><polygon class="cls-17" points="171.23 27.28 173.5 25.01 175.77 25.01 173.5 27.28 171.23 27.28"/><polygon class="cls-17" points="180.31 27.28 182.58 25.01 184.85 25.01 182.58 27.28 180.31 27.28"/><polygon class="cls-17" points="184.85 27.28 187.12 25.01 189.39 25.01 187.12 27.28 184.85 27.28"/><rect class="cls-27" x="195.7" y="12.53" width="2.27" height="1.13"/><polygon class="cls-37" points="191.16 11.4 190.03 11.4 188.89 11.4 188.89 12.53 191.16 12.53 191.16 11.4"/><polygon class="cls-37" points="191.16 11.4 191.16 11.4 191.16 12.53 191.16 11.4"/><path class="cls-37" d="M191.16,11.4"/><polygon class="cls-36" points="193.43 11.4 193.43 11.4 191.16 11.4 193.43 11.4"/><rect class="cls-36" x="191.16" y="11.4" width="2.27" height="1.13"/><polygon class="cls-39" points="197.97 11.4 197.97 11.4 195.7 11.4 197.97 11.4"/><path class="cls-39" d="M198,11.4h0Z"/><rect class="cls-39" x="195.7" y="11.4" width="2.27" height="1.13"/><polygon class="cls-40" points="197.97 11.4 198.54 11.4 199.1 11.4 199.67 11.4 200.24 11.4 197.97 11.4"/><rect class="cls-3" x="188.89" y="6.86" width="1.13" height="2.27"/><rect class="cls-3" x="190.03" y="6.86" width="0.38" height="2.27"/><rect class="cls-3" x="190.4" y="6.86" width="0.38" height="2.27"/><rect class="cls-3" x="190.78" y="6.86" width="0.38" height="2.27"/><path class="cls-3" d="M191.16,6.86"/><path class="cls-3" d="M191.16,9.13v0Z"/><polygon class="cls-4" points="193.05 6.86 193.05 6.86 193.43 6.86 193.05 6.86"/><polygon class="cls-4" points="192.67 6.86 192.67 6.86 193.05 6.86 192.67 6.86"/><polygon class="cls-4" points="192.3 6.86 192.3 6.86 192.67 6.86 192.3 6.86"/><polygon class="cls-4" points="191.92 6.86 191.92 6.86 192.3 6.86 191.92 6.86"/><polygon class="cls-4" points="191.16 6.86 191.16 6.86 191.92 6.86 191.16 6.86"/><rect class="cls-33" x="193.43" y="12.53" width="2.27" height="1.13"/><polygon class="cls-20" points="197.98 15.95 197.98 18.2 200.24 18.2 200.24 15.95 200.24 15.94 197.98 15.94 197.98 15.95"/><polygon class="cls-20" points="197.98 9.13 200.24 9.13 200.24 6.86 199.48 6.86 197.98 6.86 197.98 9.13"/><line class="cls-34" x1="188.89" y1="13.67" x2="188.89" y2="12.53"/><polygon class="cls-35" points="191.16 12.53 191.16 12.53 188.89 12.53 188.89 13.67 191.16 13.67 191.16 12.53"/><polygon class="cls-13" points="197.97 5.5 197.97 6.86 197.98 6.86 199.48 6.86 200.24 6.86 202.51 6.86 202.51 5.5 200.24 5.5 197.97 5.5"/><polygon class="cls-14" points="193.43 3.45 193.43 3.45 195.7 3.45 193.43 3.45 193.43 3.45 193.43 2.32 193.43 1.19 195.7 1.19 195.7 0.05 193.43 0.05 193.43 2.32 193.43 3.45"/><polygon class="cls-14" points="200.24 0.05 199.67 0.05 199.1 0.05 198.54 0.05 197.97 0.05 197.97 1.19 197.97 1.41 200.24 1.41 202.51 1.41 202.51 1.19 202.51 0.05 200.24 0.05"/><rect class="cls-15" x="191.16" y="12.53" width="2.27" height="1.13"/><polygon class="cls-15" points="200.24 1.41 197.97 1.41 197.97 2.32 197.97 2.77 200.24 2.77 202.51 2.77 202.51 2.32 202.51 1.41 200.24 1.41"/><polygon class="cls-15" points="193.43 6.86 194.94 6.86 195.7 6.86 195.7 4.59 197.97 4.59 195.7 4.59 195.7 3.45 195.7 4.59 193.43 4.59 191.16 4.59 193.43 4.59 193.43 6.86"/><polygon class="cls-15" points="197.97 0.05 198.54 0.05 199.1 0.05 199.67 0.05 200.24 0.05 200.24 0.05 197.97 0.05 197.97 0.05"/><path class="cls-15" d="M198,3.45"/><polygon class="cls-16" points="191.16 3.45 191.16 3.45 193.43 3.45 193.43 2.32 193.43 0.05 191.16 0.05 191.16 2.32 191.16 3.45"/><line class="cls-16" x1="188.89" y1="9.13" x2="188.89" y2="6.86"/><rect class="cls-17" x="195.7" y="13.67" width="2.27" height="2.27"/><rect class="cls-17" x="190.03" y="10.26" width="1.13" height="1.13"/><polygon class="cls-17" points="191.16 15.94 191.16 15.95 191.16 20.47 192.3 20.47 192.3 15.95 192.3 15.94 193.43 15.94 193.43 13.67 191.16 13.67 191.16 15.94"/><polygon class="cls-17" points="191.16 20.47 191.16 20.47 190.03 20.47 190.03 25.01 191.16 25.01 191.16 20.47"/><polygon class="cls-17" points="191.16 4.59 191.16 4.59 193.43 4.59 195.7 4.59 195.7 3.45 193.43 3.45 193.43 3.45 191.16 3.45 190.17 3.45 188.89 3.45 188.89 4.59 190.17 4.59 191.16 4.59"/><rect class="cls-17" x="197.97" y="31.86" width="0.57" height="2.23"/><rect class="cls-17" x="199.1" y="31.86" width="0.57" height="2.23"/><rect class="cls-17" x="195.7" y="31.86" width="0.57" height="2.23"/><rect class="cls-17" x="196.83" y="31.86" width="0.57" height="2.23"/><rect class="cls-17" x="200.24" y="11.4" width="0.57" height="1.13"/><rect class="cls-17" x="201.37" y="11.4" width="0.57" height="1.13"/><rect class="cls-17" x="197.97" y="11.4" width="0.57" height="1.13"/><polygon class="cls-17" points="199.1 12.53 199.1 12.53 199.67 12.53 199.67 11.4 199.1 11.4 199.1 12.53"/><polygon class="cls-17" points="196.27 1.19 196.27 1.19 196.27 0.05 195.7 0.05 195.7 1.19 196.27 1.19"/><rect class="cls-17" x="196.83" y="0.05" width="0.57" height="1.13"/><rect class="cls-17" x="193.43" y="31.86" width="1.13" height="2.23"/><polygon class="cls-17" points="202.51 15.94 202.51 18.2 204.78 18.2 204.78 15.94 204.21 15.94 204.21 13.67 203.64 13.67 203.64 15.94 203.07 15.94 203.07 13.67 202.51 13.67 202.51 15.94"/><line class="cls-17" x1="188.89" y1="12.53" x2="188.89" y2="11.4"/><rect class="cls-17" x="200.24" y="13.67" width="0.57" height="2.27"/><rect class="cls-17" x="201.37" y="13.67" width="0.57" height="2.27"/><polygon class="cls-18" points="191.92 6.86 192.3 6.86 192.67 6.86 193.05 6.86 193.43 6.86 193.43 4.59 191.16 4.59 191.16 6.86 191.92 6.86"/><polygon class="cls-18" points="195.7 6.86 196.46 6.86 197.97 6.86 197.97 5.5 197.97 4.59 195.7 4.59 195.7 6.86"/><rect class="cls-18" x="193.43" y="11.4" width="2.27" height="1.13"/><polygon class="cls-18" points="195.7 4.59 197.97 4.59 197.97 4.13 200.24 4.13 202.51 4.13 202.51 3.45 202.51 2.77 200.24 2.77 197.97 2.77 197.97 3.45 195.7 3.45 195.7 4.59"/><polygon class="cls-18" points="195.7 1.19 195.7 0.05 196.27 0.05 196.83 0.05 197.4 0.05 197.97 0.05 197.97 0.05 195.7 0.05 195.7 1.19"/><polygon points="195.7 6.86 194.94 6.86 193.43 6.86 193.05 6.86 192.67 6.86 192.3 6.86 191.92 6.86 191.16 6.86 191.16 9.13 190.78 9.13 190.4 9.13 190.03 9.13 190.03 10.26 191.16 10.26 191.16 11.4 193.43 11.4 195.7 11.4 197.97 11.4 200.24 11.4 200.24 9.13 197.98 9.13 197.98 6.86 197.97 6.86 196.46 6.86 195.7 6.86"/><polygon points="191.16 20.47 191.16 15.95 191.16 15.94 190.03 15.94 190.03 20.47 191.16 20.47"/><polygon points="191.16 3.45 191.16 2.32 188.89 2.32 188.89 3.45 190.17 3.45 191.16 3.45"/><polygon points="202.51 3.45 202.51 4.13 202.51 4.59 202.51 2.32 202.51 2.77 202.51 3.45"/><path d="M200.24,9.13v0Z"/><path d="M201.37,12.53V11.4h.57v1.13Zm-1.13-1.13h.57v1.13h-.57V11.4h-.57v1.13h-.57V11.4h-.56v1.13H198v3.41H195.7V13.67h-2.27v2.27h-1.14v4.52h-1.13V34.09h2.27V31.86h1.13v2.23h1.14V31.86h.57v2.23h.56V31.86h.57v2.23H198V31.86h.57v2.23h.56V31.86h.57v2.23h2.84V18.21h-2.27V15.94h0v2.26H198V16h2.26V13.67h.57v2.27h.56V13.67h.57v2.27h.57V11.4Z"/><polygon points="195.7 3.45 197.97 3.45 197.97 2.77 197.97 2.32 197.97 1.41 197.97 1.19 197.97 0.05 197.4 0.05 197.4 1.19 196.83 1.19 196.83 0.05 196.27 0.05 196.27 1.19 195.7 1.19 193.43 1.19 193.43 2.32 193.43 3.45 193.43 3.45 195.7 3.45 195.7 3.45"/><rect x="203.08" y="13.67" width="0.57" height="2.27"/><rect x="204.21" y="13.67" width="0.57" height="2.27"/><polygon class="cls-21" points="201.37 15.94 200.81 15.94 200.24 15.94 200.24 18.2 202.51 18.2 202.51 15.94 201.94 15.94 201.37 15.94"/><polygon class="cls-21" points="200.24 9.13 200.24 9.13 202.51 9.13 202.51 6.86 200.24 6.86 200.24 9.13"/><rect class="cls-19" x="200.24" y="0.05" width="2.27"/><polygon class="cls-19" points="202.51 5.5 202.51 4.59 202.51 4.13 200.24 4.13 197.97 4.13 197.97 4.59 197.97 5.5 200.24 5.5 202.51 5.5"/><polygon class="cls-16" points="200.24 9.13 200.24 9.13 200.24 11.4 202.51 11.4 202.51 9.13 200.24 9.13"/><rect class="cls-16" x="186.62" y="6.86" width="2.27" height="2.27"/><rect class="cls-17" x="204.59" y="4.55" width="3.97" height="2.31"/><path class="cls-27" d="M210.83,30.69h0l0,0Z"/><path class="cls-27" d="M210.86,30.69h2.24V29.55h-2.27v1.11l0,0Z"/><path class="cls-41" d="M215.39,2.24h0V4.55h2.25V2.24Z"/><path class="cls-42" d="M217.64,2.24V4.55h2.51V2.24Z"/><path class="cls-42" d="M217.64,2.56v0s0,0,0,0Z"/><path class="cls-42" d="M217.64,2.58v0s0,0,0,0Z"/><path class="cls-33" d="M210.83,30.69V29.55h-2.27v1.14Z"/><rect class="cls-20" x="222.18" y="31.78" width="3.4" height="0.04"/><rect class="cls-34" x="201.76" y="29.55" width="2.27" height="1.13"/><path class="cls-35" d="M205.87,29.55H204v1.14h2.27V29.55Z"/><path class="cls-5" d="M201.76,22.7V20.43h-2.27V22.7Z"/><path class="cls-6" d="M205.56,22.7h.73V20.43H204V22.7Z"/><polygon class="cls-7" points="197.22 22.7 197.22 22.7 199.49 22.7 199.49 20.43 197.22 20.43 197.22 22.7"/><path class="cls-8" d="M206.86,20.43h-.57V22.7h2.27V20.43Z"/><path class="cls-9" d="M210.83,30.69h-2.27v3.4h2.27v-3.4Z"/><path class="cls-9" d="M208.56,4.55h2.27V2.24h-2.27V4.55Z"/><path class="cls-9" d="M213.1,2.24h2.28V0H213.1V2.24Z"/><path class="cls-10" d="M213.1,31.82V30.69h-2.27v3.4h2.27Z"/><path class="cls-10" d="M210.83,4.55h2.23V2.24h-2.23V4.55Z"/><path class="cls-10" d="M215.39,2.24h2.25V0h-2.25V2.24Z"/><path class="cls-11" d="M217.64,31.82V30.69h-2.27v3.4h2.27Z"/><path class="cls-12" d="M219.91,31.82V30.69h-2.27v3.4h2.27Z"/><path class="cls-13" d="M223.51,9.07a18.8,18.8,0,0,0-4.62.26,8,8,0,0,0-3.66,2h7Z"/><path class="cls-13" d="M213.61,13.67h0Z"/><path class="cls-13" d="M201.76,22.7H204V20.43h-2.27Z"/><path class="cls-14" d="M214.51,12.19v1.48h3.13V11.36h-3.13Z"/><rect class="cls-14" x="201.76" y="15.85" width="1.7" height="4.58"/><path class="cls-14" d="M213.61,13.67h-.51v2.18h4.54V13.67Z"/><path class="cls-14" d="M215.37,31.82V30.69H213.1v3.4h2.27Z"/><path class="cls-14" d="M206.28,13.67V9.13H204v4.54Z"/><path class="cls-14" d="M208.43,9.13h.13V6.86h-2.28V9.13Z"/><path class="cls-14" d="M209.7,6.86h1.13V4.55h-2.27V6.86Z"/><path class="cls-14" d="M215.39,4.55h0V2.24h-2.33V4.55Z"/><path class="cls-14" d="M217.64,2.24h10L229,0c-3,0-6.05,0-9.08,0h-2.27V2.24Z"/><path class="cls-15" d="M210.83,6.17v.69h2.27v.46c3.82-3.06,8.53-2.76,13.14-2.76l1.4-2.32h-7.49V4.55h-9.32V6.17Z"/><path class="cls-15" d="M208.56,29.55h-2.27v1.14h2.27Z"/><path class="cls-15" d="M205.16,17.07v3.36h1.7V15.85h1.7V15h0V13.67h2.76V11.36h-2.76V9.13h-2.28v4.54h-1.12v2.18h0v1.22Z"/><path class="cls-16" d="M220.84,11.36h-3.2v2.31h0v2.18h2.27V13.63h2.27V11.36Z"/><path class="cls-17" d="M225.46,18.16h.12l1.14-2.31h-2.27l-1.14,2.31Z"/><path class="cls-17" d="M219.91,15.85l-1.14,2.31H221l1.14-2.31Z"/><path class="cls-17" d="M217.5,15.85h-2.15c-.37.77-.75,1.54-1.13,2.31h2.27c.38-.77.76-1.54,1.13-2.31Z"/><path class="cls-17" d="M210.82,15.85c-.75,1.53-1.51,3.06-2.26,4.58h2.27q1.13-2.28,2.26-4.58Z"/><path class="cls-17" d="M213.1,25h0V22.7h-2.27V25Z"/><path class="cls-17" d="M206.29,22.7h-.42V25h1.65v4.52h1V22.7Z"/><path class="cls-17" d="M210.83,26.55V25h-.92v4.52h.92Z"/><path class="cls-17" d="M205.87,25H205v4.52h.92Z"/><rect class="cls-17" x="225.58" y="31.82" width="3.4" height="2.27"/><path class="cls-17" d="M211.4,9V6.86h-.57v4.5h.57Z"/><path class="cls-17" d="M212,8.35v3h.57V6.86H212V8.35Z"/><path class="cls-17" d="M210.27,9.58V6.86h-.57v4.5h.57V9.58Z"/><path class="cls-18" d="M225.43,4.56a36.23,36.23,0,0,0-6.83.26,12.54,12.54,0,0,0-5.5,2.5v3.07a10.31,10.31,0,0,1,5-3.17c2.18-.61,4.51-.4,6.74-.4l1.37-2.26Z"/><path class="cls-18" d="M205.16,20.43V15.85h-1.7v4.58Z"/><path class="cls-18" d="M213.1,15.12V13.67h-4.18a8.09,8.09,0,0,0-.36,2.18h4.54v-.73Z"/><path class="cls-18" d="M208.92,13.67h-.36V15.4a12.34,12.34,0,0,1,.36-1.73Z"/><path d="M208.56,20.43c.75-1.52,1.51-3.05,2.26-4.58h-2.26v4.58Z"/><path d="M207.52,26.55V25h-1.65v4.52h1.65Z"/><path d="M205,25h.92V22.7h-4.11V25H204v4.52H205V25Z"/><path d="M217.64,25h-2.27V22.79h2.27Zm-2.27,2.24H213.1V25h2.27Zm4.54-9.12h-1.14l1.14-2.31h-2.29c-.37.77-.75,1.54-1.13,2.31h-2.27l1.14-2.31h-2.27c-.75,1.53-1.51,3.06-2.26,4.58h-2.27v9.12h1.35V25h.92V22.7h2.27V25h-2.27v4.52h2.27v1.14h6.81v3.4h2.27V31.78H229V15.85h-2.27l-1.14,2.31h-2.27l1.14-2.31h-2.27L221,18.16Z"/><path d="M211.4,9v2.39H212V6.86h-.57V9Z"/><path d="M210.83,8.61V6.86h-.56v4.5h.56V8.61Z"/><path d="M212.54,11.36h.56V6.86h-.56v4.5Z"/><path d="M209.7,11.36V6.86h-.57v4.5Z"/><path d="M207.43,6.86h0V4.55h-.57V6.86Z"/><path d="M205.73,6.86h.55V4.55h-.55V6.86Z"/><path d="M208.56,4.55H208V6.86h.56V4.55Z"/><path d="M204.59,6.86h.57V4.55h-.57Z"/><path d="M197.21,20.44"/><rect class="cls-21" x="225.58" y="31.78" width="3.4" height="0.04"/><rect class="cls-21" x="222.18" y="31.82" width="3.4" height="2.27"/><path class="cls-19" d="M223.51,9.07l1.36-2.25c-2.43,0-4.92-.25-7.27.55a10.11,10.11,0,0,0-3,1.58,11.12,11.12,0,0,0-1.55,1.44s0,.49,0,1h2.13a8.31,8.31,0,0,1,2.51-1.66c1.84-.77,3.82-.63,5.77-.63Z"/><path class="cls-19" d="M211.23,13.67Z"/><path class="cls-19" d="M208.56,20.43h0V15h0v.86h-1.7v4.58Z"/><path class="cls-19" d="M205.16,15V13.67h-3.4v2.18h3.4Z"/><rect class="cls-17" x="208.56" y="6.86" width="0.57" height="4.5"/><rect class="cls-17" x="196.76" y="18.16" width="0.57" height="2.27"/><rect class="cls-17" x="197.89" y="18.16" width="0.57" height="2.27"/><rect class="cls-17" x="195.62" y="18.16" width="0.57" height="2.27"/><rect x="197.32" y="18.16" width="0.57" height="2.27"/><rect x="196.19" y="18.16" width="0.57" height="2.27"/><path d="M199,18.16h-.57v2.27H199Z"/><rect class="cls-17" x="200.16" y="18.16" width="0.57" height="2.27"/><rect class="cls-17" x="201.3" y="18.16" width="0.57" height="2.27"/><rect class="cls-17" x="199.03" y="18.16" width="0.57" height="2.27"/><rect x="200.73" y="18.16" width="0.57" height="2.27"/><rect x="199.59" y="18.16" width="0.57" height="2.27"/><path d="M202.43,18.16h-.57v2.27h.57Z"/><path class="cls-17" d="M204.19,15.33v.56h.48v-.56Z"/><rect class="cls-17" x="203.22" y="15.33" width="0.49" height="0.57"/><rect class="cls-17" x="202.24" y="15.33" width="0.49" height="0.57"/><path d="M204.19,15.89v-.56h-.49v.56Z"/><rect x="202.73" y="15.33" width="0.49" height="0.57"/><path d="M204.67,15.33v.56h.49v-.56Z"/><rect x="201.76" y="15.33" width="0.49" height="0.57"/><rect class="cls-17" x="198.36" y="22.7" width="1.14" height="0.82"/><rect class="cls-17" x="196.08" y="22.7" width="1.14" height="0.82"/><rect x="197.22" y="22.7" width="1.14" height="0.82"/><rect x="194.93" y="22.7" width="1.14" height="0.82"/><rect class="cls-18" x="210.83" y="11.35" width="3.7" height="2.31"/><rect class="cls-27" x="34.7" y="12.53" width="2.27" height="1.13"/><polygon class="cls-37" points="30.16 11.4 29.03 11.4 27.89 11.4 27.89 12.53 30.16 12.53 30.16 11.4"/><polygon class="cls-37" points="30.16 11.4 30.16 11.4 30.16 12.53 30.16 11.4"/><path class="cls-37" d="M30.16,11.4"/><polygon class="cls-36" points="32.43 11.4 32.43 11.4 30.16 11.4 32.43 11.4"/><rect class="cls-36" x="30.16" y="11.4" width="2.27" height="1.13"/><polygon class="cls-39" points="36.97 11.4 36.97 11.4 34.7 11.4 36.97 11.4"/><path class="cls-39" d="M37,11.4h0Z"/><rect class="cls-39" x="34.7" y="11.4" width="2.27" height="1.13"/><polygon class="cls-40" points="36.97 11.4 37.54 11.4 38.1 11.4 38.67 11.4 39.24 11.4 36.97 11.4"/><rect class="cls-3" x="27.89" y="6.86" width="1.13" height="2.27"/><rect class="cls-3" x="29.03" y="6.86" width="0.38" height="2.27"/><rect class="cls-3" x="29.4" y="6.86" width="0.38" height="2.27"/><rect class="cls-3" x="29.78" y="6.86" width="0.38" height="2.27"/><path class="cls-3" d="M30.16,6.86"/><path class="cls-3" d="M30.16,9.13v0Z"/><polygon class="cls-4" points="32.05 6.86 32.05 6.86 32.43 6.86 32.05 6.86"/><polygon class="cls-4" points="31.67 6.86 31.67 6.86 32.05 6.86 31.67 6.86"/><polygon class="cls-4" points="31.3 6.86 31.3 6.86 31.67 6.86 31.3 6.86"/><polygon class="cls-4" points="30.92 6.86 30.92 6.86 31.3 6.86 30.92 6.86"/><polygon class="cls-4" points="30.16 6.86 30.16 6.86 30.92 6.86 30.16 6.86"/><rect class="cls-33" x="32.43" y="12.53" width="2.27" height="1.13"/><polygon class="cls-20" points="36.98 15.95 36.98 18.2 39.24 18.2 39.24 15.95 39.24 15.94 36.98 15.94 36.98 15.95"/><polygon class="cls-20" points="36.98 9.13 39.24 9.13 39.24 6.86 38.48 6.86 36.98 6.86 36.98 9.13"/><line class="cls-34" x1="27.89" y1="13.67" x2="27.89" y2="12.53"/><polygon class="cls-35" points="30.16 12.53 30.16 12.53 27.89 12.53 27.89 13.67 30.16 13.67 30.16 12.53"/><polygon class="cls-13" points="36.97 5.5 36.97 6.86 36.98 6.86 38.48 6.86 39.24 6.86 41.51 6.86 41.51 5.5 39.24 5.5 36.97 5.5"/><polygon class="cls-14" points="32.43 3.45 32.43 3.45 34.7 3.45 32.43 3.45 32.43 3.45 32.43 2.32 32.43 1.19 34.7 1.19 34.7 0.05 32.43 0.05 32.43 2.32 32.43 3.45"/><polygon class="cls-14" points="39.24 0.05 38.67 0.05 38.1 0.05 37.54 0.05 36.97 0.05 36.97 1.19 36.97 1.41 39.24 1.41 41.51 1.41 41.51 1.19 41.51 0.05 39.24 0.05"/><rect class="cls-15" x="30.16" y="12.53" width="2.27" height="1.13"/><polygon class="cls-15" points="39.24 1.41 36.97 1.41 36.97 2.32 36.97 2.77 39.24 2.77 41.51 2.77 41.51 2.32 41.51 1.41 39.24 1.41"/><polygon class="cls-15" points="32.43 6.86 33.94 6.86 34.7 6.86 34.7 4.59 36.97 4.59 34.7 4.59 34.7 3.45 34.7 4.59 32.43 4.59 30.16 4.59 32.43 4.59 32.43 6.86"/><polygon class="cls-15" points="36.97 0.05 37.54 0.05 38.1 0.05 38.67 0.05 39.24 0.05 39.24 0.05 36.97 0.05 36.97 0.05"/><path class="cls-15" d="M37,3.45"/><polygon class="cls-16" points="30.16 3.45 30.16 3.45 32.43 3.45 32.43 2.32 32.43 0.05 30.16 0.05 30.16 2.32 30.16 3.45"/><line class="cls-16" x1="27.89" y1="9.13" x2="27.89" y2="6.86"/><rect class="cls-17" x="34.7" y="13.67" width="2.27" height="2.27"/><rect class="cls-17" x="29.03" y="10.26" width="1.13" height="1.13"/><polygon class="cls-17" points="30.16 15.94 30.16 15.95 30.16 20.47 31.3 20.47 31.3 15.95 31.3 15.94 32.43 15.94 32.43 13.67 30.16 13.67 30.16 15.94"/><polygon class="cls-17" points="30.16 20.47 30.16 20.47 29.03 20.47 29.03 25.01 30.16 25.01 30.16 20.47"/><polygon class="cls-17" points="30.16 4.59 30.16 4.59 32.43 4.59 34.7 4.59 34.7 3.45 32.43 3.45 32.43 3.45 30.16 3.45 29.17 3.45 27.89 3.45 27.89 4.59 29.17 4.59 30.16 4.59"/><rect class="cls-17" x="36.97" y="31.86" width="0.57" height="2.23"/><rect class="cls-17" x="38.1" y="31.86" width="0.57" height="2.23"/><rect class="cls-17" x="34.7" y="31.86" width="0.57" height="2.23"/><rect class="cls-17" x="35.83" y="31.86" width="0.57" height="2.23"/><rect class="cls-17" x="39.24" y="11.4" width="0.57" height="1.13"/><rect class="cls-17" x="40.37" y="11.4" width="0.57" height="1.13"/><rect class="cls-17" x="36.97" y="11.4" width="0.57" height="1.13"/><polygon class="cls-17" points="38.1 12.53 38.1 12.53 38.67 12.53 38.67 11.4 38.1 11.4 38.1 12.53"/><polygon class="cls-17" points="35.27 1.19 35.27 1.19 35.27 0.05 34.7 0.05 34.7 1.19 35.27 1.19"/><rect class="cls-17" x="35.83" y="0.05" width="0.57" height="1.13"/><rect class="cls-17" x="32.43" y="31.86" width="1.13" height="2.23"/><polygon class="cls-17" points="41.51 15.94 41.51 18.2 43.78 18.2 43.78 15.94 43.21 15.94 43.21 13.67 42.64 13.67 42.64 15.94 42.08 15.94 42.08 13.67 41.51 13.67 41.51 15.94"/><line class="cls-17" x1="27.89" y1="12.53" x2="27.89" y2="11.4"/><rect class="cls-17" x="39.24" y="13.67" width="0.57" height="2.27"/><rect class="cls-17" x="40.37" y="13.67" width="0.57" height="2.27"/><polygon class="cls-18" points="30.92 6.86 31.3 6.86 31.67 6.86 32.05 6.86 32.43 6.86 32.43 4.59 30.16 4.59 30.16 6.86 30.92 6.86"/><polygon class="cls-18" points="34.7 6.86 35.46 6.86 36.97 6.86 36.97 5.5 36.97 4.59 34.7 4.59 34.7 6.86"/><rect class="cls-18" x="32.43" y="11.4" width="2.27" height="1.13"/><polygon class="cls-18" points="34.7 4.59 36.97 4.59 36.97 4.13 39.24 4.13 41.51 4.13 41.51 3.45 41.51 2.77 39.24 2.77 36.97 2.77 36.97 3.45 34.7 3.45 34.7 4.59"/><polygon class="cls-18" points="34.7 1.19 34.7 0.05 35.27 0.05 35.83 0.05 36.4 0.05 36.97 0.05 36.97 0.05 34.7 0.05 34.7 1.19"/><polygon points="34.7 6.86 33.94 6.86 32.43 6.86 32.05 6.86 31.67 6.86 31.3 6.86 30.92 6.86 30.16 6.86 30.16 9.13 29.78 9.13 29.4 9.13 29.03 9.13 29.03 10.26 30.16 10.26 30.16 11.4 32.43 11.4 34.7 11.4 36.97 11.4 39.24 11.4 39.24 9.13 36.98 9.13 36.98 6.86 36.97 6.86 35.46 6.86 34.7 6.86"/><polygon points="30.16 20.47 30.16 15.95 30.16 15.94 29.03 15.94 29.03 20.47 30.16 20.47"/><polygon points="30.16 3.45 30.16 2.32 27.89 2.32 27.89 3.45 29.17 3.45 30.16 3.45"/><polygon points="41.51 3.45 41.51 4.13 41.51 4.59 41.51 2.32 41.51 2.77 41.51 3.45"/><path d="M39.24,9.13v0Z"/><path d="M40.37,12.53V11.4h.57v1.13ZM39.24,11.4h.57v1.13h-.57V11.4h-.57v1.13H38.1V11.4h-.56v1.13H37v3.41H34.7V13.67H32.43v2.27H31.29v4.52H30.16V34.09h2.27V31.86h1.13v2.23H34.7V31.86h.57v2.23h.56V31.86h.57v2.23H37V31.86h.57v2.23h.56V31.86h.57v2.23h2.84V18.21H39.24V15.94h0v2.26H37V16h2.26V13.67h.57v2.27h.56V13.67h.57v2.27h.57V11.4Z"/><polygon points="34.7 3.45 36.97 3.45 36.97 2.77 36.97 2.32 36.97 1.41 36.97 1.19 36.97 0.05 36.4 0.05 36.4 1.19 35.83 1.19 35.83 0.05 35.27 0.05 35.27 1.19 34.7 1.19 32.43 1.19 32.43 2.32 32.43 3.45 32.43 3.45 34.7 3.45 34.7 3.45"/><rect x="42.08" y="13.67" width="0.57" height="2.27"/><rect x="43.21" y="13.67" width="0.57" height="2.27"/><polygon class="cls-21" points="40.37 15.94 39.8 15.94 39.24 15.94 39.24 18.2 41.51 18.2 41.51 15.94 40.94 15.94 40.37 15.94"/><polygon class="cls-21" points="39.24 9.13 39.24 9.13 41.51 9.13 41.51 6.86 39.24 6.86 39.24 9.13"/><rect class="cls-19" x="39.24" y="0.05" width="2.27"/><polygon class="cls-19" points="41.51 5.5 41.51 4.59 41.51 4.13 39.24 4.13 36.97 4.13 36.97 4.59 36.97 5.5 39.24 5.5 41.51 5.5"/><polygon class="cls-16" points="39.24 9.13 39.24 9.13 39.24 11.4 41.51 11.4 41.51 9.13 39.24 9.13"/><rect class="cls-16" x="25.62" y="6.86" width="2.27" height="2.27"/><rect class="cls-17" x="35.21" y="22.74" width="1.14" height="2.31"/><rect class="cls-17" x="37.48" y="22.74" width="1.14" height="2.31"/><rect class="cls-17" x="32.94" y="22.74" width="1.14" height="2.31"/><rect x="36.35" y="22.74" width="1.14" height="2.31"/><rect x="34.08" y="22.74" width="1.14" height="2.31"/><path d="M39.76,22.74H38.62v2.31h1.14Z"/><path class="cls-43" d="M49.87,20.59v0Z"/><polygon class="cls-43" points="61.21 21.38 61.21 21.38 61.21 20.47 61.21 20.59 61.21 21.38"/><polygon class="cls-44" points="48.73 30.08 48.73 27.32 47.6 27.32 46.46 27.32 46.46 27.62 46.46 29.62 46.46 31.86 48.73 31.86 48.73 30.13 48.73 30.08"/><polygon class="cls-45" points="51 31.29 51 27.78 51 27.32 49.87 27.32 48.73 27.32 48.73 30.08 48.73 30.13 48.73 31.86 51 31.86 51 31.63 51 31.29"/><polygon class="cls-46" points="55.54 27.32 54.4 27.32 53.27 27.32 53.27 28.69 53.27 31.86 55.54 31.86 55.54 29.6 55.54 27.32"/><polygon class="cls-47" points="55.54 29.6 55.54 31.86 57.81 31.86 57.81 30.51 57.81 27.32 56.67 27.32 55.54 27.32 55.54 29.6"/><polygon class="cls-9" points="52.13 2.32 54.4 2.32 54.4 1.03 54.4 0.05 52.13 0.05 52.13 2 52.13 2.32"/><polygon class="cls-10" points="54.4 2.32 56.67 2.32 56.67 0.42 56.67 0.05 54.4 0.05 54.4 1.03 54.4 2.32"/><path class="cls-14" d="M52.13,4.63h.52a14.6,14.6,0,0,1,14.67,0h1.1L69.51,3l-.13-.09A18.76,18.76,0,0,0,58.94.05H56.67V2.32H51.51A12.8,12.8,0,0,0,50.4,3l1.11,1.62Z"/><polygon class="cls-14" points="52.11 20.59 52.11 20.47 52.11 20.14 52.11 18.73 52.11 18.34 52.11 15.94 51.55 15.94 50.99 15.94 50.43 15.94 49.87 15.94 49.87 18.34 49.87 18.73 49.87 20.14 49.87 20.47 49.87 20.59 52.11 20.59"/><polygon class="cls-14" points="49.87 21.95 49.87 21.38 49.87 21.04 49.87 20.59 47.6 20.59 47.6 21.04 47.6 21.38 47.6 21.95 47.6 22.85 49.87 22.85 49.87 21.95"/><path class="cls-15" d="M49.87,6.86h0v0H54.4V6.6h0a12.07,12.07,0,0,1,9.08-.88V6.9h2.27V9.17h2.67V4.63h-1.1a14.62,14.62,0,0,0-14.68,0H49.86V6.86Z"/><polygon class="cls-15" points="52.13 20.59 52.13 21.04 52.13 21.38 52.13 21.95 52.13 22.85 54.4 22.85 54.4 21.95 54.4 21.38 54.4 20.59 54.4 20.59 52.13 20.59"/><polygon class="cls-15" points="53.27 31.86 53.27 28.69 53.27 27.32 52.13 27.32 51 27.32 51 27.78 51 31.29 51 31.63 51 31.86 52.11 31.86 52.43 31.86 53.27 31.86"/><polygon class="cls-15" points="57.76 13.71 57.76 13.71 57.74 13.71 56.67 13.71 56.67 13.72 56.67 13.82 56.67 14.85 56.67 15.94 55.54 15.94 54.4 15.94 54.4 18.73 54.4 20.14 54.4 20.47 54.4 20.59 56.67 20.59 56.67 20.47 56.67 18.25 56.67 15.94 58.94 15.94 59.27 15.94 59.27 15.94 59.28 15.94 61.18 15.94 61.18 14.85 61.18 14.85 61.18 13.71 58.94 13.71 57.76 13.71"/><polygon class="cls-16" points="47.6 21.95 47.6 21.38 47.6 21.04 47.6 20.59 49.87 20.59 49.87 20.47 49.87 20.14 49.87 18.73 49.87 18.34 49.87 15.94 49.03 15.94 47.6 15.94 47.6 18.34 47.6 20.14 47.6 20.47 47.6 20.59 45.33 20.59 45.33 21.38 45.33 22.74 45.33 22.85 47.6 22.85 47.6 21.95"/><path class="cls-17" d="M65.75,11.44v0Z"/><polygon class="cls-17" points="46.46 11.45 47.6 11.45 47.6 5.43 47.6 4.59 46.46 4.59 46.46 6.8 46.46 11.45"/><polygon class="cls-17" points="43.34 13.67 45.33 13.67 45.33 13.71 45.33 11.45 45.33 8.53 45.33 4.59 44.09 4.59 44.19 4.59 44.19 10.87 44.19 11.45 44.09 11.45 43.98 11.45 43.06 11.45 43.06 13.71 43.06 13.67 43.34 13.67"/><path class="cls-17" d="M49.87,20.14v0Z"/><polygon class="cls-17" points="43.06 18.34 43.06 20.47 43.06 20.59 43.06 20.47 43.06 18.34"/><rect class="cls-17" x="38.52" y="18.21" width="2.27" height="2.26"/><polygon class="cls-17" points="45.33 15.94 43.07 15.94 43.06 15.94 43.06 18.19 43.11 18.19 45.33 18.19 45.33 15.94"/><polygon class="cls-17" points="60.08 27.32 61.21 27.32 61.21 25.01 58.94 25.01 58.94 27.32 60.08 27.32"/><polygon class="cls-17" points="53.46 23.75 52.13 25.01 54.4 25.01 54.4 27.32 55.54 27.32 56.67 27.32 56.67 25.01 54.4 25.01 55.73 23.75 56.67 22.85 54.4 22.85 53.46 23.75"/><polygon class="cls-17" points="58.94 20.59 58.94 21.38 58.94 22.85 61.21 22.85 61.21 21.38 61.21 20.59 58.94 20.59"/><polygon class="cls-17" points="60.27 23.75 61.21 22.85 58.94 22.85 58 23.75 56.67 25.01 58.94 25.01 60.27 23.75"/><polygon class="cls-17" points="49.87 25.01 51.19 23.75 52.13 22.85 49.87 22.85 48.92 23.75 47.6 25.01 49.87 25.01 49.87 27.32 51 27.32 52.13 27.32 52.13 25.01 49.87 25.01"/><path class="cls-16" d="M56.67,11.16v2.55h4.51v-3.3a6.74,6.74,0,0,0-4.51.75Z"/><polygon class="cls-17" points="54.4 13.82 54.4 14.85 56.67 14.85 56.67 13.82 56.67 13.72 54.4 13.72 54.4 13.82"/><polygon class="cls-17" points="52.7 14.85 52.7 13.82 52.7 13.72 52.7 13.71 52.7 11.45 52.13 11.45 52.13 13.71 52.13 13.72 52.13 13.82 52.13 14.85 52.13 15.94 52.7 15.94 52.7 14.85"/><polygon class="cls-17" points="53.27 13.72 53.27 13.82 53.27 14.85 53.27 15.94 53.84 15.94 53.84 14.85 53.84 13.82 53.84 13.72 53.84 11.45 53.27 11.45 53.27 13.72"/><polygon class="cls-17" points="50.43 14.85 50.43 14.85 50.43 13.82 50.43 13.72 50.43 11.45 49.87 11.45 49.87 13.72 49.87 13.82 49.87 14.85 49.87 15.94 50.43 15.94 50.43 14.85"/><polygon class="cls-17" points="51.57 14.85 51.57 13.82 51.57 13.72 51.57 11.45 51 11.45 51 13.72 51 13.82 51 14.85 51 15.94 51.57 15.94 51.57 14.85"/><polygon class="cls-18" points="53.27 15.94 52.7 15.94 52.13 15.94 52.13 18.34 52.13 18.73 52.13 20.14 52.13 20.47 52.13 20.59 54.4 20.59 54.4 20.59 54.4 20.47 54.4 20.14 54.4 18.73 54.4 15.94 53.84 15.94 53.27 15.94"/><polygon class="cls-18" points="49.87 21.38 49.87 21.95 49.87 22.85 52.13 22.85 52.13 21.95 52.13 21.38 52.13 21.04 52.13 20.59 49.87 20.59 49.87 21.04 49.87 21.38"/><path class="cls-18" d="M51,11.44h1.13V9.17h2.93l0,0c.16-.09.32-.19.48-.27l0,0a8.15,8.15,0,0,1,1.05-.46l.42-.15h0l.22-.07h0a10.42,10.42,0,0,1,1.85-.35h.12a8.62,8.62,0,0,1,.88,0h.14a8.69,8.69,0,0,1,.88.07V9.17h4.57V6.9H63.48V5.71a12.07,12.07,0,0,0-9.08.88h0v.3H52.14V9.17H49.87v2.27H51Z"/><path class="cls-18" d="M57.31,8.17a10.42,10.42,0,0,1,1.85-.35,10.42,10.42,0,0,0-1.85.35Z"/><path class="cls-18" d="M60.3,7.79a8.69,8.69,0,0,1,.88.07,8.69,8.69,0,0,0-.88-.07Z"/><path class="cls-18" d="M57.1,8.24l.21-.07-.21.07Z"/><path class="cls-18" d="M59.28,7.81a8.62,8.62,0,0,1,.88,0,8.62,8.62,0,0,0-.88,0Z"/><polyline points="40.79 11.45 40.79 13.71 43.06 13.71 43.06 11.45 41.92 11.45 41.89 11.45 40.79 11.45"/><rect x="40.79" y="18.21" width="2.27" height="2.26"/><polygon points="54.4 25.01 52.13 25.01 52.13 27.32 53.27 27.32 54.4 27.32 54.4 25.01"/><path d="M61.21,20.47h0v2.38H58.94V20.59h2.27Zm-2.27-2.22h0v2.34H56.67v2.26l-.94.9L54.4,25h2.27L58,23.75l.94-.9h2.27l-.94.9L58.94,25h2.27v2.31H58.94V25H56.67v2.31h1.14v4.54h-5.7l0,0v2.25h9.07a17.13,17.13,0,0,0,8.33-3l.13-.08L61.18,18.76v-.51Z"/><polygon points="49.87 25.01 52.13 25.01 53.46 23.75 54.4 22.85 52.13 22.85 51.19 23.75 49.87 25.01"/><polygon points="47.6 25.01 48.92 23.75 49.87 22.85 47.6 22.85 45.33 25.01 45.33 25.11 45.33 26 45.33 27.32 46.24 27.32 46.46 27.32 47.6 27.32 48.73 27.32 49.87 27.32 49.87 25.01 47.6 25.01"/><polygon points="43.06 11.45 43.98 11.45 44.09 11.45 44.19 11.45 44.19 10.87 44.19 4.59 44.09 4.59 43.06 4.59 43.06 11.45"/><path d="M43.06,20.47V25h2.27V20.59H47.6V15.94h2.27V9.17h2.27V6.9H49.87v0h0V4.63h1.64L50.4,3l-.13.09a14.79,14.79,0,0,0-1.85,1.5H47.6v6.85H46.46V4.59H45.33v9.08H43.06v0H40.79v1.13h2.27v1.09h2.27v2.25H43.11v0h0v2.26Z"/><polygon points="52.13 15.94 52.13 14.85 52.13 13.82 52.13 13.72 52.13 13.71 52.13 11.45 52.7 11.45 52.7 13.71 52.7 13.72 52.7 13.82 52.7 14.85 52.7 15.94 53.27 15.94 53.27 14.85 53.27 13.82 53.27 13.72 53.27 11.45 53.04 11.45 53.04 10.83 53.04 9.17 52.13 9.17 52.13 10.27 52.13 11.45 51.57 11.45 51.57 13.72 51.57 13.82 51.57 14.85 51.57 15.94 52.13 15.94"/><polygon points="56.67 9.17 55.77 9.17 55.77 10.81 55.77 10.83 55.77 11.45 54.86 11.45 54.86 9.51 54.86 9.5 54.86 9.3 54.86 9.3 54.86 9.17 54.63 9.17 54.4 9.17 53.95 9.17 53.95 9.96 53.95 11.45 53.84 11.45 53.84 13.72 53.84 13.82 53.84 14.85 53.84 15.94 54.4 15.94 55.54 15.94 56.67 15.94 56.67 14.85 54.4 14.85 54.4 13.82 54.4 13.72 56.67 13.72 56.67 13.71 56.67 12.15 56.67 12.12 56.67 11.45 56.67 11.16 56.67 9.17"/><polygon points="51 14.85 51 13.82 51 13.72 51 11.45 50.43 11.45 50.43 13.72 50.43 13.82 50.43 14.85 50.43 15.94 51 15.94 51 14.85"/><path class="cls-19" d="M55.77,10.83h0V9.17h.9v2a6.74,6.74,0,0,1,4.51-.75v1h4.57V9.17H61.18V7.86a8.69,8.69,0,0,0-.88-.07h-.14a8.62,8.62,0,0,0-.88,0h-.12a10.42,10.42,0,0,0-1.85.35l-.22.07-.42.15a8.15,8.15,0,0,0-1.05.46l0,0-.49.27,0,0h-.2V9.3h0v.2h0v1.94h.9v-.61Z"/><polygon class="cls-19" points="53.84 11.45 53.95 11.45 53.95 9.96 53.95 9.17 53.04 9.17 53.04 10.83 53.04 11.45 53.27 11.45 53.84 11.45"/><polygon class="cls-19" points="58.94 20.47 58.94 18.25 61.18 18.25 61.18 15.94 59.28 15.94 59.27 15.94 59.27 15.94 58.94 15.94 56.67 15.94 56.67 18.25 56.67 20.47 56.67 20.59 58.94 20.59 58.94 20.47"/><polygon class="cls-19" points="56.67 22.85 56.67 21.38 56.67 20.59 54.4 20.59 54.4 21.38 54.4 21.95 54.4 22.85 56.67 22.85 56.67 22.85"/><rect class="cls-17" x="40.79" y="20.46" width="0.57" height="2.28"/><rect class="cls-17" x="41.92" y="20.46" width="0.57" height="2.28"/><rect class="cls-17" x="39.65" y="20.46" width="0.57" height="2.28"/><rect x="41.36" y="20.46" width="0.57" height="2.28"/><rect x="40.22" y="20.46" width="0.57" height="2.28"/><path d="M43.06,20.46h-.57v2.28h.57Z"/><rect class="cls-17" x="41.92" y="9.17" width="0.57" height="2.28"/><rect class="cls-17" x="43.06" y="9.17" width="0.57" height="2.28"/><rect class="cls-17" x="40.79" y="9.17" width="0.57" height="2.28"/><rect x="42.49" y="9.17" width="0.57" height="2.28"/><rect x="41.36" y="9.17" width="0.57" height="2.28"/><path d="M44.2,9.17h-.57v2.28h.57Z"/><polygon class="cls-17" points="45.33 25.01 45.33 22.85 47.6 22.85 45.33 25.01"/><rect class="cls-17" x="66.97" y="22.74" width="0.57" height="2.35"/><rect class="cls-17" x="68.1" y="22.74" width="0.57" height="2.35"/><rect class="cls-17" x="65.83" y="22.74" width="0.57" height="2.35"/><rect x="67.53" y="22.74" width="0.57" height="2.35"/><rect x="66.4" y="22.74" width="0.57" height="2.35"/><path d="M69.24,22.74h-.57v2.35h.57Z"/><rect class="cls-17" x="69.24" y="0.05" width="2.27" height="6.81"/><path class="cls-37" d="M71.51,19.38V18.21H69.24v2.26h2.27Z"/><path class="cls-36" d="M71.51,18.21v2.26h2.27V18.21Z"/><path class="cls-39" d="M76.05,18.21h0v2.26h2.27V18.21Z"/><polygon class="cls-40" points="80.58 20.47 80.58 20.46 80.58 20.47 80.58 20.47"/><path class="cls-40" d="M80.26,18.21H78.32v2.26h2.26c.06-.74,0-1.51,0-2.26Z"/><rect class="cls-27" x="80.59" y="6.86" width="1.42" height="0.01"/><polygon class="cls-27" points="82 8.56 81.72 9.13 82 9.13 82 8.56"/><path class="cls-27" d="M82,6.86H80.59V9.13h1.13A1.78,1.78,0,0,0,82,8.19V6.86Z"/><path class="cls-27" d="M82.85,20.47H80.59V25h2.26Z"/><path class="cls-33" d="M78.32,9.13h2.27V6.86H78.32V9.13Z"/><path class="cls-33" d="M78.56,20.47h-.24V25h2.27V20.47Z"/><path class="cls-34" d="M73.78,8.54V6.86H72.64V9.13h1.14Z"/><path class="cls-34" d="M73.78,22.86V21H71.51v4h2.27Z"/><path class="cls-34" d="M72.64,20.47h0Z"/><path class="cls-35" d="M73.78,8.54v.59h2.27V6.86H73.78V8.54Z"/><path class="cls-35" d="M75.37,20.47h0Z"/><rect class="cls-35" x="73.78" y="21.04" width="2.27" height="3.97"/><path class="cls-9" d="M72.08,17.64h1.7v-1.7H71.51v1.7Z"/><path class="cls-10" d="M73.78,15.94v2.27h2.27V15.94H73.78v0Z"/><path class="cls-11" d="M80.26,18.21h.33V15.94H78.32v2.27Z"/><path class="cls-12" d="M82.09,18.21h.74V15.94H80.59v2.27Z"/><path class="cls-13" d="M80.59,25h0Z"/><path class="cls-13" d="M87.39,34.09H85.12V29.55H82.86v4.54h4.53Z"/><rect class="cls-13" x="71.51" y="11.39" width="1" height="0.01"/><path class="cls-13" d="M80.59,29.55h2.26V27.28H80.59Z"/><path class="cls-13" d="M67,6.29H68v-4H67v4Z"/><path class="cls-14" d="M76.05,34.09V29.55H73.78V27.28H69.24v2.27h4.54v2.27H71.51v2.27h4.54Z"/><path class="cls-14" d="M76.05,18.21h2.27V15.94H76.05Z"/><rect class="cls-14" x="63.99" y="4.59" width="1.56" height="1.7"/><rect class="cls-14" x="63.99" y="7.43" width="1.56" height="1.7"/><rect class="cls-14" x="65.55" y="9.13" width="1.4" height="2.27"/><rect class="cls-14" x="83.56" y="2.32" width="1.56" height="2.27"/><path class="cls-14" d="M82,8.56v.57h1.56V4.59H82v4Z"/><path class="cls-15" d="M78.32,34.09V29.55H76.05v4.54h2.27Z"/><path class="cls-15" d="M73.78,29.55h2.27V27.28H73.78Z"/><path class="cls-15" d="M76.05,6.86V9.13h2.27V6.86Z"/><path class="cls-15" d="M68,9.13H67V11.4H68V9.13Z"/><path class="cls-15" d="M67,6.29v-4h-1.4v4Z"/><rect class="cls-15" x="65.55" y="7.43" width="1.4" height="1.7"/><path class="cls-15" d="M78.32,23.87V20.48H76.05V25h2.27Z"/><path class="cls-15" d="M71.51,27.28V25H69.24v2.27Z"/><polygon class="cls-16" points="81.59 25.01 81.59 25.01 82.85 25.01 81.59 25.01"/><path class="cls-16" d="M72.51,11.4h0Z"/><path class="cls-16" d="M89.66,32.23V29.55H87.39v4.54h3.52l-1.25-1.86Z"/><polygon class="cls-17" points="71.51 6.86 71.51 6.86 72.64 6.86 71.51 6.86"/><path class="cls-17" d="M69.24,18.21h.57v-.57h.56v.57h.57v-.57h.57v-1.7H69.24Z"/><polygon class="cls-17" points="71.51 14.64 71.51 14.12 69.24 14.12 69.24 15.03 71.51 15.03 71.51 14.64"/><path class="cls-17" d="M73.78,15.94V15H71.51v.91Z"/><path class="cls-17" d="M83.56,6.86V9.13H81.72l-1.13,2.26h3c0-.39,0-.78,0-1.16A2.71,2.71,0,0,1,84,9.13h1.13V4.59H83.56V6.86Z"/><path class="cls-17" d="M71.51,11.4v2.72h2.27V11.4Z"/><polygon class="cls-17" points="76.05 11.4 76.05 11.4 78.32 11.4 76.05 11.4"/><path class="cls-17" d="M77.55,9.13h-.37l-1.13,2.26h2.27c.37-.75.75-1.51,1.13-2.26Z"/><polygon class="cls-17" points="71.51 11.39 73.78 11.39 74.91 9.13 72.64 9.13 71.51 11.39"/><polygon class="cls-17" points="70.37 9.13 69.24 9.13 69.24 10.82 70.37 9.13"/><polygon class="cls-17" points="80.44 4.59 79.98 4.59 79.98 2.32 80.44 2.32 78.88 2.32 79.41 2.32 79.41 4.59 78.88 4.59 78.88 6.86 80.44 6.86 80.44 4.59"/><path class="cls-17" d="M76.57,4.59V2.32h.57V4.59Zm.75,2.27V4.59h.39V2.32H75.76V6.86Z"/><path class="cls-17" d="M72.64,1.75V6.86H74.2V2.32h-.42V.05H72.64v1.7Z"/><path class="cls-17" d="M68,6.86h1.21V6.29H68Z"/><path class="cls-17" d="M67,6.86V6.29h-1.4v.57Z"/><rect class="cls-17" x="62.43" y="6.29" width="1.56" height="0.57"/><path class="cls-17" d="M69.24,7.43h1.84V6.86H69.24v.57Z"/><rect class="cls-17" x="66.95" y="6.86" width="1.08" height="0.57"/><path class="cls-17" d="M65.55,6.86H64v.57h1.56Z"/><rect class="cls-17" x="78.27" y="2.32" width="0.57" height="2.27"/><path class="cls-17" d="M72.08,31.82V29.55h-.57v2.27Z"/><path class="cls-17" d="M72.64,31.82h.57V29.55h-.57Z"/><rect class="cls-17" x="69.24" y="29.55" width="0.57" height="2.27"/><rect class="cls-17" x="70.37" y="29.55" width="0.57" height="2.27"/><path class="cls-17" d="M72.08,17.64h-.57v.57h.57v-.57Z"/><path class="cls-17" d="M73.21,17.64h-.57v.57h.57v-.57Z"/><path class="cls-17" d="M72.64,21v-.57H71.51V21Z"/><rect class="cls-17" x="73.78" y="20.47" width="1.13" height="0.57"/><rect class="cls-17" x="66.97" y="20.47" width="1.13" height="0.57"/><path class="cls-18" d="M80.59,34.09V29.55H78.32v4.54h2.27Z"/><path class="cls-18" d="M73.78,25h0Z"/><path class="cls-18" d="M78.14,29.55h.18V27.28H76.05v2.27Z"/><path class="cls-18" d="M73.78,18.21v2.26h2.27V18.21Z"/><path class="cls-18" d="M69.24,11.39V9.13H68V11.4h1.21Z"/><path d="M80.59,18.21v2.26h2.26V18.21H80.59Z"/><path d="M71.51,14.64V15h2.27v-.91H71.51Z"/><rect x="69.24" y="15.03" width="2.27" height="0.91"/><path d="M71.51,13.67V11.4H69.24v2.72h2.27Z"/><path d="M69.24,11.39h2.27l1.13-2.26h-3.4Z"/><path d="M68,6.29h1.21V.05H68V6.29Z"/><path d="M78.27,2.32h.57V4.59h-.57Zm.61,2.27h.53V2.32H80V4.59h.46V6.86H78.88Zm-.56,6.81h0ZM73.78,2.32h.42V6.86h1.56V2.32h1.95V4.59h-.39V6.86H82V4.59h1.56V2.32h1.56V9.13H84a2.71,2.71,0,0,0-.43,1.11c0,.38,0,.77,0,1.16h-3l1.13-2.26H79.45c-.38.75-.76,1.51-1.13,2.26H76.05l1.13-2.26H74.91l-1.13,2.26h0v2.72h0v1.82h9.08l9.6-13.48C93,1.66,93.61.86,94.18.05H73.78V2.32Z"/><path d="M72.64,6.86h0V2.32h0V.05H71.51V2.32h-.43V6.86Z"/><path d="M67,6.86H68V6.29H67v.57Z"/><path d="M64,6.86h1.56V6.29H64Z"/><path d="M68,6.86v.57h1.21V6.86Z"/><rect x="65.55" y="6.86" width="1.4" height="0.57"/><rect x="62.43" y="6.86" width="1.56" height="0.57"/><path d="M77.14,4.59V2.32h-.57V4.59Z"/><path d="M72.08,31.82h.56V29.55h-.56Z"/><path d="M71.51,29.55h-.57v2.27h.57Z"/><path d="M73.21,31.78v0h.57V29.55h-.57Z"/><rect x="69.81" y="29.55" width="0.57" height="2.27"/><path d="M72.64,17.64h-.57v.57h.57v-.57Z"/><path d="M73.78,17.64h-.57v.57h.57v-.57Z"/><path d="M71.51,18.21v-.57h-.57v.57Z"/><path d="M70.37,17.64h-.56v.57h.56v-.57Z"/><rect x="72.64" y="20.47" width="1.13" height="0.57"/><path d="M71.51,20.47H70.37V21h1.14Z"/><path d="M74.91,20.47V21h1.14v-.57Z"/><rect x="68.1" y="20.47" width="1.13" height="0.57"/><path class="cls-19" d="M80.59,27.28H78.32v2.27h2.27Z"/><path class="cls-19" d="M82.85,34.09V29.55H80.59v4.54h2.26Z"/><path class="cls-19" d="M78.37,25h0Z"/><path class="cls-19" d="M68,9.13h4.61V6.86H71.08v.57H67v1.7Z"/><path class="cls-19" d="M76.05,6.86h0Z"/><path class="cls-16" d="M85.12,29.55V27.28H82.86v2.27h2.26v4.54h2.27V29.55Z"/><rect class="cls-17" x="82.1" y="18.21" width="0.76" height="2.27"/><rect class="cls-17" x="83.61" y="18.21" width="0.76" height="2.27"/><rect class="cls-17" x="80.59" y="18.21" width="0.76" height="2.27"/><rect x="82.85" y="18.21" width="0.76" height="2.27"/><rect x="81.34" y="18.21" width="0.76" height="2.27"/><path d="M85.12,21.39v-.9h0V18.21h-.75v2.27H82.85V25H71.51v2.27H85.12v2.27h4.54V32.2l1.25,1.89h3.27l-9.06-12.7Z"/><rect class="cls-17" x="61.67" y="15.94" width="0.76" height="2.27"/><rect class="cls-17" x="63.19" y="15.94" width="0.76" height="2.27"/><rect class="cls-17" x="60.16" y="15.94" width="0.76" height="2.27"/><rect x="62.43" y="15.94" width="0.76" height="2.27"/><rect x="60.92" y="15.94" width="0.76" height="2.27"/><path d="M64.7,15.94h-.76v2.27h.76Z"/></svg>