<svg id="Layer_1" data-name="Layer 1" xmlns="http://www.w3.org/2000/svg" viewBox="0 0 59.86 34.12"><defs><style>.cls-1{fill:#fff;}.cls-2{fill:#fdfbad;}.cls-3{fill:#fbf85c;}.cls-4{fill:#a6a307;}.cls-5{fill:#535103;}.cls-6{fill:#55faf8;}.cls-7{fill:#00a5a3;}.cls-8{fill:#aafdfc;}.cls-9{fill:#005352;}.cls-10{fill:#affbb0;}.cls-11{fill:#60f862;}.cls-12{fill:#0ba30d;}.cls-13{fill:#055106;}.cls-14{fill:#00f8f5;}.cls-15{fill:#10f413;}.cls-16{fill:#0500fe;}.cls-17{fill:#f9f40a;}.cls-18{fill:#f70302;}.cls-19{fill:#f605f6;}.cls-20{fill:#555;}.cls-21{fill:#aaa;}</style></defs><title>short logo glitch</title><rect class="cls-1" width="59.86" height="34.1"/><path class="cls-2" d="M6.28,27.32h.57V25.05H4.58v2.27Z"/><path class="cls-2" d="M6.85,27.32v0Z"/><path class="cls-2" d="M6.85,27.32Z"/><polygon class="cls-3" points="9.12 27.23 9.12 27.23 9.12 25.05 6.85 25.05 6.85 27.23 9.12 27.23"/><path class="cls-3" d="M9.12,27.32v0Z"/><rect class="cls-3" x="6.85" y="27.23" width="2.27" height="0.09"/><path class="cls-3" d="M9.12,27.32Z"/><path class="cls-3" d="M6.85,27.32Z"/><path class="cls-4" d="M13.66,25.05h0Z"/><polygon class="cls-4" points="13.66 27.23 13.66 27.23 13.66 25.05 11.39 25.05 11.39 27.23 13.66 27.23"/><path class="cls-4" d="M13.66,27.32v0Z"/><rect class="cls-4" x="11.39" y="27.23" width="2.27" height="0.09"/><polygon class="cls-4" points="11.39 27.32 11.39 27.32 13.66 27.32 11.39 27.32"/><path class="cls-5" d="M14.42,25.05h0Z"/><rect class="cls-5" x="14.42" y="25.05" width="1.51" height="2.18"/><path class="cls-5" d="M14.42,27.23v0Z"/><rect class="cls-5" x="14.42" y="27.23" width="1.51" height="0.09"/><path class="cls-5" d="M14.42,27.32v0Z"/><polygon class="cls-5" points="13.66 25.05 13.66 25.05 14.42 25.05 13.66 25.05"/><rect class="cls-5" x="13.66" y="25.05" width="0.76" height="2.18"/><rect class="cls-5" x="13.66" y="27.23" width="0.76" height="0.09"/><path class="cls-6" d="M27.39,18.24h-.11v4.54h2.27V18.24Z"/><path class="cls-7" d="M25,22.78V18.24H22.74v4.54Z"/><rect class="cls-8" x="29.55" y="18.24" width="2.27" height="4.54"/><path class="cls-9" d="M21.83,22.78h.91V18.24H20.47v4.54Z"/><path class="cls-10" d="M31.81,18.22h2.27V16H31.81Z"/><path class="cls-11" d="M9.12,20.51V18.24H6.85v2.27Z"/><rect class="cls-11" x="29.55" y="15.95" width="2.27" height="2.27"/><ellipse class="cls-12" cx="12.56" cy="19.37" rx="1.64" ry="1.62"/><path class="cls-12" d="M25,16v2.27h2.27V16Z"/><path class="cls-13" d="M13.73,20.51h2.2V18.24h-2.2v2.27Z"/><rect class="cls-13" x="22.74" y="15.95" width="2.27" height="2.27"/><path class="cls-14" d="M34.08,20.54h0v2.27H31.81V20.54h0v2.27H29.54v4.54h2.27v2.27h2.27V20.54Z"/><path class="cls-14" d="M27.28,20.51V18.24H25v4.54h2.27V20.51Z"/><path class="cls-15" d="M29.29,1.22l2.52,3.42V1.22Z"/><rect class="cls-15" x="29.29" y="0.08" width="2.53" height="0.57"/><path class="cls-15" d="M9.12,11.43h2.27V10.32H9.12v1.11Z"/><path class="cls-15" d="M11.39,18.24H9.12v2.27h2.27Z"/><path class="cls-15" d="M29.55,18.06V16H27.28v2.27h2.27Z"/><rect class="cls-15" x="18.2" y="0.08" width="2.27" height="2.27"/><path class="cls-15" d="M18.2,10.32v1.11h2.27V6.89H18.2v3.43Z"/><path class="cls-16" d="M29.29,1.22H25.65L28,4.58h1.59V6.89c0,.41-.06-.08.17.23.68.91,1.4,1.79,2.09,2.68V4.64l-1-1.4-1.49-2Z"/><path class="cls-16" d="M9.12,13.7h0Z"/><path class="cls-16" d="M20.47,13.74V16H22.1Z"/><path class="cls-16" d="M29.55,27.32H27.28v4.54h2.27v2.26h2.26V29.59H29.55Z"/><path class="cls-16" d="M27.28,27.32h0V22.78H23.71l.76,1.06.54.8v2.68Z"/><path class="cls-16" d="M22.74,9.16H25V6.89H22.74Z"/><path class="cls-14" d="M20.47,13.7a4.6,4.6,0,0,0,.78,1.1L22.1,16H25l-4.54-5.65Z"/><line class="cls-17" x1="31.81" y1="20.51" x2="31.81" y2="20.51"/><path class="cls-17" d="M9.12,16h4.61V13.7H9.12Z"/><path class="cls-17" d="M25.74,16h3.81l-4.08-5.65h4.08V9.16H22.74v1.16H20.47L25,16Z"/><path class="cls-17" d="M9.12,27.32h2.27V25.05H9.12Z"/><path class="cls-1" d="M29.55,9.16v0Z"/><path class="cls-1" d="M29.55,10.32v0Z"/><path class="cls-1" d="M25,.08h0V.65h4.28v.57h2.52V.65H29.29V.08Z"/><path class="cls-1" d="M11.39,6.89V8h2.27V6.89Z"/><path class="cls-1" d="M9.12,6.89H6.85V8H9.12Z"/><path class="cls-1" d="M11.39,16h0v2.27h0V17.1h2.34V16Z"/><path class="cls-1" d="M13.73,18.24v0Z"/><path class="cls-1" d="M13.66,9.16h2.27V10.3H14.51l.85,1.13h.57V10.3H18.2V9.16H15.93V8H13.66V9.16Z"/><rect class="cls-1" x="11.39" y="8.03" height="1.13"/><path class="cls-1" d="M9.12,10.32h2.27V9.16H6.85v1.16Z"/><path class="cls-1" d="M9.12,13.7h2.27l-.82-.82a9.2,9.2,0,0,0-1.36-1.36,1.15,1.15,0,0,0-.68-.09H6.85Z"/><path class="cls-1" d="M11.39,11.43c.69.69,2.34,2.27,2.34,2.27h2.2l-1-1c-.37-.37-1.24-1.31-1.24-1.31H11.39V10.32h0v1.11Z"/><path class="cls-1" d="M20.47,13.74V11.43H15.93L18.2,13.7H17.06L18.77,16h1.7Z"/><path class="cls-1" d="M9.12,17.1v1.14h.57V16H9.12Z"/><path class="cls-1" d="M10.26,17.1v1.14h.56V16h-.56V17.1Z"/><path class="cls-1" d="M12,31.86h-.57v2.26H12Z"/><path class="cls-1" d="M13.09,31.86h-.56v2.26h.56V31.86Z"/><path class="cls-1" d="M9.69,31.86H9.12v2.26h.57Z"/><path class="cls-1" d="M10.82,31.86h-.56v2.26h.56Z"/><path class="cls-1" d="M23.3.65V.08h-.56V2.35h.56Z"/><path class="cls-1" d="M24.44.65V.08h-.57V2.35h.57Z"/><path class="cls-1" d="M21,.65V.08h-.57V2.35H21Z"/><path class="cls-1" d="M22.17.65V.08H21.6V2.35h.57V.65Z"/><path class="cls-1" d="M20.47,3.49V2.35H19.33V6.89h1.14V3.49Z"/><path class="cls-1" d="M6.28,28.38V27.32H5.72v2.27h.56Z"/><path class="cls-1" d="M2.31,12.57V13.7h.57V12.57Z"/><path class="cls-1" d="M1.75,12.57H1.18V13.7h.57Z"/><rect class="cls-1" x="4.58" y="15.97" width="0.57" height="1.13"/><rect class="cls-1" x="5.72" y="15.97" width="0.57" height="1.13"/><path class="cls-18" d="M29.55,9.16h0v1.16h-.78l3,4.15V9.8l-.9-1.16c-.45-.58-.91-1.16-1.36-1.75Z"/><path class="cls-18" d="M25,6.89h4.54c0-.77,0-1.54,0-2.31H28L25.65,1.22H25V2.35H22.93l1.63,2.23H25V6.89Z"/><path class="cls-18" d="M11.39,9.16V6.89H9.12V9.16Z"/><rect x="6.85" y="10.32" width="2.27" height="1.11"/><path d="M9.12,8V6.89h2.72L7.68,1.22H6.85V6.89H9.12V8H6.85V9.16H9.12Z"/><path d="M13.66,8h2.27V6.89H13.66Z"/><path d="M4.46,1.22H6.85V.08H4.46Z"/><path d="M22.74,10.32V6.89H20.47v3.43Z"/><path d="M2.31,9.16h0v1.16H6.85V9.16Z"/><path d="M11.39,8h0V9.16h0v1.16h0v1.11h2.34s.84.91,1.2,1.27l1,1h-2.2L11.4,11.43H9.12l2.27,2.27h2.34V16h0V17.1H11.39v1.14h2.34v0h2.2v2.27H6.85v4.54h9.08v2.27H6.29v2.27h.56v4.53H9.12V31.85h.57v2.27h.57V31.85h.56v2.27h.57V31.85H12v2.27h.57V31.85h.56v2.27h7.38V16h-1.7c-.57-.76-1.14-1.51-1.7-2.27H18.2l-1.53-1.53-.74-.74h-.57c-.28-.38-.56-.76-.85-1.13h1.42V9.16H13.66V8H11.39Z"/><path d="M15.93,11.43H18.2V10.3H15.93v1.13Z"/><line x1="6.85" y1="15.97" x2="6.85" y2="15.97"/><path d="M6.85,16"/><path d="M6.85,13.7,4.58,11.43H6.85l.15.15L9.12,13.7h0v1.14H6.85Z"/><path d="M19.33,6.89V2.35H18.2V6.89h1.13Z"/><path d="M10.26,17.1V16H9.69v2.27h.57Z"/><path d="M9.12,18.24V16H8.55v2.27Z"/><path d="M10.82,17.1v1.14h.57V16h-.57Z"/><path d="M8,17.1V16H7.42v2.27H8Z"/><path d="M21,.65v1.7h.56V.08h.57V2.35h.57V.08h.57V2.35h.56V.08h.57V2.35H25V1.22h4.28V.65H25V.08H21V.65Z"/><path d="M5.72,28.38V27.32H5.15v2.27h.57Z"/><path d="M4.65,12.57H3.89V13.7h.76Z"/><path d="M6.85,16H6.28v1.14h.57Z"/><rect x="5.15" y="15.97" width="0.57" height="1.13"/><path class="cls-19" d="M25,5.19V4.58h-.45L22.93,2.35H20.47V6.89H25Z"/><path class="cls-19" d="M27.92,9.16h1.63V6.89H25V9.16Z"/><path class="cls-19" d="M34.08,15.76V14.45l-.51-.71-1-1.42L31,10.3h-3.3L31.81,16h2.27"/><polygon class="cls-15" points="34.34 4.74 34.34 0.08 31.82 0.08 31.82 1.23 34.34 4.74"/><rect class="cls-1" x="1.63" y="12.57" width="0.76" height="1.13"/><path class="cls-1" d="M6.85,13.7,4.59,11.43H2.8l1.14,1.14h-.8V13.7H3.9V12.57h.75V13.7Z"/><polygon class="cls-1" points="0.87 12.57 0.87 12.57 0.12 12.57 0.04 12.57 0.04 13.7 0.61 13.7 0.87 13.7 0.87 12.57"/><rect x="2.38" y="12.57" width="0.76" height="1.13"/><rect x="0.87" y="12.57" width="0.76" height="1.13"/><rect class="cls-1" x="3.9" y="5.76" width="0.76" height="1.13"/><rect class="cls-1" x="5.41" y="5.76" width="0.76" height="1.13"/><rect class="cls-1" x="2.38" y="5.76" width="0.76" height="1.13"/><rect x="4.65" y="5.76" width="0.76" height="1.13"/><rect x="3.14" y="5.76" width="0.76" height="1.13"/><path d="M6.92,5.76H6.17V6.89h.75Z"/><polygon class="cls-1" points="32.38 33.02 32.38 33.02 32.38 32 32.38 31.89 32.38 29.62 31.81 29.62 31.81 31.89 31.81 32 31.81 33.02 31.81 34.11 32.38 34.11 32.38 33.02"/><polygon class="cls-1" points="33.52 33.02 33.52 32 33.52 31.89 33.52 29.62 32.95 29.62 32.95 31.89 32.95 32 32.95 33.02 32.95 34.11 33.52 34.11 33.52 33.02"/><polygon points="32.95 33.02 32.95 32 32.95 31.89 32.95 29.62 32.38 29.62 32.38 31.89 32.38 32 32.38 33.02 32.38 34.11 32.95 34.11 32.95 33.02"/><polygon points="34.08 33.02 34.08 32 34.08 31.89 34.08 29.62 33.52 29.62 33.52 31.89 33.52 32 33.52 33.02 33.52 34.11 34.08 34.11 34.08 33.02"/><path class="cls-20" d="M53.05,31.85H50.79v2.27h2.26Z"/><path class="cls-10" d="M39.44,23.28v-.5H37.17v2.27h2.27Z"/><path class="cls-10" d="M39.44,6.89V4.62H37.17V8.38h2.27Z"/><path class="cls-11" d="M41.7,23.47v-.69H39.44v2.27H41.7Z"/><path class="cls-11" d="M41.7,6.89l.07-2.27H39.44V8.38h.75v0H41.7Z"/><path class="cls-12" d="M44,22.78v2.27h2.27V22.78Z"/><path class="cls-12" d="M44,6.89V8.4h2.27V4.62H44Z"/><path class="cls-13" d="M47,25.05h1.51V22.78H46.24v2.27Z"/><rect class="cls-13" x="46.24" y="4.62" width="2.27" height="3.76"/><path class="cls-14" d="M48.51,25.05Z"/><path class="cls-14" d="M48.51,22.78v0Z"/><path class="cls-15" d="M39.44,25.05H37.17C38,30,41.85,34.12,48.51,34.12V31.86C42.71,31.85,40.05,28.5,39.44,25.05Z"/><path class="cls-15" d="M37.92,20.52h1.52V14.83h0V16H37.17v4.54h.75Z"/><path class="cls-15" d="M39.44,12.57h0V9.16H37.17v3.41Z"/><path class="cls-15" d="M41.7,25.05H44V22.78H41.7Z"/><path class="cls-15" d="M41.7,6.89V8.4H44V4.62h-2.2Z"/><path class="cls-16" d="M41.7,25.05H39.44c.61,3.45,3.27,6.8,9.07,6.8V29.59C44.77,29.59,42.35,27.58,41.7,25.05Z"/><path class="cls-16" d="M41.7,20.51Z"/><path class="cls-16" d="M41.71,16H44V14.83H41.71Z"/><polygon class="cls-16" points="42.84 18.24 41.71 18.24 41.71 20.51 43.97 20.51 43.97 18.24 42.84 18.24"/><path class="cls-16" d="M41.71,12.57H44V9.16H41.71Z"/><path class="cls-16" d="M37.17,13.7V9.16H34.9V13.7Z"/><rect class="cls-16" x="37.17" y="13.7" width="2.27" height="2.27"/><path class="cls-16" d="M40.19,4.62H41V3.53h-.3V1.3H39.44V3.53h.75Z"/><polygon class="cls-17" points="47.38 15.98 48.51 15.98 48.51 13.7 46.24 13.7 46.24 15.98 47.38 15.98"/><rect class="cls-1" x="58.91" y="15.96" width="0.95" height="4.59"/><polygon class="cls-1" points="56.08 20.55 56.08 15.96 55.32 15.96 55.32 20.51 55.31 20.51 55.31 20.55 56.08 20.55"/><rect class="cls-1" x="48.51" y="20.55" width="0.95" height="2.23"/><path class="cls-1" d="M52.3,22.78h1.89V20.55H52.3Z"/><path class="cls-1" d="M58,22.78V16H57v4.59h-.94v2.23Z"/><path class="cls-1" d="M51.35,21v-.46h-1v2.23h1Z"/><path class="cls-1" d="M47.38,16.88v1.25l1.13,0V16H47.38Z"/><path class="cls-1" d="M45.11,16v2.17h.36v2.36h0V22h.73V18.15h0V16Z"/><path class="cls-1" d="M41.7,12.57v2.26H44V12.57Z"/><path class="cls-1" d="M37.17,12.57h0V13.7h2.27V12.57Z"/><rect class="cls-1" x="34.9" y="13.7" width="2.27" height="1.13"/><path class="cls-1" d="M42.84,18.24H44v2.27h.75V18.15H44V16H42.84Z"/><rect class="cls-1" x="37.17" y="1.3" width="1.12" height="3.32"/><rect class="cls-1" x="41.77" y="1.3" width="1.08" height="2.23"/><path class="cls-1" d="M39.44,1.3h2.33V.08H39.44Z"/><path class="cls-1" d="M37.17.08H34.9V1.3h2.27Z"/><rect class="cls-1" x="51.69" y="0.08" width="0.91" height="2.27"/><rect class="cls-1" x="53.51" y="0.08" width="0.91" height="2.27"/><path class="cls-1" d="M37.17,9.16h3V8.39h-3V4.62H34.9V9.16Z"/><path class="cls-1" d="M39.44,21.27V22H41V20.51H39.44Z"/><path class="cls-1" d="M37.92,21.27V22h.76V20.52h-.76Z"/><path class="cls-1" d="M25.82,22.78h3V22h-3"/><path class="cls-1" d="M42.46,21.25V22H41v.78h3.78V22H44V20.51H42.46v.74Z"/><rect class="cls-1" x="30.36" y="22.01" width="1.51" height="0.76"/><path class="cls-1" d="M46.24,8.39H44.73v.77h3.78V8.39Z"/><path class="cls-1" d="M41.7,8.4h0v.76h1.52V8.4Z"/><path class="cls-1" d="M51,27.32h-.5v4.53H51Z"/><path class="cls-1" d="M48.51,27.32v4.53H49V27.32Z"/><path class="cls-1" d="M50,28.07v-.75h-.51v4.54H50Z"/><path class="cls-18" d="M44,25.05H41.71c.64,2.53,3.06,4.54,6.8,4.54V27.32C46.79,27.34,44.7,26.8,44,25.05Z"/><path class="cls-18" d="M41.7,20.51h0V14.83H39.44v5.68Z"/><path class="cls-18" d="M41.7,12.57h0V9.16H39.44v3.41Z"/><polygon class="cls-18" points="41.77 4.62 41.77 4.62 41.77 3.53 40.95 3.53 40.95 4.62 41.77 4.62"/><path d="M42.84,16H41.7v2.26h1.14Z"/><path d="M41.7,12.57H39.44v2.26H41.7Z"/><path d="M34.9,12.57H32.63v2.26H34.9Z"/><path d="M37.17,4.62V1.3h-1V4.62Z"/><path d="M38.29,1.3V4.62h1.15V.08H37.17V1.3Z"/><rect x="40.95" y="20.51" width="1.51" height="1.49"/><path d="M39.44,22.78H41V22H39.44V20.52h-.76V22h-.76V20.52h-.75v2.26Z"/><rect x="31.87" y="22.01" width="1.51" height="0.76"/><rect x="28.85" y="22.01" width="1.51" height="0.76"/><rect x="40.19" y="8.4" width="1.51" height="0.76"/><path d="M41.77,1.3h1.08V3.53H41.77Zm7.75,28.79V27.32H50v4.53h-.51Zm.88-9.54v0h1.9v0h1.89v0h1.13V16h.76v4.59H57V16H58v6.82H56.08V20.55H54.19v2.23h-1.9V20.55h-.94v2.19h-1V20.55ZM58.91,16h1v4.59h-1ZM41.77,1.3H40.65V3.53h1.12V4.62h6.74V9.16H44.73V8.4H43.22v.76H44V13.7h0v1.13h2.27V13.7h2.27v4.41l-1.13,0V16H46.24v2.17h0V22h-.73V20.51h0V18.15h-.36V16H44v2.17h.75v2.36H44V22h.76v.78h3.78v0h0V20.55h1v2.23h-1v4.54H49v4.54h-.51v2.26h2.28V31.86h-.26V27.32H51v4.54h6.56V27.32h2.27V.08H54.41V2.35H53.5V.08h-.9V2.35h-.91V.08H41.77V1.3Z"/><rect x="54.19" y="20.51" width="1.13" height="0.04"/><rect x="51.35" y="20.51" width="0.95" height="0.04"/><path class="cls-21" d="M53.07,31.85h0v2.27h2.27V31.85Z"/><path class="cls-19" d="M48.51,22.74V20.51h0Z"/><path class="cls-19" d="M48.51,25.05H44c.73,1.75,2.82,2.29,4.54,2.27V25.05Z"/><path class="cls-19" d="M45.11,16h1.13V14.83H44V16Z"/><rect class="cls-19" x="39.44" y="3.53" width="0.76" height="1.09"/><rect class="cls-1" x="37.05" y="22.78" width="1.13" height="0.76"/><rect class="cls-1" x="39.32" y="22.78" width="1.13" height="0.76"/><rect class="cls-1" x="34.78" y="22.78" width="1.13" height="0.76"/><rect x="38.18" y="22.78" width="1.13" height="0.76"/><rect x="35.92" y="22.78" width="1.13" height="0.76"/><path d="M41.59,22.78H40.45v.75h1.14Z"/><rect class="cls-1" x="30.24" y="6.89" width="1.13" height="0.76"/><rect class="cls-1" x="32.51" y="6.89" width="1.13" height="0.76"/><rect class="cls-1" x="27.97" y="6.89" width="1.13" height="0.76"/><rect x="31.38" y="6.89" width="1.13" height="0.76"/><rect x="29.11" y="6.89" width="1.13" height="0.76"/><path d="M34.78,6.89H33.65v.76h1.13Z"/></svg>