<svg id="Layer_1" data-name="Layer 1" xmlns="http://www.w3.org/2000/svg" viewBox="0 0 59.86 34.12"><defs><style>.cls-1{fill:#fff;}.cls-2{fill:#00f8f5;}.cls-3{fill:#10f413;}.cls-4{fill:#0500fe;}.cls-5{fill:#f9f40a;}.cls-6{fill:#f70302;}.cls-7{fill:#f605f6;}.cls-8{fill:#bffdfd;}.cls-9{fill:#80fcfa;}.cls-10{fill:#40faf8;}</style></defs><title>short logo normal</title><rect class="cls-1" y="0.02" width="59.86" height="34.1"/><path class="cls-2" d="M25,15.89v2l2.22,2.7V25h2.27V22.69h2.27v3.6h0v.93h2.26v-3L25,13Z"/><path class="cls-2" d="M21.68,11.29h2.11L22,9.08H20.43v2.21Z"/><path class="cls-3" d="M22,0h9.82V2.26h0V6.81h2.27V0H22Z"/><path class="cls-4" d="M29.5,3.92h0V6.81h2.27V6.69h0V2.27h0V0H29.5V3.92Z"/><path class="cls-4" d="M34.05,34v-6.8H31.79V26.3h0v-3.6H29.51V24H27.24V20.6L25,17.9v.26H21.24Z"/><polygon class="cls-4" points="27.23 0 27.23 1.14 27.23 0 26.29 0 27.23 0"/><polygon class="cls-4" points="34.05 9.08 31.78 9.08 31.78 11.29 34.05 11.29 34.05 9.46 34.05 9.47 34.05 9.08"/><path class="cls-5" d="M27.24,11.29H25V9.08H22l1.81,2.21H25V13l9,11.24V19.3l-6.46-8Z"/><path class="cls-1" d="M21.24,18.15h.4V15.89h-.53v-4.6h-.68v6.87h.81"/><path class="cls-1" d="M23.93,15.89h-.55v-4.6h-.57v4.6h0v2.26h1.14V15.89Z"/><path class="cls-1" d="M24,15.89h.56v-4.6H24Z"/><path class="cls-1" d="M21.68,15.89h.57v-4.6h-.57Z"/><path class="cls-1" d="M29.51,6.81V9h0v.06h2.27V6.81Z"/><path class="cls-1" d="M18.19,18.15V25h1.15V16.83H18.19Z"/><rect class="cls-1" x="13.62" y="18.15" width="1.13" height="6.81"/><path class="cls-1" d="M23.46,6v.79h.75V0h-.75Z"/><path class="cls-1" d="M22.69,9.08h0V0H22V6.81h-.76V0h-.76V9.08Z"/><path class="cls-1" d="M28.75,9H28v2.27h.75V9Z"/><path class="cls-1" d="M27.24,9.08V6.81H25V9.08h0v2.21h.71V9h.75v2.27h.76Z"/><rect class="cls-1" x="6.82" y="15.89" width="2.27" height="0.94"/><rect class="cls-1" x="11.36" y="15.89" width="2.27" height="0.94"/><path class="cls-1" d="M15.89,15.89V25H17V16.83h1.12v-.94Z"/><path class="cls-6" d="M26.29,0h0Z"/><path class="cls-6" d="M34.05,11.29H31.78V9.08H29.51v2.21h2.27l2.27,2.61Z"/><polygon class="cls-6" points="31.77 6.81 31.78 6.81 31.78 6.7 31.77 6.69 31.77 6.81"/><path class="cls-6" d="M27.23,1.14V5.93h0v.88H29.5V3.92h0V0H27.23Z"/><path d="M19.34,18.15V25H18.19V16.83h1.15Zm-1.18-1.32H17V25H15.89V16.83h0v-.94h2.27ZM14.76,25H13.62V18.15h1.14Zm-3.4-8.13v-.94h2.26v.94Zm-2.27,0H6.82v-.94H9.09v.94Zm11.34.32V15.89h-1L6.82,0V34H20.43V17.15Z"/><path d="M22.81,15.89v-4.6h-.56v4.6h-.57v-4.6h-.57v4.6h.53v2.26h1.14V15.89Z"/><path d="M25,15.89v-4.6h-.51v4.6H24v-4.6h-.57v4.6h.55v2.26H25Z"/><path d="M31.87,6.81h-.09V9.08h2.27V6.81Z"/><path d="M25,9.08h0V0h-.81V6.81h-.75V0H22.7V9.08Z"/><path d="M21.19,3.18V6.81H22V0h-.76Z"/><path d="M29.51,9V6.81H27.24v4.48H28V9h.75v2.27h.76V9Z"/><rect x="25.73" y="9.02" width="0.76" height="2.27"/><path class="cls-7" d="M27.23,5.93V0H25V6.81h2.21V5.93Z"/><path class="cls-7" d="M29.51,11.29H27.59l6.46,8V13.9l-2.27-2.61Z"/><rect class="cls-8" x="39.43" y="11.35" width="2.27" height="2.27"/><rect class="cls-9" x="41.7" y="11.35" width="2.27" height="2.27"/><rect class="cls-10" x="43.97" y="11.35" width="0.02" height="2.27"/><rect class="cls-10" x="43.99" y="11.35" width="2.25" height="2.27"/><polygon class="cls-2" points="46.24 11.35 46.24 11.35 46.24 13.62 48.51 13.62 48.51 11.35 47.38 11.35 46.24 11.35"/><path class="cls-3" d="M48.51,31.77c-6.81,0-9.08-4.62-9.08-8.58V13.62H37.16v8.9c0,6,3.62,11.52,11.35,11.52V31.77Z"/><polygon class="cls-3" points="37.16 6.81 37.16 6.81 39.43 6.81 37.16 6.81"/><rect class="cls-3" x="37.16" y="9.08" width="2.27" height="2.27"/><polygon class="cls-3" points="39.43 2.27 38.3 2.27 37.16 2.27 37.16 0 37.16 2.27 39.43 2.27"/><polygon class="cls-4" points="41.7 2.27 41.7 2.27 40.57 2.27 39.43 2.27 41.7 2.27"/><rect class="cls-4" x="39.43" y="9.08" width="2.27" height="2.27"/><path class="cls-4" d="M41.7,23.38V13.62H39.43v9.57c0,4,2.27,8.58,9.08,8.58V29.5C44,29.5,41.7,26.6,41.7,23.38Z"/><polygon class="cls-4" points="41.7 6.81 41.7 6.81 39.43 6.81 41.7 6.81"/><polygon class="cls-5" points="48.51 24.96 48.51 24.96 48.51 24.99 48.51 24.96"/><polygon class="cls-5" points="48.51 11.35 48.51 11.35 47.38 11.35 48.51 11.35"/><path class="cls-5" d="M46.24,21.6c0,1.87.24,3.36,2.27,3.36V13.62H46.24Z"/><rect class="cls-1" x="39.43" y="2.27" width="2.27" height="4.54"/><rect class="cls-1" x="41.7" y="6.81" width="2.27" height="2.27"/><rect class="cls-1" x="37.16" y="6.81" width="2.27" height="2.27"/><rect class="cls-1" x="41.7" width="1.13" height="2.27"/><rect class="cls-1" x="39.43" width="1.13" height="2.27"/><rect class="cls-1" x="37.16" width="1.13" height="2.27"/><polygon class="cls-1" points="43.97 2.27 43.97 2.27 43.97 6.81 44 6.81 44.54 6.81 44.54 2.27 45.11 2.27 45.11 6.81 45.67 6.81 45.67 2.27 45.11 2.27 45.11 0 44.02 0 43.97 0 43.97 2.27"/><rect class="cls-1" x="37.16" y="11.35" width="2.27" height="2.27"/><path class="cls-1" d="M46.81,6.81V2.27h.56V6.81Zm-.57-4.54h0V9.08h2.27V6.81h-.57V2.27h-.57V0H46.24Z"/><polygon class="cls-6" points="43.97 2.27 43.97 2.27 42.84 2.27 41.7 2.27 43.97 2.27"/><path class="cls-6" d="M44,22.69l0-9.07H41.7v9.76c0,3.22,2.3,6.12,6.81,6.12V27.23c-3.12,0-4.54-1.59-4.54-4.54Z"/><polygon class="cls-6" points="41.7 11.35 43.97 11.35 43.99 11.35 44 9.08 43.97 9.08 41.7 9.08 41.7 11.35"/><polygon class="cls-6" points="41.7 6.81 41.7 6.81 43.97 6.81 41.7 6.81"/><rect x="37.16" y="2.27" width="2.27" height="4.54"/><rect x="41.7" y="2.27" width="2.27" height="4.54"/><rect x="39.43" y="6.81" width="2.27" height="2.27"/><polygon points="41.7 2.27 41.7 2.27 41.7 0 40.57 0 40.57 2.27 41.7 2.27"/><polygon points="39.43 2.27 39.43 2.27 39.43 0 38.3 0 38.3 2.27 39.43 2.27"/><path d="M48.51,0H47.38V2.27h.56V6.81h.57V34a11.09,11.09,0,0,0,11.35-10.8V0Z"/><polygon points="45.67 2.27 45.67 2.27 45.67 6.81 45.11 6.81 45.11 2.27 44.54 2.27 44.54 6.81 44 6.81 43.97 6.81 43.97 9.08 44 9.08 46.24 9.08 46.24 6.81 46.24 2.27 46.24 0 45.11 0 45.11 2.27 45.67 2.27"/><rect x="42.84" width="1.13" height="2.27"/><rect x="46.81" y="2.27" width="0.57" height="4.54"/><path class="cls-7" d="M46.24,21.6v-8H44l0,9.07c0,2.95,1.42,4.54,4.54,4.54V25C46.48,25,46.24,23.47,46.24,21.6Z"/><polygon class="cls-7" points="44 9.08 43.99 11.35 46.24 11.35 47.38 11.35 48.51 11.35 48.51 9.08 46.24 9.08 44 9.08"/></svg>