<?xml version="1.0" encoding="utf-8"?>
<!-- Generator: Adobe Illustrator 22.0.1, SVG Export Plug-In . SVG Version: 6.00 Build 0)  -->
<svg version="1.1" id="Layer_1" xmlns="http://www.w3.org/2000/svg" xmlns:xlink="http://www.w3.org/1999/xlink" x="0px" y="0px"
	 viewBox="0 0 1308.1 1308.1" style="enable-background:new 0 0 1308.1 1308.1;" xml:space="preserve">
<g transform="translate(0.000000,2048.000000) scale(0.100000,-0.100000)">
	<path d="M7768,16835.6c-16.3-2-85.8-11.2-153.1-20.4c-146-20.4-356.3-70.4-510.5-122.5c-127.6-41.9-183.8-68.4-217.5-100
		c-57.2-51-53.1,134.8-53.1-2680.9c0-2564.5,0-2604.3,20.4-2643.1c25.5-50,71.5-89.8,122.5-103.1c26.5-7.1,771.8-9.2,2370.5-7.1
		l2330.7,3.1l99,21.4c212.3,47,396.1,123.5,569.7,234.8c685,444.1,930,1337.4,566.6,2067.3c-81.7,165.4-168.4,283.8-306.3,422.7
		c-234.8,234.8-511.5,383.9-837.1,450.2c-71.5,14.3-139.9,18.4-306.3,18.4c-238.9,0-330.8-14.3-521.7-80.7l-96-33.7v34.7
		c0,18.4-7.1,79.6-15.3,136.8c-86.8,578.9-353.2,1113.8-764.7,1538.5c-444.1,457.4-981.1,738.1-1606.9,840.2
		c-102.1,17.4-185.8,22.5-395.1,24.5C7918.1,16838.6,7785.4,16837.6,7768,16835.6z"/>
	<path d="M6430.7,16449.7c-41.9-18.4-83.7-69.4-96-116.4c-6.1-20.4-15.3-297.1-21.4-614.6c-13.3-696.3-36.8-1923.4-51-2572.7
		c-9.2-448.2-8.2-500.2,15.3-929c13.3-250.1,29.6-548.2,35.7-663.6c13.3-256.2,19.4-283.8,76.6-335.9
		c76.6-70.4,190.9-65.3,256.2,12.3c48,56.1,38.8-36.8,111.3,1173c16.3,275.6,15.3,346.1-25.5,2126.5
		c-5.1,247.1-14.3,680.9-20.4,964.8c-15.3,778.9-17.4,834.1-43.9,881C6624.6,16451.7,6514.4,16486.4,6430.7,16449.7z"/>
	<path d="M5887.5,16138.3c-26.5-12.3-53.1-35.7-70.4-61.3l-27.6-42.9l-13.3-691.2c-32.7-1698.8-44.9-2409.3-45.9-2584.9
		c-1-204.2,45.9-1305.7,61.3-1426.2c5.1-42.9,16.3-82.7,27.6-98c79.6-105.2,226.6-97,291,16.3c20.4,36.8,23.5,77.6,57.2,699.3
		l35.7,660.5l-22.5,1123c-35.7,1800.9-48,2285.8-56.1,2307.2c-17.4,43.9-51,79.6-90.9,98
		C5980.4,16162.8,5941.7,16161.8,5887.5,16138.3z"/>
	<path d="M4278.6,15764.6c-50-17.4-75.5-40.8-87.8-80.7c-5.1-17.4-15.3-210.3-21.4-429.8c-5.1-218.5-17.4-641.1-25.5-939.2
		c-8.2-297.1-22.5-791.2-30.6-1097.5l-15.3-557.4l24.5-407.3c14.3-224.6,32.7-537,41.9-694.2c12.3-203.2,21.4-295,32.7-318.5
		c39.8-85.8,164.4-99,230.7-26.5c9.2,11.2,21.4,44.9,26.5,75.5c6.1,30.6,29.6,347.1,53.1,703.4l43.9,648.3l-12.3,439
		c-7.1,242-19.4,655.4-28.6,918.8c-8.2,264.4-23.5,750.4-33.7,1080.1c-17.4,562.5-20.4,603.4-38.8,627.9
		C4392.9,15766.7,4338.8,15786.1,4278.6,15764.6z"/>
	<path d="M4785,15688.1c-42.9-28.6-63.3-62.3-69.4-114.3c-3.1-24.5-12.3-317.5-20.4-651.3c-8.2-333.8-22.5-862.7-30.6-1174
		c-30.6-1167.9-31.6-1050.5,9.2-1766.2c20.4-356.3,38.8-667.7,42.9-692.2c4.1-31.6,15.3-53.1,40.8-78.6
		c80.7-81.7,218.5-47,248.1,62.3c5.1,21.4,29.6,348.1,52.1,723.8c40.8,671.8,41.9,690.1,31.6,1000.5
		c-5.1,174.6-24.5,823.9-41.9,1444.6c-34.7,1229.2-32.7,1192.4-93.9,1237.3C4907.5,15711.6,4827.8,15715.6,4785,15688.1z"/>
	<path d="M3723.2,15651.3c-64.3-31.6-67.4-44.9-76.6-320.6c-8.2-278.7-27.6-879-60.2-1939.7c-25.5-794.3-29.6-634,40.8-1711
		c31.6-471.7,30.6-466.6,100-499.2c68.4-32.7,145-2,170.5,69.4c9.2,27.6,25.5,203.2,45.9,497.2c18.4,250.1,39.8,555.4,49,678.9
		c18.4,247.1,20.4,175.6-42.9,1970.3c-13.3,381.8-27.6,797.3-31.6,923.9c-7.1,264.4-16.3,300.1-78.6,329.8
		C3795.7,15671.7,3765.1,15671.7,3723.2,15651.3z"/>
	<path d="M5353.6,15605.4c-33.7-13.3-69.4-48-88.8-84.7c-17.4-32.7-20.4-154.2-75.5-2420.6l-10.2-459.4l35.7-682
		c39.8-752.4,34.7-720.8,108.2-769.8c47-32.7,126.6-32.7,173.6,0c72.5,48,68.4,17.4,112.3,778.9l40.8,693.2l-15.3,536
		c-8.2,295-22.5,795.3-30.6,1112.8c-29.6,1092.4-33.7,1181.2-50,1211.8C5513.9,15599.3,5428.1,15635,5353.6,15605.4z"/>
	<path d="M3182.2,15412.4c-22.5-13.3-35.7-31.6-42.9-58.2c-6.1-21.4-20.4-309.3-31.6-641.1c-11.2-330.8-30.6-848.4-40.8-1148.5
		c-11.2-300.1-22.5-628.9-26.5-729.9c-5.1-157.2,1-283.8,40.8-867.8c25.5-375.7,52.1-701.4,58.2-722.8
		c20.4-74.5,120.5-104.1,181.7-53.1c16.3,14.3,32.7,34.7,35.7,43.9c5.1,17.4,19.4,185.8,81.7,997.4
		c30.6,409.4,32.7,467.6,25.5,653.4c-5.1,112.3-25.5,601.3-44.9,1087.3c-19.4,486-40.8,995.4-45.9,1132.2
		c-6.1,136.8-15.3,257.3-21.4,268.5c-15.3,28.6-70.4,59.2-106.2,59.2C3229.1,15432.9,3200.5,15423.7,3182.2,15412.4z"/>
	<path d="M2661.5,14913.2c-21.4-14.3-35.7-32.7-42.9-59.2c-6.1-21.4-29.6-450.2-52.1-952.5c-23.5-502.3-45.9-980.1-50-1061.7
		c-7.1-127.6-2-235.8,36.8-770.8c61.3-867.8,58.2-829,81.7-860.6c27.6-36.8,87.8-52.1,123.5-32.7c62.3,35.7,58.2,10.2,121.5,776.9
		l58.2,710.5l-17.4,335.9c-66.4,1254.7-100,1848.9-104.1,1863.1C2798.3,14919.3,2714.6,14946.9,2661.5,14913.2z"/>
	<path d="M1612,14151.6c-14.3-13.3-25.5-30.6-25.5-38.8c0-8.2-9.2-119.4-19.4-248.1c-11.2-128.6-37.8-451.2-58.2-716.7l-38.8-482.9
		l59.2-706.5c54.1-660.5,59.2-707.5,79.6-728.9c28.6-30.6,55.1-37.8,88.8-24.5c54.1,23.5,45.9-34.7,138.8,957.6l48,502.3l-62.3,682
		c-34.7,374.7-65.3,704.4-68.4,732C1742.7,14170,1667.1,14207.8,1612,14151.6z"/>
	<path d="M1097.5,14099.6c-12.3-15.3-21.4-41.9-21.4-59.2c-1-17.4-27.6-332.8-60.2-700.3l-59.2-668.7l61.3-678.9
		c66.4-747.3,62.3-726.9,131.7-733s65.3-23.5,131.7,617.6c32.7,319.5,65.3,630.9,70.4,692.2c11.2,107.2,8.2,146-59.2,814.7
		c-77.6,769.8-72.5,742.2-140.9,742.2C1128.1,14126.1,1112.8,14119,1097.5,14099.6z"/>
	<path d="M2126.5,14055.7c-16.3-16.3-29.6-35.7-29.6-43.9c0-7.1-24.5-314.4-55.1-682l-54.1-668.7l17.4-234.8
		c101.1-1302.7,91.9-1219,149.1-1240.4c41.9-16.3,63.3-12.3,97,18.4l31.6,27.6l34.7,398.2c19.4,219.5,48,541.1,63.3,715.7
		l28.6,316.5l-18.4,199.1c-73.5,809.6-101.1,1101.6-106.2,1136.3C2271.5,14082.2,2184.7,14113.8,2126.5,14055.7z"/>
	<path d="M596.2,13881.1c-11.2-11.2-20.4-27.6-20.4-35.7c0-9.2-27.6-266.5-61.3-572.7c-33.7-305.2-61.3-577.8-61.3-604.4
		c0-102.1,124.6-1160.8,138.8-1183.2c18.4-28.6,65.3-31.6,88.8-5.1c12.3,13.3,32.7,147,84.7,548.2c36.8,292,69.4,563.5,72.5,602.3
		c5.1,77.6-130.7,1204.7-150.1,1240.4C669.7,13906.6,625.8,13910.7,596.2,13881.1z"/>
	<path d="M116.4,13431.9c-11.2-11.2-20.4-24.5-20.4-29.6s-11.2-90.9-24.5-190.9c-13.3-101.1-34.7-264.4-48-364.5L0,12666.2l49-363.4
		c26.5-200.1,51-369.6,53.1-376.7c3.1-7.1,17.4-18.4,31.6-24.5c21.4-9.2,30.6-9.2,50,4.1c29.6,19.4,22.5-14.3,89.8,413.5l55.1,352.2
		l-17.4,107.2c-10.2,59.2-36.8,223.6-58.2,366.5c-40.8,269.5-53.1,307.3-97,307.3C146,13452.3,127.6,13443.1,116.4,13431.9z"/>
</g>
</svg>
