<?xml version="1.0" encoding="utf-8"?>
<!-- Generator: Adobe Illustrator 22.0.1, SVG Export Plug-In . SVG Version: 6.00 Build 0)  -->
<svg version="1.1" id="Layer_1" xmlns="http://www.w3.org/2000/svg" xmlns:xlink="http://www.w3.org/1999/xlink" x="0px" y="0px"
	 viewBox="0 0 1308.1 980.1" style="enable-background:new 0 0 1308.1 980.1;" xml:space="preserve">
<g transform="translate(0.000000,2048.000000) scale(0.100000,-0.100000)">
	<path d="M7742.9,18359.3c-16-2-84-11-150-20c-143-20-349-69-500-120c-125-41-180-67-213-98c-56-50-52,132-52-2626
		c0-2512,0-2551,20-2589c25-49,70-88,120-101c26-7,756-9,2322-7l2283,3l97,21c208,46,388,121,558,230c671,435,911,1310,555,2025
		c-80,162-165,278-300,414c-230,230-501,376-820,441c-70,14-137,18-300,18c-234,0-324-14-511-79l-94-33v34c0,18-7,78-15,134
		c-85,567-346,1091-749,1507c-435,448-961,723-1574,823c-100,17-182,22-387,24C7889.9,18362.3,7759.9,18361.3,7742.9,18359.3z"/>
	<path d="M6432.9,17981.3c-41-18-82-68-94-114c-6-20-15-291-21-602c-13-682-36-1884-50-2520c-9-439-8-490,15-910
		c13-245,29-537,35-650c13-251,19-278,75-329c75-69,187-64,251,12c47,55,38-36,109,1149c16,270,15,339-25,2083c-5,242-14,667-20,945
		c-15,763-17,817-43,863C6622.9,17983.3,6514.9,18017.3,6432.9,17981.3z"/>
	<path d="M5900.9,17676.3c-26-12-52-35-69-60l-27-42l-13-677c-32-1664-44-2360-45-2532c-1-200,45-1279,60-1397c5-42,16-81,27-96
		c78-103,222-95,285,16c20,36,23,76,56,685l35,647l-22,1100c-35,1764-47,2239-55,2260c-17,43-50,78-89,96
		C5991.9,17700.3,5953.9,17699.3,5900.9,17676.3z"/>
	<path d="M4324.9,17310.3c-49-17-74-40-86-79c-5-17-15-206-21-421c-5-214-17-628-25-920c-8-291-22-775-30-1075l-15-546l24-399
		c14-220,32-526,41-680c12-199,21-289,32-312c39-84,161-97,226-26c9,11,21,44,26,74c6,30,29,340,52,689l43,635l-12,430
		c-7,237-19,642-28,900c-8,259-23,735-33,1058c-17,551-20,591-38,615C4436.9,17312.3,4383.9,17331.3,4324.9,17310.3z"/>
	<path d="M4820.9,17235.3c-42-28-62-61-68-112c-3-24-12-311-20-638c-8-327-22-845-30-1150c-30-1144-31-1029,9-1730
		c20-349,38-654,42-678c4-31,15-52,40-77c79-80,214-46,243,61c5,21,29,341,51,709c40,658,41,676,31,980c-5,171-24,807-41,1415
		c-34,1204-32,1168-92,1212C4940.9,17258.3,4862.9,17262.3,4820.9,17235.3z"/>
	<path d="M3780.9,17199.3c-63-31-66-44-75-314c-8-273-27-861-59-1900c-25-778-29-621,40-1676c31-462,30-457,98-489
		c67-32,142-2,167,68c9,27,25,199,45,487c18,245,39,544,48,665c18,242,20,172-42,1930c-13,374-27,781-31,905c-7,259-16,294-77,323
		C3851.9,17219.3,3821.9,17219.3,3780.9,17199.3z"/>
	<path d="M5377.9,17154.3c-33-13-68-47-87-83c-17-32-20-151-74-2371l-10-450l35-668c39-737,34-706,106-754c46-32,124-32,170,0
		c71,47,67,17,110,763l40,679l-15,525c-8,289-22,779-30,1090c-29,1070-33,1157-49,1187
		C5534.9,17148.3,5450.9,17183.3,5377.9,17154.3z"/>
	<path d="M3250.9,16965.3c-22-13-35-31-42-57c-6-21-20-303-31-628c-11-324-30-831-40-1125c-11-294-22-616-26-715
		c-5-154,1-278,40-850c25-368,51-687,57-708c20-73,118-102,178-52c16,14,32,34,35,43c5,17,19,182,80,977c30,401,32,458,25,640
		c-5,110-25,589-44,1065s-40,975-45,1109c-6,134-15,252-21,263c-15,28-69,58-104,58C3296.9,16985.3,3268.9,16976.3,3250.9,16965.3z"
		/>
	<path d="M2740.9,16476.3c-21-14-35-32-42-58c-6-21-29-441-51-933c-23-492-45-960-49-1040c-7-125-2-231,36-755c60-850,57-812,80-843
		c27-36,86-51,121-32c61,35,57,10,119,761l57,696l-17,329c-65,1229-98,1811-102,1825C2874.9,16482.3,2792.9,16509.3,2740.9,16476.3z
		"/>
	<path d="M1712.9,15730.3c-14-13-25-30-25-38s-9-117-19-243c-11-126-37-442-57-702l-38-473l58-692c53-647,58-693,78-714
		c28-30,54-37,87-24c53,23,45-34,136,938l47,492l-61,668c-34,367-64,690-67,717C1840.9,15748.3,1766.9,15785.3,1712.9,15730.3z"/>
	<path d="M1208.9,15679.3c-12-15-21-41-21-58c-1-17-27-326-59-686l-58-655l60-665c65-732,61-712,129-718s64-23,129,605
		c32,313,64,618,69,678c11,105,8,143-58,798c-76,754-71,727-138,727C1238.9,15705.3,1223.9,15698.3,1208.9,15679.3z"/>
	<path d="M2216.9,15636.3c-16-16-29-35-29-43c0-7-24-308-54-668l-53-655l17-230c99-1276,90-1194,146-1215c41-16,62-12,95,18l31,27
		l34,390c19,215,47,530,62,701l28,310l-18,195c-72,793-99,1079-104,1113C2358.9,15662.3,2273.9,15693.3,2216.9,15636.3z"/>
	<path d="M717.9,15465.3c-11-11-20-27-20-35c0-9-27-261-60-561c-33-299-60-566-60-592c0-100,122-1137,136-1159c18-28,64-31,87-5
		c12,13,32,144,83,537c36,286,68,552,71,590c5,76-128,1180-147,1215C789.9,15490.3,746.9,15494.3,717.9,15465.3z"/>
	<path d="M247.9,15025.3c-11-11-20-24-20-29s-11-89-24-187c-13-99-34-259-47-357l-23-177l48-356c26-196,50-362,52-369
		c3-7,17-18,31-24c21-9,30-9,49,4c29,19,22-14,88,405l54,345l-17,105c-10,58-36,219-57,359c-40,264-52,301-95,301
		C276.9,15045.3,258.9,15036.3,247.9,15025.3z"/>
</g>
</svg>
